<svg width="20" height="20" viewBox="0 0 20 20" fill="none" xmlns="http://www.w3.org/2000/svg">
<path d="M2.80298 9.24692V7.79904C2.80298 7.56864 2.8945 7.34768 3.05742 7.18476C3.22034 7.02184 3.4413 6.93032 3.6717 6.93032C3.6717 6.93032 4.22711 6.93032 4.25085 6.93032C4.6092 6.13394 5.03285 5.36858 5.51745 4.6421C5.80682 4.26582 6.2078 3.99073 6.66301 3.85619C7.6829 3.36044 11.8227 3.36044 12.8425 3.85619C13.2978 3.99073 13.6987 4.26582 13.9881 4.6421C14.4727 5.36858 14.8964 6.13394 15.2547 6.93032C15.2784 6.93032 15.8339 6.93032 15.8339 6.93032C16.0643 6.93032 16.2852 7.02184 16.4481 7.18476C16.611 7.34768 16.7026 7.56864 16.7026 7.79904V9.24692C14.4014 8.90002 12.0797 8.70655 9.75278 8.66777C7.4259 8.70655 5.10418 8.90002 2.80298 9.24692ZM16.7026 10.4185V11.5635C16.7026 12.1779 16.4585 12.7672 16.0241 13.2016C15.5896 13.636 15.0004 13.8801 14.386 13.8801H5.11958C4.50518 13.8801 3.91594 13.636 3.48149 13.2016C3.04705 12.7672 2.80298 12.1779 2.80298 11.5635V10.4209C5.10387 10.0691 7.42557 9.87036 9.75278 9.82607C12.08 9.87036 14.4017 10.0691 16.7026 10.4209V10.4185ZM6.27788 12.1427C6.27788 11.9891 6.21686 11.8418 6.10825 11.7331C5.99964 11.6245 5.85233 11.5635 5.69873 11.5635C5.54513 11.5635 5.39782 11.6245 5.28921 11.7331C5.1806 11.8418 5.11958 11.9891 5.11958 12.1427C5.11958 12.2963 5.1806 12.4436 5.28921 12.5522C5.39782 12.6608 5.54513 12.7218 5.69873 12.7218C5.85233 12.7218 5.99964 12.6608 6.10825 12.5522C6.21686 12.4436 6.27788 12.2963 6.27788 12.1427ZM14.386 12.1427C14.386 11.9891 14.325 11.8418 14.2163 11.7331C14.1077 11.6245 13.9604 11.5635 13.8068 11.5635C13.6532 11.5635 13.5059 11.6245 13.3973 11.7331C13.2887 11.8418 13.2277 11.9891 13.2277 12.1427C13.2277 12.2963 13.2887 12.4436 13.3973 12.5522C13.5059 12.6608 13.6532 12.7218 13.8068 12.7218C13.9604 12.7218 14.1077 12.6608 14.2163 12.5522C14.325 12.4436 14.386 12.2963 14.386 12.1427ZM6.82344 15.0384C7.1634 17.3284 3.65433 17.3272 3.99487 15.0384H6.82344ZM15.5107 15.0384C15.8506 17.3284 12.3416 17.3272 12.6821 15.0384H15.5107Z" fill="#2D9C99"/>
</svg>
