<svg width="15" height="14" viewBox="0 0 15 14" fill="none" xmlns="http://www.w3.org/2000/svg">
<path d="M8.66667 9.33338C8.66667 9.9768 8.14342 10.5001 7.5 10.5001C6.85658 10.5001 6.33333 9.9768 6.33333 9.33338C6.33333 8.68997 6.85658 8.16672 7.5 8.16672C8.14342 8.16672 8.66667 8.68997 8.66667 9.33338ZM14.5 7.58338V11.0834C14.5 12.6916 13.1916 14.0001 11.5833 14.0001H3.41667C1.80842 14.0001 0.5 12.6916 0.5 11.0834V7.58338C0.5 5.97513 1.80842 4.66672 3.41667 4.66672H6.9155L6.90967 1.71155L6.16125 2.4553C6.0475 2.56847 5.89875 2.62505 5.75 2.62505C5.60008 2.62505 5.45017 2.5673 5.33642 2.45297C5.10892 2.2243 5.11008 1.85505 5.33875 1.62813L6.61625 0.358218C7.09342 -0.118949 7.871 -0.118949 8.34992 0.359384L9.65542 1.6223C9.88642 1.8463 9.89283 2.21613 9.66883 2.44713C9.44483 2.6793 9.07558 2.68455 8.844 2.46055L8.07633 1.71797L8.08217 4.66672H11.5833C13.1916 4.66672 14.5 5.97513 14.5 7.58338ZM4 11.3751C4 10.8921 3.608 10.5001 3.125 10.5001C2.642 10.5001 2.25 10.8921 2.25 11.3751C2.25 11.8581 2.642 12.2501 3.125 12.2501C3.608 12.2501 4 11.8581 4 11.3751ZM4 7.29172C4 6.80872 3.608 6.41672 3.125 6.41672C2.642 6.41672 2.25 6.80872 2.25 7.29172C2.25 7.77472 2.642 8.16672 3.125 8.16672C3.608 8.16672 4 7.77472 4 7.29172ZM9.83333 9.33338C9.83333 8.04655 8.78683 7.00005 7.5 7.00005C6.21317 7.00005 5.16667 8.04655 5.16667 9.33338C5.16667 10.6202 6.21317 11.6667 7.5 11.6667C8.78683 11.6667 9.83333 10.6202 9.83333 9.33338ZM12.75 11.3751C12.75 10.8921 12.358 10.5001 11.875 10.5001C11.392 10.5001 11 10.8921 11 11.3751C11 11.8581 11.392 12.2501 11.875 12.2501C12.358 12.2501 12.75 11.8581 12.75 11.3751ZM12.75 7.29172C12.75 6.80872 12.358 6.41672 11.875 6.41672C11.392 6.41672 11 6.80872 11 7.29172C11 7.77472 11.392 8.16672 11.875 8.16672C12.358 8.16672 12.75 7.77472 12.75 7.29172Z" fill="#2D9AAD"/>
</svg>
