<svg width="19" height="18" viewBox="0 0 19 18" fill="none" xmlns="http://www.w3.org/2000/svg">
<path d="M10.25 10.9388V4.54125C13.6205 4.9155 16.25 7.78125 16.25 11.2492C16.25 12.8407 15.6958 14.3048 14.771 15.4605L10.25 10.9388ZM2.75 11.2492C2.75 14.9715 5.7785 17.9993 9.5 17.9993C11.0915 17.9993 12.5555 17.4457 13.7105 16.521L8.75 11.5597V4.54125C5.3795 4.9155 2.75 7.78125 2.75 11.2492ZM11.447 3.44625L12.5075 2.38575L10.5605 0.43875C9.97625 -0.14625 9.02375 -0.14625 8.4395 0.43875L6.50675 2.3715L7.56725 3.432L8.75 2.24925V4.54125C8.996 4.51425 9.2465 4.49925 9.5 4.49925C9.7535 4.49925 10.004 4.5135 10.25 4.54125V2.24925L11.447 3.44625Z" fill="white"/>
</svg>
