<svg width="14" height="18" viewBox="0 0 14 18" fill="none" xmlns="http://www.w3.org/2000/svg">
<path d="M9.7476 1.35254C9.73954 1.43619 9.72932 1.52733 9.71245 1.62305C9.62662 2.10962 9.41429 2.70638 8.91362 3.20703C8.38899 3.73163 7.8985 3.93303 7.55913 4.01074C7.52669 4.01816 7.49432 4.021 7.4644 4.02637C7.47201 3.93788 7.48374 3.83993 7.50249 3.73535C7.58346 3.28393 7.78339 2.72788 8.25346 2.25781C8.75146 1.75988 9.26797 1.50792 9.65483 1.37988C9.68649 1.3694 9.71778 1.36141 9.7476 1.35254Z" fill="#0B3657" stroke="#0B3657"/>
<path d="M7.09339 5.50458C6.26413 5.4989 5.75473 4.78288 4.34245 4.78288C3.07168 4.78288 1.79779 5.60276 1.25613 6.39609C0.716981 7.18571 0.25 8.05174 0.25 9.80929C0.25 11.5668 1.09624 14.5895 3.17714 16.6357C3.5335 16.9861 4.00524 17.2495 4.5434 17.2658C5.51133 17.2951 6.10567 16.5706 7.32831 16.5706C8.55095 16.5706 8.91886 17.2658 10.0226 17.2658C10.5246 17.2658 11.097 17.0372 11.6528 16.4461C12.366 15.6876 13.251 14.243 13.7019 12.8574C13.7019 12.8574 11.4444 11.9856 11.4717 9.47249C11.4943 7.38948 13.2632 6.36494 13.2632 6.36494C13.2632 6.36494 12.2301 4.71777 10.0339 4.71777C8.51698 4.72912 7.83771 5.50967 7.09339 5.50458Z" fill="#0B3657"/>
</svg>
