<svg width="16" height="20" viewBox="0 0 16 20" fill="none" xmlns="http://www.w3.org/2000/svg">
<g clip-path="url(#clip0_1596_22714)">
<path d="M15.0301 6.98235C13.8012 7.76471 13.0422 9.10588 13.0422 10.5961C13.0422 12.2725 14.0181 13.8 15.5 14.4333C15.2108 15.402 14.7771 16.2961 14.2349 17.1157C13.4398 18.2706 12.6084 19.4627 11.3795 19.4627C10.1506 19.4627 9.78916 18.7176 8.34337 18.7176C6.93374 18.7176 6.42771 19.5 5.27108 19.5C4.11446 19.5 3.31928 18.4196 2.41566 17.0784C1.22289 15.2157 0.536145 13.0549 0.5 10.7824C0.5 7.09412 2.81325 5.11961 5.12651 5.11961C6.35542 5.11961 7.36747 5.93922 8.12651 5.93922C8.8494 5.93922 10.006 5.08235 11.3795 5.08235C12.8253 5.0451 14.1988 5.75294 15.0301 6.98235ZM10.7289 3.51765C11.3434 2.77255 11.6687 1.84118 11.7048 0.872549C11.7048 0.760784 11.7048 0.611765 11.6687 0.5C10.6205 0.611765 9.64458 1.13333 8.95783 1.95294C8.34337 2.66078 7.98193 3.5549 7.94578 4.52353C7.94578 4.63529 7.94578 4.74706 7.98193 4.85882C8.05422 4.85882 8.16265 4.89608 8.23494 4.89608C9.21084 4.82157 10.1145 4.3 10.7289 3.51765Z" fill="#0D2D2D"/>
</g>
<defs>
<clipPath id="clip0_1596_22714">
<rect width="15" height="19" fill="white" transform="translate(0.5 0.5)"/>
</clipPath>
</defs>
</svg>
