<svg width="16" height="16" viewBox="0 0 16 16" fill="none" xmlns="http://www.w3.org/2000/svg">
<g clip-path="url(#clip0_1596_22736)">
<path d="M14.6641 14.6667H13.9974V9.33267C14.7334 9.33 15.3307 8.73133 15.3307 7.99467C15.3307 7.504 15.0627 7.05333 14.6327 6.82L8.89673 3.69133C8.82206 3.65067 8.7414 3.62933 8.6634 3.6V2.92L10.4201 1.83C10.7501 1.61 10.7427 1.12333 10.4067 0.913333L8.7654 0.143333C8.6154 0.0493333 8.44206 0 8.26473 0C7.7434 0 7.32006 0.422667 7.32006 0.944667V3.33333H7.33006V3.6C7.25206 3.63 7.1714 3.65067 7.09673 3.69133L1.36206 6.82C0.931396 7.054 0.664062 7.50333 0.664062 7.99467C0.664062 8.73133 1.26206 9.33 1.9974 9.33267V14.6667H1.33073C0.962729 14.6667 0.664062 14.9647 0.664062 15.3333C0.664062 15.702 0.962729 16 1.33073 16H14.6641C15.0327 16 15.3307 15.702 15.3307 15.3333C15.3307 14.9647 15.0327 14.6667 14.6641 14.6667ZM7.33073 9.33333V14.6667H5.9974V9.33333H7.33073ZM8.66406 9.33333H9.9974V14.6667H8.66406V9.33333ZM11.3307 9.33333H12.6641V14.6667H11.3307V9.33333ZM3.33073 9.33333H4.66406V14.6667H3.33073V9.33333Z" fill="#0D2D2D"/>
</g>
<defs>
<clipPath id="clip0_1596_22736">
<rect width="16" height="16" fill="white"/>
</clipPath>
</defs>
</svg>
