<svg width="16" height="17" viewBox="0 0 16 17" fill="none" xmlns="http://www.w3.org/2000/svg">
<path d="M3.2002 8.72391C3.2002 8.68297 3.2002 8.6625 3.20132 8.64521C3.2187 8.37792 3.43163 8.16499 3.69892 8.14761C3.71621 8.14648 3.73668 8.14648 3.77762 8.14648H12.2228C12.2637 8.14648 12.2842 8.14648 12.3015 8.14761C12.5688 8.16499 12.7817 8.37792 12.7991 8.64521C12.8002 8.6625 12.8002 8.68297 12.8002 8.72391C12.8002 8.93494 12.8002 9.04045 12.7927 9.15857C12.6814 10.912 11.1911 12.4594 9.44304 12.6364C9.32529 12.6484 9.2566 12.6509 9.11922 12.6561C8.72768 12.6708 8.3465 12.6798 8.0002 12.6798C7.65389 12.6798 7.27271 12.6708 6.88117 12.6561C6.74379 12.6509 6.6751 12.6484 6.55735 12.6364C4.80929 12.4594 3.31898 10.912 3.20769 9.15857C3.2002 9.04045 3.2002 8.93494 3.2002 8.72391Z" stroke="#0D2D2D"/>
<path d="M4.79993 12.4141L4.2666 13.4807" stroke="#0D2D2D" stroke-linecap="round"/>
<path d="M11.2001 12.4141L11.7334 13.4807" stroke="#0D2D2D" stroke-linecap="round"/>
<path d="M2.66699 8.14648H13.3337" stroke="#0D2D2D" stroke-linecap="round"/>
<path d="M2.7002 8.67917C2.7002 8.95531 2.92405 9.17917 3.2002 9.17917C3.47634 9.17917 3.7002 8.95531 3.7002 8.67917H2.7002ZM5.65339 3.61215L6.11763 3.42645V3.42645L5.65339 3.61215ZM5.85558 4.11764L6.07443 4.5672L5.85558 4.11764ZM4.99332 5.04841L5.45658 5.23653L4.99332 5.04841ZM7.24127 4.08068L7.04483 4.54048V4.54048L7.24127 4.08068ZM4.98451 6.408L4.51932 6.5913C4.56892 6.71719 4.66743 6.8176 4.79235 6.8696C4.91727 6.9216 5.05793 6.92075 5.18222 6.86725L4.98451 6.408ZM8.16358 5.03942L8.36129 5.49868C8.60935 5.39188 8.72778 5.1074 8.62877 4.85612L8.16358 5.03942ZM3.2002 8.67917H3.7002V4.08459H3.2002H2.7002V8.67917H3.2002ZM4.47228 2.8125V3.3125C4.78799 3.3125 5.0719 3.50471 5.18915 3.79784L5.65339 3.61215L6.11763 3.42645C5.84851 2.75366 5.1969 2.3125 4.47228 2.3125V2.8125ZM3.2002 4.08459H3.7002C3.7002 3.65818 4.04587 3.3125 4.47228 3.3125V2.8125V2.3125C3.49359 2.3125 2.7002 3.10589 2.7002 4.08459H3.2002ZM5.65339 3.61215L5.18915 3.79784L5.39135 4.30333L5.85558 4.11764L6.31982 3.93194L6.11763 3.42645L5.65339 3.61215ZM4.98451 6.408L5.4497 6.2247C5.32989 5.92065 5.32223 5.56738 5.45658 5.23653L4.99332 5.04841L4.53007 4.86028C4.29592 5.43686 4.3085 6.05627 4.51932 6.5913L4.98451 6.408ZM8.16358 5.03942L7.96587 4.58017L4.7868 5.94875L4.98451 6.408L5.18222 6.86725L8.36129 5.49868L8.16358 5.03942ZM7.24127 4.08068L7.04483 4.54048C7.35009 4.67089 7.57869 4.91893 7.69839 5.22272L8.16358 5.03942L8.62877 4.85612C8.41785 4.32085 8.00545 3.86343 7.4377 3.62088L7.24127 4.08068ZM4.99332 5.04841L5.45658 5.23653C5.58274 4.92588 5.80893 4.69645 6.07443 4.5672L5.85558 4.11764L5.63673 3.66808C5.15233 3.90389 4.7503 4.31795 4.53007 4.86028L4.99332 5.04841ZM5.85558 4.11764L6.07443 4.5672C6.37366 4.42153 6.72231 4.40269 7.04483 4.54048L7.24127 4.08068L7.4377 3.62088C6.83484 3.36333 6.18314 3.40208 5.63673 3.66808L5.85558 4.11764Z" fill="#0D2D2D"/>
</svg>
