<svg width="17" height="17" viewBox="0 0 17 17" fill="none" xmlns="http://www.w3.org/2000/svg">
<path d="M11.8934 12.4133V11.6133M4.42676 12.4133V11.6133" stroke="#0D2D2D" stroke-linecap="round"/>
<path d="M2.82715 9.74648C2.82715 9.24948 2.82715 9.00098 2.90834 8.80496C3.0166 8.54359 3.22426 8.33594 3.48562 8.22768C3.68164 8.14648 3.93014 8.14648 4.42715 8.14648H11.8938C12.3908 8.14648 12.6393 8.14648 12.8353 8.22768C13.0967 8.33594 13.3044 8.54359 13.4126 8.80496C13.4938 9.00098 13.4938 9.24948 13.4938 9.74648C13.4938 10.2435 13.4938 10.492 13.4126 10.688C13.3044 10.9494 13.0967 11.157 12.8353 11.2653C12.6393 11.3465 12.3908 11.3465 11.8938 11.3465H4.42715C3.93014 11.3465 3.68164 11.3465 3.48562 11.2653C3.22426 11.157 3.0166 10.9494 2.90834 10.688C2.82715 10.492 2.82715 10.2435 2.82715 9.74648Z" stroke="#0D2D2D"/>
<path d="M12.9604 8.14557C12.9604 6.13425 12.9604 5.12858 12.3355 4.50375C11.7107 3.87891 10.705 3.87891 8.69369 3.87891H7.62702C5.61569 3.87891 4.61003 3.87891 3.98519 4.50375C3.36035 5.12858 3.36035 6.13425 3.36035 8.14557" stroke="#0D2D2D"/>
<path d="M11.6267 8.14622V7.34622C11.6267 6.34056 11.6267 5.83773 11.3143 5.52531C11.0019 5.21289 10.499 5.21289 9.49336 5.21289H6.82669C5.82103 5.21289 5.3182 5.21289 5.00578 5.52531C4.69336 5.83773 4.69336 6.34056 4.69336 7.34622V8.14622" stroke="#0D2D2D"/>
<path d="M8.16016 5.48047V8.14714" stroke="#0D2D2D"/>
</svg>
