<svg width="24" height="24" viewBox="0 0 24 24" fill="none" xmlns="http://www.w3.org/2000/svg">
<g clip-path="url(#clip0_2165_6724)">
<path d="M16 23C16 23.552 15.553 24 15 24H6C3.243 24 1 21.757 1 19V5C1 2.243 3.243 0 6 0H10.515C12.384 0 14.142 0.728 15.465 2.05L18.949 5.536C19.22 5.807 19.472 6.104 19.697 6.419C20.018 6.868 19.914 7.493 19.465 7.814C19.016 8.134 18.39 8.031 18.07 7.581C17.909 7.356 17.729 7.143 17.536 6.951L14.051 3.465C13.733 3.147 13.38 2.878 13 2.66V7C13 7.551 13.448 8 14 8H17C17.553 8 18 8.448 18 9C18 9.552 17.553 10 17 10H14C12.346 10 11 8.654 11 7V2.023C10.84 2.008 10.678 2 10.515 2H6C4.346 2 3 3.346 3 5V19C3 20.654 4.346 22 6 22H15C15.553 22 16 22.448 16 23ZM21.685 16.267L18.644 15.76C18.271 15.698 18 15.378 18 15C18 14.449 18.448 14 19 14H21.268C21.624 14 21.956 14.192 22.135 14.5C22.41 14.978 23.02 15.141 23.501 14.865C23.979 14.588 24.143 13.977 23.865 13.499C23.331 12.574 22.335 11.999 21.267 11.999H20.999V10.999C20.999 10.447 20.552 9.999 19.999 9.999C19.446 9.999 18.999 10.447 18.999 10.999V11.999C17.345 11.999 15.999 13.345 15.999 14.999C15.999 16.359 16.973 17.509 18.314 17.732L21.355 18.239C21.728 18.301 21.999 18.621 21.999 18.999C21.999 19.55 21.551 19.999 20.999 19.999H18.731C18.375 19.999 18.043 19.807 17.864 19.499C17.589 19.02 16.978 18.857 16.498 19.134C16.02 19.411 15.856 20.022 16.134 20.5C16.668 21.425 17.664 21.999 18.732 21.999H19V22.999C19 23.551 19.447 23.999 20 23.999C20.553 23.999 21 23.551 21 22.999V21.999C22.654 21.999 24 20.653 24 18.999C24 17.639 23.026 16.49 21.685 16.267ZM7.5 15H13C13.553 15 14 14.552 14 14C14 13.448 13.553 13 13 13H7.5C6.122 13 5 14.122 5 15.5V17.5C5 18.878 6.122 20 7.5 20H13C13.553 20 14 19.552 14 19C14 18.448 13.553 18 13 18H7.5C7.224 18 7 17.776 7 17.5V15.5C7 15.224 7.224 15 7.5 15ZM6 11H8C8.552 11 9 10.552 9 10C9 9.448 8.552 9 8 9H6C5.448 9 5 9.448 5 10C5 10.552 5.448 11 6 11ZM6 7H8C8.552 7 9 6.552 9 6C9 5.448 8.552 5 8 5H6C5.448 5 5 5.448 5 6C5 6.552 5.448 7 6 7Z" fill="#28A08C"/>
</g>
<defs>
<clipPath id="clip0_2165_6724">
<rect width="24" height="24" fill="white"/>
</clipPath>
</defs>
</svg>
