<svg width="49" height="48" viewBox="0 0 49 48" fill="none" xmlns="http://www.w3.org/2000/svg">
<path d="M34.3839 33.46C34.7799 31.438 34.1479 29.36 32.6899 27.904L20.5959 15.81C19.1379 14.352 17.0619 13.724 15.0399 14.114C13.0179 14.51 11.3339 15.882 10.5339 17.78L0.92186 40.604C0.0798597 42.61 0.52786 44.896 2.06586 46.434C3.08786 47.456 4.44186 47.996 5.82186 47.996C6.51986 47.996 7.22386 47.86 7.89586 47.576L30.7179 37.966C32.6159 37.168 33.9859 35.482 34.3839 33.46ZM28.3919 32.434L7.09986 41.4L16.0639 20.108L16.3539 20.052L28.4979 32.306C28.4799 32.4 28.4239 32.422 28.3919 32.434ZM26.1859 1.124C27.2219 -0.152 29.0719 -0.372 30.3579 0.646C32.0359 1.97 34.7939 5.472 34.4939 10.192C34.3459 12.504 33.4699 14.732 31.8899 16.814C31.2999 17.594 30.4039 18.002 29.4979 18.002C28.8659 18.002 28.2279 17.802 27.6859 17.392C26.3659 16.39 26.1079 14.508 27.1099 13.188C27.9639 12.062 28.4339 10.924 28.5059 9.81C28.6799 7.09 26.6959 5.404 26.6119 5.334C25.3519 4.284 25.1519 2.4 26.1859 1.126V1.124ZM47.9519 23.272C48.9059 24.626 48.5819 26.498 47.2279 27.452C46.7019 27.824 46.0999 28 45.5019 28C44.5779 28 43.6679 27.574 43.0839 26.78C43.0159 26.696 42.4219 26 41.4999 26C41.0299 26 40.6359 26.124 40.2959 26.38C38.9739 27.376 37.0919 27.114 36.0939 25.792C35.0959 24.47 35.3579 22.588 36.6799 21.59C38.0599 20.548 39.7259 19.998 41.4979 19.998C45.5279 19.998 47.7139 22.934 47.9499 23.27L47.9519 23.272ZM42.4999 3C42.4999 1.344 43.8439 0 45.4999 0C47.1559 0 48.4999 1.344 48.4999 3C48.4999 4.656 47.1559 6 45.4999 6C43.8439 6 42.4999 4.656 42.4999 3ZM38.4999 13C38.4999 11.344 39.8439 10 41.4999 10C43.1559 10 44.4999 11.344 44.4999 13C44.4999 14.656 43.1559 16 41.4999 16C39.8439 16 38.4999 14.656 38.4999 13ZM16.4999 5C16.4999 3.344 17.8439 2 19.4999 2C21.1559 2 22.4999 3.344 22.4999 5C22.4999 6.656 21.1559 8 19.4999 8C17.8439 8 16.4999 6.656 16.4999 5ZM46.4999 37C46.4999 38.656 45.1559 40 43.4999 40C41.8439 40 40.4999 38.656 40.4999 37C40.4999 35.344 41.8439 34 43.4999 34C45.1559 34 46.4999 35.344 46.4999 37ZM2.49986 7C2.49986 5.344 3.84386 4 5.49986 4C7.15586 4 8.49986 5.344 8.49986 7C8.49986 8.656 7.15586 10 5.49986 10C3.84386 10 2.49986 8.656 2.49986 7ZM36.4999 45C36.4999 46.656 35.1559 48 33.4999 48C31.8439 48 30.4999 46.656 30.4999 45C30.4999 43.344 31.8439 42 33.4999 42C35.1559 42 36.4999 43.344 36.4999 45Z" fill="url(#paint0_linear_2165_3153)"/>
<defs>
<linearGradient id="paint0_linear_2165_3153" x1="0.502442" y1="24" x2="48.5009" y2="47.9979" gradientUnits="userSpaceOnUse">
<stop stop-color="#28A08C"/>
<stop offset="1" stop-color="#50CC88"/>
</linearGradient>
</defs>
</svg>
