<svg width="12" height="10" viewBox="0 0 12 10" fill="none" xmlns="http://www.w3.org/2000/svg">
<g clip-path="url(#clip0_1800_20853)">
<path d="M11.9062 4.70008L12.0001 4.78477V4.52736C12.0001 3.96052 11.5853 3.49905 11.0759 3.49905H10.2612C9.69124 1.2237 7.74947 0 4.86083 0C3.02137 0 2.78508 0 1.04306 0C1.04306 0 1.56608 0.421126 1.56608 1.74719L1.56608 3.50038L0.602855 3.50038C0.415637 3.50038 0.239904 3.43103 0.0944449 3.29999L0.000488281 3.2153L0.000488281 3.47271C0.000488281 4.03988 0.415289 4.50102 0.924743 4.50102H1.56643L1.56643 5.50098H0.603203C0.415985 5.50098 0.240252 5.43196 0.0947929 5.30059L0.000836269 5.2159L0.000836269 5.47298C0.000836269 6.03981 0.415637 6.50062 0.925091 6.50062H1.56678L1.56678 8.33083C1.56678 9.61955 1.04375 10 1.04375 10H4.86153C7.84099 10 9.72082 8.76763 10.2686 6.49962H11.3981C11.5853 6.49962 11.7611 6.56864 11.9065 6.69968L12.0005 6.78437V6.52729C12.0005 5.96045 11.5857 5.49932 11.0762 5.49932H10.4185C10.4297 5.3366 10.4356 5.17022 10.4356 4.99917C10.4356 4.82811 10.4293 4.66207 10.4178 4.49935H11.3981C11.585 4.49935 11.7611 4.56837 11.9065 4.69974L11.9062 4.70008ZM3.13064 0.500484L4.72651 0.500484C6.87359 0.500484 8.1173 1.41176 8.48825 3.49938L3.13064 3.50005L3.13064 0.500484ZM4.74008 9.50052H3.13029L3.13029 6.50028L8.48477 6.49962C8.13783 8.38885 7.02079 9.4465 4.74008 9.50052ZM8.60726 5.00017C8.60726 5.17122 8.60344 5.33793 8.59543 5.49998L3.13064 5.50065V4.50068L8.59578 4.50002C8.60343 4.6614 8.60726 4.82778 8.60726 5.00017Z" fill="black"/>
</g>
<defs>
<clipPath id="clip0_1800_20853">
<rect width="12" height="10" fill="white"/>
</clipPath>
</defs>
</svg>
