<svg width="108" height="108" viewBox="0 0 108 108" fill="none" xmlns="http://www.w3.org/2000/svg">
<g filter="url(#filter0_d_2165_3100)">
<path d="M72.75 15H71V13.25C71 11.8576 70.4469 10.5223 69.4623 9.53769C68.4777 8.55312 67.1424 8 65.75 8C64.3576 8 63.0223 8.55312 62.0377 9.53769C61.0531 10.5223 60.5 11.8576 60.5 13.25V15H39.5V13.25C39.5 11.8576 38.9469 10.5223 37.9623 9.53769C36.9777 8.55312 35.6424 8 34.25 8C32.8576 8 31.5223 8.55312 30.5377 9.53769C29.5531 10.5223 29 11.8576 29 13.25V15H27.25C22.1446 15 17.2483 17.0281 13.6382 20.6382C10.0281 24.2483 8 29.1446 8 34.25L8 72.75C8 77.8554 10.0281 82.7517 13.6382 86.3618C17.2483 89.9719 22.1446 92 27.25 92H72.75C77.8554 92 82.7517 89.9719 86.3618 86.3618C89.9719 82.7517 92 77.8554 92 72.75V34.25C92 29.1446 89.9719 24.2483 86.3618 20.6382C82.7517 17.0281 77.8554 15 72.75 15ZM72.75 81.5H27.25C24.9294 81.5 22.7038 80.5781 21.0628 78.9372C19.4219 77.2962 18.5 75.0706 18.5 72.75V43H81.5V72.75C81.5 75.0706 80.5781 77.2962 78.9372 78.9372C77.2962 80.5781 75.0706 81.5 72.75 81.5Z" fill="white" fill-opacity="0.01" shape-rendering="crispEdges"/>
<path d="M65.75 9.25C66.8109 9.25 67.828 9.67173 68.5781 10.4219C69.3283 11.172 69.75 12.1891 69.75 13.25V16.25H72.75C77.5239 16.25 82.1019 18.1468 85.4775 21.5225C88.8532 24.8981 90.75 29.4761 90.75 34.25V72.75C90.75 77.5239 88.8532 82.1019 85.4775 85.4775C82.1019 88.8532 77.5239 90.75 72.75 90.75H27.25C22.4761 90.75 17.8981 88.8532 14.5225 85.4775C11.1468 82.1019 9.25 77.5239 9.25 72.75V34.25C9.25 29.4761 11.1468 24.8981 14.5225 21.5225C17.8981 18.1468 22.4761 16.25 27.25 16.25H30.25V13.25C30.25 12.1891 30.6717 11.172 31.4219 10.4219C32.172 9.67173 33.1891 9.25 34.25 9.25C35.3109 9.25 36.328 9.67173 37.0781 10.4219C37.8283 11.172 38.25 12.1891 38.25 13.25V16.25H61.75V13.25C61.75 12.1891 62.1717 11.172 62.9219 10.4219C63.672 9.67173 64.6891 9.25 65.75 9.25ZM17.25 72.75C17.25 75.4022 18.3033 77.9459 20.1787 79.8213C22.0541 81.6966 24.5978 82.75 27.25 82.75H72.75C75.4022 82.75 77.9459 81.6966 79.8213 79.8213C81.6966 77.9459 82.75 75.4022 82.75 72.75V41.75H17.25V72.75Z" stroke="white" stroke-width="2.5" shape-rendering="crispEdges"/>
</g>
<defs>
<filter id="filter0_d_2165_3100" x="0" y="0" width="108" height="108" filterUnits="userSpaceOnUse" color-interpolation-filters="sRGB">
<feFlood flood-opacity="0" result="BackgroundImageFix"/>
<feColorMatrix in="SourceAlpha" type="matrix" values="0 0 0 0 0 0 0 0 0 0 0 0 0 0 0 0 0 0 127 0" result="hardAlpha"/>
<feOffset dx="4" dy="4"/>
<feGaussianBlur stdDeviation="6"/>
<feComposite in2="hardAlpha" operator="out"/>
<feColorMatrix type="matrix" values="0 0 0 0 0 0 0 0 0 0 0 0 0 0 0 0 0 0 0.02 0"/>
<feBlend mode="normal" in2="BackgroundImageFix" result="effect1_dropShadow_2165_3100"/>
<feBlend mode="normal" in="SourceGraphic" in2="effect1_dropShadow_2165_3100" result="shape"/>
</filter>
</defs>
</svg>
