<svg width="16" height="16" viewBox="0 0 16 16" fill="none" xmlns="http://www.w3.org/2000/svg">
<g clip-path="url(#clip0_1282_22437)">
<path d="M11.9962 1.52412C10.7242 0.387458 9.01485 -0.153875 7.30418 0.039458C4.60285 0.344791 2.39352 2.52146 2.05018 5.21479C1.80085 7.16879 2.47952 9.05479 3.91218 10.3888C4.82885 11.2415 5.33352 12.3221 5.33352 13.4328V13.5401C5.33352 14.8968 6.43685 16.0001 7.79352 16.0001H8.20618C9.56285 16.0001 10.6662 14.8968 10.6662 13.5401V13.1741C10.6662 12.1835 11.1242 11.2368 11.9542 10.5088C13.2542 9.37012 13.9995 7.72679 13.9995 6.00012C13.9995 4.29346 13.2695 2.66212 11.9962 1.52412ZM8.20618 14.6668H7.79352C7.17218 14.6668 6.66685 14.1615 6.66685 13.5401V13.4328C6.66685 13.3995 6.66618 13.3661 6.66552 13.3335H9.33352V13.5401C9.33352 14.1615 8.82752 14.6668 8.20685 14.6668H8.20618ZM11.0755 9.50612C10.2909 10.1941 9.74352 11.0661 9.49152 12.0001H6.45952C6.17952 11.0461 5.62085 10.1568 4.82085 9.41279C3.70685 8.37546 3.17885 6.90679 3.37352 5.38412C3.63952 3.29212 5.35618 1.60212 7.45418 1.36479C7.63952 1.34412 7.82352 1.33346 8.00618 1.33346C9.15618 1.33346 10.2415 1.74479 11.1075 2.51879C12.0982 3.40412 12.6669 4.67279 12.6669 6.00012C12.6669 7.34212 12.0869 8.62012 11.0755 9.50612ZM7.33352 7.33346V4.00012C7.33352 3.63212 7.63152 3.33346 8.00018 3.33346C8.36885 3.33346 8.66685 3.63212 8.66685 4.00012V7.33346C8.66685 7.70146 8.36885 8.00012 8.00018 8.00012C7.63152 8.00012 7.33352 7.70146 7.33352 7.33346ZM9.00018 9.66679C9.00018 10.2188 8.55218 10.6668 8.00018 10.6668C7.44818 10.6668 7.00018 10.2188 7.00018 9.66679C7.00018 9.11479 7.44818 8.66679 8.00018 8.66679C8.55218 8.66679 9.00018 9.11479 9.00018 9.66679Z" fill="#28A08C"/>
</g>
<defs>
<clipPath id="clip0_1282_22437">
<rect width="16" height="16" fill="white"/>
</clipPath>
</defs>
</svg>
