<svg width="38" height="38" viewBox="0 0 38 38" fill="none" xmlns="http://www.w3.org/2000/svg">
<path d="M19 0.5C29.2173 0.5 37.5 8.78273 37.5 19C37.5 29.2173 29.2173 37.5 19 37.5C8.78273 37.5 0.5 29.2173 0.5 19C0.5 8.78273 8.78273 0.5 19 0.5Z" fill="white" fill-opacity="0.3"/>
<path d="M19 0.5C29.2173 0.5 37.5 8.78273 37.5 19C37.5 29.2173 29.2173 37.5 19 37.5C8.78273 37.5 0.5 29.2173 0.5 19C0.5 8.78273 8.78273 0.5 19 0.5Z" stroke="white"/>
<g clip-path="url(#clip0_1800_19730)" filter="url(#filter0_f_1800_19730)">
<path d="M27.9994 22.3754V22.7504H16.7494C16.7029 22.2779 16.7554 21.801 16.9035 21.35C17.0517 20.899 17.2922 20.4838 17.6098 20.1309C17.9273 19.7781 18.315 19.4953 18.7479 19.3007C19.1809 19.106 19.6497 19.0037 20.1244 19.0004H24.6244C25.5195 19.0004 26.378 19.356 27.0109 19.9889C27.6438 20.6218 27.9994 21.4803 27.9994 22.3754ZM23.6494 25.6221C23.5262 25.7042 23.3815 25.748 23.2335 25.748C23.0855 25.748 22.9408 25.7042 22.8177 25.6221L20.7567 24.2504H16.7494C16.703 24.7228 16.7556 25.1997 16.9038 25.6507C17.052 26.1016 17.2925 26.5167 17.61 26.8696C17.9276 27.2224 18.3152 27.5052 18.7481 27.6999C19.181 27.8946 19.6497 27.9969 20.1244 28.0004H24.6244C25.0991 27.997 25.5679 27.8948 26.0009 27.7001C26.4338 27.5055 26.8215 27.2227 27.1391 26.8698C27.4566 26.517 27.6972 26.1018 27.8453 25.6508C27.9934 25.1998 28.0459 24.7228 27.9994 24.2504H25.7119L23.6494 25.6221ZM15.2494 22.3754V24.6254C15.2495 25.8888 15.7425 27.1023 16.6234 28.0079H14.8984C13.9848 28.0068 13.1029 27.6726 12.4181 27.0678C11.7333 26.4631 11.2925 25.6294 11.1784 24.7229L10.0437 15.6794C9.98528 15.3551 9.99833 15.0221 10.0819 14.7034C10.1655 14.3847 10.3176 14.0881 10.5276 13.8342C10.7376 13.5804 11.0005 13.3754 11.2979 13.2336C11.5952 13.0918 11.92 13.0165 12.2494 13.0131H17.2122L17.3419 11.9751C17.4101 11.4313 17.6743 10.9311 18.0852 10.5683C18.496 10.2055 19.0251 10.0052 19.5732 10.0049H21.9994C22.1983 10.0049 22.3891 10.0839 22.5297 10.2246C22.6704 10.3652 22.7494 10.556 22.7494 10.7549C22.7494 10.9538 22.6704 11.1446 22.5297 11.2852C22.3891 11.4259 22.1983 11.5049 21.9994 11.5049H19.5732C18.7557 11.5049 18.8029 12.4386 18.7227 13.0139H20.4994C20.8356 13.0163 21.1671 13.0936 21.4697 13.2401C21.7723 13.3867 22.0384 13.5988 22.2488 13.8612C22.4591 14.1235 22.6083 14.4294 22.6856 14.7566C22.7628 15.0839 22.7662 15.4242 22.6954 15.7529L22.4757 17.5004H20.1244C18.8318 17.5016 17.5926 18.0156 16.6786 18.9296C15.7646 19.8435 15.2506 21.0828 15.2494 22.3754ZM18.5344 14.5139L18.3492 16.0004H21.1542L21.2179 15.4941C21.2528 15.3812 21.2607 15.2617 21.2411 15.1451C21.2216 15.0285 21.175 14.9182 21.1052 14.8228C21.0354 14.7274 20.9443 14.6497 20.8391 14.5958C20.7339 14.5419 20.6176 14.5133 20.4994 14.5124L18.5344 14.5139ZM16.8379 16.0004L17.0247 14.5109H12.2494C12.1374 14.5116 12.0269 14.5373 11.9261 14.5861C11.8252 14.6349 11.7365 14.7055 11.6664 14.7928C11.5962 14.8801 11.5464 14.982 11.5205 15.091C11.4946 15.1999 11.4933 15.3133 11.5167 15.4229L11.5917 16.0004H16.8379Z" fill="#6B7878"/>
</g>
<defs>
<filter id="filter0_f_1800_19730" x="6" y="6" width="26" height="26" filterUnits="userSpaceOnUse" color-interpolation-filters="sRGB">
<feFlood flood-opacity="0" result="BackgroundImageFix"/>
<feBlend mode="normal" in="SourceGraphic" in2="BackgroundImageFix" result="shape"/>
<feGaussianBlur stdDeviation="2" result="effect1_foregroundBlur_1800_19730"/>
</filter>
<clipPath id="clip0_1800_19730">
<rect width="18" height="18" fill="white" transform="translate(10 10)"/>
</clipPath>
</defs>
</svg>
