<svg width="11" height="10" viewBox="0 0 11 10" fill="none" xmlns="http://www.w3.org/2000/svg">
<g clip-path="url(#clip0_1643_16472)">
<path d="M5.31333 9.96581C5.18539 9.96535 5.05908 9.9371 4.94313 9.88302C4.75373 9.79868 4.60163 9.64813 4.51535 9.45961C4.42907 9.27109 4.41455 9.05756 4.47452 8.8591L5.0841 6.84172H3.6478C3.46481 6.84194 3.28431 6.79929 3.12077 6.71719C2.95723 6.63508 2.81519 6.51581 2.70605 6.36893C2.5969 6.22205 2.52369 6.05165 2.49226 5.87138C2.46083 5.6911 2.47207 5.50597 2.52508 5.33082L3.70599 1.42571C3.77797 1.18417 3.92635 0.972488 4.12885 0.82244C4.33136 0.672391 4.57707 0.592068 4.8291 0.593525H6.27126C6.43518 0.593662 6.59663 0.633485 6.74181 0.709589C6.88699 0.785694 7.01159 0.895817 7.10495 1.03055C7.19832 1.16528 7.25767 1.32061 7.27795 1.48327C7.29822 1.64593 7.27881 1.81108 7.22138 1.96461L6.56414 3.71762H7.56268C7.77553 3.7176 7.98437 3.77558 8.16675 3.88531C8.34913 3.99504 8.49818 4.15239 8.59787 4.34045C8.69756 4.52851 8.74413 4.74018 8.73258 4.95271C8.72104 5.16525 8.6518 5.37063 8.53232 5.54678L6.03305 9.56905C5.95579 9.69005 5.84943 9.78976 5.72371 9.85907C5.59799 9.92838 5.4569 9.96508 5.31333 9.96581Z" fill="#0D2D2D"/>
</g>
<defs>
<clipPath id="clip0_1643_16472">
<rect width="9.37228" height="9.37228" fill="white" transform="translate(0.924072 0.593506)"/>
</clipPath>
</defs>
</svg>
