<svg width="25" height="25" viewBox="0 0 25 25" fill="none" xmlns="http://www.w3.org/2000/svg">
<path d="M19.7917 1.04175H5.20833C2.33229 1.04175 0 3.37404 0 6.25008V14.5834C0 17.4595 2.33229 19.7917 5.20833 19.7917H11.4583V21.8751H7.29167C6.71562 21.8751 6.25 22.3417 6.25 22.9167C6.25 23.4917 6.71562 23.9584 7.29167 23.9584H17.7083C18.2844 23.9584 18.75 23.4917 18.75 22.9167C18.75 22.3417 18.2844 21.8751 17.7083 21.8751H13.5417V19.7917H19.7917C22.6677 19.7917 25 17.4595 25 14.5834V6.25008C25 3.37404 22.6677 1.04175 19.7917 1.04175ZM7.08542 15.999C5.09687 15.5313 3.53958 13.8553 3.20104 11.8407C2.7125 8.93341 4.63542 6.373 7.29167 5.83341V10.5053C7.29167 11.0574 7.51146 11.5876 7.90208 11.9782L11.2031 15.2792C10.0646 16.0334 8.61667 16.3584 7.08542 15.999ZM12.676 13.8063L9.68125 10.8115C9.48542 10.6157 9.37604 10.3511 9.37604 10.0751V5.83446C11.7531 6.31675 13.5427 8.41779 13.5427 10.9376C13.5427 11.999 13.2219 12.9834 12.676 13.8063ZM20.8344 15.6251H17.7094C17.1344 15.6251 16.6677 15.1584 16.6677 14.5834C16.6677 14.0084 17.1344 13.5417 17.7094 13.5417H20.8344C21.4094 13.5417 21.876 14.0084 21.876 14.5834C21.876 15.1584 21.4094 15.6251 20.8344 15.6251ZM20.8344 11.4584H17.7094C17.1344 11.4584 16.6677 10.9917 16.6677 10.4167C16.6677 9.84175 17.1344 9.37508 17.7094 9.37508H20.8344C21.4094 9.37508 21.876 9.84175 21.876 10.4167C21.876 10.9917 21.4094 11.4584 20.8344 11.4584ZM20.8344 7.29175H17.7094C17.1344 7.29175 16.6677 6.82508 16.6677 6.25008C16.6677 5.67508 17.1344 5.20841 17.7094 5.20841H20.8344C21.4094 5.20841 21.876 5.67508 21.876 6.25008C21.876 6.82508 21.4094 7.29175 20.8344 7.29175Z" fill="#4E92DA"/>
</svg>
