<svg width="61" height="60" viewBox="0 0 61 60" fill="none" xmlns="http://www.w3.org/2000/svg">
<rect width="61" height="60" rx="30" fill="white" fill-opacity="0.5"/>
<g clip-path="url(#clip0_707_4289)">
<path d="M44.5274 27.6171L44.5281 41.329C44.5281 41.8218 44.1286 41.7663 43.6358 41.7662L36.5342 41.7655C36.0414 41.7655 35.6419 41.8209 35.6418 41.3281L35.6412 27.6162C35.6412 26.934 35.0881 26.3809 34.4058 26.3808C33.3053 26.3807 32.7541 25.0501 33.5322 24.272L39.21 18.5941C39.6923 18.1118 40.4745 18.1119 40.9569 18.5943L46.6358 24.2733C47.4141 25.0515 46.8631 26.382 45.7626 26.3819C45.0804 26.3819 44.5274 26.9349 44.5274 27.6171Z" fill="url(#paint0_linear_707_4289)"/>
<path d="M36.6462 40.761L36.6456 27.6165C36.6455 26.3813 35.6406 25.3764 34.4054 25.3763C34.3032 25.3763 34.2316 25.3283 34.1924 25.2339C34.1533 25.1395 34.17 25.055 34.2424 24.9827L39.9202 19.3048C39.9761 19.249 40.0397 19.2373 40.0832 19.2373C40.1268 19.2373 40.1904 19.249 40.2463 19.3048L45.9252 24.9838C45.9975 25.056 46.0143 25.1406 45.9752 25.235C45.9361 25.3294 45.8645 25.3773 45.7622 25.3773C44.5271 25.3772 43.5224 26.3819 43.5225 27.617L43.5231 40.7616L36.6462 40.761Z" fill="url(#paint1_linear_707_4289)"/>
<path d="M43.6364 41.7661C44.1292 41.7662 44.5287 41.8217 44.5287 41.3289L44.528 27.617C44.528 26.9347 45.0809 26.3818 45.7632 26.3818C46.8637 26.3819 47.4147 25.0514 46.6364 24.2732L40.9575 18.5943C40.7162 18.3531 40.4001 18.2324 40.084 18.2324L40.0856 41.7658L43.6364 41.7661Z" fill="url(#paint2_linear_707_4289)"/>
<path d="M23.9218 41.3271C23.9218 41.8214 23.5205 41.7658 23.0263 41.7658H19.4609V41.7651H15.8962C15.4013 41.7651 15 41.8206 15 41.3264V34.5616C15 34.3296 15.188 34.1416 15.42 34.1416H23.5018C23.7337 34.1416 23.9217 34.3296 23.9217 34.5616L23.9218 41.3271Z" fill="url(#paint3_linear_707_4289)"/>
<path d="M22.9119 34.5789L22.9126 40.7573L19.4603 40.7566H16.0081V34.5782C16.0081 34.429 15.9936 34.2828 15.9648 34.1416H22.9545C22.9263 34.2828 22.9119 34.429 22.9119 34.5789Z" fill="url(#paint4_linear_707_4289)"/>
<path d="M23.9218 34.5789L23.9226 41.3272C23.9226 41.8214 23.5213 41.7659 23.0271 41.7659H19.4617V40.7566L19.4609 34.1416H23.5022C23.7392 34.1416 23.9227 34.3374 23.9219 34.5743C23.9219 34.5759 23.9218 34.5774 23.9218 34.5789Z" fill="url(#paint5_linear_707_4289)"/>
<path d="M33.7564 28.2471C33.9883 28.2471 34.1764 28.4351 34.1763 28.6671L34.1756 41.3269C34.1756 41.8218 33.7744 41.7656 33.2794 41.7663H26.1501C25.6552 41.767 25.2539 41.8225 25.2539 41.3275L25.2546 28.667C25.2546 28.4351 25.4426 28.2471 25.6745 28.2471H33.7564Z" fill="url(#paint6_linear_707_4289)"/>
<path d="M33.1663 28.2471V40.7569H29.714L26.2617 40.7577L26.2624 28.2471H33.1663Z" fill="url(#paint7_linear_707_4289)"/>
<path d="M33.7564 28.2471C33.9884 28.2471 34.1765 28.4351 34.1764 28.6671L34.1757 41.3269C34.1757 41.8218 33.7745 41.7656 33.2795 41.7663H29.7148V40.757L29.7155 28.2471H33.7564Z" fill="url(#paint8_linear_707_4289)"/>
<path d="M44.5289 33.4367V34.9244L36.3945 26.79C36.0998 26.5581 35.9219 26.1906 35.9219 25.6503V24.1086C35.9219 23.033 36.6279 22.6426 37.5507 22.6426C38.1156 22.6426 38.6047 22.7924 38.8958 23.1613L44.5281 28.7936L44.5289 33.4367Z" fill="url(#paint9_linear_707_4289)"/>
<path d="M46.2537 26.285C46.1074 26.3469 45.9424 26.3822 45.7637 26.3822C45.423 26.3822 45.114 26.5205 44.8906 26.7439C44.6673 26.9672 44.5289 27.2763 44.5289 27.6171L44.5296 37.6519L37.8635 30.9865C37.6877 30.8755 37.584 30.6832 37.584 30.5045C37.584 30.4397 37.6056 30.3634 37.638 30.2985L41.4498 22.4689C41.5369 22.2837 41.7105 22.1973 41.9065 22.1973C42.1205 22.1973 42.351 22.3111 42.4684 22.4998L46.2537 26.285Z" fill="url(#paint10_linear_707_4289)"/>
<path d="M44.5278 28.7938L44.5285 33.4369L41.3788 30.2872C41.0842 30.0552 40.9062 29.6878 40.9062 29.1475V27.6058C40.9062 26.7773 41.3248 26.3551 41.9393 26.2052C42.1224 26.1605 42.3233 26.1396 42.5351 26.1396C43.0999 26.1396 43.5891 26.2895 43.8802 26.6584L44.5603 27.3385C44.5386 27.4278 44.5278 27.5214 44.5278 27.6172V28.7938Z" fill="url(#paint11_linear_707_4289)"/>
<path d="M35.9219 25.6506V24.1085C35.9219 23.0334 36.6277 22.6425 37.5508 22.6425C38.4631 22.6425 39.1797 23.0334 39.1797 24.1085V25.6506C39.1797 26.7258 38.463 27.1167 37.5508 27.1167C36.6277 27.1167 35.9219 26.7257 35.9219 25.6506ZM38.0938 24.1085C38.0938 23.7501 37.8874 23.5872 37.5508 23.5872C37.2142 23.5872 37.0187 23.7501 37.0187 24.1085V25.6506C37.0187 26.0089 37.2142 26.1719 37.5508 26.1719C37.8874 26.1719 38.0938 26.009 38.0938 25.6506V24.1085ZM42.5463 22.7728C42.5463 22.838 42.5355 22.9139 42.5029 22.9791L38.6803 30.809C38.6043 30.9719 38.3979 31.0805 38.1916 31.0805C37.8224 31.0805 37.5835 30.7764 37.5835 30.5049C37.5835 30.4398 37.6052 30.3637 37.6378 30.2986L41.4496 22.4688C41.5364 22.2842 41.7102 22.1973 41.9057 22.1973C42.2096 22.1972 42.5463 22.4253 42.5463 22.7728ZM40.9065 29.1474V27.6053C40.9065 26.5302 41.6124 26.1393 42.5354 26.1393C43.4476 26.1393 44.1644 26.5302 44.1644 27.6053V29.1474C44.1644 30.2226 43.4476 30.6135 42.5354 30.6135C41.6124 30.6135 40.9065 30.2226 40.9065 29.1474ZM43.0785 27.6053C43.0785 27.247 42.8722 27.084 42.5355 27.084C42.1988 27.084 42.0034 27.2469 42.0034 27.6053V29.1474C42.0034 29.5058 42.1988 29.6687 42.5355 29.6687C42.8722 29.6687 43.0785 29.5058 43.0785 29.1474V27.6053Z" fill="url(#paint12_linear_707_4289)"/>
</g>
<defs>
<linearGradient id="paint0_linear_707_4289" x1="35.5822" y1="28.1135" x2="48.4405" y2="37.3919" gradientUnits="userSpaceOnUse">
<stop stop-color="#91F27F"/>
<stop offset="1" stop-color="#4AB172"/>
</linearGradient>
<linearGradient id="paint1_linear_707_4289" x1="42.299" y1="31.8372" x2="28.0098" y2="25.117" gradientUnits="userSpaceOnUse">
<stop stop-color="#91F27F" stop-opacity="0"/>
<stop offset="1" stop-color="#FFED82"/>
</linearGradient>
<linearGradient id="paint2_linear_707_4289" x1="43.7464" y1="27.7201" x2="28.579" y2="50.3281" gradientUnits="userSpaceOnUse">
<stop stop-color="#4AB172" stop-opacity="0"/>
<stop offset="1" stop-color="#009145"/>
</linearGradient>
<linearGradient id="paint3_linear_707_4289" x1="16.7558" y1="36.0076" x2="24.4482" y2="41.5583" gradientUnits="userSpaceOnUse">
<stop stop-color="#FF7044"/>
<stop offset="1" stop-color="#F82814"/>
</linearGradient>
<linearGradient id="paint4_linear_707_4289" x1="20.8943" y1="38.1136" x2="12.2973" y2="34.0704" gradientUnits="userSpaceOnUse">
<stop stop-color="#FF7044" stop-opacity="0"/>
<stop offset="1" stop-color="#FFA325"/>
</linearGradient>
<linearGradient id="paint5_linear_707_4289" x1="22.5188" y1="36.5878" x2="15.8742" y2="46.492" gradientUnits="userSpaceOnUse">
<stop stop-color="#F82814" stop-opacity="0"/>
<stop offset="1" stop-color="#C0272D"/>
</linearGradient>
<linearGradient id="paint6_linear_707_4289" x1="26.1887" y1="32.4685" x2="36.2126" y2="39.7016" gradientUnits="userSpaceOnUse">
<stop stop-color="#FFD945"/>
<stop offset="1" stop-color="#FFA325"/>
</linearGradient>
<linearGradient id="paint7_linear_707_4289" x1="31.5546" y1="35.368" x2="20.626" y2="30.2283" gradientUnits="userSpaceOnUse">
<stop stop-color="#FFD945" stop-opacity="0"/>
<stop offset="1" stop-color="#FFED82"/>
</linearGradient>
<linearGradient id="paint8_linear_707_4289" x1="33.3015" y1="32.8523" x2="22.8966" y2="48.3615" gradientUnits="userSpaceOnUse">
<stop stop-color="#FFD945" stop-opacity="0"/>
<stop offset="1" stop-color="#B43759"/>
</linearGradient>
<linearGradient id="paint9_linear_707_4289" x1="41.3001" y1="28.7095" x2="34.0772" y2="23.2866" gradientUnits="userSpaceOnUse">
<stop stop-color="#4AB172" stop-opacity="0"/>
<stop offset="1" stop-color="#009145"/>
</linearGradient>
<linearGradient id="paint10_linear_707_4289" x1="44.0122" y1="30.3157" x2="38.0929" y2="27.0465" gradientUnits="userSpaceOnUse">
<stop stop-color="#4AB172" stop-opacity="0"/>
<stop offset="1" stop-color="#009145"/>
</linearGradient>
<linearGradient id="paint11_linear_707_4289" x1="45.2626" y1="30.8385" x2="41.2613" y2="27.7652" gradientUnits="userSpaceOnUse">
<stop stop-color="#4AB172" stop-opacity="0"/>
<stop offset="1" stop-color="#009145"/>
</linearGradient>
<linearGradient id="paint12_linear_707_4289" x1="39.3659" y1="25.2856" x2="41.3919" y2="29.207" gradientUnits="userSpaceOnUse">
<stop stop-color="#F8F6FB"/>
<stop offset="1" stop-color="#EFDCFB"/>
</linearGradient>
<clipPath id="clip0_707_4289">
<rect width="32" height="32" fill="white" transform="translate(15 14)"/>
</clipPath>
</defs>
</svg>
