<svg width="25" height="24" viewBox="0 0 25 24" fill="none" xmlns="http://www.w3.org/2000/svg">
<g clip-path="url(#clip0_1643_16443)">
<path d="M10.5 10C10.5 10.378 10.771 10.698 11.144 10.76L14.185 11.267C15.527 11.49 16.5 12.64 16.5 14C16.5 15.654 15.154 17 13.5 17V19H11.5V17C9.846 17 8.5 15.654 8.5 14H10.5C10.5 14.551 10.948 15 11.5 15H13.5C14.052 15 14.5 14.551 14.5 14C14.5 13.622 14.229 13.302 13.856 13.24L10.815 12.733C9.473 12.51 8.5 11.36 8.5 10C8.5 8.346 9.846 7 11.5 7V5H13.5V7C15.154 7 16.5 8.346 16.5 10H14.5C14.5 9.449 14.052 9 13.5 9H11.5C10.948 9 10.5 9.449 10.5 10ZM16.807 6.279L17.922 5.164C17.653 4.669 17.5 4.102 17.5 3.5C17.5 1.57 19.07 0 21 0C22.93 0 24.5 1.57 24.5 3.5C24.5 5.43 22.93 7 21 7C20.398 7 19.831 6.847 19.336 6.578L18.019 7.895C17.728 7.274 17.313 6.73 16.807 6.279ZM19.5 3.5C19.5 4.327 20.173 5 21 5C21.827 5 22.5 4.327 22.5 3.5C22.5 2.673 21.827 2 21 2C20.173 2 19.5 2.673 19.5 3.5ZM7.078 5.164L8.193 6.279C7.687 6.73 7.272 7.274 6.981 7.895L5.664 6.578C5.169 6.847 4.602 7 4 7C2.07 7 0.5 5.43 0.5 3.5C0.5 1.57 2.07 0 4 0C5.93 0 7.5 1.57 7.5 3.5C7.5 4.102 7.347 4.669 7.078 5.164ZM4 5C4.827 5 5.5 4.327 5.5 3.5C5.5 2.673 4.827 2 4 2C3.173 2 2.5 2.673 2.5 3.5C2.5 4.327 3.173 5 4 5ZM24.5 20.5C24.5 22.43 22.93 24 21 24C19.07 24 17.5 22.43 17.5 20.5C17.5 19.898 17.653 19.331 17.922 18.836L16.807 17.721C17.313 17.27 17.728 16.726 18.019 16.105L19.336 17.422C19.831 17.153 20.398 17 21 17C22.93 17 24.5 18.57 24.5 20.5ZM22.5 20.5C22.5 19.673 21.827 19 21 19C20.173 19 19.5 19.673 19.5 20.5C19.5 21.327 20.173 22 21 22C21.827 22 22.5 21.327 22.5 20.5ZM8.193 17.721L7.078 18.836C7.347 19.331 7.5 19.898 7.5 20.5C7.5 22.43 5.93 24 4 24C2.07 24 0.5 22.43 0.5 20.5C0.5 18.57 2.07 17 4 17C4.602 17 5.169 17.153 5.664 17.422L6.981 16.105C7.272 16.726 7.687 17.27 8.193 17.721ZM5.5 20.5C5.5 19.673 4.827 19 4 19C3.173 19 2.5 19.673 2.5 20.5C2.5 21.327 3.173 22 4 22C4.827 22 5.5 21.327 5.5 20.5Z" fill="#28A08C"/>
</g>
<defs>
<clipPath id="clip0_1643_16443">
<rect width="24" height="24" fill="white" transform="translate(0.5)"/>
</clipPath>
</defs>
</svg>
