<svg width="25" height="24" viewBox="0 0 25 24" fill="none" xmlns="http://www.w3.org/2000/svg">
<path fill-rule="evenodd" clip-rule="evenodd" d="M10.3004 17.3671C10.3004 17.0315 10.569 16.7595 10.9004 16.7595H14.1004C14.4318 16.7595 14.7004 17.0315 14.7004 17.3671C14.7004 17.7027 14.4318 17.9747 14.1004 17.9747H10.9004C10.569 17.9747 10.3004 17.7027 10.3004 17.3671ZM10.8337 19.3924C10.8337 19.0568 11.1024 18.7848 11.4337 18.7848H13.5671C13.8984 18.7848 14.1671 19.0568 14.1671 19.3924C14.1671 19.728 13.8984 20 13.5671 20H11.4337C11.1024 20 10.8337 19.728 10.8337 19.3924Z" fill="#1C274C"/>
<path d="M8.82886 13.4627L9.71209 14.3045C9.95989 14.5407 10.1004 14.87 10.1004 15.2146C10.1004 15.7323 10.5148 16.1519 11.026 16.1519H13.9748C14.486 16.1519 14.9004 15.7323 14.9004 15.2146C14.9004 14.87 15.0409 14.5407 15.2887 14.3045L16.1719 13.4627C17.4049 12.2785 18.0934 10.7228 18.1003 9.10536L18.1004 9.03742C18.1004 6.27394 15.5932 4 12.5004 4C9.4076 4 6.90039 6.27394 6.90039 9.03742L6.90044 9.10536C6.90739 10.7228 7.59591 12.2785 8.82886 13.4627Z" fill="#1C274C"/>
</svg>
