<svg width="20" height="20" viewBox="0 0 20 20" fill="none" xmlns="http://www.w3.org/2000/svg">
<path d="M2.5 9.375V7.8125C2.5 7.56386 2.59877 7.3254 2.77459 7.14959C2.9504 6.97377 3.18886 6.875 3.4375 6.875C3.4375 6.875 4.03688 6.875 4.0625 6.875C4.44922 6.01557 4.9064 5.18963 5.42937 4.40563C5.74165 3.99956 6.17438 3.70269 6.66563 3.5575C7.76625 3.0225 12.2337 3.0225 13.3344 3.5575C13.8256 3.70269 14.2583 3.99956 14.5706 4.40563C15.0936 5.18963 15.5508 6.01557 15.9375 6.875C15.9631 6.875 16.5625 6.875 16.5625 6.875C16.8111 6.875 17.0496 6.97377 17.2254 7.14959C17.4012 7.3254 17.5 7.56386 17.5 7.8125V9.375C15.0166 9.00064 12.5111 8.79185 10 8.75C7.48891 8.79185 4.98338 9.00064 2.5 9.375ZM17.5 10.6394V11.875C17.5 12.538 17.2366 13.1739 16.7678 13.6428C16.2989 14.1116 15.663 14.375 15 14.375H5C4.33696 14.375 3.70107 14.1116 3.23223 13.6428C2.76339 13.1739 2.5 12.538 2.5 11.875V10.6419C4.98305 10.2622 7.48855 10.0478 10 10C12.5114 10.0478 15.017 10.2622 17.5 10.6419V10.6394ZM6.25 12.5C6.25 12.3342 6.18415 12.1753 6.06694 12.0581C5.94973 11.9408 5.79076 11.875 5.625 11.875C5.45924 11.875 5.30027 11.9408 5.18306 12.0581C5.06585 12.1753 5 12.3342 5 12.5C5 12.6658 5.06585 12.8247 5.18306 12.9419C5.30027 13.0592 5.45924 13.125 5.625 13.125C5.79076 13.125 5.94973 13.0592 6.06694 12.9419C6.18415 12.8247 6.25 12.6658 6.25 12.5ZM15 12.5C15 12.3342 14.9342 12.1753 14.8169 12.0581C14.6997 11.9408 14.5408 11.875 14.375 11.875C14.2092 11.875 14.0503 11.9408 13.9331 12.0581C13.8158 12.1753 13.75 12.3342 13.75 12.5C13.75 12.6658 13.8158 12.8247 13.9331 12.9419C14.0503 13.0592 14.2092 13.125 14.375 13.125C14.5408 13.125 14.6997 13.0592 14.8169 12.9419C14.9342 12.8247 15 12.6658 15 12.5ZM6.83875 15.625C7.20563 18.0963 3.41875 18.095 3.78625 15.625H6.83875ZM16.2137 15.625C16.5806 18.0963 12.7938 18.095 13.1613 15.625H16.2137Z" fill="white"/>
</svg>
