<svg width="20" height="20" viewBox="0 0 20 20" fill="none" xmlns="http://www.w3.org/2000/svg">
<path d="M14.9925 3.58008H5.0046C4.05889 3.58121 3.15224 3.95739 2.48353 4.62611C1.81481 5.29482 1.43863 6.20147 1.4375 7.14717H18.5596C18.5584 6.20147 18.1822 5.29482 17.5135 4.62611C16.8448 3.95739 15.9382 3.58121 14.9925 3.58008Z" fill="#0D2D2D"/>
<path d="M1.4375 12.8528C1.43863 13.7985 1.81481 14.7051 2.48353 15.3738C3.15224 16.0426 4.05889 16.4187 5.0046 16.4199H14.9925C15.9382 16.4187 16.8448 16.0426 17.5135 15.3738C18.1822 14.7051 18.5584 13.7985 18.5596 12.8528V8.57227H1.4375V12.8528ZM6.43143 12.4961C6.43143 12.7077 6.36867 12.9146 6.25109 13.0906C6.1335 13.2666 5.96637 13.4037 5.77083 13.4847C5.57529 13.5657 5.36012 13.5869 5.15253 13.5456C4.94495 13.5043 4.75427 13.4024 4.60461 13.2528C4.45495 13.1031 4.35303 12.9124 4.31174 12.7048C4.27045 12.4973 4.29164 12.2821 4.37264 12.0866C4.45363 11.891 4.59079 11.7239 4.76677 11.6063C4.94276 11.4887 5.14965 11.4259 5.36131 11.4259C5.64512 11.4259 5.91731 11.5387 6.118 11.7394C6.31869 11.9401 6.43143 12.2123 6.43143 12.4961Z" fill="#0D2D2D"/>
</svg>
