<svg width="20" height="20" viewBox="0 0 20 20" fill="none" xmlns="http://www.w3.org/2000/svg">
<path d="M2.80273 9.24692V7.79904C2.80273 7.56864 2.89426 7.34768 3.05718 7.18476C3.2201 7.02184 3.44106 6.93032 3.67146 6.93032C3.67146 6.93032 4.22686 6.93032 4.25061 6.93032C4.60896 6.13394 5.0326 5.36858 5.51721 4.6421C5.80658 4.26582 6.20756 3.99073 6.66277 3.85619C7.68265 3.36044 11.8224 3.36044 12.8423 3.85619C13.2975 3.99073 13.6985 4.26582 13.9879 4.6421C14.4725 5.36858 14.8961 6.13394 15.2545 6.93032C15.2782 6.93032 15.8336 6.93032 15.8336 6.93032C16.064 6.93032 16.285 7.02184 16.4479 7.18476C16.6108 7.34768 16.7023 7.56864 16.7023 7.79904V9.24692C14.4011 8.90002 12.0794 8.70655 9.75253 8.66777C7.42566 8.70655 5.10393 8.90002 2.80273 9.24692ZM16.7023 10.4185V11.5635C16.7023 12.1779 16.4583 12.7672 16.0238 13.2016C15.5894 13.636 15.0001 13.8801 14.3857 13.8801H5.11933C4.50493 13.8801 3.9157 13.636 3.48125 13.2016C3.0468 12.7672 2.80273 12.1779 2.80273 11.5635V10.4209C5.10362 10.0691 7.42533 9.87036 9.75253 9.82607C12.0797 9.87036 14.4014 10.0691 16.7023 10.4209V10.4185ZM6.27763 12.1427C6.27763 11.9891 6.21662 11.8418 6.108 11.7331C5.99939 11.6245 5.85208 11.5635 5.69848 11.5635C5.54488 11.5635 5.39757 11.6245 5.28896 11.7331C5.18035 11.8418 5.11933 11.9891 5.11933 12.1427C5.11933 12.2963 5.18035 12.4436 5.28896 12.5522C5.39757 12.6608 5.54488 12.7218 5.69848 12.7218C5.85208 12.7218 5.99939 12.6608 6.108 12.5522C6.21662 12.4436 6.27763 12.2963 6.27763 12.1427ZM14.3857 12.1427C14.3857 11.9891 14.3247 11.8418 14.2161 11.7331C14.1075 11.6245 13.9602 11.5635 13.8066 11.5635C13.653 11.5635 13.5057 11.6245 13.3971 11.7331C13.2884 11.8418 13.2274 11.9891 13.2274 12.1427C13.2274 12.2963 13.2884 12.4436 13.3971 12.5522C13.5057 12.6608 13.653 12.7218 13.8066 12.7218C13.9602 12.7218 14.1075 12.6608 14.2161 12.5522C14.3247 12.4436 14.3857 12.2963 14.3857 12.1427ZM6.82319 15.0384C7.16315 17.3284 3.65408 17.3272 3.99462 15.0384H6.82319ZM15.5104 15.0384C15.8504 17.3284 12.3413 17.3272 12.6819 15.0384H15.5104Z" fill="#2D9C99"/>
</svg>
