<svg width="41" height="40" viewBox="0 0 41 40" fill="none" xmlns="http://www.w3.org/2000/svg">
<g clip-path="url(#clip0_2143_4303)">
<path d="M40 14.1667C40 13.5036 39.7366 12.8677 39.2678 12.3989C38.7989 11.9301 38.163 11.6667 37.5 11.6667C37.5 11.6667 36.5267 11.6667 36.4583 11.68C35.2121 9.37089 33.7842 7.1645 32.1883 5.08167C31.3556 3.99883 30.2017 3.20717 28.8917 2.82C25.9567 1.39333 14.0433 1.39333 11.1083 2.82C9.79834 3.20717 8.6444 3.99883 7.81167 5.08167C6.21575 7.1645 4.78792 9.37089 3.54167 11.68C3.47333 11.6667 2.5 11.6667 2.5 11.6667C1.83696 11.6667 1.20107 11.9301 0.732233 12.3989C0.263392 12.8677 0 13.5036 0 14.1667L0 25C0.00032223 26.1699 0.308517 27.3192 0.893623 28.3323C1.47873 29.3454 2.32014 30.1867 3.33333 30.7717V33.3333C3.33333 34.6594 3.86012 35.9312 4.7978 36.8689C5.73548 37.8066 7.00725 38.3333 8.33333 38.3333C9.65942 38.3333 10.9312 37.8066 11.8689 36.8689C12.8065 35.9312 13.3333 34.6594 13.3333 33.3333V31.6667H26.6667V33.3333C26.6667 34.6594 27.1934 35.9312 28.1311 36.8689C29.0688 37.8066 30.3406 38.3333 31.6667 38.3333C32.9927 38.3333 34.2645 37.8066 35.2022 36.8689C36.1399 35.9312 36.6667 34.6594 36.6667 33.3333V30.7717C37.6799 30.1867 38.5213 29.3454 39.1064 28.3323C39.6915 27.3192 39.9997 26.1699 40 25V14.1667ZM10.4567 7.11C10.865 6.58345 11.4289 6.1991 12.0683 6.01167C14.6 4.76 25.4017 4.76 27.9317 6.01167C28.5711 6.1991 29.135 6.58345 29.5433 7.11C32.0744 10.4288 34.1588 14.0654 35.7433 17.9267C25.3031 16.4033 14.6969 16.4033 4.25667 17.9267C5.84117 14.0654 7.92564 10.4288 10.4567 7.11ZM10 33.3333C10 33.7754 9.8244 34.1993 9.51184 34.5118C9.19928 34.8244 8.77536 35 8.33333 35C7.89131 35 7.46738 34.8244 7.15482 34.5118C6.84226 34.1993 6.66667 33.7754 6.66667 33.3333V31.6667H10V33.3333ZM33.3333 33.3333C33.3333 33.7754 33.1577 34.1993 32.8452 34.5118C32.5326 34.8244 32.1087 35 31.6667 35C31.2246 35 30.8007 34.8244 30.4882 34.5118C30.1756 34.1993 30 33.7754 30 33.3333V31.6667H33.3333V33.3333ZM33.3333 28.3333H6.66667C5.78261 28.3333 4.93476 27.9821 4.30964 27.357C3.68452 26.7319 3.33333 25.8841 3.33333 25V21.4283C8.85126 20.5848 14.419 20.1076 20 20C25.581 20.1076 31.1487 20.5848 36.6667 21.4283V25C36.6667 25.8841 36.3155 26.7319 35.6904 27.357C35.0652 27.9821 34.2174 28.3333 33.3333 28.3333ZM10 25C10 25.442 9.8244 25.866 9.51184 26.1785C9.19928 26.4911 8.77536 26.6667 8.33333 26.6667C7.89131 26.6667 7.46738 26.4911 7.15482 26.1785C6.84226 25.866 6.66667 25.442 6.66667 25C6.66667 24.558 6.84226 24.1341 7.15482 23.8215C7.46738 23.5089 7.89131 23.3333 8.33333 23.3333C8.77536 23.3333 9.19928 23.5089 9.51184 23.8215C9.8244 24.1341 10 24.558 10 25ZM33.3333 25C33.3333 25.442 33.1577 25.866 32.8452 26.1785C32.5326 26.4911 32.1087 26.6667 31.6667 26.6667C31.2246 26.6667 30.8007 26.4911 30.4882 26.1785C30.1756 25.866 30 25.442 30 25C30 24.558 30.1756 24.1341 30.4882 23.8215C30.8007 23.5089 31.2246 23.3333 31.6667 23.3333C32.1087 23.3333 32.5326 23.5089 32.8452 23.8215C33.1577 24.1341 33.3333 24.558 33.3333 25Z" fill="url(#paint0_linear_2143_4303)"/>
</g>
<defs>
<linearGradient id="paint0_linear_2143_4303" x1="1.49012e-07" y1="20.0417" x2="38.4948" y2="41.0866" gradientUnits="userSpaceOnUse">
<stop stop-color="#28A08C"/>
<stop offset="1" stop-color="#50CC88"/>
</linearGradient>
<clipPath id="clip0_2143_4303">
<rect width="40" height="40" fill="white" transform="translate(0.5)"/>
</clipPath>
</defs>
</svg>
