<svg width="27" height="27" viewBox="0 0 27 27" fill="none" xmlns="http://www.w3.org/2000/svg">
<path d="M0 13.5C0 6.3203 5.8203 0.5 13 0.5H14C21.1797 0.5 27 6.3203 27 13.5C27 20.6797 21.1797 26.5 14 26.5H13C5.8203 26.5 0 20.6797 0 13.5Z" fill="white"/>
<g clip-path="url(#clip0_141_2704)">
<path d="M17 19.5H15C13.6215 19.5 12.5 18.3785 12.5 17V10C12.5 8.6215 13.6215 7.5 15 7.5H17C18.3785 7.5 19.5 8.6215 19.5 10V17C19.5 18.3785 18.3785 19.5 17 19.5ZM11 18V9.5C11 9.224 10.776 9 10.5 9C10.224 9 10 9.224 10 9.5V18C10 18.276 10.224 18.5 10.5 18.5C10.776 18.5 11 18.276 11 18ZM8.5 16.5V11C8.5 10.724 8.276 10.5 8 10.5C7.724 10.5 7.5 10.724 7.5 11V16.5C7.5 16.776 7.724 17 8 17C8.276 17 8.5 16.776 8.5 16.5Z" fill="#0F504A"/>
</g>
<defs>
<clipPath id="clip0_141_2704">
<rect width="12" height="12" fill="white" transform="translate(7.5 7.5)"/>
</clipPath>
</defs>
</svg>
