<svg width="14" height="14" viewBox="0 0 14 14" fill="none" xmlns="http://www.w3.org/2000/svg">
<path d="M4.88831 7.00152L6.29414 8.41319L9.11164 5.58984" stroke="#199E83" stroke-width="1.5" stroke-linecap="round" stroke-linejoin="round"/>
<path d="M6.27081 1.43C6.67331 1.08583 7.33247 1.08583 7.74081 1.43L8.66247 2.22333C8.83747 2.375 9.16414 2.4975 9.39747 2.4975H10.3891C11.0075 2.4975 11.515 3.005 11.515 3.62333V4.615C11.515 4.8425 11.6375 5.175 11.7891 5.35L12.5825 6.27166C12.9266 6.67416 12.9266 7.33333 12.5825 7.74166L11.7891 8.66333C11.6375 8.83833 11.515 9.16499 11.515 9.39833V10.39C11.515 11.0083 11.0075 11.5158 10.3891 11.5158H9.39747C9.16997 11.5158 8.83747 11.6383 8.66247 11.79L7.74081 12.5833C7.33831 12.9275 6.67914 12.9275 6.27081 12.5833L5.34914 11.79C5.17414 11.6383 4.84747 11.5158 4.61414 11.5158H3.60497C2.98664 11.5158 2.47914 11.0083 2.47914 10.39V9.39249C2.47914 9.16499 2.35664 8.83833 2.21081 8.66333L1.42331 7.73583C1.08497 7.33333 1.08497 6.67999 1.42331 6.27749L2.21081 5.35C2.35664 5.175 2.47914 4.84833 2.47914 4.62083V3.6175C2.47914 2.99917 2.98664 2.49167 3.60497 2.49167H4.61414C4.84164 2.49167 5.17414 2.36917 5.34914 2.2175L6.27081 1.43Z" stroke="#199E83" stroke-width="1.5" stroke-linecap="round" stroke-linejoin="round"/>
</svg>
