<svg width="24" height="24" viewBox="0 0 24 24" fill="none" xmlns="http://www.w3.org/2000/svg">
<g clip-path="url(#clip0_2217_8442)">
<path d="M13 20C14.3256 19.9984 15.5964 19.4711 16.5338 18.5338C17.4711 17.5965 17.9984 16.3256 18 15V6.24302C18.0016 5.71738 17.8988 5.19665 17.6976 4.71104C17.4964 4.22542 17.2008 3.78456 16.828 3.41402L14.586 1.17202C14.2155 0.799191 13.7746 0.50362 13.289 0.302438C12.8034 0.101255 12.2826 -0.00153795 11.757 1.73896e-05H7C5.67441 0.00160525 4.40356 0.528899 3.46622 1.46624C2.52888 2.40358 2.00159 3.67442 2 5.00002V15C2.00159 16.3256 2.52888 17.5965 3.46622 18.5338C4.40356 19.4711 5.67441 19.9984 7 20H13ZM4 15V5.00002C4 4.20437 4.31607 3.44131 4.87868 2.8787C5.44129 2.31609 6.20435 2.00002 7 2.00002C7 2.00002 11.919 2.01402 12 2.02402V4.00002C12 4.53045 12.2107 5.03916 12.5858 5.41423C12.9609 5.7893 13.4696 6.00002 14 6.00002H15.976C15.986 6.08102 16 15 16 15C16 15.7957 15.6839 16.5587 15.1213 17.1213C14.5587 17.6839 13.7956 18 13 18H7C6.20435 18 5.44129 17.6839 4.87868 17.1213C4.31607 16.5587 4 15.7957 4 15ZM22 8.00002V19C21.9984 20.3256 21.4711 21.5965 20.5338 22.5338C19.5964 23.4711 18.3256 23.9984 17 24H8C7.73478 24 7.48043 23.8947 7.29289 23.7071C7.10536 23.5196 7 23.2652 7 23C7 22.7348 7.10536 22.4804 7.29289 22.2929C7.48043 22.1054 7.73478 22 8 22H17C17.7956 22 18.5587 21.6839 19.1213 21.1213C19.6839 20.5587 20 19.7957 20 19V8.00002C20 7.7348 20.1054 7.48045 20.2929 7.29291C20.4804 7.10537 20.7348 7.00002 21 7.00002C21.2652 7.00002 21.5196 7.10537 21.7071 7.29291C21.8946 7.48045 22 7.7348 22 8.00002Z" fill="#28A08C"/>
</g>
<defs>
<clipPath id="clip0_2217_8442">
<rect width="24" height="24" fill="white"/>
</clipPath>
</defs>
</svg>
