<svg width="20" height="20" viewBox="0 0 20 20" fill="none" xmlns="http://www.w3.org/2000/svg">
<path fill-rule="evenodd" clip-rule="evenodd" d="M6.22222 3.33325H13.7778C13.9841 3.33325 14.0873 3.33325 14.1743 3.34124C15.1412 3.42999 15.9078 4.23428 15.9924 5.24873C16 5.34 16 5.44825 16 5.66476V15.5064C16 16.0881 15.2942 16.335 14.9615 15.8696C14.7308 15.5468 14.2692 15.5468 14.0385 15.8696L13.75 16.2731C13.375 16.7977 12.625 16.7977 12.25 16.2731C11.875 15.7486 11.125 15.7486 10.75 16.2731C10.375 16.7977 9.625 16.7977 9.25 16.2731C8.875 15.7486 8.125 15.7486 7.75 16.2731C7.375 16.7977 6.625 16.7977 6.25 16.2731L5.96154 15.8696C5.73077 15.5468 5.26923 15.5468 5.03846 15.8696C4.7058 16.335 4 16.0881 4 15.5064V5.66476C4 5.44825 4 5.34 4.00761 5.24873C4.0922 4.23428 4.85879 3.42999 5.82569 3.34124C5.91268 3.33325 6.01586 3.33325 6.22222 3.33325ZM9.02023 6.9797C8.82497 6.78444 8.50839 6.78444 8.31312 6.9797C8.11786 7.17496 8.11786 7.49154 8.31312 7.68681L9.29291 8.66659L8.31314 9.64637C8.11787 9.84163 8.11787 10.1582 8.31314 10.3535C8.5084 10.5487 8.82498 10.5487 9.02024 10.3535L10 9.3737L10.9798 10.3535C11.175 10.5487 11.4916 10.5487 11.6869 10.3535C11.8821 10.1582 11.8821 9.84162 11.6869 9.64635L10.7071 8.66659L11.6869 7.68682C11.8822 7.49155 11.8822 7.17497 11.6869 6.97971C11.4916 6.78445 11.1751 6.78445 10.9798 6.97971L10 7.95948L9.02023 6.9797ZM7 11.8333C6.72386 11.8333 6.5 12.0571 6.5 12.3333C6.5 12.6094 6.72386 12.8333 7 12.8333H13C13.2761 12.8333 13.5 12.6094 13.5 12.3333C13.5 12.0571 13.2761 11.8333 13 11.8333H7Z" fill="white"/>
</svg>
