<svg width="25" height="24" viewBox="0 0 25 24" fill="none" xmlns="http://www.w3.org/2000/svg">
<path d="M18.6501 13.6745L18.7968 12.3107C18.8751 11.5831 18.9268 11.1026 18.8862 10.7999L18.9004 10.8C19.5631 10.8 20.1004 10.2627 20.1004 9.59999C20.1004 8.93725 19.5631 8.39999 18.9004 8.39999C18.2376 8.39999 17.7004 8.93725 17.7004 9.59999C17.7004 9.89972 17.8103 10.1738 17.992 10.3841C17.7311 10.5451 17.3901 10.8848 16.8768 11.3961C16.4813 11.79 16.2836 11.987 16.063 12.0175C15.9408 12.0344 15.8163 12.017 15.7034 11.9673C15.4997 11.8776 15.3639 11.6341 15.0923 11.1472L13.6608 8.58031C13.4932 8.27989 13.353 8.02844 13.2265 7.82611C13.7452 7.56148 14.1004 7.02222 14.1004 6.39999C14.1004 5.51633 13.384 4.79999 12.5004 4.79999C11.6167 4.79999 10.9004 5.51633 10.9004 6.39999C10.9004 7.02222 11.2556 7.56149 11.7743 7.82611C11.6478 8.02846 11.5076 8.27986 11.34 8.58031L9.90844 11.1472L9.90843 11.1472C9.63684 11.6341 9.50104 11.8776 9.29736 11.9673C9.1845 12.017 9.05997 12.0344 8.93775 12.0175C8.71717 11.987 8.51944 11.79 8.12399 11.3961C7.61068 10.8848 7.26964 10.5451 7.00882 10.3841C7.1905 10.1738 7.30039 9.89972 7.30039 9.59999C7.30039 8.93725 6.76313 8.39999 6.10039 8.39999C5.43765 8.39999 4.90039 8.93725 4.90039 9.59999C4.90039 10.2627 5.43765 10.8 6.10039 10.8L6.11456 10.7999C6.074 11.1026 6.12568 11.5831 6.20395 12.3107L6.35063 13.6745C6.43205 14.4314 6.49976 15.1517 6.58269 15.8H18.4181C18.501 15.1517 18.5687 14.4314 18.6501 13.6745Z" fill="#28A08C"/>
<path d="M11.63 19.2H13.3707C15.6395 19.2 16.7739 19.2 17.5307 18.5225C17.8611 18.2268 18.0703 17.6937 18.2212 17H6.77956C6.93051 17.6937 7.1397 18.2268 7.47005 18.5225C8.22693 19.2 9.3613 19.2 11.63 19.2Z" fill="#28A08C"/>
</svg>
