<svg width="18" height="18" viewBox="0 0 18 18" fill="none" xmlns="http://www.w3.org/2000/svg">
<g clip-path="url(#clip0_1596_22825)">
<path d="M6.09825 14.2552C6.09825 14.6242 5.79825 14.925 5.4285 14.925H4.125L4.11525 13.5862H5.42925C5.79825 13.5862 6.099 13.8862 6.099 14.2552H6.09825ZM9.75 13.125C9.75 15.8175 7.5675 18 4.875 18C2.1825 18 0 15.8175 0 13.125C0 10.4325 2.1825 8.25 4.875 8.25C7.5675 8.25 9.75 10.4325 9.75 13.125ZM7.29825 14.2552C7.29825 13.7047 6.9375 13.125 6.50475 12.873C6.711 12.5872 6.8355 12.24 6.8355 11.8612C6.8355 11.0317 6.23325 10.3447 5.4555 10.1722L5.454 9.375H4.254L4.24875 10.125H3V16.125H4.275V16.875H5.475V16.125L5.64825 16.1032C6.576 15.9937 7.29825 15.2122 7.29825 14.2552ZM5.63475 11.8605C5.63475 11.565 5.394 11.3242 5.0985 11.3242H4.125V12.3855H5.1555C5.42325 12.3555 5.63475 12.1365 5.63475 11.8605ZM12.375 16.5375C11.667 16.5375 11.0047 16.4505 10.3807 16.323C10.1137 16.7812 9.7935 17.205 9.4245 17.5815C10.284 17.8657 11.289 18.0375 12.375 18.0375C15.4815 18.0375 18 16.6942 18 15.0375V13.5375C18 15.1942 15.4815 16.5375 12.375 16.5375ZM12.375 5.99925C15.4815 5.99925 18 4.656 18 2.99925C18 1.3425 15.4815 0 12.375 0C9.2685 0 6.75 1.34325 6.75 3C6.75 4.65675 9.2685 5.99925 12.375 5.99925ZM12.375 10.5375C11.7592 10.5375 11.1712 10.4797 10.6163 10.3822C10.8532 10.8765 11.0295 11.403 11.133 11.9572C11.5343 12.006 11.9467 12.0375 12.375 12.0375C15.4815 12.0375 18 10.6942 18 9.0375V7.5375C18 9.19425 15.4815 10.5375 12.375 10.5375ZM12.375 7.49925C9.2685 7.49925 6.75 6.156 6.75 4.49925V5.99925C6.75 7.656 9.2685 8.99925 12.375 8.99925C15.4815 8.99925 18 7.656 18 5.99925V4.49925C18 6.156 15.4815 7.49925 12.375 7.49925ZM12.375 13.5375C11.982 13.5375 11.6025 13.5097 11.2327 13.4685C11.2058 13.974 11.124 14.4652 10.9845 14.9332C11.4315 14.994 11.892 15.0375 12.375 15.0375C15.4815 15.0375 18 13.6942 18 12.0375V10.5375C18 12.1942 15.4815 13.5375 12.375 13.5375Z" fill="#8A4BDC"/>
</g>
<defs>
<clipPath id="clip0_1596_22825">
<rect width="18" height="18" fill="white"/>
</clipPath>
</defs>
</svg>
