<svg width="24" height="24" viewBox="0 0 24 24" fill="none" xmlns="http://www.w3.org/2000/svg">
<path d="M23.359 9.8C23.758 9.28855 23.9814 8.66209 23.9962 8.01358C24.011 7.36508 23.8163 6.72909 23.441 6.2L19.91 1.257C19.6325 0.86832 19.2663 0.551492 18.8417 0.332861C18.4171 0.11423 17.9465 0.000113137 17.469 0L6.53097 0C6.05342 0.000113137 5.58279 0.11423 5.15823 0.332861C4.73366 0.551492 4.36743 0.86832 4.08997 1.257L0.558969 6.2C0.184411 6.72953 -0.00958598 7.36564 0.00572414 8.01407C0.0210343 8.6625 0.244837 9.28874 0.643969 9.8L12 24.108L23.359 9.8ZM7.25297 9L10.053 18.432L2.56197 9H7.25297ZM21.438 9L13.952 18.432L16.747 9H21.438ZM14.661 9L12 17.979L9.33897 9H14.661ZM9.32597 7L10.754 2H13.246L14.674 7H9.32597ZM18.283 2.419L21.555 7H16.755L15.326 2H17.469C17.6282 1.99998 17.7852 2.038 17.9267 2.11088C18.0683 2.18376 18.1905 2.28939 18.283 2.419ZM5.71697 2.419C5.80949 2.28939 5.93162 2.18376 6.0732 2.11088C6.21479 2.038 6.37173 1.99998 6.53097 2H8.67397L7.24597 7H2.44597L5.71697 2.419Z" fill="#F9F9F9"/>
</svg>
