<svg width="16" height="17" viewBox="0 0 16 17" fill="none" xmlns="http://www.w3.org/2000/svg">
<g clip-path="url(#clip0_41_2999)">
<path d="M16 15.1667C16 15.3435 15.9298 15.5131 15.8047 15.6381C15.6797 15.7631 15.5101 15.8333 15.3333 15.8333H0.666667C0.489856 15.8333 0.320286 15.7631 0.195262 15.6381C0.0702379 15.5131 0 15.3435 0 15.1667C0 14.9899 0.0702379 14.8203 0.195262 14.6953C0.320286 14.5703 0.489856 14.5 0.666667 14.5H15.3333C15.5101 14.5 15.6797 14.5703 15.8047 14.6953C15.9298 14.8203 16 14.9899 16 15.1667ZM1.33333 13.1667H14.6667C14.8435 13.1667 15.013 13.0964 15.1381 12.9714C15.2631 12.8464 15.3333 12.6768 15.3333 12.5V11.8333C15.3309 10.0049 14.6461 8.24319 13.4131 6.89309C12.18 5.543 10.4874 4.70174 8.66667 4.53401V3.64868C8.92086 3.50192 9.11952 3.27539 9.23184 3.00422C9.34416 2.73305 9.36387 2.4324 9.2879 2.14889C9.21194 1.86537 9.04454 1.61485 8.81168 1.43617C8.57882 1.25749 8.29351 1.16064 8 1.16064C7.70649 1.16064 7.42118 1.25749 7.18832 1.43617C6.95546 1.61485 6.78807 1.86537 6.7121 2.14889C6.63613 2.4324 6.65584 2.73305 6.76816 3.00422C6.88048 3.27539 7.07914 3.50192 7.33333 3.64868V4.53401C5.51259 4.70174 3.82001 5.543 2.58694 6.89309C1.35386 8.24319 0.669088 10.0049 0.666667 11.8333V12.5C0.666667 12.6768 0.736905 12.8464 0.861929 12.9714C0.986953 13.0964 1.15652 13.1667 1.33333 13.1667Z" fill="white"/>
</g>
<defs>
<clipPath id="clip0_41_2999">
<rect width="16" height="16" fill="white" transform="translate(0 0.5)"/>
</clipPath>
</defs>
</svg>
