<svg width="14" height="12" viewBox="0 0 14 12" fill="none" xmlns="http://www.w3.org/2000/svg">
<g clip-path="url(#clip0_1376_11518)">
<path d="M13.8905 5.64009L14.0001 5.74172V5.43283C14.0001 4.75263 13.5161 4.19886 12.9218 4.19886H11.9714C11.3064 1.46844 9.04097 0 5.67089 0C3.52485 0 3.24918 0 1.21682 0C1.21682 0 1.82702 0.505352 1.82702 2.09663V4.20046H0.703249C0.484829 4.20046 0.279806 4.11724 0.110104 3.95999L0.000488281 3.85836V4.16725C0.000488281 4.84785 0.484423 5.40122 1.07879 5.40122H1.82742V6.60118H0.703655C0.485235 6.60118 0.280212 6.51836 0.11051 6.36071L0.000894267 6.25908V6.56757C0.000894267 7.24777 0.484829 7.80074 1.07919 7.80074H1.82783V9.997C1.82783 11.5435 1.21763 12 1.21763 12H5.6717C9.14775 12 11.3409 10.5212 11.9799 7.79954H13.2977C13.5161 7.79954 13.7212 7.88236 13.8909 8.03961L14.0005 8.14124V7.83275C14.0005 7.15255 13.5166 6.59918 12.9222 6.59918H12.1549C12.1679 6.40392 12.1748 6.20426 12.1748 5.999C12.1748 5.79374 12.1675 5.59448 12.1541 5.39922H13.2977C13.5157 5.39922 13.7212 5.48204 13.8909 5.63969L13.8905 5.64009ZM3.65233 0.60058H5.51418C8.01911 0.60058 9.4701 1.69411 9.90288 4.19926L3.65233 4.20006V0.60058ZM5.53001 11.4006H3.65192V7.80034L9.89882 7.79954C9.49405 10.0666 8.19084 11.3358 5.53001 11.4006ZM10.0417 6.0002C10.0417 6.20546 10.0373 6.40552 10.0279 6.59998L3.65233 6.60078V5.40082L10.0283 5.40002C10.0373 5.59368 10.0417 5.79334 10.0417 6.0002Z" fill="#28A08C"/>
</g>
<defs>
<clipPath id="clip0_1376_11518">
<rect width="14" height="12" fill="white"/>
</clipPath>
</defs>
</svg>
