<svg width="14" height="12" viewBox="0 0 14 12" fill="none" xmlns="http://www.w3.org/2000/svg">
<g clip-path="url(#clip0_1606_3685)">
<path d="M1.2362 0.0137931C1.2418 0.022069 1.2726 0.0593103 1.302 0.0951724C1.5162 0.346207 1.6772 0.754483 1.764 1.26897C1.8214 1.6069 1.8242 1.7131 1.8242 3.00138V4.20138H1.239C0.7042 4.20138 0.6426 4.19862 0.5376 4.17793C0.3724 4.14345 0.2016 4.05103 0.0868 3.93241C-0.0042 3.83724 -0.0014 3.83172 0.0042 4.12C0.0112 4.35862 0.014 4.38483 0.049 4.51448C0.105 4.72 0.182 4.8731 0.2982 5.00966C0.4564 5.19724 0.6174 5.30207 0.847 5.37241C0.896 5.38621 0.9996 5.39172 1.3664 5.39448L1.8242 5.40138V5.99862V6.59724L1.1788 6.5931L0.5306 6.58897L0.4186 6.54483C0.2856 6.49241 0.2254 6.45379 0.0952 6.33931L0 6.25517L0.0056 6.51862C0.0126 6.76276 0.014 6.79034 0.049 6.91448C0.1708 7.3531 0.4648 7.66621 0.8526 7.76828C0.9492 7.79448 0.987 7.79586 1.3916 7.80138L1.8242 7.8069V9.04276C1.8242 9.78897 1.82 10.3393 1.813 10.4331C1.806 10.5186 1.7836 10.6786 1.764 10.7903C1.673 11.3048 1.5092 11.6924 1.274 11.9434L1.2264 11.9945H3.5938C5.0092 11.9945 6.0676 11.989 6.223 11.9821C6.496 11.9683 7.105 11.909 7.2422 11.88C7.2856 11.8717 7.3668 11.8593 7.42 11.851C7.5334 11.8345 7.721 11.7959 7.9912 11.7283C8.372 11.6345 8.7192 11.5172 9.0594 11.3683C9.1658 11.3214 9.471 11.1683 9.5522 11.12C9.5956 11.0952 9.6474 11.0648 9.667 11.0552C9.7216 11.0262 9.8126 10.9683 9.9456 10.8745C10.0114 10.8276 10.0772 10.7821 10.0912 10.7724C10.15 10.7338 10.353 10.5669 10.4454 10.4828C10.7968 10.1641 11.0908 9.80966 11.319 9.43034C11.3512 9.37517 11.3932 9.30621 11.4114 9.27724C11.4576 9.2 11.648 8.81379 11.6662 8.75586C11.6746 8.72966 11.6858 8.70207 11.6914 8.69655C11.7278 8.64966 11.9378 7.99862 11.963 7.85655C11.9714 7.81103 11.9756 7.80414 12.0106 7.79724C12.033 7.7931 12.3592 7.7931 12.7358 7.79586C13.489 7.80138 13.489 7.80138 13.6556 7.87724C13.7494 7.92 13.7774 7.93931 13.881 8.03172C14.0168 8.15172 14.0042 8.17103 13.9958 7.87034C13.9902 7.69379 13.9832 7.58483 13.9706 7.54069C13.923 7.37103 13.9118 7.33517 13.8698 7.24965C13.7326 6.95448 13.503 6.74345 13.209 6.64276L13.0942 6.60138L12.6266 6.59586L12.1604 6.58897L12.166 6.42759C12.1716 6.21517 12.1716 5.79448 12.1646 5.57793L12.159 5.40414L12.7834 5.40138C13.3182 5.39862 13.4176 5.40138 13.4764 5.41655C13.6528 5.46483 13.7718 5.53103 13.9174 5.66207L13.9986 5.73655V5.53241C13.9986 5.28966 13.986 5.18207 13.9356 5.02207C13.8362 4.69793 13.6402 4.45655 13.3602 4.30759C13.1782 4.21103 13.167 4.20828 12.5412 4.20414C12.1744 4.20138 11.9826 4.19586 11.9728 4.18759C11.9644 4.17931 11.9574 4.16552 11.9574 4.15448C11.9574 4.14345 11.9364 4.05655 11.9084 3.96276C11.5808 2.82207 10.969 1.91586 10.0744 1.24414C9.9526 1.15172 9.6544 0.957241 9.534 0.891034C9.4878 0.864828 9.4374 0.837241 9.4248 0.828965C9.366 0.797241 9.0286 0.634483 8.9446 0.6C8.8942 0.577931 8.8284 0.550345 8.799 0.53931C8.3048 0.328276 7.476 0.128276 6.8432 0.0662069C6.7396 0.0565517 6.6024 0.0413793 6.5394 0.0358621C6.2538 0.00413793 5.8576 0 3.6078 0C1.7066 0 1.2292 0.00413793 1.2362 0.0137931ZM5.866 0.611034C6.3392 0.638621 6.6304 0.674483 6.9706 0.755862C8.0094 0.998621 8.7402 1.51172 9.2708 2.36966C9.3198 2.44966 9.527 2.86621 9.5578 2.95034C9.7048 3.34069 9.7762 3.57241 9.8392 3.87862C9.8546 3.9531 9.8756 4.05241 9.8854 4.09931C9.8952 4.14483 9.8994 4.18759 9.8952 4.19172C9.8882 4.19724 8.4826 4.2 6.769 4.19862L3.654 4.19586L3.6498 2.42345C3.6484 1.44966 3.6498 0.64 3.654 0.624828L3.6596 0.598621H4.655C5.201 0.598621 5.747 0.604138 5.866 0.611034ZM10.031 5.44276C10.0408 5.50207 10.0408 6.50897 10.031 6.55862L10.0226 6.59586L6.8376 6.5931L3.654 6.58897L3.6512 6.00414C3.6484 5.68276 3.6512 5.41517 3.654 5.40966C3.6582 5.40276 5.0148 5.39862 6.8418 5.39862H10.0226L10.031 5.44276ZM9.8882 7.81103C9.8952 7.83172 9.8616 8.00138 9.793 8.27724C9.7146 8.58759 9.6082 8.90069 9.5004 9.13241C9.4472 9.25103 9.3142 9.50759 9.282 9.55586C9.2666 9.57793 9.2218 9.64828 9.1826 9.71034C8.9306 10.0993 8.5708 10.4538 8.1606 10.7159C8.0108 10.8097 7.7028 10.9697 7.6202 10.9945C7.6034 10.9986 7.5852 11.0069 7.5782 11.0124C7.5684 11.0207 7.441 11.0676 7.2926 11.12C7.0196 11.2152 6.5002 11.3186 6.083 11.3614C5.8128 11.3876 5.7694 11.389 4.7292 11.389H3.6526V9.6V7.80966L6.7452 7.80414C8.4462 7.80138 9.8476 7.79724 9.8588 7.79448C9.8714 7.7931 9.884 7.80138 9.8882 7.81103Z" fill="#F5F5F9"/>
</g>
<defs>
<clipPath id="clip0_1606_3685">
<rect width="14" height="12" fill="white"/>
</clipPath>
</defs>
</svg>
