<svg width="18" height="18" viewBox="0 0 18 18" fill="none" xmlns="http://www.w3.org/2000/svg">
<path d="M14.9625 4.155L12.345 1.5375C11.355 0.5475 10.035 0 8.6325 0H5.25C3.18 0 1.5 1.68 1.5 3.75V14.25C1.5 16.32 3.18 18 5.25 18H12.75C14.82 18 16.5 16.32 16.5 14.25V7.8675C16.5 6.465 15.9525 5.145 14.9625 4.155ZM13.905 5.2125C14.145 5.4525 14.3475 5.715 14.5125 6H11.2575C10.845 6 10.5075 5.6625 10.5075 5.25V1.995C10.7925 2.16 11.055 2.3625 11.295 2.6025L13.9125 5.22L13.905 5.2125ZM15 14.25C15 15.4875 13.9875 16.5 12.75 16.5H5.25C4.0125 16.5 3 15.4875 3 14.25V3.75C3 2.5125 4.0125 1.5 5.25 1.5H8.6325C8.7525 1.5 8.88 1.5 9 1.515V5.25C9 6.4875 10.0125 7.5 11.25 7.5H14.985C15 7.62 15 7.74 15 7.8675V14.25ZM5.3175 9.75H4.5C4.0875 9.75 3.75 10.0875 3.75 10.5V13.83C3.75 14.0925 3.96 14.295 4.215 14.295C4.47 14.295 4.68 14.085 4.68 13.83V12.915H5.31C6.195 12.915 6.915 12.2025 6.915 11.3325C6.915 10.4625 6.195 9.75 5.31 9.75H5.3175ZM5.3175 11.9775H4.695V10.6875H5.325C5.685 10.6875 5.9925 10.98 5.9925 11.3325C5.9925 11.685 5.685 11.9775 5.325 11.9775H5.3175ZM14.265 10.2225C14.265 10.485 14.055 10.6875 13.8 10.6875H12.5325V11.5425H13.4625C13.725 11.5425 13.9275 11.7525 13.9275 12.0075C13.9275 12.2625 13.7175 12.4725 13.4625 12.4725H12.5325V13.8225C12.5325 14.085 12.3225 14.2875 12.0675 14.2875C11.8125 14.2875 11.6025 14.0775 11.6025 13.8225V10.215C11.6025 9.9525 11.8125 9.75 12.0675 9.75H13.8C14.0625 9.75 14.265 9.96 14.265 10.215V10.2225ZM9.0675 9.7575H8.25C7.8375 9.7575 7.5 10.095 7.5 10.5075V13.8375C7.5 14.1 7.71 14.2575 7.965 14.2575C8.22 14.2575 9.06 14.2575 9.06 14.2575C9.945 14.2575 10.665 13.545 10.665 12.675V11.34C10.665 10.47 9.945 9.7575 9.06 9.7575H9.0675ZM9.735 12.675C9.735 13.0275 9.4275 13.32 9.0675 13.32H8.445V10.695H9.075C9.435 10.695 9.7425 10.9875 9.7425 11.34V12.675H9.735Z" fill="black"/>
</svg>
