<svg width="49" height="48" viewBox="0 0 49 48" fill="none" xmlns="http://www.w3.org/2000/svg">
<g clip-path="url(#clip0_2165_1169)">
<path d="M42.5401 38.1018V27.9998C42.5401 18.0738 34.4661 9.9998 24.5401 9.9998C14.6141 9.9998 6.54006 18.0738 6.54006 27.9998V38.1018C3.15606 38.5918 0.540063 41.4838 0.540063 44.9998C0.540063 46.6558 1.88406 47.9998 3.54006 47.9998H45.5401C47.1961 47.9998 48.5401 46.6558 48.5401 44.9998C48.5401 41.4838 45.9241 38.5918 42.5401 38.1018ZM24.5401 15.9998C31.1581 15.9998 36.5401 21.3818 36.5401 27.9998V37.9998H12.5401V27.9998C12.5401 21.3818 17.9221 15.9998 24.5401 15.9998ZM1.41806 11.1218C0.246063 9.9498 0.246063 8.0518 1.41806 6.8798C2.59006 5.7078 4.48806 5.7078 5.66006 6.8798L8.66006 9.8798C9.83206 11.0518 9.83206 12.9498 8.66006 14.1218C8.07406 14.7078 7.30606 14.9998 6.53806 14.9998C5.77006 14.9998 5.00206 14.7078 4.41606 14.1218L1.41806 11.1218ZM10.6941 3.9498C10.1701 2.3778 11.0181 0.677802 12.5901 0.155802C14.1621 -0.366198 15.8621 0.481802 16.3841 2.0518L17.3841 5.0518C17.9081 6.6238 17.0601 8.3238 15.4881 8.8458C15.1741 8.9518 14.8541 8.9998 14.5381 8.9998C13.2821 8.9998 12.1101 8.2058 11.6921 6.9498L10.6941 3.9498ZM40.4181 14.1218C39.2461 12.9498 39.2461 11.0518 40.4181 9.8798L43.4181 6.8798C44.5901 5.7078 46.4881 5.7078 47.6601 6.8798C48.8321 8.0518 48.8321 9.9498 47.6601 11.1218L44.6601 14.1218C44.0741 14.7078 43.3061 14.9998 42.5381 14.9998C41.7701 14.9998 41.0041 14.7078 40.4181 14.1218ZM31.6941 5.0518L32.6941 2.0518C33.2161 0.481802 34.9141 -0.372198 36.4881 0.155802C38.0601 0.679802 38.9081 2.3778 38.3841 3.9498L37.3841 6.9498C36.9661 8.2058 35.7941 8.9998 34.5381 8.9998C34.2241 8.9998 33.9041 8.9518 33.5881 8.8458C32.0161 8.3218 31.1681 6.6238 31.6921 5.0518H31.6941ZM16.5401 27.0018C16.5401 23.1418 19.6801 20.0018 23.5401 20.0018C25.1961 20.0018 26.5401 21.3458 26.5401 23.0018C26.5401 24.6578 25.1961 26.0018 23.5401 26.0018C22.9901 26.0018 22.5401 26.4518 22.5401 27.0018C22.5401 28.6578 21.1961 30.0018 19.5401 30.0018C17.8841 30.0018 16.5401 28.6578 16.5401 27.0018Z" fill="url(#paint0_linear_2165_1169)"/>
</g>
<defs>
<linearGradient id="paint0_linear_2165_1169" x1="0.539063" y1="23.9997" x2="48.5398" y2="48.0004" gradientUnits="userSpaceOnUse">
<stop stop-color="#28A08C"/>
<stop offset="1" stop-color="#50CC88"/>
</linearGradient>
<clipPath id="clip0_2165_1169">
<rect width="48" height="48" fill="white" transform="translate(0.5)"/>
</clipPath>
</defs>
</svg>
