<?xml version="1.0" encoding="UTF-8"?>
<svg xmlns="http://www.w3.org/2000/svg" xmlns:xlink="http://www.w3.org/1999/xlink" width="60px" height="60px" viewBox="0 0 60 60" version="1.1">
<g id="surface1">
<path style=" stroke:none;fill-rule:nonzero;fill:rgb(0%,0%,0%);fill-opacity:1;" d="M 22.5 7.5 C 22.5 8.878906 21.378906 10 20 10 L 12.5 10 C 11.121094 10 10 11.121094 10 12.5 L 10 20 C 10 21.378906 8.878906 22.5 7.5 22.5 C 6.121094 22.5 5 21.378906 5 20 L 5 12.5 C 5 8.359375 8.359375 5 12.5 5 L 20 5 C 21.378906 5 22.5 6.121094 22.5 7.5 Z M 5 47.5 C 5 51.640625 8.359375 55 12.5 55 L 20 55 C 21.378906 55 22.5 53.878906 22.5 52.5 C 22.5 51.121094 21.378906 50 20 50 L 12.5 50 C 11.121094 50 10 48.878906 10 47.5 L 10 40 C 10 38.621094 8.878906 37.5 7.5 37.5 C 6.121094 37.5 5 38.621094 5 40 Z M 52.5 37.5 C 51.121094 37.5 50 38.621094 50 40 L 50 47.5 C 50 48.878906 48.878906 50 47.5 50 L 40 50 C 38.621094 50 37.5 51.121094 37.5 52.5 C 37.5 53.878906 38.621094 55 40 55 L 47.5 55 C 51.640625 55 55 51.640625 55 47.5 L 55 40 C 55 38.621094 53.878906 37.5 52.5 37.5 Z M 47.5 5 L 40 5 C 38.621094 5 37.5 6.121094 37.5 7.5 C 37.5 8.878906 38.621094 10 40 10 L 47.5 10 C 48.878906 10 50 11.121094 50 12.5 L 50 20 C 50 21.378906 51.121094 22.5 52.5 22.5 C 53.878906 22.5 55 21.378906 55 20 L 55 12.5 C 55 8.359375 51.640625 5 47.5 5 Z M 20 22.5 L 20 20 C 20 18.621094 18.878906 17.5 17.5 17.5 C 16.121094 17.5 15 18.621094 15 20 L 15 22.5 C 15 23.878906 16.121094 25 17.5 25 C 18.878906 25 20 23.878906 20 22.5 Z M 45 22.5 L 45 20 C 45 18.621094 43.878906 17.5 42.5 17.5 C 41.121094 17.5 40 18.621094 40 20 L 40 22.5 C 40 23.878906 41.121094 25 42.5 25 C 43.878906 25 45 23.878906 45 22.5 Z M 21.9375 35.921875 C 21.066406 34.851562 19.488281 34.691406 18.421875 35.5625 C 17.351562 36.433594 17.191406 38.011719 18.0625 39.078125 C 20.898438 42.808594 25.316406 44.996094 30 44.996094 C 34.683594 44.996094 39.101562 42.808594 41.9375 39.078125 C 42.808594 38.011719 42.648438 36.433594 41.578125 35.5625 C 40.511719 34.691406 38.933594 34.851562 38.0625 35.921875 C 36.179688 38.488281 33.183594 40.003906 30 40.003906 C 26.816406 40.003906 23.820312 38.488281 21.9375 35.921875 Z M 27.5 17.5 C 26.121094 17.5 25 18.621094 25 20 L 25 27.523438 C 25.015625 31.65625 28.367188 35 32.5 35 C 33.878906 34.992188 34.996094 33.867188 34.988281 32.488281 C 34.980469 31.105469 33.855469 29.992188 32.476562 30 C 31.109375 30 30 28.890625 30 27.523438 L 30 20 C 30 18.621094 28.878906 17.5 27.5 17.5 Z M 27.5 17.5 "/>
</g>
</svg>
