<svg width="16" height="16" viewBox="0 0 16 16" fill="none" xmlns="http://www.w3.org/2000/svg">
<g clip-path="url(#clip0_2217_7222)">
<path d="M8 16C6.41775 16 4.87104 15.5308 3.55544 14.6518C2.23985 13.7727 1.21447 12.5233 0.608967 11.0615C0.00346629 9.59966 -0.15496 7.99113 0.153721 6.43928C0.462403 4.88743 1.22433 3.46197 2.34315 2.34315C3.46197 1.22433 4.88743 0.462403 6.43928 0.153721C7.99113 -0.15496 9.59966 0.00346629 11.0615 0.608967C12.5233 1.21447 13.7727 2.23985 14.6518 3.55544C15.5308 4.87104 16 6.41775 16 8C15.9977 10.121 15.1541 12.1545 13.6543 13.6543C12.1545 15.1541 10.121 15.9977 8 16ZM8 1.33334C6.68146 1.33334 5.39253 1.72433 4.2962 2.45687C3.19987 3.18942 2.34539 4.23061 1.84081 5.44878C1.33622 6.66695 1.2042 8.0074 1.46144 9.30061C1.71867 10.5938 2.35361 11.7817 3.28596 12.714C4.21831 13.6464 5.4062 14.2813 6.6994 14.5386C7.99261 14.7958 9.33305 14.6638 10.5512 14.1592C11.7694 13.6546 12.8106 12.8001 13.5431 11.7038C14.2757 10.6075 14.6667 9.31855 14.6667 8C14.6647 6.23249 13.9617 4.53792 12.7119 3.2881C11.4621 2.03828 9.76752 1.33528 8 1.33334Z" fill="#28A08C"/>
<path d="M8.66683 9.99971H7.3335V9.50437C7.32365 9.03399 7.43987 8.56954 7.67011 8.15924C7.90035 7.74893 8.23621 7.40773 8.64283 7.17104C8.88915 7.03538 9.08626 6.82531 9.206 6.57087C9.32574 6.31643 9.36196 6.03064 9.3095 5.75437C9.25755 5.49118 9.12832 5.24944 8.93833 5.06003C8.74833 4.87063 8.50619 4.74216 8.24283 4.69104C8.05064 4.65547 7.85299 4.66258 7.66386 4.71188C7.47472 4.76118 7.29874 4.85146 7.14838 4.97632C6.99801 5.10118 6.87693 5.25757 6.79371 5.43442C6.7105 5.61127 6.66718 5.80426 6.66683 5.99971H5.3335C5.33366 5.52938 5.45822 5.06746 5.69453 4.66081C5.93085 4.25416 6.27051 3.91724 6.67906 3.68423C7.08762 3.45122 7.55053 3.33042 8.02084 3.33406C8.49116 3.33771 8.95214 3.46569 9.35703 3.705C9.76193 3.94432 10.0963 4.28646 10.3263 4.69673C10.5563 5.107 10.6737 5.5708 10.6665 6.04107C10.6594 6.51135 10.528 6.97137 10.2857 7.37448C10.0434 7.77759 9.69879 8.10944 9.28683 8.33637C9.08999 8.45944 8.92905 8.63219 8.82021 8.83724C8.71136 9.04228 8.65846 9.27238 8.66683 9.50437V9.99971Z" fill="#28A08C"/>
<path d="M8.66683 11.333H7.3335V12.6663H8.66683V11.333Z" fill="#28A08C"/>
</g>
<defs>
<clipPath id="clip0_2217_7222">
<rect width="16" height="16" fill="white"/>
</clipPath>
</defs>
</svg>
