<svg width="25" height="24" viewBox="0 0 25 24" fill="none" xmlns="http://www.w3.org/2000/svg">
<path d="M7.50039 3.2C7.83176 3.2 8.10039 3.46863 8.10039 3.8V5.28L9.47693 5.00469C10.7973 4.74061 12.1661 4.86627 13.4163 5.36637L13.5792 5.43154C14.8282 5.93111 16.2028 6.0244 17.5077 5.69816C18.1136 5.54671 18.7004 6.0049 18.7004 6.62935V12.523C18.7004 13.0384 18.3496 13.4877 17.8495 13.6127L17.678 13.6556C16.2623 14.0095 14.7712 13.9083 13.4163 13.3664C12.1661 12.8663 10.7973 12.7406 9.47693 13.0047L8.10039 13.28V19.8C8.10039 20.1314 7.83176 20.4 7.50039 20.4C7.16902 20.4 6.90039 20.1314 6.90039 19.8V3.8C6.90039 3.46863 7.16902 3.2 7.50039 3.2Z" fill="#1C274C"/>
</svg>
