<svg width="14" height="14" viewBox="0 0 14 14" fill="none" xmlns="http://www.w3.org/2000/svg">
<g clip-path="url(#clip0_202_9976)">
<path d="M9.02897 10.1952C9.02897 9.38271 8.47051 8.27229 7.45814 7.06817C7.40211 7.00132 7.33194 6.94775 7.25269 6.91131C7.17345 6.87488 7.0871 6.85648 6.99989 6.85746C6.91203 6.85706 6.82514 6.8758 6.74525 6.91237C6.66537 6.94895 6.59441 7.00248 6.5373 7.06925C5.42905 8.36763 4.88739 9.51596 4.9811 10.3962C5.01797 10.6745 5.11341 10.9418 5.26111 11.1805C5.40882 11.4193 5.60543 11.624 5.83801 11.7812C6.16702 12.051 6.5748 12.2065 6.99989 12.2243C7.53786 12.2237 8.05363 12.0098 8.43403 11.6294C8.81444 11.249 9.0284 10.7332 9.02897 10.1952Z" fill="white"/>
<path d="M9.50811 1.87855C9.08236 1.51671 8.63549 1.13755 8.18049 0.723713C8.00796 0.567081 7.80328 0.450049 7.58078 0.38081C7.35828 0.311572 7.12334 0.291801 6.8924 0.32288C6.66858 0.352524 6.45399 0.430953 6.2638 0.552629C6.07362 0.674304 5.91246 0.836257 5.79173 1.02705C5.14628 2.10596 4.68978 3.28715 4.4419 4.51971C4.34492 4.37929 4.25873 4.23171 4.18407 4.07826C4.1074 3.91672 3.99194 3.77668 3.84799 3.67061C3.70404 3.56455 3.53608 3.49576 3.35908 3.4704C3.18209 3.44503 3.00156 3.46386 2.83362 3.52522C2.66567 3.58658 2.51552 3.68855 2.39657 3.82205C1.48836 4.75068 0.984911 6.00122 0.99636 7.30009C0.9838 8.62687 1.4153 9.91974 2.22221 10.973C3.02912 12.0263 4.1651 12.7795 5.4494 13.1127C5.94114 13.2364 6.44601 13.3005 6.95307 13.3034C6.30509 13.2792 5.68228 13.0463 5.17748 12.6393C4.82779 12.3932 4.53375 12.0763 4.31446 11.7092C4.09517 11.3421 3.95551 10.933 3.90457 10.5084C3.77999 9.3113 4.38828 7.91759 5.71265 6.36626C5.87153 6.18001 6.06904 6.03058 6.29148 5.92835C6.51391 5.82611 6.75593 5.77351 7.00073 5.77421H7.00615C7.25024 5.77441 7.49135 5.82783 7.71268 5.93073C7.93402 6.03363 8.13026 6.18355 8.28773 6.37005C9.12082 7.35967 10.1148 8.82651 10.1148 10.1948C10.1136 10.9833 9.81329 11.742 9.27454 12.3177C8.73579 12.8935 7.99868 13.2434 7.21199 13.2969C8.76746 13.2468 10.2423 12.5931 11.3242 11.4743C12.406 10.3556 13.0099 8.85962 13.0078 7.30334C13.0051 4.84959 11.3844 3.47376 9.50811 1.87855Z" fill="white"/>
</g>
<defs>
<clipPath id="clip0_202_9976">
<rect width="13" height="13" fill="white" transform="translate(0.5 0.307617)"/>
</clipPath>
</defs>
</svg>
