<svg width="20" height="20" viewBox="0 0 20 20" fill="none" xmlns="http://www.w3.org/2000/svg">
<path d="M17.5099 3.85L11.5699 0.42C10.5999 -0.14 9.3999 -0.14 8.4199 0.42L2.48992 3.85C1.51992 4.41 0.919922 5.45 0.919922 6.58V13.42C0.919922 14.54 1.51992 15.58 2.48992 16.15L8.4299 19.58C9.3999 20.14 10.5999 20.14 11.5799 19.58L17.5199 16.15C18.4899 15.59 19.0899 14.55 19.0899 13.42V6.58C19.0799 5.45 18.4799 4.42 17.5099 3.85ZM9.9999 5.34C11.2899 5.34 12.3299 6.38 12.3299 7.67C12.3299 8.96 11.2899 10 9.9999 10C8.7099 10 7.66992 8.96 7.66992 7.67C7.66992 6.39 8.7099 5.34 9.9999 5.34ZM12.6799 14.66H7.31992C6.50992 14.66 6.03992 13.76 6.48992 13.09C7.16992 12.08 8.4899 11.4 9.9999 11.4C11.5099 11.4 12.8299 12.08 13.5099 13.09C13.9599 13.75 13.4799 14.66 12.6799 14.66Z" fill="#0D2D2D" fill-opacity="0.6"/>
</svg>
