<svg width="25" height="24" viewBox="0 0 25 24" fill="none" xmlns="http://www.w3.org/2000/svg">
<path fill-rule="evenodd" clip-rule="evenodd" d="M4.52148 11.4C4.8283 7.26196 8.28288 4 12.4993 4C11.8346 4 11.2428 4.29137 10.756 4.7369C10.2715 5.1802 9.86218 5.79902 9.53108 6.53052C9.19803 7.26634 8.93933 8.12695 8.76422 9.06089C8.62386 9.80955 8.53844 10.5988 8.50997 11.4H4.52148ZM4.52148 12.6H8.50997C8.53844 13.4012 8.62386 14.1904 8.76422 14.9391C8.93933 15.8731 9.19803 16.7337 9.53108 17.4695C9.86218 18.201 10.2715 18.8198 10.756 19.2631C11.2428 19.7086 11.8346 20 12.4993 20C8.28288 20 4.8283 16.738 4.52148 12.6Z" fill="#28A08C"/>
<path d="M12.4993 5.11628C12.2793 5.11628 11.9951 5.20989 11.6646 5.51233C11.3317 5.81701 10.9984 6.29452 10.7039 6.9451C10.4114 7.59136 10.1738 8.37152 10.0104 9.24335C9.88167 9.92994 9.80181 10.6577 9.77379 11.4H15.2249C15.1968 10.6577 15.117 9.92994 14.9883 9.24336C14.8248 8.37153 14.5873 7.59137 14.2948 6.9451C14.0003 6.29452 13.667 5.81701 13.334 5.51233C13.0035 5.20989 12.7193 5.11628 12.4993 5.11628Z" fill="#28A08C"/>
<path d="M10.0104 14.7566C10.1738 15.6285 10.4114 16.4086 10.7039 17.0549C10.9984 17.7055 11.3317 18.183 11.6646 18.4877C11.9951 18.7901 12.2793 18.8837 12.4993 18.8837C12.7193 18.8837 13.0035 18.7901 13.334 18.4877C13.667 18.183 14.0003 17.7055 14.2948 17.0549C14.5873 16.4086 14.8248 15.6285 14.9883 14.7566C15.117 14.0701 15.1968 13.3423 15.2249 12.6H9.77379C9.80181 13.3423 9.88167 14.0701 10.0104 14.7566Z" fill="#28A08C"/>
<path d="M12.4993 4C13.164 4 13.7558 4.29137 14.2427 4.7369C14.7271 5.1802 15.1365 5.79902 15.4676 6.53052C15.8006 7.26634 16.0593 8.12695 16.2344 9.06089C16.3748 9.80955 16.4602 10.5988 16.4887 11.4H20.4772C20.1703 7.26196 16.7158 4 12.4993 4Z" fill="#28A08C"/>
<path d="M16.2344 14.9391C16.0593 15.8731 15.8006 16.7337 15.4676 17.4695C15.1365 18.201 14.7271 18.8198 14.2427 19.2631C13.7558 19.7086 13.164 20 12.4993 20C16.7158 20 20.1703 16.738 20.4772 12.6H16.4887C16.4602 13.4012 16.3748 14.1904 16.2344 14.9391Z" fill="#28A08C"/>
</svg>
