<svg width="25" height="24" viewBox="0 0 25 24" fill="none" xmlns="http://www.w3.org/2000/svg">
<g clip-path="url(#clip0_1643_16466)">
<path d="M19 14.5C19.828 14.5 20.5 15.172 20.5 16C20.5 16.828 19.828 17.5 19 17.5C18.172 17.5 17.5 16.828 17.5 16C17.5 15.172 18.172 14.5 19 14.5ZM23.5 10C22.947 10 22.5 10.448 22.5 11V21C22.5 21.552 22.052 22 21.5 22H5.5C3.846 22 2.5 20.654 2.5 19V9C2.5 9 2.5 8.996 2.5 8.995C3.354 9.635 4.403 10 5.499 10H13.5C14.053 10 14.5 9.552 14.5 9C14.5 8.448 14.053 8 13.5 8H5.5C4.644 8 3.847 7.619 3.283 6.996C3.832 6.389 4.618 6 5.5 6H12.5C13.053 6 13.5 5.552 13.5 5C13.5 4.448 13.053 4 12.5 4H5.5C2.724 3.994 0.52 6.304 0.5 9V19C0.5 21.757 2.743 24 5.5 24H21.5C23.154 24 24.5 22.654 24.5 21V11C24.5 10.448 24.053 10 23.5 10ZM17.997 9.385C18.812 10.2 20.145 10.207 20.961 9.394L23.197 7.217C23.593 6.832 23.601 6.199 23.217 5.803C22.83 5.407 22.197 5.398 21.803 5.784L20.5 7.052V1C20.5 0.448 20.053 0 19.5 0C18.947 0 18.5 0.448 18.5 1V7.07L17.203 5.789C16.809 5.401 16.178 5.404 15.788 5.798C15.4 6.191 15.404 6.824 15.797 7.212L17.997 9.385Z" fill="#28A08C"/>
</g>
<defs>
<clipPath id="clip0_1643_16466">
<rect width="24" height="24" fill="white" transform="translate(0.5)"/>
</clipPath>
</defs>
</svg>
