<svg width="61" height="60" viewBox="0 0 61 60" fill="none" xmlns="http://www.w3.org/2000/svg">
<rect width="61" height="60" rx="30" fill="white" fill-opacity="0.5"/>
<path d="M43.2056 43.3413H18.7951C17.4941 43.3413 16.4395 42.2866 16.4395 40.9856V20.6594C16.4395 19.3584 17.4941 18.3037 18.7951 18.3037H43.2056C44.5066 18.3037 45.5613 19.3584 45.5613 20.6594V40.9856C45.5613 42.2866 44.5066 43.3413 43.2056 43.3413Z" fill="url(#paint0_linear_707_4980)"/>
<path d="M42.6603 42.7823H19.3386C18.0956 42.7823 17.0879 41.7746 17.0879 40.5316V21.112C17.0879 19.869 18.0955 18.8613 19.3386 18.8613H42.6603C43.9033 18.8613 44.911 19.869 44.911 21.112V40.5317C44.911 41.7747 43.9033 42.7823 42.6603 42.7823Z" fill="url(#paint1_linear_707_4980)"/>
<path d="M43.9828 24.8782L38.1112 14.7084C37.7202 14.031 36.8539 13.7988 36.1764 14.19L17.6641 24.8782H43.9828Z" fill="url(#paint2_linear_707_4980)"/>
<path d="M16.4395 33.0629H45.5613V25.3497C45.5613 24.3761 44.7721 23.5869 43.7986 23.5869H18.2022C17.2286 23.5869 16.4395 24.3761 16.4395 25.3497V33.0629Z" fill="url(#paint3_linear_707_4980)"/>
<path d="M16.4395 30.162V40.9852C16.4395 42.2862 17.4941 43.3409 18.7952 43.3409H43.2056C44.5066 43.3409 45.5613 42.2862 45.5613 40.9852V30.162C45.5613 29.3585 44.9099 28.707 44.1063 28.707H17.8945C17.0909 28.707 16.4395 29.3584 16.4395 30.162Z" fill="url(#paint4_linear_707_4980)"/>
<path d="M41.168 24.5801V43.3414H43.2058C44.5068 43.3414 45.5615 42.2867 45.5615 40.9857V28.9736L41.168 24.5801Z" fill="url(#paint5_linear_707_4980)"/>
<path d="M39.1815 45.9823L18.7385 43.608C17.428 43.4558 16.4395 42.3458 16.4395 41.0265V20.4834C16.4395 20.9249 16.7703 21.2963 17.2087 21.3472L39.781 23.9688C41.0915 24.1211 42.0801 25.231 42.0801 26.5503V43.4008C42.0801 44.9549 40.7251 46.1616 39.1815 45.9823Z" fill="url(#paint6_linear_707_4980)"/>
<path d="M39.1815 41.8786L18.7385 39.5044C17.428 39.3521 16.4395 38.2422 16.4395 36.9229V41.0262C16.4395 42.3455 17.428 43.4555 18.7385 43.6077L39.1815 45.982C40.7251 46.1613 42.0801 44.9546 42.0801 43.4005V39.2971C42.0801 40.8512 40.7251 42.0579 39.1815 41.8786Z" fill="url(#paint7_linear_707_4980)"/>
<path d="M18.2719 23.6857C18.2548 23.6857 18.2374 23.6847 18.22 23.6828L17.2845 23.5799C17.0261 23.5515 16.8397 23.3191 16.8681 23.0608C16.8965 22.8025 17.1291 22.6162 17.3872 22.6444L18.3227 22.7473C18.5811 22.7757 18.7675 23.0081 18.7391 23.2664C18.7126 23.5074 18.5087 23.6857 18.2719 23.6857Z" fill="url(#paint8_linear_707_4980)"/>
<path d="M37.4952 44.4318C37.4755 44.4318 37.4553 44.4305 37.4352 44.428L35.617 44.1968C35.3593 44.164 35.1768 43.9284 35.2096 43.6705C35.2424 43.4128 35.478 43.2314 35.7358 43.2631L37.554 43.4943C37.8118 43.527 37.9943 43.7627 37.9615 44.0205C37.9312 44.2582 37.7287 44.4318 37.4952 44.4318ZM39.2848 44.1989C39.1083 44.1989 38.939 44.099 38.8588 43.9287C38.748 43.6936 38.8488 43.4132 39.084 43.3025C39.5614 43.0775 39.9205 42.7044 40.0692 42.2786C40.1548 42.0333 40.4233 41.904 40.6686 41.9895C40.9139 42.0752 41.0434 42.3435 40.9577 42.5889C40.7229 43.2613 40.2 43.8171 39.4851 44.1539C39.4203 44.1844 39.3521 44.1989 39.2848 44.1989ZM33.8589 43.9694C33.8392 43.9694 33.819 43.9681 33.7989 43.9656L31.9807 43.7344C31.723 43.7017 31.5404 43.466 31.5733 43.2082C31.6061 42.9504 31.8417 42.7689 32.0995 42.8007L33.9177 43.0319C34.1755 43.0647 34.358 43.3003 34.3252 43.5582C34.2948 43.7957 34.0922 43.9694 33.8589 43.9694ZM30.2226 43.507C30.2028 43.507 30.1828 43.5057 30.1626 43.5032L28.3444 43.272C28.0867 43.2392 27.9041 43.0036 27.937 42.7457C27.9698 42.488 28.2054 42.3056 28.4632 42.3383L30.2814 42.5695C30.5392 42.6022 30.7217 42.8379 30.6888 43.0957C30.6585 43.3333 30.4559 43.507 30.2226 43.507ZM26.5862 43.0445C26.5664 43.0445 26.5463 43.0432 26.5262 43.0407L24.7079 42.8095C24.4501 42.7767 24.2676 42.5411 24.3005 42.2832C24.3333 42.0254 24.569 41.8439 24.8267 41.8758L26.645 42.107C26.9028 42.1399 27.0853 42.3754 27.0524 42.6333C27.0222 42.871 26.8196 43.0445 26.5862 43.0445ZM22.9498 42.5821C22.9301 42.5821 22.91 42.5808 22.8898 42.5783L21.0716 42.347C20.8138 42.3142 20.6313 42.0787 20.6642 41.8208C20.697 41.563 20.9327 41.3814 21.1904 41.4134L23.0087 41.6446C23.2665 41.6774 23.449 41.913 23.4161 42.1709C23.3858 42.4085 23.1833 42.5821 22.9498 42.5821ZM40.619 41.0837C40.3591 41.0837 40.1485 40.873 40.1485 40.6131V38.7803C40.1485 38.5204 40.3591 38.3097 40.619 38.3097C40.879 38.3097 41.0896 38.5204 41.0896 38.7803V40.6131C41.0897 40.873 40.879 41.0837 40.619 41.0837ZM40.619 37.4181C40.3591 37.4181 40.1485 37.2075 40.1485 36.9475V35.1147C40.1485 34.8548 40.3591 34.6442 40.619 34.6442C40.879 34.6442 41.0896 34.8548 41.0896 35.1147V36.9475C41.0897 37.2074 40.879 37.4181 40.619 37.4181ZM40.619 33.7525C40.3591 33.7525 40.1485 33.5419 40.1485 33.2819V31.4491C40.1485 31.1892 40.3591 30.9785 40.619 30.9785C40.879 30.9785 41.0896 31.1892 41.0896 31.4491V33.2819C41.0897 33.5418 40.879 33.7525 40.619 33.7525ZM40.619 30.0869C40.3591 30.0869 40.1485 29.8762 40.1485 29.6163V27.7835C40.1485 27.5235 40.3591 27.3129 40.619 27.3129C40.879 27.3129 41.0896 27.5235 41.0896 27.7835V29.6163C41.0897 29.8762 40.879 30.0869 40.619 30.0869ZM39.9609 26.609C39.8447 26.609 39.7283 26.5662 39.6373 26.48C39.2885 26.1495 38.8045 25.939 38.2742 25.887L38.2617 25.8857C38.0033 25.8579 37.8163 25.6259 37.8442 25.3675C37.872 25.109 38.104 24.922 38.3625 24.95L38.3705 24.9509C39.1034 25.0227 39.7848 25.3233 40.2847 25.7969C40.4734 25.9756 40.4814 26.2735 40.3027 26.4622C40.21 26.5597 40.0856 26.609 39.9609 26.609ZM36.4907 25.6882C36.4736 25.6882 36.4562 25.6872 36.4388 25.6853L34.617 25.485C34.3587 25.4565 34.1722 25.2242 34.2006 24.9659C34.229 24.7075 34.4616 24.5216 34.7197 24.5495L36.5415 24.7498C36.7998 24.7782 36.9863 25.0106 36.9579 25.2689C36.9315 25.5098 36.7275 25.6882 36.4907 25.6882ZM32.8472 25.2875C32.83 25.2875 32.8127 25.2865 32.7952 25.2847L30.9733 25.0844C30.715 25.0559 30.5285 24.8235 30.557 24.5652C30.5853 24.3069 30.8183 24.1207 31.0761 24.1489L32.898 24.3492C33.1563 24.3776 33.3428 24.61 33.3143 24.8683C33.2878 25.1092 33.084 25.2875 32.8472 25.2875ZM29.2034 24.887C29.1863 24.887 29.1689 24.886 29.1515 24.8841L27.3297 24.6838C27.0713 24.6554 26.8848 24.423 26.9133 24.1647C26.9417 23.9064 27.1741 23.7202 27.4324 23.7483L29.2542 23.9486C29.5125 23.977 29.699 24.2094 29.6706 24.4677C29.6442 24.7086 29.4403 24.887 29.2034 24.887ZM25.5597 24.4864C25.5426 24.4864 25.5252 24.4854 25.5078 24.4835L23.686 24.2832C23.4276 24.2548 23.2412 24.0224 23.2696 23.7641C23.298 23.5059 23.5302 23.3198 23.7887 23.3477L25.6105 23.548C25.8688 23.5765 26.0553 23.8089 26.0269 24.0672C26.0005 24.308 25.7966 24.4864 25.5597 24.4864ZM21.916 24.0858C21.8989 24.0858 21.8815 24.0848 21.8641 24.0829L20.0423 23.8826C19.784 23.8542 19.5975 23.6218 19.6259 23.3635C19.6543 23.1052 19.8866 22.9192 20.145 22.9471L21.9668 23.1474C22.2252 23.1759 22.4117 23.4082 22.3832 23.6665C22.3568 23.9074 22.1528 24.0858 21.916 24.0858Z" fill="url(#paint9_linear_707_4980)"/>
<path d="M19.3092 42.1195C19.2895 42.1195 19.2695 42.1183 19.2493 42.1157L18.3156 41.997C18.0578 41.9643 17.8752 41.7287 17.9081 41.4709C17.9409 41.213 18.1765 41.0307 18.4343 41.0634L19.368 41.182C19.6258 41.2148 19.8084 41.4504 19.7755 41.7082C19.7452 41.9459 19.5426 42.1195 19.3092 42.1195Z" fill="url(#paint10_linear_707_4980)"/>
<path d="M36.5977 17.5045L33.586 19.1433C33.1937 19.3568 32.7026 19.2118 32.4891 18.8195C32.2757 18.4272 32.4206 17.9362 32.8129 17.7227L35.8247 16.0838C36.2171 15.8704 36.7081 16.0153 36.9216 16.4077C37.1351 16.7999 36.9901 17.291 36.5977 17.5045Z" fill="#61DB99"/>
<path d="M42.0792 36.7389L39.0904 33.7501C38.6687 33.2909 38.0635 33.0029 37.391 33.0029C36.1169 33.0029 35.084 34.0359 35.084 35.3099C35.084 35.9825 35.372 36.5877 35.8312 37.0093L42.0792 43.2574V36.7389H42.0792Z" fill="url(#paint11_linear_707_4980)"/>
<path d="M37.391 37.6169C38.6651 37.6169 39.698 36.584 39.698 35.3099C39.698 34.0358 38.6651 33.0029 37.391 33.0029C36.1169 33.0029 35.084 34.0358 35.084 35.3099C35.084 36.584 36.1169 37.6169 37.391 37.6169Z" fill="url(#paint12_linear_707_4980)"/>
<path d="M37.391 36.902C38.2703 36.902 38.9831 36.1892 38.9831 35.3099C38.9831 34.4306 38.2703 33.7178 37.391 33.7178C36.5116 33.7178 35.7988 34.4306 35.7988 35.3099C35.7988 36.1892 36.5116 36.902 37.391 36.902Z" fill="url(#paint13_linear_707_4980)"/>
<path d="M36.7865 35.0339C36.9684 35.0339 37.1159 34.8864 37.1159 34.7044C37.1159 34.5225 36.9684 34.375 36.7865 34.375C36.6045 34.375 36.457 34.5225 36.457 34.7044C36.457 34.8864 36.6045 35.0339 36.7865 35.0339Z" fill="url(#paint14_linear_707_4980)"/>
<path d="M37.9955 35.0339C38.1774 35.0339 38.3249 34.8864 38.3249 34.7044C38.3249 34.5225 38.1774 34.375 37.9955 34.375C37.8135 34.375 37.666 34.5225 37.666 34.7044C37.666 34.8864 37.8135 35.0339 37.9955 35.0339Z" fill="url(#paint15_linear_707_4980)"/>
<path d="M36.7865 36.2448C36.9684 36.2448 37.1159 36.0973 37.1159 35.9154C37.1159 35.7334 36.9684 35.5859 36.7865 35.5859C36.6045 35.5859 36.457 35.7334 36.457 35.9154C36.457 36.0973 36.6045 36.2448 36.7865 36.2448Z" fill="url(#paint16_linear_707_4980)"/>
<path d="M37.9955 36.2448C38.1774 36.2448 38.3249 36.0973 38.3249 35.9154C38.3249 35.7334 38.1774 35.5859 37.9955 35.5859C37.8135 35.5859 37.666 35.7334 37.666 35.9154C37.666 36.0973 37.8135 36.2448 37.9955 36.2448Z" fill="url(#paint17_linear_707_4980)"/>
<defs>
<linearGradient id="paint0_linear_707_4980" x1="31.4763" y1="16.8605" x2="31.3062" y2="21.8459" gradientUnits="userSpaceOnUse">
<stop stop-color="#FFB92D"/>
<stop offset="1" stop-color="#F59500"/>
</linearGradient>
<linearGradient id="paint1_linear_707_4980" x1="32.2906" y1="20.17" x2="31.8275" y2="23.9893" gradientUnits="userSpaceOnUse">
<stop stop-color="#FFB92D"/>
<stop offset="1" stop-color="#F59500"/>
</linearGradient>
<linearGradient id="paint2_linear_707_4980" x1="30.8231" y1="20.2832" x2="30.8231" y2="23.1927" gradientUnits="userSpaceOnUse">
<stop stop-color="#A7F3CE"/>
<stop offset="1" stop-color="#61DB99"/>
</linearGradient>
<linearGradient id="paint3_linear_707_4980" x1="31.0001" y1="25.3195" x2="31.0001" y2="33.4838" gradientUnits="userSpaceOnUse">
<stop stop-color="#FF4C54"/>
<stop offset="1" stop-color="#BE3F45"/>
</linearGradient>
<linearGradient id="paint4_linear_707_4980" x1="31.0001" y1="31.3818" x2="31.0001" y2="43.9908" gradientUnits="userSpaceOnUse">
<stop stop-color="#FF4C54"/>
<stop offset="1" stop-color="#BE3F45"/>
</linearGradient>
<linearGradient id="paint5_linear_707_4980" x1="43.9047" y1="33.961" x2="41.7802" y2="33.961" gradientUnits="userSpaceOnUse">
<stop stop-color="#BE3F45" stop-opacity="0"/>
<stop offset="1" stop-color="#BE3F45"/>
</linearGradient>
<linearGradient id="paint6_linear_707_4980" x1="24.9041" y1="31.7796" x2="35.7117" y2="36.765" gradientUnits="userSpaceOnUse">
<stop stop-color="#FFB92D"/>
<stop offset="1" stop-color="#F59500"/>
</linearGradient>
<linearGradient id="paint7_linear_707_4980" x1="28.9152" y1="42.8795" x2="28.4685" y2="46.294" gradientUnits="userSpaceOnUse">
<stop stop-color="#BE3F45" stop-opacity="0"/>
<stop offset="1" stop-color="#BE3F45"/>
</linearGradient>
<linearGradient id="paint8_linear_707_4980" x1="17.8035" y1="22.642" x2="17.8035" y2="44.4775" gradientUnits="userSpaceOnUse">
<stop stop-color="#FFF465"/>
<stop offset="1" stop-color="#FFE600"/>
</linearGradient>
<linearGradient id="paint9_linear_707_4980" x1="30.356" y1="22.6423" x2="30.356" y2="44.4319" gradientUnits="userSpaceOnUse">
<stop stop-color="#FFF465"/>
<stop offset="1" stop-color="#FFE600"/>
</linearGradient>
<linearGradient id="paint10_linear_707_4980" x1="18.8417" y1="22.6415" x2="18.8417" y2="44.4764" gradientUnits="userSpaceOnUse">
<stop stop-color="#FFF465"/>
<stop offset="1" stop-color="#FFE600"/>
</linearGradient>
<linearGradient id="paint11_linear_707_4980" x1="40.4697" y1="38.3894" x2="34.0046" y2="31.9243" gradientUnits="userSpaceOnUse">
<stop stop-color="#BE3F45" stop-opacity="0"/>
<stop offset="1" stop-color="#BE3F45"/>
</linearGradient>
<linearGradient id="paint12_linear_707_4980" x1="37.3905" y1="33.8621" x2="37.3905" y2="37.1981" gradientUnits="userSpaceOnUse">
<stop stop-color="#FF4C54"/>
<stop offset="1" stop-color="#BE3F45"/>
</linearGradient>
<linearGradient id="paint13_linear_707_4980" x1="37.3905" y1="36.3097" x2="37.3905" y2="34.0076" gradientUnits="userSpaceOnUse">
<stop stop-color="#FF4C54"/>
<stop offset="1" stop-color="#BE3F45"/>
</linearGradient>
<linearGradient id="paint14_linear_707_4980" x1="33.6636" y1="20.9155" x2="34.3224" y2="23.8249" gradientUnits="userSpaceOnUse">
<stop stop-color="#A7F3CE"/>
<stop offset="1" stop-color="#61DB99"/>
</linearGradient>
<linearGradient id="paint15_linear_707_4980" x1="34.8725" y1="20.9156" x2="35.5313" y2="23.825" gradientUnits="userSpaceOnUse">
<stop stop-color="#A7F3CE"/>
<stop offset="1" stop-color="#61DB99"/>
</linearGradient>
<linearGradient id="paint16_linear_707_4980" x1="33.4029" y1="20.9751" x2="34.0617" y2="23.8845" gradientUnits="userSpaceOnUse">
<stop stop-color="#A7F3CE"/>
<stop offset="1" stop-color="#61DB99"/>
</linearGradient>
<linearGradient id="paint17_linear_707_4980" x1="34.6118" y1="20.9752" x2="35.2706" y2="23.8847" gradientUnits="userSpaceOnUse">
<stop stop-color="#A7F3CE"/>
<stop offset="1" stop-color="#61DB99"/>
</linearGradient>
</defs>
</svg>
