<svg width="25" height="25" viewBox="0 0 25 25" fill="none" xmlns="http://www.w3.org/2000/svg">
<path d="M23.3661 11.5063C23.014 10.625 22.5078 9.80212 21.8744 9.08233V5.21254C21.8744 4.56879 21.5849 3.97087 21.0786 3.57087C20.5807 3.17817 19.9442 3.0365 19.3276 3.18129C17.4265 3.63442 16.0005 4.7115 15.2369 6.25004H9.65048C6.96194 6.25004 4.5484 7.45629 2.96403 9.34275C1.71403 9.16046 1.86507 7.28962 3.1234 7.29171C4.48486 7.2865 4.4859 5.21358 3.1234 5.20837C-0.194308 5.19796 -1.17764 9.79796 1.80257 11.1552C-0.0297246 14.9261 1.56403 19.7823 5.20673 21.7927V21.875C5.20882 25.3657 10.1442 26.1646 11.2786 22.9167H13.7192C14.8536 26.1667 19.789 25.3636 19.7911 21.875V21.7792C21.4161 20.8386 22.6776 19.3834 23.3661 17.6605C24.2213 17.4782 24.9994 16.7771 24.9994 15.625V13.5417C24.9994 12.3896 24.2203 11.6886 23.3661 11.5063ZM18.7494 13.5417C17.3869 13.5355 17.3869 11.4646 18.7494 11.4584C20.1119 11.4646 20.1119 13.5355 18.7494 13.5417ZM6.30361 4.70004C5.71819 -1.12392 14.3661 -1.68746 14.5828 4.16671H9.65152C8.48382 4.16671 7.35986 4.35942 6.30361 4.70004Z" fill="#40D44C"/>
</svg>
