<svg width="16" height="16" viewBox="0 0 16 16" fill="none" xmlns="http://www.w3.org/2000/svg">
<path d="M15.4745 8.17624C15.4745 7.65533 15.4322 7.1316 15.3421 6.61914H8.11412V9.57003H12.2533C12.0815 10.5217 11.5296 11.3637 10.7215 11.8986V13.8133H13.1909C14.641 12.4787 15.4745 10.5077 15.4745 8.17624Z" fill="#0B3657"/>
<path d="M8.1142 15.6639C10.1809 15.6639 11.9239 14.9853 13.1938 13.8139L10.7244 11.8992C10.0373 12.3666 9.15039 12.6313 8.11701 12.6313C6.11784 12.6313 4.42277 11.2826 3.81457 9.46924H1.26633V11.4431C2.5672 14.0307 5.2168 15.6639 8.1142 15.6639V15.6639Z" fill="#0B3657"/>
<path d="M3.81168 9.46935C3.49069 8.51763 3.49069 7.48707 3.81168 6.53535V4.56152H1.26626C0.179385 6.72682 0.179385 9.27788 1.26626 11.4432L3.81168 9.46935V9.46935Z" fill="#0B3657"/>
<path d="M8.11419 3.36998C9.2067 3.35308 10.2626 3.76418 11.0538 4.5188L13.2416 2.33097C11.8563 1.0301 10.0176 0.314905 8.11419 0.33743C5.2168 0.33743 2.5672 1.97056 1.26633 4.56103L3.81175 6.53486C4.41713 4.71871 6.11502 3.36998 8.11419 3.36998V3.36998Z" fill="#0B3657"/>
</svg>
