<svg width="16" height="16" viewBox="0 0 16 16" fill="none" xmlns="http://www.w3.org/2000/svg">
<g clip-path="url(#clip0_41_3013)">
<path d="M14.666 14.6667H13.9993V9.33267C14.7353 9.33 15.3327 8.73133 15.3327 7.99467C15.3327 7.504 15.0647 7.05333 14.6347 6.82L8.89868 3.69133C8.82402 3.65067 8.74335 3.62933 8.66535 3.6V2.92L10.422 1.83C10.752 1.61 10.7447 1.12333 10.4087 0.913333L8.76735 0.143333C8.61735 0.0493333 8.44402 0 8.26668 0C7.74535 0 7.32202 0.422667 7.32202 0.944667V3.33333H7.33202V3.6C7.25402 3.63 7.17335 3.65067 7.09868 3.69133L1.36402 6.82C0.933349 7.054 0.666016 7.50333 0.666016 7.99467C0.666016 8.73133 1.26402 9.33 1.99935 9.33267V14.6667H1.33268C0.964682 14.6667 0.666016 14.9647 0.666016 15.3333C0.666016 15.702 0.964682 16 1.33268 16H14.666C15.0347 16 15.3327 15.702 15.3327 15.3333C15.3327 14.9647 15.0347 14.6667 14.666 14.6667ZM7.33268 9.33333V14.6667H5.99935V9.33333H7.33268ZM8.66602 9.33333H9.99935V14.6667H8.66602V9.33333ZM11.3327 9.33333H12.666V14.6667H11.3327V9.33333ZM3.33268 9.33333H4.66602V14.6667H3.33268V9.33333Z" fill="white"/>
</g>
<defs>
<clipPath id="clip0_41_3013">
<rect width="16" height="16" fill="white"/>
</clipPath>
</defs>
</svg>
