<svg width="16" height="16" viewBox="0 0 16 16" fill="none" xmlns="http://www.w3.org/2000/svg">
<g clip-path="url(#clip0_2217_5984)">
<path d="M15.5059 10.7998L13.7726 4.55246C13.4025 3.21607 12.596 2.04188 11.4815 1.21678C10.367 0.391678 9.00848 -0.0369281 7.62226 -0.000821666C6.23603 0.0352848 4.90171 0.534029 3.83167 1.41603C2.76162 2.29804 2.01734 3.51261 1.71728 4.86646L0.37661 10.8998C0.311739 11.1921 0.313321 11.4952 0.381241 11.7868C0.44916 12.0784 0.581683 12.351 0.769033 12.5846C0.956383 12.8181 1.19378 13.0066 1.46371 13.1362C1.73363 13.2658 2.0292 13.3331 2.32861 13.3331H4.73328C4.88629 14.0866 5.2951 14.7641 5.89044 15.2507C6.48578 15.7373 7.23104 16.0031 7.99994 16.0031C8.76885 16.0031 9.51411 15.7373 10.1094 15.2507C10.7048 14.7641 11.1136 14.0866 11.2666 13.3331H13.5799C13.888 13.333 14.1919 13.2617 14.4679 13.1248C14.7438 12.9879 14.9845 12.789 15.171 12.5438C15.3574 12.2986 15.4848 12.0136 15.543 11.7111C15.6012 11.4086 15.5881 11.0967 15.5059 10.7998ZM7.99994 14.6665C7.58777 14.6647 7.18619 14.5357 6.85014 14.2971C6.5141 14.0584 6.26 13.7217 6.12261 13.3331H9.87728C9.73989 13.7217 9.48579 14.0584 9.14974 14.2971C8.8137 14.5357 8.41212 14.6647 7.99994 14.6665ZM14.1099 11.7365C14.0478 11.8189 13.9671 11.8857 13.8745 11.9314C13.7819 11.9771 13.6799 12.0005 13.5766 11.9998H2.32861C2.22878 11.9998 2.13024 11.9773 2.04024 11.9341C1.95025 11.8909 1.8711 11.8281 1.80865 11.7502C1.74619 11.6723 1.70202 11.5814 1.6794 11.4842C1.65678 11.387 1.65628 11.2859 1.67794 11.1885L3.01861 5.15512C3.25485 4.09259 3.83948 3.13953 4.67958 2.44742C5.51968 1.75532 6.56703 1.3639 7.65513 1.3354C8.74323 1.30689 9.80963 1.64293 10.6848 2.2901C11.56 2.93727 12.1937 3.85842 12.4853 4.90712L14.2186 11.1545C14.2469 11.2532 14.2518 11.3573 14.233 11.4583C14.2141 11.5593 14.172 11.6545 14.1099 11.7365Z" fill="#28A08C"/>
</g>
<defs>
<clipPath id="clip0_2217_5984">
<rect width="16" height="16" fill="white"/>
</clipPath>
</defs>
</svg>
