<svg width="16" height="16" viewBox="0 0 16 16" fill="none" xmlns="http://www.w3.org/2000/svg">
<path d="M3.42691e-08 14.6667H16V16H3.42691e-08V14.6667ZM16 5.27271V6.66671H14V12H15.3333V13.3334H0.666667V12H2V6.66671H3.42691e-08V5.27271C-6.64697e-05 4.91341 0.0966633 4.56072 0.280022 4.25172C0.46338 3.94272 0.726595 3.68882 1.042 3.51671L7.042 0.244045C7.33572 0.0832847 7.66517 -0.000976562 8 -0.000976562C8.33483 -0.000976562 8.66428 0.0832847 8.958 0.244045L14.958 3.51671C15.2734 3.68882 15.5366 3.94272 15.72 4.25172C15.9033 4.56072 16.0001 4.91341 16 5.27271ZM3.33333 12H5.33333V6.66671H3.33333V12ZM6.66667 6.66671V12H9.33333V6.66671H6.66667ZM12.6667 6.66671H10.6667V12H12.6667V6.66671ZM14.6667 5.27271C14.6667 5.15294 14.6344 5.03538 14.5733 4.93238C14.5122 4.82938 14.4245 4.74475 14.3193 4.68738L8.31933 1.41471C8.22138 1.36126 8.11158 1.33326 8 1.33326C7.88842 1.33326 7.77862 1.36126 7.68067 1.41471L1.68067 4.68738C1.57553 4.74475 1.48779 4.82938 1.42667 4.93238C1.36555 5.03538 1.33331 5.15294 1.33333 5.27271V5.33338H14.6667V5.27271Z" fill="#28A08C"/>
</svg>
