<svg width="24" height="24" viewBox="0 0 24 24" fill="none" xmlns="http://www.w3.org/2000/svg">
<path fill-rule="evenodd" clip-rule="evenodd" d="M2.375 8.5V6.16667C2.375 5.161 2.774 4.19617 3.48567 3.48567C4.19617 2.774 5.161 2.375 6.16667 2.375H8.5C8.983 2.375 9.375 1.983 9.375 1.5C9.375 1.017 8.983 0.625 8.5 0.625H6.16667C4.69667 0.625 3.28733 1.20833 2.24783 2.24783C1.20833 3.28733 0.625 4.69667 0.625 6.16667V8.5C0.625 8.983 1.017 9.375 1.5 9.375C1.983 9.375 2.375 8.983 2.375 8.5Z" fill="#28A08C"/>
<path fill-rule="evenodd" clip-rule="evenodd" d="M15.5 2.375H17.8333C18.839 2.375 19.8038 2.774 20.5143 3.48567C21.226 4.19617 21.625 5.161 21.625 6.16667V8.5C21.625 8.983 22.017 9.375 22.5 9.375C22.983 9.375 23.375 8.983 23.375 8.5V6.16667C23.375 4.69667 22.7917 3.28733 21.7522 2.24783C20.7127 1.20833 19.3033 0.625 17.8333 0.625C16.5477 0.625 15.5 0.625 15.5 0.625C15.017 0.625 14.625 1.017 14.625 1.5C14.625 1.983 15.017 2.375 15.5 2.375Z" fill="#28A08C"/>
<path fill-rule="evenodd" clip-rule="evenodd" d="M0.625 15.5V17.8333C0.625 19.3033 1.20833 20.7127 2.24783 21.7522C3.28733 22.7917 4.69667 23.375 6.16667 23.375H8.5C8.983 23.375 9.375 22.983 9.375 22.5C9.375 22.017 8.983 21.625 8.5 21.625H6.16667C5.161 21.625 4.19617 21.226 3.48567 20.5143C2.774 19.8038 2.375 18.839 2.375 17.8333C2.375 16.5477 2.375 15.5 2.375 15.5C2.375 15.017 1.983 14.625 1.5 14.625C1.017 14.625 0.625 15.017 0.625 15.5Z" fill="#28A08C"/>
<path fill-rule="evenodd" clip-rule="evenodd" d="M15.5 23.375H17.8333C19.3033 23.375 20.7127 22.7917 21.7522 21.7522C22.7917 20.7127 23.375 19.3033 23.375 17.8333C23.375 16.5477 23.375 15.5 23.375 15.5C23.375 15.017 22.983 14.625 22.5 14.625C22.017 14.625 21.625 15.017 21.625 15.5V17.8333C21.625 18.839 21.226 19.8038 20.5143 20.5143C19.8038 21.226 18.839 21.625 17.8333 21.625C16.5477 21.625 15.5 21.625 15.5 21.625C15.017 21.625 14.625 22.017 14.625 22.5C14.625 22.983 15.017 23.375 15.5 23.375Z" fill="#28A08C"/>
<path fill-rule="evenodd" clip-rule="evenodd" d="M15.2085 7.91675V9.08341C15.2085 9.56641 15.6005 9.95842 16.0835 9.95842C16.5665 9.95842 16.9585 9.56641 16.9585 9.08341V7.91675C16.9585 7.43375 16.5665 7.04175 16.0835 7.04175C15.6005 7.04175 15.2085 7.43375 15.2085 7.91675Z" fill="#28A08C"/>
<path fill-rule="evenodd" clip-rule="evenodd" d="M7.0415 7.91675V9.08341C7.0415 9.56641 7.4335 9.95842 7.9165 9.95842C8.3995 9.95842 8.7915 9.56641 8.7915 9.08341V7.91675C8.7915 7.43375 8.3995 7.04175 7.9165 7.04175C7.4335 7.04175 7.0415 7.43375 7.0415 7.91675Z" fill="#28A08C"/>
<path fill-rule="evenodd" clip-rule="evenodd" d="M11.7084 12.6254V9.66675C11.7084 9.18375 12.1004 8.79175 12.5834 8.79175C13.0664 8.79175 13.4584 9.18375 13.4584 9.66675V13.1667C13.4584 13.4981 13.2706 13.8014 12.9742 13.9496L11.8076 14.5329C11.3759 14.7487 10.8497 14.5737 10.6339 14.1409C10.4181 13.7092 10.5931 13.1831 11.0259 12.9672L11.7084 12.6254Z" fill="#28A08C"/>
<path fill-rule="evenodd" clip-rule="evenodd" d="M15.4648 15.4649C15.6235 15.3063 15.8417 15.2083 16.0832 15.2083C16.5662 15.2083 16.9582 15.6003 16.9582 16.0833C16.9582 16.3248 16.8602 16.5429 16.7015 16.7016C16.5428 16.8603 16.7015 16.7028 16.7003 16.7039C14.1045 19.2998 9.89517 19.2998 7.29934 16.7039C7.29817 16.7028 7.29817 16.7016 7.29817 16.7016C7.1395 16.5429 7.0415 16.3248 7.0415 16.0833C7.0415 15.6003 7.4335 15.2083 7.9165 15.2083C8.158 15.2083 8.37617 15.3063 8.53484 15.4649C8.6935 15.6236 8.536 15.4649 8.53717 15.4661C10.4493 17.3783 13.5503 17.3783 15.4625 15.4661C15.4637 15.4649 15.4648 15.4649 15.4648 15.4649Z" fill="#28A08C"/>
</svg>
