<svg width="14" height="14" viewBox="0 0 14 14" fill="none" xmlns="http://www.w3.org/2000/svg">
<g clip-path="url(#clip0_202_9961)">
<path d="M2.66753 1.78957V1.3909H2.12586V0.307569H7.00086V1.3909H6.4592V1.78957C6.4592 2.16765 6.53666 2.53544 6.68941 2.88211L7.17474 3.98332C7.26899 4.19728 7.33995 4.41774 7.39845 4.6409H1.72882C1.78732 4.41774 1.85774 4.19728 1.95253 3.98332L2.43786 2.88211C2.59061 2.53544 2.66753 2.16819 2.66753 1.78957ZM13.4353 5.72424L12.4804 11.9296C12.3579 12.728 11.6825 13.3076 10.8743 13.3076H3.12741C2.31924 13.3076 1.64378 12.728 1.52136 11.929L0.566406 5.72424H13.4353ZM4.8342 7.8909H3.75086V11.1409H4.8342V7.8909ZM7.54253 7.8909H6.4592V11.1409H7.54253V7.8909ZM10.2509 7.8909H9.16753V11.1409H10.2509V7.8909ZM12.4072 4.6409C12.937 3.23744 13.1006 1.97807 12.8178 1.21107C12.6412 0.73061 12.3319 0.511777 12.1034 0.412652C11.2177 0.0280688 10.1561 0.702444 9.21086 1.79553L10.7931 2.74507L10.2357 3.67403L8.54732 2.66057C8.24832 3.09336 7.97045 3.55486 7.72778 4.02394L7.68607 4.10411C7.62107 4.22978 7.52141 4.42153 7.41091 4.64036H12.4083L12.4072 4.6409Z" fill="white"/>
</g>
<defs>
<clipPath id="clip0_202_9961">
<rect width="13" height="13" fill="white" transform="translate(0.5 0.307617)"/>
</clipPath>
</defs>
</svg>
