<svg width="25" height="24" viewBox="0 0 25 24" fill="none" xmlns="http://www.w3.org/2000/svg">
<path d="M12.5 16C11.7089 16 10.9355 15.7654 10.2777 15.3259C9.61992 14.8864 9.10723 14.2616 8.80448 13.5307C8.50173 12.7998 8.42252 11.9956 8.57686 11.2196C8.7312 10.4437 9.11216 9.73099 9.67157 9.17158C10.231 8.61217 10.9437 8.2312 11.7196 8.07686C12.4956 7.92252 13.2998 8.00173 14.0307 8.30448C14.7616 8.60723 15.3864 9.11993 15.8259 9.77772C16.2654 10.4355 16.5 11.2089 16.5 12C16.5 13.0609 16.0786 14.0783 15.3284 14.8284C14.5783 15.5786 13.5609 16 12.5 16ZM12.5 10C12.1044 10 11.7178 10.1173 11.3889 10.3371C11.06 10.5568 10.8036 10.8692 10.6522 11.2346C10.5009 11.6001 10.4613 12.0022 10.5384 12.3902C10.6156 12.7781 10.8061 13.1345 11.0858 13.4142C11.3655 13.6939 11.7219 13.8844 12.1098 13.9616C12.4978 14.0387 12.8999 13.9991 13.2654 13.8478C13.6308 13.6964 13.9432 13.44 14.1629 13.1111C14.3827 12.7822 14.5 12.3956 14.5 12C14.5 11.4696 14.2893 10.9609 13.9142 10.5858C13.5391 10.2107 13.0304 10 12.5 10ZM18.5 23C18.5 21.4087 17.8679 19.8826 16.7426 18.7574C15.6174 17.6321 14.0913 17 12.5 17C10.9087 17 9.38258 17.6321 8.25736 18.7574C7.13214 19.8826 6.5 21.4087 6.5 23C6.5 23.2652 6.60536 23.5196 6.79289 23.7071C6.98043 23.8946 7.23478 24 7.5 24C7.76522 24 8.01957 23.8946 8.20711 23.7071C8.39464 23.5196 8.5 23.2652 8.5 23C8.5 21.9391 8.92143 20.9217 9.67157 20.1716C10.4217 19.4214 11.4391 19 12.5 19C13.5609 19 14.5783 19.4214 15.3284 20.1716C16.0786 20.9217 16.5 21.9391 16.5 23C16.5 23.2652 16.6054 23.5196 16.7929 23.7071C16.9804 23.8946 17.2348 24 17.5 24C17.7652 24 18.0196 23.8946 18.2071 23.7071C18.3946 23.5196 18.5 23.2652 18.5 23ZM18.5 8C17.7089 8 16.9355 7.76541 16.2777 7.32588C15.6199 6.88636 15.1072 6.26164 14.8045 5.53074C14.5017 4.79983 14.4225 3.99557 14.5769 3.21964C14.7312 2.44372 15.1122 1.73098 15.6716 1.17157C16.231 0.612165 16.9437 0.231202 17.7196 0.0768607C18.4956 -0.0774802 19.2998 0.00173312 20.0307 0.304484C20.7616 0.607234 21.3864 1.11992 21.8259 1.77772C22.2654 2.43552 22.5 3.20888 22.5 4C22.5 5.06087 22.0786 6.07828 21.3284 6.82843C20.5783 7.57858 19.5609 8 18.5 8ZM18.5 2C18.1044 2 17.7178 2.1173 17.3889 2.33706C17.06 2.55683 16.8036 2.86918 16.6522 3.23464C16.5009 3.60009 16.4613 4.00222 16.5384 4.39018C16.6156 4.77815 16.8061 5.13451 17.0858 5.41422C17.3655 5.69392 17.7219 5.8844 18.1098 5.96157C18.4978 6.03874 18.8999 5.99914 19.2654 5.84776C19.6308 5.69639 19.9432 5.44004 20.1629 5.11114C20.3827 4.78224 20.5 4.39557 20.5 4C20.5 3.46957 20.2893 2.96086 19.9142 2.58579C19.5391 2.21072 19.0304 2 18.5 2ZM24.5 15C24.4984 13.4092 23.8658 11.884 22.7409 10.7591C21.616 9.63424 20.0908 9.00159 18.5 9C18.2348 9 17.9804 9.10536 17.7929 9.2929C17.6054 9.48043 17.5 9.73479 17.5 10C17.5 10.2652 17.6054 10.5196 17.7929 10.7071C17.9804 10.8946 18.2348 11 18.5 11C19.5609 11 20.5783 11.4214 21.3284 12.1716C22.0786 12.9217 22.5 13.9391 22.5 15C22.5 15.2652 22.6054 15.5196 22.7929 15.7071C22.9804 15.8946 23.2348 16 23.5 16C23.7652 16 24.0196 15.8946 24.2071 15.7071C24.3946 15.5196 24.5 15.2652 24.5 15ZM6.5 8C5.70887 8 4.93552 7.76541 4.27772 7.32588C3.61992 6.88636 3.10723 6.26164 2.80448 5.53074C2.50173 4.79983 2.42252 3.99557 2.57686 3.21964C2.7312 2.44372 3.11216 1.73098 3.67157 1.17157C4.23098 0.612165 4.94371 0.231202 5.71964 0.0768607C6.49556 -0.0774802 7.29983 0.00173312 8.03073 0.304484C8.76164 0.607234 9.38635 1.11992 9.82588 1.77772C10.2654 2.43552 10.5 3.20888 10.5 4C10.5 5.06087 10.0786 6.07828 9.32843 6.82843C8.57828 7.57858 7.56087 8 6.5 8ZM6.5 2C6.10444 2 5.71776 2.1173 5.38886 2.33706C5.05996 2.55683 4.80362 2.86918 4.65224 3.23464C4.50087 3.60009 4.46126 4.00222 4.53843 4.39018C4.6156 4.77815 4.80608 5.13451 5.08579 5.41422C5.36549 5.69392 5.72186 5.8844 6.10982 5.96157C6.49778 6.03874 6.89991 5.99914 7.26537 5.84776C7.63082 5.69639 7.94318 5.44004 8.16294 5.11114C8.3827 4.78224 8.5 4.39557 8.5 4C8.5 3.46957 8.28929 2.96086 7.91421 2.58579C7.53914 2.21072 7.03043 2 6.5 2ZM2.5 15C2.5 13.9391 2.92143 12.9217 3.67157 12.1716C4.42172 11.4214 5.43913 11 6.5 11C6.76522 11 7.01957 10.8946 7.20711 10.7071C7.39464 10.5196 7.5 10.2652 7.5 10C7.5 9.73479 7.39464 9.48043 7.20711 9.2929C7.01957 9.10536 6.76522 9 6.5 9C4.90919 9.00159 3.38399 9.63424 2.25911 10.7591C1.13424 11.884 0.501588 13.4092 0.5 15C0.5 15.2652 0.605357 15.5196 0.792893 15.7071C0.98043 15.8946 1.23478 16 1.5 16C1.76522 16 2.01957 15.8946 2.20711 15.7071C2.39464 15.5196 2.5 15.2652 2.5 15Z" fill="#28A08C"/>
</svg>
