<svg width="61" height="60" viewBox="0 0 61 60" fill="none" xmlns="http://www.w3.org/2000/svg">
<rect width="61" height="60" rx="30" fill="white" fill-opacity="0.5"/>
<path d="M42.4112 32.4481C42.4112 30.5625 41.951 28.7826 41.1377 27.2139C40.6173 27.519 40.0052 27.8836 39.5217 28.1881C40.1656 29.4708 40.5288 30.9178 40.5288 32.4481C40.5288 37.4535 36.6492 41.5696 31.7391 41.9476V41.4107C31.7391 41.0743 31.197 40.9058 30.88 41.1437L29.3206 42.3138C28.9244 42.6111 28.9244 43.0977 29.3206 43.3951L30.88 44.5652C31.1969 44.8031 31.7391 44.6346 31.7391 44.2982V43.8335C37.6879 43.4518 42.4112 38.4917 42.4112 32.4481Z" fill="url(#paint0_linear_707_5042)"/>
<path d="M40.9136 25.8162L40.4579 26.0754C38.4053 23.0391 34.9323 21.0381 30.9995 21.0381C26.8574 21.0381 23.224 23.2568 21.2246 26.568L22.7994 27.6019C24.4608 24.8018 27.5143 22.9204 30.9995 22.9204C34.2324 22.9204 37.0941 24.5391 38.8175 27.0084L38.4037 27.2438C38.1112 27.4102 38.2327 27.9646 38.5963 28.1226L40.3844 28.8995C40.8388 29.0969 41.2617 28.8563 41.3242 28.3649L41.5704 26.4309C41.6205 26.0377 41.206 25.6499 40.9136 25.8162Z" fill="url(#paint1_linear_707_5042)"/>
<path d="M29.32 43.3954C28.9237 43.098 28.9237 42.6114 29.32 42.3141L29.862 41.9074C25.143 41.343 21.4722 37.3169 21.4722 32.4483C21.4722 31.0436 21.7787 29.7094 22.327 28.5078L22.6797 28.7506C22.9569 28.9414 23.403 28.5904 23.3868 28.1944L23.3072 26.2464C23.2869 25.7514 22.8862 25.4755 22.4165 25.6333L20.5685 26.2542C20.1928 26.3805 20.0242 26.9225 20.3013 27.1133L20.7568 27.4268C20.0104 28.943 19.5898 30.6473 19.5898 32.4483C19.5898 38.3559 24.1027 43.229 29.862 43.802L29.32 43.3954Z" fill="url(#paint2_linear_707_5042)"/>
<path d="M31.0008 30.5035C35.2545 30.5035 38.7028 27.0552 38.7028 22.8016C38.7028 18.5479 35.2545 15.0996 31.0008 15.0996C26.7471 15.0996 23.2988 18.5479 23.2988 22.8016C23.2988 27.0552 26.7471 30.5035 31.0008 30.5035Z" fill="url(#paint3_linear_707_5042)"/>
<path d="M38.6781 23.4052C38.5432 25.1516 37.8255 26.7347 36.7188 27.9607C36.1576 28.5822 35.4963 29.1125 34.7604 29.5251L30.0867 24.8509L28.6072 23.3713C27.8845 22.7208 27.5195 21.7784 27.5195 20.7295C27.5195 18.7667 29.0211 17.2656 30.9839 17.2656C32.0328 17.2656 32.9752 17.6301 33.6257 18.3527L38.6781 23.4052Z" fill="url(#paint4_linear_707_5042)"/>
<path d="M36.7197 27.9605C36.1585 28.5821 35.4971 29.1124 34.7613 29.525C33.6492 30.1485 32.3663 30.5037 31.0006 30.5037C30.5434 30.5037 30.0955 30.464 29.6603 30.3874L26.6473 27.3743C26.4133 27.2394 26.4236 26.9088 26.6237 26.6866L26.6296 26.6807C27.5333 25.6769 28.7111 25.0416 30.0877 24.8508C30.3781 24.8106 30.6774 24.79 30.9845 24.79C32.6808 24.79 34.2104 25.4062 35.2991 26.5399L36.7197 27.9605Z" fill="url(#paint5_linear_707_5042)"/>
<path d="M30.9875 24.2837C32.9503 24.2837 34.5415 22.6925 34.5415 20.7297C34.5415 18.7669 32.9503 17.1758 30.9875 17.1758C29.0247 17.1758 27.4336 18.7669 27.4336 20.7297C27.4336 22.6925 29.0247 24.2837 30.9875 24.2837Z" fill="url(#paint6_linear_707_5042)"/>
<path d="M35.4633 26.7141C35.4413 26.6894 35.4192 26.6648 35.3968 26.6405C34.3035 25.4481 32.7337 24.7012 30.9882 24.7012C29.2238 24.7012 27.6377 25.4653 26.5435 26.681C26.5416 26.6831 26.5398 26.6851 26.538 26.6872C26.2922 26.9601 26.4675 27.3966 26.8329 27.433C27.9218 27.5415 29.4586 27.6089 31.1624 27.6089C32.7016 27.6089 34.1045 27.5539 35.1642 27.4631C35.5341 27.4314 35.7099 26.9917 35.4633 26.7141Z" fill="url(#paint7_linear_707_5042)"/>
<path d="M22.702 44.9C26.9556 44.9 30.4039 41.4517 30.4039 37.1981C30.4039 32.9444 26.9556 29.4961 22.702 29.4961C18.4483 29.4961 15 32.9444 15 37.1981C15 41.4517 18.4483 44.9 22.702 44.9Z" fill="url(#paint8_linear_707_5042)"/>
<path d="M30.3812 37.8016C30.2463 39.548 29.5286 41.1311 28.4219 42.3571C27.8607 42.9786 27.1994 43.5089 26.4636 43.9215L21.7898 39.2473L20.3103 37.7678C19.5876 37.1173 19.2227 36.1749 19.2227 35.126C19.2227 33.1632 20.7243 31.6621 22.6871 31.6621C23.7359 31.6621 24.6783 32.0266 25.3288 32.7492L30.3812 37.8016Z" fill="url(#paint9_linear_707_5042)"/>
<path d="M28.4208 42.357C27.8596 42.9786 27.1983 43.5089 26.4625 43.9215C25.3503 44.545 24.0675 44.9002 22.7017 44.9002C22.2445 44.9002 21.7967 44.8604 21.3615 44.7839L18.3484 41.7708C18.1145 41.6359 18.1247 41.3052 18.3249 41.0831L18.3308 41.0772C19.2345 40.0734 20.4123 39.4381 21.7889 39.2473C22.0793 39.2071 22.3785 39.1865 22.6856 39.1865C24.382 39.1865 25.9116 39.8027 27.0002 40.9364L28.4208 42.357Z" fill="url(#paint10_linear_707_5042)"/>
<path d="M22.6907 38.6802C24.6535 38.6802 26.2446 37.089 26.2446 35.1262C26.2446 33.1634 24.6535 31.5723 22.6907 31.5723C20.7279 31.5723 19.1367 33.1634 19.1367 35.1262C19.1367 37.089 20.7279 38.6802 22.6907 38.6802Z" fill="url(#paint11_linear_707_5042)"/>
<path d="M27.1645 41.1096C27.1425 41.0849 27.1204 41.0603 27.098 41.036C26.0047 39.8436 24.4349 39.0967 22.6894 39.0967C20.925 39.0967 19.3388 39.8609 18.2447 41.0765C18.2428 41.0786 18.241 41.0806 18.2392 41.0827C17.9934 41.3556 18.1687 41.7921 18.5341 41.8285C19.623 41.937 21.1597 42.0044 22.8635 42.0044C24.4027 42.0044 25.8057 41.9494 26.8653 41.8586C27.2352 41.8269 27.411 41.3872 27.1645 41.1096Z" fill="url(#paint12_linear_707_5042)"/>
<path d="M39.2977 44.9C43.5513 44.9 46.9996 41.4517 46.9996 37.1981C46.9996 32.9444 43.5513 29.4961 39.2977 29.4961C35.044 29.4961 31.5957 32.9444 31.5957 37.1981C31.5957 41.4517 35.044 44.9 39.2977 44.9Z" fill="url(#paint13_linear_707_5042)"/>
<path d="M46.9769 37.8017C46.842 39.5481 46.1243 41.1312 45.0176 42.3571C44.4564 42.9787 43.7951 43.509 43.0593 43.9216L38.3856 39.2474L36.906 37.7678C36.1833 37.1173 35.8184 36.1749 35.8184 35.126C35.8184 33.1632 37.32 31.6621 39.2828 31.6621C40.3316 31.6621 41.274 32.0266 41.9245 32.7492L46.9769 37.8017Z" fill="url(#paint14_linear_707_5042)"/>
<path d="M45.0165 42.357C44.4554 42.9786 43.794 43.5089 43.0582 43.9215C41.946 44.545 40.6632 44.9002 39.2975 44.9002C38.8402 44.9002 38.3924 44.8604 37.9572 44.7839L34.9441 41.7708C34.7102 41.6359 34.7204 41.3052 34.9206 41.0831C34.9225 41.0811 34.9246 41.0791 34.9265 41.0772C35.8302 40.0734 37.008 39.4381 38.3846 39.2473C38.675 39.2071 38.9743 39.1865 39.2813 39.1865C40.9777 39.1865 42.5073 39.8027 43.5959 40.9364L45.0165 42.357Z" fill="url(#paint15_linear_707_5042)"/>
<path d="M39.2864 38.6802C41.2492 38.6802 42.8403 37.089 42.8403 35.1262C42.8403 33.1634 41.2492 31.5723 39.2864 31.5723C37.3236 31.5723 35.7324 33.1634 35.7324 35.1262C35.7324 37.089 37.3236 38.6802 39.2864 38.6802Z" fill="url(#paint16_linear_707_5042)"/>
<path d="M43.7602 41.1096C43.7382 41.0849 43.7161 41.0603 43.6937 41.036C42.6004 39.8436 41.0306 39.0967 39.2851 39.0967C37.5207 39.0967 35.9345 39.8609 34.8404 41.0765C34.8385 41.0786 34.8367 41.0806 34.8349 41.0827C34.5891 41.3556 34.7644 41.7921 35.1298 41.8285C36.2187 41.937 37.7555 42.0044 39.4592 42.0044C40.9984 42.0044 42.4014 41.9494 43.4611 41.8586C43.8309 41.8269 44.0067 41.3872 43.7602 41.1096Z" fill="url(#paint17_linear_707_5042)"/>
<defs>
<linearGradient id="paint0_linear_707_5042" x1="35.6285" y1="36.6657" x2="34.7814" y2="31.4892" gradientUnits="userSpaceOnUse">
<stop stop-color="#2F73A0"/>
<stop offset="1" stop-color="#174461"/>
</linearGradient>
<linearGradient id="paint1_linear_707_5042" x1="31.846" y1="26.4236" x2="25.2264" y2="29.9687" gradientUnits="userSpaceOnUse">
<stop stop-color="#2F73A0"/>
<stop offset="1" stop-color="#174461"/>
</linearGradient>
<linearGradient id="paint2_linear_707_5042" x1="21.3807" y1="30.9789" x2="28.0695" y2="40.2569" gradientUnits="userSpaceOnUse">
<stop stop-color="#2F73A0"/>
<stop offset="1" stop-color="#174461"/>
</linearGradient>
<linearGradient id="paint3_linear_707_5042" x1="27.8598" y1="19.6607" x2="35.6206" y2="27.4215" gradientUnits="userSpaceOnUse">
<stop stop-color="#7ACBFF"/>
<stop offset="1" stop-color="#45A2E0"/>
</linearGradient>
<linearGradient id="paint4_linear_707_5042" x1="35.6144" y1="25.3601" x2="29.6891" y2="19.4347" gradientUnits="userSpaceOnUse">
<stop stop-color="#2F73A0" stop-opacity="0"/>
<stop offset="1" stop-color="#2F73A0"/>
</linearGradient>
<linearGradient id="paint5_linear_707_5042" x1="32.1828" y1="30.2095" x2="30.9073" y2="24.388" gradientUnits="userSpaceOnUse">
<stop stop-color="#2F73A0" stop-opacity="0"/>
<stop offset="1" stop-color="#2F73A0"/>
</linearGradient>
<linearGradient id="paint6_linear_707_5042" x1="29.1979" y1="20.7297" x2="32.3032" y2="20.7297" gradientUnits="userSpaceOnUse">
<stop stop-color="#EDF5FF"/>
<stop offset="1" stop-color="#C7E9FF"/>
</linearGradient>
<linearGradient id="paint7_linear_707_5042" x1="29.1991" y1="26.155" x2="32.3044" y2="26.155" gradientUnits="userSpaceOnUse">
<stop stop-color="#EDF5FF"/>
<stop offset="1" stop-color="#C7E9FF"/>
</linearGradient>
<linearGradient id="paint8_linear_707_5042" x1="19.5611" y1="34.0571" x2="27.3219" y2="41.8179" gradientUnits="userSpaceOnUse">
<stop stop-color="#E4E08E"/>
<stop offset="1" stop-color="#6FA953"/>
</linearGradient>
<linearGradient id="paint9_linear_707_5042" x1="27.3175" y1="39.7565" x2="21.3921" y2="33.8311" gradientUnits="userSpaceOnUse">
<stop stop-color="#43765A" stop-opacity="0"/>
<stop offset="1" stop-color="#43765A"/>
</linearGradient>
<linearGradient id="paint10_linear_707_5042" x1="23.8839" y1="44.6059" x2="22.6084" y2="38.7845" gradientUnits="userSpaceOnUse">
<stop stop-color="#43765A" stop-opacity="0"/>
<stop offset="1" stop-color="#43765A"/>
</linearGradient>
<linearGradient id="paint11_linear_707_5042" x1="20.901" y1="35.1262" x2="24.0064" y2="35.1262" gradientUnits="userSpaceOnUse">
<stop stop-color="#EDF5FF"/>
<stop offset="1" stop-color="#C7E9FF"/>
</linearGradient>
<linearGradient id="paint12_linear_707_5042" x1="20.9002" y1="40.5505" x2="24.0056" y2="40.5505" gradientUnits="userSpaceOnUse">
<stop stop-color="#EDF5FF"/>
<stop offset="1" stop-color="#C7E9FF"/>
</linearGradient>
<linearGradient id="paint13_linear_707_5042" x1="36.1567" y1="34.0571" x2="43.9175" y2="41.8179" gradientUnits="userSpaceOnUse">
<stop stop-color="#FF755C"/>
<stop offset="1" stop-color="#FF4181"/>
</linearGradient>
<linearGradient id="paint14_linear_707_5042" x1="43.9132" y1="39.7565" x2="37.9879" y2="33.8311" gradientUnits="userSpaceOnUse">
<stop stop-color="#843561" stop-opacity="0"/>
<stop offset="1" stop-color="#3A2F4D"/>
</linearGradient>
<linearGradient id="paint15_linear_707_5042" x1="40.4796" y1="44.6059" x2="39.2041" y2="38.7845" gradientUnits="userSpaceOnUse">
<stop stop-color="#843561" stop-opacity="0"/>
<stop offset="1" stop-color="#3A2F4D"/>
</linearGradient>
<linearGradient id="paint16_linear_707_5042" x1="37.4968" y1="35.1262" x2="40.6021" y2="35.1262" gradientUnits="userSpaceOnUse">
<stop stop-color="#EDF5FF"/>
<stop offset="1" stop-color="#C7E9FF"/>
</linearGradient>
<linearGradient id="paint17_linear_707_5042" x1="37.4959" y1="40.5505" x2="40.6013" y2="40.5505" gradientUnits="userSpaceOnUse">
<stop stop-color="#EDF5FF"/>
<stop offset="1" stop-color="#C7E9FF"/>
</linearGradient>
</defs>
</svg>
