<svg width="25" height="26" viewBox="0 0 25 26" fill="none" xmlns="http://www.w3.org/2000/svg">
<g clip-path="url(#clip0_27_637)">
<path d="M17.426 19.179C18.0365 19.7894 18.0365 20.779 17.426 21.3884C16.8156 21.9988 15.826 21.9988 15.2167 21.3884L10.3896 16.5613C9.98229 16.154 9.32292 16.154 8.91667 16.5613C8.50938 16.9686 8.50938 17.628 8.91667 18.0342L13.3031 22.4207C13.9135 23.0311 13.9135 24.0207 13.3031 24.6301C12.6927 25.2405 11.7031 25.2405 11.0937 24.6301L6.22604 19.7624C3.14688 16.7582 0 12.753 0 8.9384C0 4.91756 3.0375 1.64673 6.77083 1.64673C8.61771 1.64673 10.0323 2.33631 11.1094 3.10194L7.31875 6.86027C6.62917 7.54881 6.25 8.46548 6.25 9.43944C6.25 10.4134 6.62917 11.329 7.31667 12.0165C8.00521 12.7061 8.92083 13.0853 9.89583 13.0853C10.3396 13.0853 10.7677 12.9967 11.1719 12.8467L17.4271 19.1801L17.426 19.179ZM15.0219 9.48527L12.8427 11.6499L19.2073 17.9186C19.8177 18.529 20.8073 18.529 21.4167 17.9186C22.35 16.9853 21.551 15.9519 21.551 15.9519L15.0219 9.48527ZM18.1844 1.70715C16.4823 1.71756 14.8656 2.45715 13.6198 3.61756L8.78958 8.41548C8.17917 9.0259 8.17917 10.0155 8.78958 10.6249C9.4 11.2353 10.3896 11.2353 10.999 10.6249L13.6 8.04152C14.4125 7.23423 15.7229 7.23423 16.5365 8.04152L23.124 14.5811C24.3646 12.579 24.9979 10.704 24.9979 8.99881C24.9979 4.97798 21.9167 1.70715 18.1833 1.70715H18.1844Z" fill="#9C40EC"/>
</g>
<defs>
<clipPath id="clip0_27_637">
<rect width="25" height="25" fill="white" transform="translate(0 0.60498)"/>
</clipPath>
</defs>
</svg>
