<svg width="25" height="24" viewBox="0 0 25 24" fill="none" xmlns="http://www.w3.org/2000/svg">
<path d="M18.5653 17.2168C19.7711 15.8161 20.5 13.9932 20.5 12C20.5 10.0068 19.7711 8.1839 18.5653 6.78324L15.1471 10.2014C15.496 10.714 15.7 11.3332 15.7 12C15.7 12.6668 15.496 13.286 15.1471 13.7986L18.5653 17.2168Z" fill="#28A08C"/>
<path d="M17.7168 18.0653C16.3161 19.2711 14.4932 20 12.5 20C10.5068 20 8.6839 19.2711 7.28324 18.0653L10.7014 14.6471C11.214 14.996 11.8332 15.2 12.5 15.2C13.1668 15.2 13.786 14.996 14.2986 14.6471L17.7168 18.0653Z" fill="#28A08C"/>
<path d="M6.43472 17.2168L9.8529 13.7986C9.50396 13.286 9.3 12.6668 9.3 12C9.3 11.3332 9.50396 10.714 9.8529 10.2014L6.43472 6.78324C5.22891 8.1839 4.5 10.0068 4.5 12C4.5 13.9932 5.22891 15.8161 6.43472 17.2168Z" fill="#28A08C"/>
<path d="M12.5 8.8C11.8332 8.8 11.214 9.00396 10.7014 9.3529L7.28324 5.93472C8.6839 4.72891 10.5068 4 12.5 4C14.4932 4 16.3161 4.72891 17.7168 5.93472L14.2986 9.3529C13.786 9.00396 13.1668 8.8 12.5 8.8Z" fill="#28A08C"/>
</svg>
