<svg width="14" height="14" viewBox="0 0 14 14" fill="none" xmlns="http://www.w3.org/2000/svg">
<path d="M12.3067 3.33006L8.51504 0.771227C7.59475 0.150477 6.40525 0.150477 5.48496 0.771227L1.69383 3.33006C0.946333 3.83381 0.5 4.67285 0.5 5.57527V10.5998C0.5 12.0931 1.71496 13.3081 3.20833 13.3081H10.7917C12.285 13.3081 13.5 12.0931 13.5 10.5998V5.57527C13.5 4.67339 13.0537 3.83381 12.3067 3.33006ZM9.16667 8.97477C9.16667 9.57223 8.68079 10.0581 8.08333 10.0581H5.91667C5.31921 10.0581 4.83333 9.57223 4.83333 8.97477V6.8081C4.83333 6.21064 5.31921 5.72477 5.91667 5.72477H8.08333C8.68079 5.72477 9.16667 6.21064 9.16667 6.8081V8.97477ZM8.08333 6.8081L8.08442 8.97477H5.91667V6.8081H8.08333Z" fill="white"/>
</svg>
