<svg width="13" height="13" viewBox="0 0 13 13" fill="none" xmlns="http://www.w3.org/2000/svg">
<path d="M11.8067 3.02244L8.01504 0.463609C7.09475 -0.157141 5.90525 -0.157141 4.98496 0.463609L1.19383 3.02244C0.446333 3.52619 0 4.36523 0 5.26765V10.2922C0 11.7855 1.21496 13.0005 2.70833 13.0005H10.2917C11.785 13.0005 13 11.7855 13 10.2922V5.26765C13 4.36578 12.5537 3.52619 11.8067 3.02244ZM8.66667 8.66715C8.66667 9.26461 8.18079 9.75048 7.58333 9.75048H5.41667C4.81921 9.75048 4.33333 9.26461 4.33333 8.66715V6.50048C4.33333 5.90303 4.81921 5.41715 5.41667 5.41715H7.58333C8.18079 5.41715 8.66667 5.90303 8.66667 6.50048V8.66715ZM7.58333 6.50048L7.58442 8.66715H5.41667V6.50048H7.58333Z" fill="#7563FF"/>
</svg>
