<svg width="41" height="40" viewBox="0 0 41 40" fill="none" xmlns="http://www.w3.org/2000/svg">
<g clip-path="url(#clip0_2143_4555)">
<g clip-path="url(#clip1_2143_4555)">
<path d="M13.3333 37.5002C13.3333 38.8818 12.215 40.0002 10.8333 40.0002H9.16667C4.11167 40.0002 0 35.8885 0 30.8335V16.5402C0 13.4885 1.51 10.6485 4.04 8.94184L15.0417 1.51684C18.0533 -0.516497 21.945 -0.518164 24.9583 1.51684L35.96 8.94184C36.3617 9.2135 36.7433 9.51517 37.0917 9.84184C38.1 10.7852 38.1517 12.3668 37.2083 13.3752C36.2667 14.3818 34.6833 14.4352 33.675 13.4918C33.5167 13.3435 33.345 13.2085 33.1633 13.0852L22.1617 5.66017C20.8467 4.7735 19.15 4.77517 17.84 5.66017L6.83667 13.0852C5.68667 13.8618 5 15.1535 5 16.5402V30.8335C5 33.1302 6.87 35.0002 9.16667 35.0002H10.8333C12.215 35.0002 13.3333 36.1185 13.3333 37.5002ZM39.8667 26.5168C39.3067 29.7002 36.8267 32.3335 33.6833 33.0918C31.7667 33.5535 29.9417 33.3302 28.3617 32.6468L21.74 39.2685C21.2717 39.7368 20.635 40.0002 19.9733 40.0002H18.415C17.45 40.0002 16.6683 39.2185 16.6683 38.2535V36.3602C16.6683 35.6085 17.2767 35.0002 18.0283 35.0002H19.9667V33.0268C19.9667 32.2752 20.575 31.6668 21.3267 31.6668H23.3V29.1668C23.3 28.3335 23.825 27.7068 23.825 27.7068C23.2167 25.9435 23.0383 23.9768 24.11 21.7652C25.63 18.6268 28.7033 16.4702 32.185 16.6835C37.0367 16.9785 40.7667 21.4252 39.87 26.5168H39.8667ZM35.8333 23.3335C35.8333 21.9535 34.7133 20.8335 33.3333 20.8335C31.9533 20.8335 30.8333 21.9535 30.8333 23.3335C30.8333 24.7135 31.9533 25.8335 33.3333 25.8335C34.7133 25.8335 35.8333 24.7135 35.8333 23.3335Z" fill="url(#paint0_linear_2143_4555)"/>
</g>
</g>
<defs>
<linearGradient id="paint0_linear_2143_4555" x1="1.49025e-07" y1="19.9957" x2="40.0058" y2="39.996" gradientUnits="userSpaceOnUse">
<stop stop-color="#28A08C"/>
<stop offset="1" stop-color="#50CC88"/>
</linearGradient>
<clipPath id="clip0_2143_4555">
<rect width="40" height="40" fill="white" transform="translate(0.5)"/>
</clipPath>
<clipPath id="clip1_2143_4555">
<rect width="40" height="40" fill="white"/>
</clipPath>
</defs>
</svg>
