<svg width="26" height="26" viewBox="0 0 26 26" fill="none" xmlns="http://www.w3.org/2000/svg">
<g clip-path="url(#clip0_1800_20840)" filter="url(#filter0_f_1800_20840)">
<path d="M20.5623 8.91092L20.5 8.86217V6.24992C20.5 5.83592 20.164 5.49992 19.75 5.49992C19.336 5.49992 19 5.83592 19 6.24992V7.68692L15.3123 4.79792C13.951 3.73142 12.0483 3.73142 10.687 4.79792L5.43775 8.91092C4.52425 9.62642 4 10.7027 4 11.8629V18.2499C4 20.3177 5.68225 21.9999 7.75 21.9999H18.25C20.3177 21.9999 22 20.3177 22 18.2499V11.8629C22 10.7027 21.4757 9.62642 20.5623 8.91092ZM9.25 12.6249C9.25 12.0039 9.754 11.4999 10.375 11.4999C10.996 11.4999 11.5 12.0039 11.5 12.6249C11.5 13.2459 10.996 13.7499 10.375 13.7499C9.754 13.7499 9.25 13.2459 9.25 12.6249ZM11.4992 18.2499C11.3732 18.2499 11.245 18.2184 11.128 18.1509C10.7687 17.9454 10.6435 17.4872 10.849 17.1279L13.849 11.8779C14.0545 11.5187 14.5128 11.3942 14.872 11.5989C15.2312 11.8044 15.3565 12.2627 15.151 12.6219L12.151 17.8719C12.0122 18.1142 11.7595 18.2499 11.4992 18.2499ZM15.625 18.2499C15.004 18.2499 14.5 17.7459 14.5 17.1249C14.5 16.5039 15.004 15.9999 15.625 15.9999C16.246 15.9999 16.75 16.5039 16.75 17.1249C16.75 17.7459 16.246 18.2499 15.625 18.2499Z" fill="#6B7878"/>
</g>
<defs>
<filter id="filter0_f_1800_20840" x="0" y="0" width="26" height="26" filterUnits="userSpaceOnUse" color-interpolation-filters="sRGB">
<feFlood flood-opacity="0" result="BackgroundImageFix"/>
<feBlend mode="normal" in="SourceGraphic" in2="BackgroundImageFix" result="shape"/>
<feGaussianBlur stdDeviation="2" result="effect1_foregroundBlur_1800_20840"/>
</filter>
<clipPath id="clip0_1800_20840">
<rect width="18" height="18" fill="white" transform="translate(4 4)"/>
</clipPath>
</defs>
</svg>
