<svg width="24" height="24" viewBox="0 0 24 24" fill="none" xmlns="http://www.w3.org/2000/svg">
<path d="M9 7.5C9 6.67 9.67 6 10.5 6C11.33 6 12 6.67 12 7.5C12 8.33 11.33 9 10.5 9C9.67 9 9 8.33 9 7.5ZM24 7V13C24 15.76 21.76 18 19 18H10C7.24 18 5 15.76 5 13V7C5 4.24 7.24 2 10 2H19C21.76 2 24 4.24 24 7ZM7 13C7 13.77 7.29 14.47 7.77 15.01L13.01 9.77C13.99 8.79 15.7 8.79 16.68 9.77L17.72 10.81C17.95 11.04 18.34 11.04 18.57 10.81L22 7.38V7C22 5.35 20.65 4 19 4H10C8.35 4 7 5.35 7 7V13ZM22 13V10.21L19.98 12.23C19 13.21 17.29 13.21 16.31 12.23L15.27 11.19C15.04 10.96 14.66 10.96 14.42 11.19L9.63 15.98C9.75 16 9.87 16 10 16H19C20.65 16 22 14.65 22 13ZM17 20H5C3.35 20 2 18.65 2 17V11C2 10.26 2.27 9.55 2.77 9C3.14 8.59 3.1 7.96 2.69 7.59C2.28 7.22 1.65 7.26 1.28 7.67C0.46 8.59 0 9.77 0 11.01V17.01C0 19.77 2.24 22.01 5 22.01H17C17.55 22.01 18 21.56 18 21.01C18 20.46 17.55 20.01 17 20.01V20Z" fill="#0D2D2D"/>
</svg>
