<svg width="14" height="14" viewBox="0 0 14 14" fill="none" xmlns="http://www.w3.org/2000/svg">
<g clip-path="url(#clip0_202_9971)">
<path d="M8.7859 4.21358C8.57302 4.00341 8.5714 3.66053 8.78102 3.44766C8.99227 3.23424 9.33406 3.23316 9.54748 3.44278L10.25 4.13666V0.849284C10.25 0.550284 10.4921 0.307617 10.7917 0.307617C11.0912 0.307617 11.3334 0.550284 11.3334 0.849284V4.12745L12.0391 3.44062C12.2531 3.23153 12.5954 3.23641 12.8051 3.45091C13.0136 3.66541 13.0093 4.00828 12.7942 4.21683L11.5831 5.39603C11.1416 5.83695 10.4196 5.83262 9.97756 5.39116L8.7859 4.21358ZM13.5 6.26595V11.6826C13.5 12.5785 12.7709 13.3076 11.875 13.3076H3.20836C1.71498 13.3076 0.500022 12.0927 0.500022 10.5993V5.18262C0.494064 3.71199 1.70361 2.47158 3.20836 2.47428H7.00002C7.29956 2.47428 7.54169 2.71695 7.54169 3.01595C7.54169 3.31495 7.29956 3.55762 7.00002 3.55762H3.20836C2.7279 3.55762 2.29511 3.76724 1.99773 4.09983C2.30269 4.43945 2.74306 4.64095 3.20836 4.64095H7.76702C7.83798 4.76337 7.91923 4.88037 8.02431 4.98437L9.21165 6.15762C10.0263 7.01237 11.5251 7.01833 12.3381 6.17224L13.2005 5.33266C13.3874 5.59753 13.5 5.9182 13.5 6.26595ZM11.3334 8.97428C11.3334 8.52578 10.9694 8.16178 10.5209 8.16178C10.0724 8.16178 9.70835 8.52578 9.70835 8.97428C9.70835 9.42278 10.0724 9.78678 10.5209 9.78678C10.9694 9.78678 11.3334 9.42278 11.3334 8.97428Z" fill="white"/>
</g>
<defs>
<clipPath id="clip0_202_9971">
<rect width="13" height="13" fill="white" transform="translate(0.5 0.307617)"/>
</clipPath>
</defs>
</svg>
