<svg width="14" height="13" viewBox="0 0 14 13" fill="none" xmlns="http://www.w3.org/2000/svg">
<path d="M12.3067 3.02244L8.51504 0.463609C7.59475 -0.157141 6.40525 -0.157141 5.48496 0.463609L1.69383 3.02244C0.946333 3.52619 0.5 4.36523 0.5 5.26765V10.2922C0.5 11.7855 1.71496 13.0005 3.20833 13.0005H10.7917C12.285 13.0005 13.5 11.7855 13.5 10.2922V5.26765C13.5 4.36578 13.0537 3.52619 12.3067 3.02244ZM9.16667 8.66715C9.16667 9.26461 8.68079 9.75048 8.08333 9.75048H5.91667C5.31921 9.75048 4.83333 9.26461 4.83333 8.66715V6.50048C4.83333 5.90303 5.31921 5.41715 5.91667 5.41715H8.08333C8.68079 5.41715 9.16667 5.90303 9.16667 6.50048V8.66715ZM8.08333 6.50048L8.08442 8.66715H5.91667V6.50048H8.08333Z" fill="white"/>
</svg>
