<svg width="14" height="13" viewBox="0 0 14 13" fill="none" xmlns="http://www.w3.org/2000/svg">
<g clip-path="url(#clip0_48_4888)">
<path d="M5.375 2.16667C5.375 0.970125 7.19392 0 9.4375 0C11.6811 0 13.5 0.970125 13.5 2.16667C13.5 3.36321 11.6811 4.33333 9.4375 4.33333C7.19392 4.33333 5.375 3.36321 5.375 2.16667ZM9.4375 6.5C11.6811 6.5 13.5 5.52988 13.5 4.33333V3.25C13.5 4.44654 11.6811 5.41667 9.4375 5.41667C7.19392 5.41667 5.375 4.44654 5.375 3.25V4.33333C5.375 5.52988 7.19392 6.5 9.4375 6.5ZM3.75 6.5C1.95492 6.5 0.5 7.95492 0.5 9.75C0.5 11.5451 1.95492 13 3.75 13C5.54508 13 7 11.5451 7 9.75C7 7.95492 5.54508 6.5 3.75 6.5ZM4.29167 9.75V11.375H3.20833V9.75H1.87908L3.33454 8.29454C3.56042 8.06867 3.92658 8.06867 4.15246 8.29454L5.60846 9.75H4.29167ZM9.4375 11.9443C8.78642 11.9443 8.17108 11.8625 7.62563 11.7173C7.46421 12.0385 7.26488 12.3375 7.03196 12.6073C7.70525 12.8716 8.53725 13.0282 9.4375 13.0282C11.6811 13.0282 13.5 12.058 13.5 10.8615V9.77817C13.5 10.9747 11.6811 11.9443 9.4375 11.9443ZM9.4375 7.61096C8.651 7.61096 7.91704 7.49179 7.29521 7.28542C7.56063 7.66188 7.767 8.08221 7.90188 8.53396C8.37583 8.63742 8.89421 8.69429 9.4375 8.69429C11.6811 8.69429 13.5 7.72417 13.5 6.52763V5.44429C13.5 6.64083 11.6811 7.61096 9.4375 7.61096ZM9.4375 9.77763C8.96192 9.77763 8.50583 9.73375 8.08171 9.65358C8.08279 9.69475 8.08333 9.73592 8.08333 9.77763C8.08333 10.1005 8.04758 10.4146 7.98096 10.7174C8.43325 10.81 8.924 10.861 9.4375 10.861C11.6811 10.861 13.5 9.89083 13.5 8.69429V7.61096C13.5 8.8075 11.6811 9.77763 9.4375 9.77763Z" fill="white"/>
</g>
<defs>
<clipPath id="clip0_48_4888">
<rect width="13" height="13" fill="white" transform="translate(0.5)"/>
</clipPath>
</defs>
</svg>
