<svg width="61" height="60" viewBox="0 0 61 60" fill="none" xmlns="http://www.w3.org/2000/svg">
<rect width="61" height="60" rx="30" fill="white" fill-opacity="0.5"/>
<g clip-path="url(#clip0_707_5073)">
<path d="M30.8309 39.8272C30.8309 39.8272 27.4666 41.4756 27.2796 36.7239C27.2718 36.5257 27.4231 36.3572 27.6209 36.3413C28.5718 36.2649 31.1192 36.377 30.8309 39.8272Z" fill="url(#paint0_linear_707_5073)"/>
<path d="M27.6223 36.3413C27.5127 36.3501 27.4175 36.406 27.3555 36.4876C28.8027 38.2644 30.8325 39.8274 30.8325 39.8274C31.1206 36.377 28.5732 36.2649 27.6223 36.3413Z" fill="url(#paint1_linear_707_5073)"/>
<path d="M30.2749 44.667L29.1301 44.0972L29.7026 44.3821L29.1296 44.0981C29.1384 44.0803 30.0059 42.2986 30.4124 39.3262C30.7871 36.5884 30.8362 32.2473 28.9434 27.1152L30.1431 26.6729C32.1377 32.0806 32.0747 36.6667 31.6709 39.5618C31.2297 42.7222 30.3137 44.5889 30.2749 44.667Z" fill="url(#paint2_linear_707_5073)"/>
<path d="M30.1431 26.6729L28.9434 27.1152C29.9121 29.7419 30.3713 32.1602 30.5396 34.2634L31.8901 35.6143C31.8298 33.093 31.386 30.0425 30.1431 26.6729Z" fill="url(#paint3_linear_707_5073)"/>
<path d="M41.042 46.3333H21.709C21.137 46.3333 20.6653 45.8733 20.6641 45.3013C20.6641 45.2976 20.6641 45.2942 20.6641 45.2905C20.6641 43.8679 21.2195 42.575 22.1257 41.6172C22.469 41.2664 22.8542 40.9565 23.2734 40.6968C24.2039 40.1196 25.3013 39.7861 26.4768 39.7861C28.2112 39.7861 29.7751 40.5112 30.8835 41.675C31.1609 41.9658 31.5737 42.0879 31.9624 41.9836C32.2239 41.9131 32.499 41.8757 32.7832 41.8757C33.6809 41.8757 34.491 42.251 35.0649 42.8528C35.3665 43.1694 35.8262 43.2781 36.2371 43.1289C36.6824 42.9673 37.1628 42.8784 37.6641 42.8784C39.4473 42.8784 40.9695 43.9961 41.5688 45.5681C41.7095 45.9377 41.437 46.3333 41.042 46.3333Z" fill="url(#paint4_linear_707_5073)"/>
<path d="M31.5885 40.3864C31.5885 40.3864 30.4813 34.9162 37.3998 36.4384C37.6884 36.5019 37.8739 36.7834 37.8224 37.0744C37.5739 38.4738 36.4523 42.1025 31.5885 40.3864Z" fill="url(#paint5_linear_707_5073)"/>
<path d="M37.8218 37.0742C37.8503 36.9128 37.8059 36.7546 37.7114 36.6348C34.6055 38.0503 31.5879 40.3862 31.5879 40.3862C36.4517 42.1023 37.5732 38.4736 37.8218 37.0742Z" fill="url(#paint6_linear_707_5073)"/>
<path d="M36.0989 38.1963C36.0417 38.1929 35.9849 38.1853 35.9287 38.1785C35.8723 38.1719 35.8162 38.1655 35.7607 38.156C35.7051 38.1477 35.6504 38.1313 35.5962 38.1162C35.542 38.1006 35.4875 38.0942 35.4316 38.0962C35.376 38.0989 35.3203 38.1042 35.2622 38.1152C35.3254 38.0708 35.3887 38.0266 35.4521 37.9819L35.7639 37.7683C35.8679 37.6965 35.9749 37.6318 36.0798 37.5615C36.2917 37.4248 36.5073 37.2974 36.7324 37.1841L36.7126 37.1292L36.5295 37.1877L36.4373 37.2173C36.407 37.228 36.3777 37.2405 36.3479 37.252C36.23 37.3008 36.1082 37.3452 35.9932 37.3997C35.7588 37.5029 35.5308 37.6174 35.3015 37.7307C35.2581 37.7537 35.2144 37.7766 35.1709 37.7996C35.187 37.762 35.2002 37.7234 35.2073 37.6821C35.217 37.6267 35.2261 37.5701 35.2427 37.5164C35.2583 37.4624 35.2766 37.4089 35.2952 37.3555C35.3135 37.3018 35.3315 37.2473 35.3533 37.1943C35.3921 37.0857 35.4409 36.9812 35.488 36.8721L35.4622 36.8525C35.3728 36.9319 35.2888 37.0186 35.2126 37.1123C35.1741 37.1587 35.1387 37.2078 35.1025 37.2568C35.0693 37.3071 35.0356 37.3579 35.0049 37.4104C34.9736 37.4626 34.939 37.5139 34.9065 37.5669C34.8752 37.6204 34.8535 37.678 34.8442 37.7393C34.8425 37.7512 34.8408 37.7634 34.8396 37.7756C34.8259 37.9082 34.7458 38.0251 34.6292 38.0898L34.627 38.0911C34.4238 38.2036 34.2239 38.3206 34.0227 38.4365C34.0442 38.3831 34.0598 38.3306 34.073 38.2781C34.0857 38.2236 34.0901 38.1689 34.0854 38.1128C34.0811 38.0569 34.0754 37.9998 34.0781 37.9436C34.0796 37.8872 34.0842 37.8311 34.0889 37.7747C34.0933 37.718 34.0967 37.6606 34.1045 37.604C34.115 37.4893 34.1362 37.3757 34.1545 37.2585L34.1245 37.2461C34.0581 37.345 33.9983 37.4502 33.948 37.5598C33.9221 37.6145 33.9001 37.6709 33.8774 37.7273C33.8579 37.7844 33.8381 37.842 33.8215 37.9006C33.8042 37.959 33.7834 38.0173 33.7654 38.0767C33.7485 38.1362 33.7417 38.1975 33.748 38.259C33.7512 38.2864 33.7554 38.3137 33.761 38.3408C33.7886 38.4739 33.7219 38.6089 33.6035 38.675C33.5017 38.7322 33.3999 38.7888 33.2986 38.8467C33.1699 38.9194 33.0459 38.9988 32.9248 39.0825C32.9421 39.0361 32.9558 38.9902 32.9673 38.9443C32.98 38.8899 32.9844 38.8354 32.9797 38.7793C32.9753 38.7231 32.9697 38.6663 32.9724 38.6101C32.9739 38.5537 32.9785 38.4976 32.9832 38.4409C32.9873 38.3843 32.991 38.3271 32.9988 38.2705C33.0093 38.1555 33.0305 38.0422 33.0488 37.9248L33.0188 37.9124C32.9524 38.0115 32.8928 38.1165 32.8423 38.2261C32.8164 38.2808 32.7947 38.3372 32.772 38.3936C32.7522 38.4507 32.7324 38.5083 32.7158 38.5669C32.6985 38.6252 32.6777 38.6836 32.6597 38.7429C32.6428 38.8025 32.636 38.8635 32.6423 38.9253C32.6494 38.9866 32.6616 39.0483 32.6846 39.1086C32.7107 39.178 32.6919 39.2556 32.635 39.303C32.4875 39.4255 32.2227 39.6489 32.0901 39.7773C31.9067 39.9578 31.7292 40.146 31.5723 40.3621L31.6064 40.4094C31.8608 40.3303 32.0972 40.2273 32.3276 40.1165C32.5579 40.0049 32.7812 39.8843 32.9985 39.7554C33.0024 39.7529 33.0063 39.7507 33.0103 39.7485C33.0803 39.707 33.1675 39.7214 33.2249 39.7793C33.2673 39.8218 33.3145 39.8569 33.363 39.8877C33.4158 39.9199 33.4739 39.9407 33.5349 39.9512C33.5962 39.9604 33.6577 39.967 33.718 39.9771C33.7778 39.9873 33.8384 39.9944 33.8984 40.0015C33.9592 40.0056 34.0193 40.0103 34.0798 40.0107C34.2007 40.0129 34.321 40.0049 34.4392 39.9878L34.4409 39.9553C34.3271 39.9211 34.2158 39.8909 34.1079 39.8503C34.0535 39.8328 34.0002 39.8113 33.9473 39.7908C33.8945 39.7703 33.8418 39.75 33.7905 39.7268C33.7385 39.7051 33.6897 39.6753 33.6411 39.647C33.5925 39.6184 33.5415 39.5989 33.4868 39.5867C33.4275 39.5745 33.3669 39.5654 33.3018 39.5623C33.4111 39.4875 33.5178 39.4092 33.6223 39.3274C33.7051 39.2612 33.8179 39.1733 33.9172 39.0962C34.0227 39.0144 34.1702 39.0061 34.28 39.082C34.3337 39.1191 34.3926 39.1482 34.4431 39.1802C34.4958 39.2126 34.554 39.2332 34.615 39.2439C34.6763 39.2532 34.7378 39.2598 34.7979 39.2695C34.8579 39.2798 34.9182 39.2871 34.9783 39.2942C35.0391 39.2981 35.0994 39.3027 35.1599 39.3032C35.2805 39.3054 35.4011 39.2974 35.519 39.2803L35.521 39.2478C35.4072 39.2136 35.2959 39.1833 35.188 39.1431C35.1335 39.1255 35.0803 39.104 35.0276 39.0833C34.9746 39.0627 34.9219 39.0425 34.8706 39.0195C34.8188 38.9976 34.7698 38.9678 34.7212 38.9397C34.6726 38.9111 34.6216 38.8914 34.5669 38.8792C34.4624 38.8577 34.3545 38.8455 34.2219 38.8613C34.4258 38.7139 34.6289 38.5642 34.835 38.4197L34.843 38.4141C34.9663 38.3235 35.1311 38.3027 35.2683 38.3708C35.3071 38.3901 35.3469 38.4053 35.387 38.418C35.4463 38.4363 35.5076 38.4417 35.5693 38.4368C35.6311 38.4304 35.6924 38.4214 35.7529 38.4158C35.8135 38.4109 35.874 38.4026 35.9338 38.3945C35.9937 38.3833 36.0532 38.3726 36.1118 38.3579C36.2292 38.3298 36.344 38.292 36.4539 38.2458L36.4475 38.2139C36.3291 38.2097 36.2136 38.2085 36.0989 38.1963Z" fill="url(#paint7_linear_707_5073)"/>
<path d="M40.3423 24.3469C40.3423 29.8774 35.8589 34.3608 30.3284 34.3608C24.7979 34.3608 20.3145 29.8774 20.3145 24.3469C20.3145 18.8164 24.7979 14.333 30.3284 14.333C35.8589 14.333 40.3423 18.8164 40.3423 24.3469Z" fill="url(#paint8_radial_707_5073)"/>
<path d="M20.3145 24.3477C20.3145 27.9216 22.1873 31.0579 25.0049 32.8298H35.6519C38.4695 31.0579 40.3423 27.9216 40.3423 24.3477C40.3423 20.7734 38.4695 17.6372 35.6519 15.8652H25.0049C22.1873 17.6372 20.3145 20.7734 20.3145 24.3477Z" fill="url(#paint9_linear_707_5073)"/>
<path d="M20.3145 24.3474C20.3145 26.897 21.2681 29.2236 22.8372 30.9915H37.8196C39.3887 29.2236 40.342 26.897 40.342 24.3474C40.342 21.7976 39.3887 19.4709 37.8196 17.7031H22.8372C21.2678 19.4709 20.3145 21.7976 20.3145 24.3474Z" fill="url(#paint10_linear_707_5073)"/>
<path d="M20.3145 24.3469C20.3145 25.8372 20.6404 27.251 21.2244 28.5217H39.4324C40.0161 27.251 40.3423 25.8369 40.3423 24.3469C40.3423 22.8567 40.0161 21.4429 39.4324 20.1719H21.2244C20.6404 21.4429 20.3145 22.8567 20.3145 24.3469Z" fill="url(#paint11_linear_707_5073)"/>
<path d="M20.3145 24.3477C20.3145 25.2102 20.4238 26.0471 20.6289 26.8457H40.0276C40.2329 26.0471 40.3423 25.2102 40.3423 24.3477C40.3423 23.4851 40.2329 22.6482 40.0276 21.8496H20.6289C20.4238 22.6482 20.3145 23.4851 20.3145 24.3477Z" fill="url(#paint12_linear_707_5073)"/>
<path d="M29.5332 14.3652C24.3745 14.7705 20.3145 19.0847 20.3145 24.3477C20.3145 29.6106 24.3745 33.9248 29.5332 34.3301C34.6919 33.9248 38.7517 29.6104 38.7517 24.3477C38.7517 19.0847 34.6919 14.7705 29.5332 14.3652Z" fill="url(#paint13_radial_707_5073)"/>
<path d="M30.0515 15.2811C29.7075 15.2344 29.3586 15.2344 29.0146 15.2811C24.5503 15.8885 21.1094 19.7159 21.1094 24.3472C21.1094 28.9783 24.5503 32.8057 29.0149 33.4131C29.3586 33.46 29.7078 33.46 30.0515 33.4131C34.5161 32.8057 37.9568 28.9783 37.9568 24.3472C37.9568 19.7159 34.5161 15.8885 30.0515 15.2811Z" fill="url(#paint14_radial_707_5073)"/>
<path d="M36.1875 24.3472C36.1875 20.312 33.1895 17.041 29.4912 17.041C25.793 17.041 22.7949 20.312 22.7949 24.3472C22.7949 28.3821 25.793 31.6533 29.4912 31.6533C33.1895 31.6533 36.1875 28.3821 36.1875 24.3472Z" fill="url(#paint15_radial_707_5073)"/>
<path d="M31.3298 17.3203C30.4961 17.0612 29.6055 17.0612 28.772 17.3203C25.9675 18.1921 23.9141 21.008 23.9141 24.3474C23.9141 27.7521 26.0488 30.6125 28.9375 31.423C29.6648 31.6274 30.4368 31.6274 31.1643 31.423C34.053 30.6125 36.1875 27.7521 36.1875 24.3474C36.1875 21.008 34.134 18.1921 31.3298 17.3203Z" fill="url(#paint16_radial_707_5073)"/>
<path d="M36.1118 25.4534L31.6792 21.0208C31.5986 20.8804 31.4314 20.7646 31.1772 20.6731C30.9163 20.5796 30.6382 20.5159 30.3435 20.4807L29.9546 20.1335C29.9468 20.0789 29.9146 20.0291 29.855 19.9851C29.7864 19.9346 29.7122 19.9092 29.6328 19.9092C29.5461 19.9092 29.4719 19.9346 29.4106 19.9851C29.3491 20.0356 29.3186 20.0933 29.3186 20.1584V20.4727C28.7334 20.5376 28.2439 20.7327 27.8501 21.0579C27.4563 21.3831 27.2595 21.8596 27.2595 22.4871C27.2595 22.7104 27.2847 22.9143 27.3354 23.0981C27.3857 23.282 27.469 23.4424 27.5847 23.5793C27.7 23.7166 27.8103 23.8335 27.915 23.9309C27.9207 23.936 27.927 23.9412 27.9326 23.9465L29.3186 25.3354V27.1484C28.9983 27.1267 28.7166 27.0439 28.4727 26.8997C28.2288 26.7556 28.0374 26.6204 27.8977 26.4941C27.7583 26.3679 27.6455 26.3049 27.5601 26.3049C27.4307 26.3049 27.3157 26.3733 27.2151 26.5105C27.1145 26.6475 27.0645 26.7844 27.0645 26.9214C27.0645 27.1458 27.1948 27.3672 27.4541 27.585L31.2632 31.394C33.7847 30.6416 35.7126 28.3215 36.1118 25.4534Z" fill="url(#paint17_linear_707_5073)"/>
<path d="M27.0645 26.9214C27.0645 26.7844 27.1147 26.6475 27.2151 26.5105C27.3157 26.3735 27.4307 26.3049 27.5601 26.3049C27.6455 26.3049 27.7583 26.3679 27.8977 26.4941C28.0374 26.6206 28.2288 26.7556 28.4727 26.8997C28.7166 27.0439 28.9985 27.1267 29.3186 27.1484V24.6069C29.1018 24.5276 28.9355 24.4646 28.8203 24.4177C28.7046 24.3708 28.551 24.3022 28.3596 24.2122C28.168 24.1221 28.02 24.0283 27.9153 23.9309C27.8105 23.8335 27.7002 23.7163 27.5847 23.5793C27.469 23.4424 27.386 23.282 27.3354 23.0981C27.2849 22.9143 27.2598 22.7104 27.2598 22.4871C27.2598 21.8594 27.4565 21.3831 27.8503 21.0579C28.2439 20.7327 28.7334 20.5378 29.3186 20.4727V20.1584C29.3186 20.0935 29.3494 20.0356 29.4109 19.9851C29.4722 19.9348 29.5464 19.9092 29.6331 19.9092C29.7124 19.9092 29.7864 19.9348 29.8552 19.9851C29.9236 20.0359 29.958 20.0935 29.958 20.1584V20.4512C30.3987 20.4658 30.8052 20.5398 31.1772 20.6733C31.5493 20.8071 31.7354 20.9929 31.7354 21.2314C31.7354 21.3616 31.6917 21.4971 31.6042 21.6379C31.5168 21.7788 31.4001 21.8491 31.2544 21.8491C31.197 21.8491 31.0386 21.7878 30.78 21.665C30.521 21.5422 30.2471 21.47 29.958 21.4482V23.6445C30.2454 23.7527 30.4844 23.8555 30.6748 23.9529C30.865 24.05 31.0664 24.1853 31.2783 24.3584C31.4905 24.5315 31.6501 24.7495 31.7578 25.0127C31.8655 25.2759 31.9197 25.5842 31.9197 25.9373C31.9197 26.5828 31.7437 27.0959 31.3916 27.4766C31.0393 27.8572 30.5615 28.0911 29.958 28.178V28.54C29.958 28.604 29.9236 28.6606 29.8552 28.7104C29.7864 28.76 29.7124 28.7849 29.6331 28.7849C29.5464 28.7849 29.4722 28.76 29.4109 28.7107C29.3494 28.6609 29.3186 28.604 29.3186 28.5403V28.2104C28.6902 28.2031 28.1572 28.0596 27.7202 27.7791C27.283 27.4988 27.0645 27.2129 27.0645 26.9214ZM28.3325 22.3792C28.3325 22.6604 28.4199 22.875 28.5952 23.0225C28.7703 23.1704 29.0332 23.3093 29.3835 23.439V21.4688C28.6826 21.5554 28.3325 21.8589 28.3325 22.3792ZM29.8931 27.127C30.5286 27.0115 30.8467 26.6545 30.8467 26.0562C30.8467 25.739 30.7634 25.4902 30.5974 25.3101C30.4312 25.1299 30.1965 24.9749 29.8931 24.845V27.127Z" fill="url(#paint18_linear_707_5073)"/>
<path d="M31.136 34.3262C31.136 34.3262 30.0124 28.8685 21.8669 29.1502C21.5681 29.1604 21.198 29.4668 21.2737 29.6404C22.0329 31.3809 25.1865 37.4517 31.136 34.3262Z" fill="url(#paint19_linear_707_5073)"/>
<path d="M21.2736 29.6401C21.2394 29.5615 21.297 29.4556 21.3978 29.3623C26.0814 29.5452 31.1359 34.3259 31.1359 34.3259C25.1864 37.4514 22.0328 31.3806 21.2736 29.6401Z" fill="url(#paint20_linear_707_5073)"/>
<path d="M21.2736 29.6406C21.2241 29.5266 21.3664 29.3562 21.5544 29.249C21.5849 29.2966 21.6157 29.345 21.6467 29.3948C25.0666 34.8992 31.1362 34.3264 31.1362 34.3264C25.1865 37.4519 22.0329 31.3811 21.2736 29.6406Z" fill="url(#paint21_linear_707_5073)"/>
<path d="M31.1367 34.3259C31.1367 34.3259 31.8928 28.8052 40.0388 28.5413C40.3376 28.5315 40.7275 28.8125 40.6636 28.9907C40.0227 30.7781 37.282 37.0461 31.1367 34.3259Z" fill="url(#paint22_linear_707_5073)"/>
<path d="M40.6636 28.9907C40.6926 28.9099 40.6279 28.8081 40.521 28.7217C35.8601 29.2175 31.1367 34.3259 31.1367 34.3259C37.282 37.0461 40.0227 30.7781 40.6636 28.9907Z" fill="url(#paint23_linear_707_5073)"/>
<path d="M40.6636 28.991C40.7056 28.874 40.552 28.7134 40.3574 28.6191C40.3301 28.6685 40.3025 28.7188 40.2749 28.7708C37.2312 34.4915 31.1367 34.3262 31.1367 34.3262C37.282 37.0464 40.0227 30.7783 40.6636 28.991Z" fill="url(#paint24_linear_707_5073)"/>
</g>
<defs>
<linearGradient id="paint0_linear_707_5073" x1="28.2614" y1="37.8634" x2="31.0476" y2="39.2294" gradientUnits="userSpaceOnUse">
<stop stop-color="#00E7B2"/>
<stop offset="0.2459" stop-color="#05E5B1"/>
<stop offset="0.5301" stop-color="#13DDAC"/>
<stop offset="0.8322" stop-color="#2AD1A5"/>
<stop offset="1" stop-color="#3AC9A0"/>
</linearGradient>
<linearGradient id="paint1_linear_707_5073" x1="29.6692" y1="37.2204" x2="27.7692" y2="40.3176" gradientUnits="userSpaceOnUse">
<stop stop-color="#3AC9A0" stop-opacity="0"/>
<stop offset="0.0351" stop-color="#38C69D" stop-opacity="0.035294"/>
<stop offset="0.4167" stop-color="#23AA82" stop-opacity="0.415686"/>
<stop offset="0.7511" stop-color="#169971" stop-opacity="0.752941"/>
<stop offset="1" stop-color="#11936B"/>
</linearGradient>
<linearGradient id="paint2_linear_707_5073" x1="28.9433" y1="35.6698" x2="31.8977" y2="35.6698" gradientUnits="userSpaceOnUse">
<stop stop-color="#00E7B2"/>
<stop offset="0.2459" stop-color="#05E5B1"/>
<stop offset="0.5301" stop-color="#13DDAC"/>
<stop offset="0.8322" stop-color="#2AD1A5"/>
<stop offset="1" stop-color="#3AC9A0"/>
</linearGradient>
<linearGradient id="paint3_linear_707_5073" x1="34.4012" y1="34.5281" x2="31.3767" y2="31.5037" gradientUnits="userSpaceOnUse">
<stop stop-color="#3AC9A0" stop-opacity="0"/>
<stop offset="0.0351" stop-color="#38C69D" stop-opacity="0.035294"/>
<stop offset="0.4167" stop-color="#23AA82" stop-opacity="0.415686"/>
<stop offset="0.7511" stop-color="#169971" stop-opacity="0.752941"/>
<stop offset="1" stop-color="#11936B"/>
</linearGradient>
<linearGradient id="paint4_linear_707_5073" x1="30.6393" y1="42.2134" x2="31.7042" y2="49.3835" gradientUnits="userSpaceOnUse">
<stop stop-color="#3B395F"/>
<stop offset="0.0633" stop-color="#37355A"/>
<stop offset="0.4033" stop-color="#232543"/>
<stop offset="0.7232" stop-color="#171B35"/>
<stop offset="1" stop-color="#131830"/>
</linearGradient>
<linearGradient id="paint5_linear_707_5073" x1="34.3403" y1="37.9488" x2="36.5138" y2="41.7422" gradientUnits="userSpaceOnUse">
<stop stop-color="#00E7B2"/>
<stop offset="0.2459" stop-color="#05E5B1"/>
<stop offset="0.5301" stop-color="#13DDAC"/>
<stop offset="0.8322" stop-color="#2AD1A5"/>
<stop offset="1" stop-color="#3AC9A0"/>
</linearGradient>
<linearGradient id="paint6_linear_707_5073" x1="35.735" y1="39.8894" x2="33.609" y2="37.1632" gradientUnits="userSpaceOnUse">
<stop stop-color="#3AC9A0" stop-opacity="0"/>
<stop offset="0.0351" stop-color="#38C69D" stop-opacity="0.035294"/>
<stop offset="0.4167" stop-color="#23AA82" stop-opacity="0.415686"/>
<stop offset="0.7511" stop-color="#169971" stop-opacity="0.752941"/>
<stop offset="1" stop-color="#11936B"/>
</linearGradient>
<linearGradient id="paint7_linear_707_5073" x1="33.7482" y1="37.9703" x2="34.2537" y2="38.9448" gradientUnits="userSpaceOnUse">
<stop stop-color="#3B395F"/>
<stop offset="0.0633" stop-color="#37355A"/>
<stop offset="0.4033" stop-color="#232543"/>
<stop offset="0.7232" stop-color="#171B35"/>
<stop offset="1" stop-color="#131830"/>
</linearGradient>
<radialGradient id="paint8_radial_707_5073" cx="0" cy="0" r="1" gradientUnits="userSpaceOnUse" gradientTransform="translate(29.8421 24.0017) scale(10.4298)">
<stop stop-color="#FFA700"/>
<stop offset="0.3227" stop-color="#FCA300"/>
<stop offset="0.6649" stop-color="#F39600"/>
<stop offset="1" stop-color="#E58200"/>
</radialGradient>
<linearGradient id="paint9_linear_707_5073" x1="30.3283" y1="22.7655" x2="30.3283" y2="40.6598" gradientUnits="userSpaceOnUse">
<stop stop-color="#E58200" stop-opacity="0"/>
<stop offset="0.0396" stop-color="#E27F04" stop-opacity="0.039216"/>
<stop offset="0.4671" stop-color="#C15D2F" stop-opacity="0.466667"/>
<stop offset="0.8016" stop-color="#AD4949" stop-opacity="0.8"/>
<stop offset="1" stop-color="#A64153"/>
</linearGradient>
<linearGradient id="paint10_linear_707_5073" x1="30.3283" y1="26.7706" x2="30.3283" y2="8.68766" gradientUnits="userSpaceOnUse">
<stop stop-color="#E58200" stop-opacity="0"/>
<stop offset="0.0396" stop-color="#E27F04" stop-opacity="0.039216"/>
<stop offset="0.4671" stop-color="#C15D2F" stop-opacity="0.466667"/>
<stop offset="0.8016" stop-color="#AD4949" stop-opacity="0.8"/>
<stop offset="1" stop-color="#A64153"/>
</linearGradient>
<linearGradient id="paint11_linear_707_5073" x1="30.3283" y1="24.6496" x2="30.3283" y2="30.4328" gradientUnits="userSpaceOnUse">
<stop stop-color="#E58200" stop-opacity="0"/>
<stop offset="0.0396" stop-color="#E27F04" stop-opacity="0.039216"/>
<stop offset="0.4671" stop-color="#C15D2F" stop-opacity="0.466667"/>
<stop offset="0.8016" stop-color="#AD4949" stop-opacity="0.8"/>
<stop offset="1" stop-color="#A64153"/>
</linearGradient>
<linearGradient id="paint12_linear_707_5073" x1="30.3283" y1="26.5352" x2="30.3283" y2="16.6873" gradientUnits="userSpaceOnUse">
<stop stop-color="#E58200" stop-opacity="0"/>
<stop offset="0.0396" stop-color="#E27F04" stop-opacity="0.039216"/>
<stop offset="0.4671" stop-color="#C15D2F" stop-opacity="0.466667"/>
<stop offset="0.8016" stop-color="#AD4949" stop-opacity="0.8"/>
<stop offset="1" stop-color="#A64153"/>
</linearGradient>
<radialGradient id="paint13_radial_707_5073" cx="0" cy="0" r="1" gradientUnits="userSpaceOnUse" gradientTransform="translate(26.6025 21.6464) scale(14.0188)">
<stop stop-color="#FFC738"/>
<stop offset="0.2837" stop-color="#FFC534"/>
<stop offset="0.5391" stop-color="#FFBF29"/>
<stop offset="0.7827" stop-color="#FFB417"/>
<stop offset="1" stop-color="#FFA700"/>
</radialGradient>
<radialGradient id="paint14_radial_707_5073" cx="0" cy="0" r="1" gradientUnits="userSpaceOnUse" gradientTransform="translate(29.5332 24.3472) scale(8.76891)">
<stop stop-color="#FFFCF8"/>
<stop offset="0.9485" stop-color="#FFFCF8" stop-opacity="0.05098"/>
<stop offset="1" stop-color="#FFFCF8" stop-opacity="0"/>
</radialGradient>
<radialGradient id="paint15_radial_707_5073" cx="0" cy="0" r="1" gradientUnits="userSpaceOnUse" gradientTransform="translate(30.1768 23.4103) scale(10.4803 11.4351)">
<stop stop-color="#FFA700"/>
<stop offset="0.3227" stop-color="#FCA300"/>
<stop offset="0.6649" stop-color="#F39600"/>
<stop offset="1" stop-color="#E58200"/>
</radialGradient>
<radialGradient id="paint16_radial_707_5073" cx="0" cy="0" r="1" gradientUnits="userSpaceOnUse" gradientTransform="translate(27.4984 21.8344) scale(10.6801)">
<stop stop-color="#FFC738"/>
<stop offset="0.2837" stop-color="#FFC534"/>
<stop offset="0.5391" stop-color="#FFBF29"/>
<stop offset="0.7827" stop-color="#FFB417"/>
<stop offset="1" stop-color="#FFA700"/>
</radialGradient>
<linearGradient id="paint17_linear_707_5073" x1="33.3178" y1="26.3105" x2="26.5241" y2="24.7397" gradientUnits="userSpaceOnUse">
<stop stop-color="#FFA700" stop-opacity="0"/>
<stop offset="0.0206" stop-color="#FEA600" stop-opacity="0.019608"/>
<stop offset="0.6348" stop-color="#EC8C00" stop-opacity="0.635294"/>
<stop offset="1" stop-color="#E58200"/>
</linearGradient>
<linearGradient id="paint18_linear_707_5073" x1="28.9927" y1="24.3471" x2="31.4529" y2="24.3471" gradientUnits="userSpaceOnUse">
<stop stop-color="#FFA700"/>
<stop offset="0.3227" stop-color="#FCA300"/>
<stop offset="0.6649" stop-color="#F39600"/>
<stop offset="1" stop-color="#E58200"/>
</linearGradient>
<linearGradient id="paint19_linear_707_5073" x1="26.5441" y1="31.6074" x2="25.0605" y2="34.7244" gradientUnits="userSpaceOnUse">
<stop stop-color="#00E7B2"/>
<stop offset="0.2459" stop-color="#05E5B1"/>
<stop offset="0.5301" stop-color="#13DDAC"/>
<stop offset="0.8322" stop-color="#2AD1A5"/>
<stop offset="1" stop-color="#3AC9A0"/>
</linearGradient>
<linearGradient id="paint20_linear_707_5073" x1="24.8517" y1="32.6318" x2="30.3" y2="29.5845" gradientUnits="userSpaceOnUse">
<stop stop-color="#3AC9A0" stop-opacity="0"/>
<stop offset="0.0351" stop-color="#38C69D" stop-opacity="0.035294"/>
<stop offset="0.4167" stop-color="#23AA82" stop-opacity="0.415686"/>
<stop offset="0.7511" stop-color="#169971" stop-opacity="0.752941"/>
<stop offset="1" stop-color="#11936B"/>
</linearGradient>
<linearGradient id="paint21_linear_707_5073" x1="23.8977" y1="32.585" x2="30.9725" y2="34.0952" gradientUnits="userSpaceOnUse">
<stop stop-color="#3AC9A0" stop-opacity="0"/>
<stop offset="0.0351" stop-color="#38C69D" stop-opacity="0.035294"/>
<stop offset="0.4167" stop-color="#23AA82" stop-opacity="0.415686"/>
<stop offset="0.7511" stop-color="#169971" stop-opacity="0.752941"/>
<stop offset="1" stop-color="#11936B"/>
</linearGradient>
<linearGradient id="paint22_linear_707_5073" x1="35.5392" y1="31.3083" x2="37.2279" y2="34.319" gradientUnits="userSpaceOnUse">
<stop stop-color="#00E7B2"/>
<stop offset="0.2459" stop-color="#05E5B1"/>
<stop offset="0.5301" stop-color="#13DDAC"/>
<stop offset="0.8322" stop-color="#2AD1A5"/>
<stop offset="1" stop-color="#3AC9A0"/>
</linearGradient>
<linearGradient id="paint23_linear_707_5073" x1="37.2963" y1="32.2175" x2="31.6565" y2="29.5413" gradientUnits="userSpaceOnUse">
<stop stop-color="#3AC9A0" stop-opacity="0"/>
<stop offset="0.0351" stop-color="#38C69D" stop-opacity="0.035294"/>
<stop offset="0.4167" stop-color="#23AA82" stop-opacity="0.415686"/>
<stop offset="0.7511" stop-color="#169971" stop-opacity="0.752941"/>
<stop offset="1" stop-color="#11936B"/>
</linearGradient>
<linearGradient id="paint24_linear_707_5073" x1="38.245" y1="32.1067" x2="31.2869" y2="34.0867" gradientUnits="userSpaceOnUse">
<stop stop-color="#3AC9A0" stop-opacity="0"/>
<stop offset="0.0351" stop-color="#38C69D" stop-opacity="0.035294"/>
<stop offset="0.4167" stop-color="#23AA82" stop-opacity="0.415686"/>
<stop offset="0.7511" stop-color="#169971" stop-opacity="0.752941"/>
<stop offset="1" stop-color="#11936B"/>
</linearGradient>
<clipPath id="clip0_707_5073">
<rect width="32" height="32" fill="white" transform="translate(14.9395 14.333)"/>
</clipPath>
</defs>
</svg>
