<svg width="25" height="24" viewBox="0 0 25 24" fill="none" xmlns="http://www.w3.org/2000/svg">
<g clip-path="url(#clip0_1643_16489)">
<path d="M23.2691 15C18.1611 15 15.1831 17.179 13.5001 19.225V15.93C17.4401 15.435 20.5001 12.071 20.5001 7.999C20.5001 3.589 16.9111 0 12.5001 0C8.08908 0 4.50008 3.589 4.50008 8C4.50008 12.072 7.56008 15.436 11.5001 15.931V19.223C9.81808 17.177 6.84408 15 1.74408 15H0.528076L0.762076 16.192C1.99008 22.442 8.07808 24.025 11.7521 24.025C12.0161 24.025 12.2641 24.015 12.5001 23.999C12.7361 24.015 12.9841 24.025 13.2481 24.025C16.9261 24.025 23.0211 22.442 24.2501 16.193L24.4841 15H23.2691ZM6.50008 8C6.50008 4.691 9.19108 2 12.5001 2C15.8091 2 18.5001 4.691 18.5001 8C18.5001 11.309 15.8091 14 12.5001 14C9.19108 14 6.50008 11.309 6.50008 8ZM3.07508 17.059C7.93008 17.498 10.1191 20.306 11.0061 21.992C8.77008 21.85 4.55708 21.039 3.07508 17.059ZM13.9971 21.988C14.8861 20.301 17.0781 17.498 21.9361 17.059C20.4531 21.021 16.2361 21.839 13.9971 21.988ZM11.7001 13.001V11.801H11.5001C10.2991 11.801 9.31108 10.876 9.20908 9.701H10.8291C10.9151 9.99 11.1831 10.201 11.5001 10.201H13.6261C13.9421 10.201 14.2001 9.944 14.2001 9.627C14.2001 9.355 14.0061 9.118 13.7381 9.064L10.9471 8.505C9.93408 8.302 9.20008 7.406 9.20008 6.374C9.20008 5.175 10.1751 4.201 11.3731 4.201H11.7001V3.001H13.3001V4.201H13.5001C14.7011 4.201 15.6891 5.126 15.7911 6.301H14.1711C14.0851 6.012 13.8171 5.801 13.5001 5.801H11.3731C11.0571 5.801 10.8001 6.058 10.8001 6.375C10.8001 6.647 10.9941 6.884 11.2611 6.937L14.0531 7.496C15.0661 7.698 15.8001 8.595 15.8001 9.627C15.8001 10.826 14.8251 11.8 13.6261 11.8H13.3001V13H11.7001V13.001Z" fill="#28A08C"/>
</g>
<defs>
<clipPath id="clip0_1643_16489">
<rect width="24" height="24" fill="white" transform="translate(0.5)"/>
</clipPath>
</defs>
</svg>
