<svg width="25" height="25" viewBox="0 0 25 25" fill="none" xmlns="http://www.w3.org/2000/svg">
<g clip-path="url(#clip0_27_630)">
<path d="M9.375 4.16667C9.375 1.86562 12.8729 0 17.1875 0C21.5021 0 25 1.86562 25 4.16667C25 6.46771 21.5021 8.33333 17.1875 8.33333C12.8729 8.33333 9.375 6.46771 9.375 4.16667ZM17.1875 12.5C21.5021 12.5 25 10.6344 25 8.33333V6.25C25 8.55104 21.5021 10.4167 17.1875 10.4167C12.8729 10.4167 9.375 8.55104 9.375 6.25V8.33333C9.375 10.6344 12.8729 12.5 17.1875 12.5ZM6.25 12.5C2.79792 12.5 0 15.2979 0 18.75C0 22.2021 2.79792 25 6.25 25C9.70208 25 12.5 22.2021 12.5 18.75C12.5 15.2979 9.70208 12.5 6.25 12.5ZM7.29167 18.75V21.875H5.20833V18.75H2.65208L5.45104 15.951C5.88542 15.5167 6.58958 15.5167 7.02396 15.951L9.82396 18.75H7.29167ZM17.1875 22.9698C15.9354 22.9698 14.7521 22.8125 13.7031 22.5333C13.3927 23.151 13.0094 23.726 12.5615 24.2448C13.8562 24.7531 15.4562 25.0542 17.1875 25.0542C21.5021 25.0542 25 23.1885 25 20.8875V18.8042C25 21.1052 21.5021 22.9698 17.1875 22.9698ZM17.1875 14.6365C15.675 14.6365 14.2635 14.4073 13.0677 14.0104C13.5781 14.7344 13.975 15.5427 14.2344 16.4115C15.1458 16.6104 16.1427 16.7198 17.1875 16.7198C21.5021 16.7198 25 14.8542 25 12.5531V10.4698C25 12.7708 21.5021 14.6365 17.1875 14.6365ZM17.1875 18.8031C16.2729 18.8031 15.3958 18.7188 14.5802 18.5646C14.5823 18.6437 14.5833 18.7229 14.5833 18.8031C14.5833 19.424 14.5146 20.0281 14.3865 20.6104C15.2562 20.7885 16.2 20.8865 17.1875 20.8865C21.5021 20.8865 25 19.0208 25 16.7198V14.6365C25 16.9375 21.5021 18.8031 17.1875 18.8031Z" fill="#40C1EC"/>
</g>
<defs>
<clipPath id="clip0_27_630">
<rect width="25" height="25" fill="white"/>
</clipPath>
</defs>
</svg>
