<svg width="21" height="21" viewBox="0 0 21 21" fill="none" xmlns="http://www.w3.org/2000/svg">
<path d="M11.5396 7.35376V3.26626C12.1102 3.48251 12.6352 3.81563 13.0802 4.26001L15.2577 6.43876C15.7027 6.88313 16.0358 7.40813 16.2521 7.97876H12.1646C11.8196 7.97876 11.5396 7.69813 11.5396 7.35376ZM12.4771 12.3538H8.10205C7.92955 12.3538 7.78955 12.4938 7.78955 12.6663V13.9163C7.78955 14.0888 7.92955 14.2288 8.10205 14.2288H12.4771C12.6496 14.2288 12.7896 14.0888 12.7896 13.9163V12.6663C12.7896 12.4938 12.6496 12.3538 12.4771 12.3538ZM16.5396 9.53188V14.8538C16.5396 16.5769 15.1377 17.9788 13.4146 17.9788H7.16455C5.44143 17.9788 4.03955 16.5769 4.03955 14.8538V6.10376C4.03955 4.38063 5.44143 2.97876 7.16455 2.97876H9.98643C10.0883 2.97876 10.1889 2.98688 10.2896 2.99376V7.35376C10.2896 8.38751 11.1308 9.22876 12.1646 9.22876H16.5246C16.5314 9.32938 16.5396 9.43001 16.5396 9.53188ZM6.53955 6.72876C6.53955 7.07376 6.81955 7.35376 7.16455 7.35376H8.41455C8.75955 7.35376 9.03955 7.07376 9.03955 6.72876C9.03955 6.38376 8.75955 6.10376 8.41455 6.10376H7.16455C6.81955 6.10376 6.53955 6.38376 6.53955 6.72876ZM6.53955 9.22876C6.53955 9.57376 6.81955 9.85376 7.16455 9.85376H8.41455C8.75955 9.85376 9.03955 9.57376 9.03955 9.22876C9.03955 8.88376 8.75955 8.60376 8.41455 8.60376H7.16455C6.81955 8.60376 6.53955 8.88376 6.53955 9.22876ZM14.0396 12.6663C14.0396 11.805 13.3383 11.1038 12.4771 11.1038H8.10205C7.2408 11.1038 6.53955 11.805 6.53955 12.6663V13.9163C6.53955 14.7775 7.2408 15.4788 8.10205 15.4788H12.4771C13.3383 15.4788 14.0396 14.7775 14.0396 13.9163V12.6663Z" fill="#2D9C99"/>
</svg>
