<svg width="25" height="24" viewBox="0 0 25 24" fill="none" xmlns="http://www.w3.org/2000/svg">
<path d="M24.438 10.654L21.367 2.319C20.944 1.168 19.733 0.538 18.543 0.854L13.5 2.199V1C13.5 0.448 13.052 0 12.5 0C11.948 0 11.5 0.448 11.5 1V2.732L6.246 4.133C4.991 4.468 3.973 5.396 3.523 6.615L0.562 14.654C0.521 14.765 0.5 15.301 0.5 15.301C0.5 17.807 2.5 19.999 5.003 19.999C6.161 19.999 7.252 19.565 8.097 18.763C8.988 17.917 9.499 16.727 9.499 15.499C9.499 15.499 9.478 14.767 9.439 14.657L6.37 6.216C6.494 6.153 6.625 6.102 6.762 6.066L11.5 4.802V22H5.5C4.948 22 4.5 22.448 4.5 23C4.5 23.552 4.948 24 5.5 24H19.5C20.052 24 20.5 23.552 20.5 23C20.5 22.448 20.052 22 19.5 22H13.5V4.268L18.396 2.962L15.562 10.653C15.521 10.764 15.5 11.3 15.5 11.3C15.5 13.806 17.371 15.867 19.76 15.992C21.009 16.058 22.194 15.621 23.098 14.763C23.989 13.917 24.5 12.727 24.5 11.499C24.5 11.499 24.479 10.764 24.438 10.653V10.654ZM4.864 17.997C3.783 17.94 2.878 17.095 2.598 16H7.45C7.35 16.499 7.1 16.954 6.721 17.313C6.219 17.791 5.556 18.038 4.865 17.996L4.864 17.997ZM7.072 14H2.934L5.017 8.347L7.072 14ZM20 4.393L22.066 10H17.934L20 4.393ZM19.864 13.997C18.783 13.94 17.878 13.095 17.598 12H22.449C22.349 12.499 22.099 12.954 21.72 13.313C21.218 13.791 20.555 14.033 19.864 13.997Z" fill="#28A08C"/>
</svg>
