<svg width="25" height="25" viewBox="0 0 25 25" fill="none" xmlns="http://www.w3.org/2000/svg">
<path d="M22.64 7.89062C22.4212 6.36146 21.0921 5.20833 19.5462 5.20833H15.7785C16.0066 4.73333 16.1441 4.20729 16.1441 3.64583C16.1441 1.63542 14.5087 0 12.4983 0C10.4879 0 8.85247 1.63542 8.85247 3.64583C8.85247 4.20729 8.99102 4.73333 9.2181 5.20833H5.45039C3.9056 5.20833 2.57539 6.36146 2.35768 7.89062L0.122178 22.592C0.0494856 23.07 0.144532 23.5585 0.39117 23.9744C0.768187 24.6102 1.45255 25 2.1917 25H22.9353C23.5995 25 24.2191 24.6659 24.584 24.1109C24.8514 23.7042 24.9591 23.2129 24.8862 22.7316L22.64 7.89062ZM10.9368 3.64583C10.9368 2.78437 11.6379 2.08333 12.4993 2.08333C13.3608 2.08333 14.0618 2.78437 14.0618 3.64583C14.0618 4.50729 13.3608 5.20833 12.4993 5.20833C11.6379 5.20833 10.9368 4.50729 10.9368 3.64583ZM11.0868 14.3344L14.2546 14.8615C15.6525 15.0948 16.666 16.2927 16.666 17.7083C16.666 19.4312 15.2639 20.8333 13.541 20.8333V21.875H11.4577V20.8333C9.73477 20.8333 8.33268 19.4312 8.33268 17.7083H10.416C10.416 18.2833 10.8837 18.75 11.4577 18.75H13.541C14.116 18.75 14.5827 18.2833 14.5827 17.7083C14.5827 17.3135 14.3004 16.9812 13.9108 16.9156L10.7441 16.3885C9.34622 16.1552 8.33268 14.9573 8.33268 13.5417C8.33268 11.8187 9.73477 10.4167 11.4577 10.4167V9.375H13.541V10.4167C15.2639 10.4167 16.666 11.8187 16.666 13.5417H14.5827C14.5827 12.9667 14.116 12.5 13.541 12.5H11.4577C10.8837 12.5 10.416 12.9667 10.416 13.5417C10.416 13.9365 10.6983 14.2687 11.0868 14.3344Z" fill="#EC4040"/>
</svg>
