<svg width="61" height="60" viewBox="0 0 61 60" fill="none" xmlns="http://www.w3.org/2000/svg">
<rect width="61" height="60" rx="30" fill="white" fill-opacity="0.5"/>
<g clip-path="url(#clip0_707_4949)">
<path d="M28.1848 33.7584H15.2734L21.7292 22.3965L28.1848 33.7584ZM16.8907 32.8173H26.5676L21.7292 24.3016L16.8907 32.8173Z" fill="url(#paint0_linear_707_4949)"/>
<path d="M24.8405 37.7081H18.6176C16.6196 37.7081 15 36.0884 15 34.0905V33.8226C15 32.7707 15.8528 31.918 16.9046 31.918H26.5534C27.6054 31.918 28.4581 32.7707 28.4581 33.8226V34.0905C28.4581 36.0884 26.8384 37.7081 24.8405 37.7081Z" fill="url(#paint1_linear_707_4949)"/>
<path d="M15 34.0898C15 36.0878 16.6196 37.7075 18.6176 37.7075H24.8405C26.8384 37.7075 28.4581 36.0878 28.4581 34.0898H15Z" fill="url(#paint2_linear_707_4949)"/>
<path d="M26.5538 31.918H24.2891V37.7081H24.8408C26.8387 37.7081 28.4584 36.0884 28.4584 34.0905V33.8226C28.4585 32.7707 27.6057 31.918 26.5538 31.918Z" fill="url(#paint3_linear_707_4949)"/>
<path d="M46.7258 33.7584H33.8145L40.2702 22.3965L46.7258 33.7584ZM35.4317 32.8173H45.1086L40.2702 24.3016L35.4317 32.8173Z" fill="url(#paint4_linear_707_4949)"/>
<path d="M43.3815 37.7081H37.1586C35.1607 37.7081 33.541 36.0884 33.541 34.0905V33.8226C33.541 32.7707 34.3938 31.918 35.4456 31.918H45.0945C46.1464 31.918 46.9991 32.7707 46.9991 33.8226V34.0905C46.9992 36.0884 45.3795 37.7081 43.3815 37.7081Z" fill="url(#paint5_linear_707_4949)"/>
<path d="M33.541 34.0898C33.541 36.0878 35.1607 37.7075 37.1586 37.7075H43.3815C45.3794 37.7075 46.9992 36.0878 46.9992 34.0898H33.541Z" fill="url(#paint6_linear_707_4949)"/>
<path d="M45.0948 31.918H42.8301V37.7081H43.3818C45.3797 37.7081 46.9994 36.0884 46.9994 34.0905V33.8226C46.9994 32.7707 46.1467 31.918 45.0948 31.918Z" fill="url(#paint7_linear_707_4949)"/>
<path d="M41.448 24.5413H20.5539C19.8435 24.5413 19.2676 23.9654 19.2676 23.255C19.2676 22.5446 19.8435 21.9688 20.5539 21.9688H41.448C42.1584 21.9688 42.7342 22.5446 42.7342 23.255C42.7342 23.9654 42.1584 24.5413 41.448 24.5413Z" fill="url(#paint8_linear_707_4949)"/>
<path d="M31.0625 21.9688H37.7971V24.5413H31.0625V21.9688Z" fill="url(#paint9_linear_707_4949)"/>
<path d="M20.6055 21.9688H27.3401V24.5413H20.6055V21.9688Z" fill="url(#paint10_linear_707_4949)"/>
<path d="M20.1016 24.4452C20.1016 24.7785 20.3717 25.0485 20.7049 25.0485C21.0381 25.0485 21.3082 24.7784 21.3082 24.4452V22.0642C21.3082 21.7311 21.038 21.4609 20.7049 21.4609C20.3717 21.4609 20.1016 21.7311 20.1016 22.0642V24.4452Z" fill="url(#paint11_linear_707_4949)"/>
<path d="M40.0547 24.4452C40.0547 24.7785 40.3248 25.0485 40.658 25.0485C40.9912 25.0485 41.2613 24.7784 41.2613 24.4452V22.0642C41.2613 21.7311 40.9912 21.4609 40.658 21.4609C40.3248 21.4609 40.0547 21.7311 40.0547 22.0642V24.4452Z" fill="url(#paint12_linear_707_4949)"/>
<path d="M32.0354 29.6494C32.0354 28.4715 32.1208 27.3455 32.2764 26.3109C32.666 23.7199 32.8304 21.1001 32.74 18.4816C32.7113 17.6503 32.0291 16.9912 31.1973 16.9912H30.8031C29.9713 16.9912 29.2891 17.6503 29.2604 18.4816C29.1701 21.1002 29.3344 23.7199 29.724 26.3109C29.8795 27.3455 29.965 28.4715 29.965 29.6494C29.965 31.4853 29.7576 33.1953 29.4003 34.6295C28.8568 36.8119 28.5507 39.0463 28.4731 41.294L28.4121 43.0605H33.5883L33.5273 41.294C33.4498 39.0463 33.1436 36.8119 32.6001 34.6295C32.2428 33.1953 32.0354 31.4854 32.0354 29.6494Z" fill="url(#paint13_linear_707_4949)"/>
<path d="M29.4003 34.629C28.8568 36.8114 28.5507 39.0458 28.4731 41.2935L28.4121 43.06H33.5883L33.5273 41.2935C33.4498 39.0458 33.1436 36.8114 32.6001 34.629C32.2535 33.2372 32.0485 31.5856 32.0366 29.8115H29.9639C29.9519 31.5856 29.7469 33.2372 29.4003 34.629Z" fill="url(#paint14_linear_707_4949)"/>
<path d="M35.7992 43.4592C35.7992 46.1102 26.1992 46.1102 26.1992 43.4592C26.1992 40.8082 28.3482 38.6592 30.9992 38.6592C33.6502 38.6592 35.7992 40.8082 35.7992 43.4592Z" fill="url(#paint15_linear_707_4949)"/>
<path d="M40.5257 44.7349H21.4727V43.8983C21.4727 42.9368 22.2521 42.1572 23.2138 42.1572H38.7846C39.7462 42.1572 40.5257 42.9367 40.5257 43.8983V44.7349Z" fill="url(#paint16_linear_707_4949)"/>
<path d="M41.4576 45.9996H20.5436C20.0816 45.9996 19.707 45.625 19.707 45.163C19.707 44.2014 20.4865 43.4219 21.4481 43.4219H40.5531C41.5147 43.4219 42.2942 44.2014 42.2942 45.163C42.2941 45.625 41.9195 45.9996 41.4576 45.9996Z" fill="url(#paint17_linear_707_4949)"/>
<path d="M31.0004 18.2039C32.1613 18.2039 33.1024 17.2628 33.1024 16.102C33.1024 14.9411 32.1613 14 31.0004 14C29.8395 14 28.8984 14.9411 28.8984 16.102C28.8984 17.2628 29.8395 18.2039 31.0004 18.2039Z" fill="url(#paint18_linear_707_4949)"/>
</g>
<defs>
<linearGradient id="paint0_linear_707_4949" x1="17.2747" y1="26.8509" x2="26.1836" y2="35.7597" gradientUnits="userSpaceOnUse">
<stop stop-color="#EAF9FA"/>
<stop offset="1" stop-color="#A8D3D8"/>
</linearGradient>
<linearGradient id="paint1_linear_707_4949" x1="21.0048" y1="32.4754" x2="23.5613" y2="38.3365" gradientUnits="userSpaceOnUse">
<stop stop-color="#99E6FC"/>
<stop offset="1" stop-color="#01C0FA"/>
</linearGradient>
<linearGradient id="paint2_linear_707_4949" x1="21.729" y1="35.9522" x2="21.729" y2="38.0354" gradientUnits="userSpaceOnUse">
<stop stop-color="#017BAE" stop-opacity="0"/>
<stop offset="1" stop-color="#017BAE"/>
</linearGradient>
<linearGradient id="paint3_linear_707_4949" x1="26.4224" y1="34.813" x2="28.3079" y2="34.813" gradientUnits="userSpaceOnUse">
<stop stop-color="#017BAE" stop-opacity="0"/>
<stop offset="1" stop-color="#017BAE"/>
</linearGradient>
<linearGradient id="paint4_linear_707_4949" x1="35.8158" y1="26.8509" x2="44.7246" y2="35.7597" gradientUnits="userSpaceOnUse">
<stop stop-color="#EAF9FA"/>
<stop offset="1" stop-color="#A8D3D8"/>
</linearGradient>
<linearGradient id="paint5_linear_707_4949" x1="39.5459" y1="32.4754" x2="42.1023" y2="38.3365" gradientUnits="userSpaceOnUse">
<stop stop-color="#FD8087"/>
<stop offset="1" stop-color="#FD3E2B"/>
</linearGradient>
<linearGradient id="paint6_linear_707_4949" x1="40.2701" y1="35.9522" x2="40.2701" y2="38.0354" gradientUnits="userSpaceOnUse">
<stop stop-color="#E41F2D" stop-opacity="0"/>
<stop offset="0.3461" stop-color="#DE1E2B" stop-opacity="0.346"/>
<stop offset="0.8036" stop-color="#CE1B28" stop-opacity="0.804"/>
<stop offset="1" stop-color="#C41926"/>
</linearGradient>
<linearGradient id="paint7_linear_707_4949" x1="44.9633" y1="34.813" x2="46.8489" y2="34.813" gradientUnits="userSpaceOnUse">
<stop stop-color="#E41F2D" stop-opacity="0"/>
<stop offset="0.3461" stop-color="#DE1E2B" stop-opacity="0.346"/>
<stop offset="0.8036" stop-color="#CE1B28" stop-opacity="0.804"/>
<stop offset="1" stop-color="#C41926"/>
</linearGradient>
<linearGradient id="paint8_linear_707_4949" x1="31.0009" y1="22.2197" x2="31.0009" y2="24.1689" gradientUnits="userSpaceOnUse">
<stop stop-color="#5A5A5A"/>
<stop offset="1" stop-color="#444444"/>
</linearGradient>
<linearGradient id="paint9_linear_707_4949" x1="35.7893" y1="23.255" x2="32.6495" y2="23.255" gradientUnits="userSpaceOnUse">
<stop stop-color="#433F43" stop-opacity="0"/>
<stop offset="0.3007" stop-color="#3C393C" stop-opacity="0.301"/>
<stop offset="0.7373" stop-color="#292729" stop-opacity="0.737"/>
<stop offset="1" stop-color="#1A1A1A"/>
</linearGradient>
<linearGradient id="paint10_linear_707_4949" x1="25.3323" y1="23.255" x2="22.1925" y2="23.255" gradientUnits="userSpaceOnUse">
<stop stop-color="#433F43" stop-opacity="0"/>
<stop offset="0.3007" stop-color="#3C393C" stop-opacity="0.301"/>
<stop offset="0.7373" stop-color="#292729" stop-opacity="0.737"/>
<stop offset="1" stop-color="#1A1A1A"/>
</linearGradient>
<linearGradient id="paint11_linear_707_4949" x1="20.1016" y1="23.2548" x2="21.3082" y2="23.2548" gradientUnits="userSpaceOnUse">
<stop stop-color="#FBC56D"/>
<stop offset="1" stop-color="#C5715A"/>
</linearGradient>
<linearGradient id="paint12_linear_707_4949" x1="40.0547" y1="23.2548" x2="41.2613" y2="23.2548" gradientUnits="userSpaceOnUse">
<stop stop-color="#FBC56D"/>
<stop offset="1" stop-color="#C5715A"/>
</linearGradient>
<linearGradient id="paint13_linear_707_4949" x1="30.3727" y1="30.0259" x2="31.6963" y2="30.0259" gradientUnits="userSpaceOnUse">
<stop stop-color="#5A5A5A"/>
<stop offset="1" stop-color="#444444"/>
</linearGradient>
<linearGradient id="paint14_linear_707_4949" x1="31.0002" y1="35.5213" x2="31.0002" y2="39.1605" gradientUnits="userSpaceOnUse">
<stop stop-color="#433F43" stop-opacity="0"/>
<stop offset="0.3007" stop-color="#3C393C" stop-opacity="0.301"/>
<stop offset="0.7373" stop-color="#292729" stop-opacity="0.737"/>
<stop offset="1" stop-color="#1A1A1A"/>
</linearGradient>
<linearGradient id="paint15_linear_707_4949" x1="29.3983" y1="39.8816" x2="30.7159" y2="42.4542" gradientUnits="userSpaceOnUse">
<stop stop-color="#5A5A5A"/>
<stop offset="1" stop-color="#444444"/>
</linearGradient>
<linearGradient id="paint16_linear_707_4949" x1="30.9992" y1="42.1572" x2="30.9992" y2="44.5966" gradientUnits="userSpaceOnUse">
<stop stop-color="#FBC56D"/>
<stop offset="1" stop-color="#C5715A"/>
</linearGradient>
<linearGradient id="paint17_linear_707_4949" x1="31.0006" y1="43.4219" x2="31.0006" y2="45.8612" gradientUnits="userSpaceOnUse">
<stop stop-color="#FBC56D"/>
<stop offset="1" stop-color="#C5715A"/>
</linearGradient>
<linearGradient id="paint18_linear_707_4949" x1="29.7097" y1="14.8113" x2="32.0068" y2="17.1083" gradientUnits="userSpaceOnUse">
<stop stop-color="#FBC56D"/>
<stop offset="1" stop-color="#C5715A"/>
</linearGradient>
<clipPath id="clip0_707_4949">
<rect width="32" height="32" fill="white" transform="translate(15 14)"/>
</clipPath>
</defs>
</svg>
