<svg width="206" height="200" viewBox="0 0 206 200" fill="none" xmlns="http://www.w3.org/2000/svg">
<path d="M45.8789 78.3388L51.2487 76.8743L48.3197 82.244L45.8789 78.3388Z" fill="#333333"/>
<path d="M69.3107 107.14L61.9883 108.605L65.8936 101.282L69.3107 107.14Z" fill="#666666"/>
<path d="M167.269 29.8474C165.606 32.1975 166.239 33.2098 169.168 32.8844C171.771 32.2335 172.422 33.0471 171.12 35.3252C169.493 37.6033 169.981 38.5796 172.585 38.2542C175.514 37.9287 176.165 38.7423 174.537 40.695" stroke="white" stroke-width="2.44609" stroke-linecap="round"/>
<path d="M15.6005 94.4548C14.5212 97.4892 15.6087 99.1691 18.8631 99.4945C22.1175 99.82 23.2566 101.447 22.2803 104.376C20.9785 107.631 21.9548 109.42 25.2092 109.746C28.4636 109.746 29.6027 111.373 28.6264 114.628" stroke="#CCCCCC" stroke-width="2.44609" stroke-linecap="round"/>
<path d="M177.415 97.9404L176.519 100.935L173.803 102.032L176.528 103.564L176.72 106.645L179.07 104.643L181.881 105.086L180.784 102.371L181.863 99.8286L179.417 100.29L177.415 97.9404Z" fill="#333333"/>
<path d="M164.991 69.5518V74.9215L160.598 72.9689L164.991 69.5518Z" fill="#999999"/>
<path d="M134.549 109.584L133.187 112.562L129.789 113.169L132.314 115.523L131.928 118.467L134.804 116.902L137.799 118.751L137.192 115.353L139.546 112.828L136.114 112.46L134.549 109.584Z" fill="#333333"/>
<path d="M122.34 166.377C120.863 165.719 119.309 165.984 118.87 166.97C118.432 167.955 119.274 169.287 120.752 169.945C122.23 170.603 123.783 170.337 124.222 169.352C124.661 168.367 123.818 167.035 122.34 166.377Z" fill="#333333"/>
<path d="M190.864 155.469L184.518 153.516L187.447 148.634L190.864 155.469Z" fill="#FF0000"/>
<path d="M190.864 155.469L184.518 153.516L187.447 148.634L190.864 155.469Z" fill="#42C551"/>
<path d="M33.6586 16.6516C32.2559 19.1177 32.8563 20.0252 35.4598 19.3744C38.3888 19.0489 39.0397 20.0252 37.4125 22.3033C35.7853 24.9069 36.2734 25.8832 38.8769 25.2323C41.8059 24.9069 42.4568 25.8832 40.8296 28.1613" stroke="#666666" stroke-width="1.83457" stroke-linecap="round"/>
<path d="M142.047 155.469L147.905 148.634L153.763 153.516L147.905 160.35L142.047 155.469Z" fill="#FF0000"/>
<path d="M142.047 155.469L147.905 148.634L153.763 153.516L147.905 160.35L142.047 155.469Z" fill="#42C551"/>
<path d="M1.45703 128.62L12.6847 136.919" stroke="white" stroke-width="2.44609" stroke-linecap="round"/>
<path d="M85.4214 62.7178V68.0876H75.6582V62.7178H85.4214Z" fill="#999999"/>
<path d="M115.686 66.1354L120.567 65.6472L117.15 70.0407L115.686 66.1354Z" fill="white"/>
<path d="M68.1891 148.893C66.7357 146.5 65.6836 146.605 65.0328 149.209C64.0564 152.138 62.9174 152.3 61.6156 149.697C60.3139 147.419 59.1748 147.582 58.1985 150.185C57.5476 153.114 56.5713 153.277 55.2695 150.673" stroke="#666666" stroke-width="1.83457" stroke-linecap="round"/>
<path d="M13.6473 57.8049C15.0635 55.6492 14.4699 55.0595 11.8664 56.0358C9.26283 57.0121 8.61195 56.1985 9.91372 53.595C11.5409 51.3169 11.0528 50.666 8.44923 51.6423C5.8457 52.6187 5.19482 51.9678 6.49659 49.6897" stroke="#666666" stroke-width="2.44609" stroke-linecap="round"/>
<path d="M13.6473 57.8049C15.0635 55.6492 14.4699 55.0595 11.8664 56.0358C9.26283 57.0121 8.61195 56.1985 9.91372 53.595C11.5409 51.3169 11.0528 50.666 8.44923 51.6423C5.8457 52.6187 5.19482 51.9678 6.49659 49.6897" stroke="#FF0000" stroke-width="2.44609" stroke-linecap="round"/>
<path d="M13.6473 57.8049C15.0635 55.6492 14.4699 55.0595 11.8664 56.0358C9.26283 57.0121 8.61195 56.1985 9.91372 53.595C11.5409 51.3169 11.0528 50.666 8.44923 51.6423C5.8457 52.6187 5.19482 51.9678 6.49659 49.6897" stroke="#42C551" stroke-width="2.44609" stroke-linecap="round"/>
<path d="M93.2307 126.179L86.3965 116.904" stroke="white" stroke-width="1.83457" stroke-linecap="round"/>
<path d="M38.2495 139.385L39.6306 138.294L41.3369 139.362L40.8609 137.667L42.242 136.576L40.234 136.437L39.758 134.742L39.1546 136.6L37.611 136.611L38.7021 137.992L38.2495 139.385Z" fill="#666666"/>
<path d="M93.1408 150.164L88.7921 149.371L87.6036 145.373L84.9304 148.611L81.0005 148.826L83.7181 151.952L82.4376 156.267L86.4696 154.591L89.7422 156.778L89.5277 152.848L93.1408 150.164Z" fill="#CCCCCC"/>
<path d="M104.459 39.7733L110.805 24.1521" stroke="white" stroke-width="1.83457" stroke-linecap="round"/>
<path d="M139.605 171.09L146.928 183.294" stroke="white" stroke-width="2.44609" stroke-linecap="round"/>
<path d="M88.3512 18.2954L93.2328 21.2244L86.8867 23.6652L88.3512 18.2954Z" fill="white"/>
<path d="M146.348 39.2635C145.061 40.6438 144.497 42.2098 145.088 42.7614C145.68 43.3131 147.203 42.6413 148.49 41.2611C149.777 39.8809 150.341 38.3148 149.749 37.7632C149.158 37.2116 147.635 37.8833 146.348 39.2635Z" fill="#666666"/>
<path d="M64.1745 43.858C62.1629 42.5011 59.5544 42.8507 58.3484 44.6388C57.1423 46.4269 57.7953 48.9764 59.8069 50.3333C61.8185 51.6901 64.4269 51.3405 65.633 49.5524C66.8391 47.7643 66.1861 45.2148 64.1745 43.858Z" fill="white"/>
<path d="M99.0279 69.1252C95.9098 69.5317 95.1643 71.0366 96.7915 73.6402C98.4187 76.2437 97.7679 77.7082 94.8389 78.0336C91.9099 78.6845 91.259 80.149 92.8862 82.4271C94.5134 85.0306 93.8626 86.6578 90.9336 87.3087" stroke="white" stroke-width="1.83457" stroke-linecap="round"/>
<path d="M200.139 92.4947L193.793 86.6368L199.651 79.8025L205.997 85.6604L200.139 92.4947Z" fill="#FF0000"/>
<path d="M200.139 92.4947L193.793 86.6368L199.651 79.8025L205.997 85.6604L200.139 92.4947Z" fill="#42C551"/>
<path d="M137.451 1.24487C134.612 1.44598 134.006 2.8483 135.633 5.45183C137.261 8.05535 136.61 9.51984 133.681 9.84528C130.752 9.84528 130.101 11.147 131.728 13.7506C133.355 16.3541 132.704 17.8186 129.775 18.144" stroke="#666666" stroke-width="1.83457" stroke-linecap="round"/>
<path d="M137.451 1.24487C134.612 1.44598 134.006 2.8483 135.633 5.45183C137.261 8.05535 136.61 9.51984 133.681 9.84528C130.752 9.84528 130.101 11.147 131.728 13.7506C133.355 16.3541 132.704 17.8186 129.775 18.144" stroke="#FF0000" stroke-width="1.83457" stroke-linecap="round"/>
<path d="M137.451 1.24487C134.612 1.44598 134.006 2.8483 135.633 5.45183C137.261 8.05535 136.61 9.51984 133.681 9.84528C130.752 9.84528 130.101 11.147 131.728 13.7506C133.355 16.3541 132.704 17.8186 129.775 18.144" stroke="#42C551" stroke-width="1.83457" stroke-linecap="round"/>
<path d="M147.416 35.3801L148.881 43.6789L140.582 39.2854L147.416 35.3801Z" fill="#666666"/>
<path d="M116.174 99.329L119.591 92.9829L126.425 97.3764L122.52 103.722L116.174 99.329Z" fill="#333333"/>
<path d="M35.2425 171.782C33.5697 174.186 34.3605 175.389 37.615 175.389C40.5439 175.063 41.1948 176.202 39.5676 178.806C38.2658 181.084 39.0794 182.223 42.0084 182.223C44.9374 181.897 45.5883 183.036 43.9611 185.64" stroke="white" stroke-width="2.44609" stroke-linecap="round"/>
<path d="M152.785 98.3539L159.131 92.0078L159.619 102.747L152.785 98.3539Z" fill="#333333"/>
<path d="M166.961 134.572L165.955 132.829L166.67 131.46L165.277 132.126L163.921 130.722L163.545 132.441L162.492 133.459L164.212 133.834L164.527 135.566L165.241 134.197L166.961 134.572Z" fill="#CCCCCC"/>
<path d="M96.6484 136.918L118.616 139.847" stroke="white" stroke-width="2.44609" stroke-linecap="round"/>
<path d="M192.816 127.155H198.186L195.745 131.548L192.816 127.155Z" fill="white"/>
<path d="M46.3679 85.174L41.4863 86.1503L41.9745 81.7568L46.3679 85.174Z" fill="white"/>
<path d="M40.5098 86.6385L46.3677 81.7568L48.3204 88.1029L40.5098 86.6385Z" fill="white"/>
<path d="M8.77946 89.0774L4.87416 93.959L1.45703 89.0774H8.77946Z" fill="white"/>
<path d="M21.4898 164.387C21.208 167.068 22.501 169.402 24.3779 169.599C26.2548 169.796 28.0048 167.782 28.2866 165.101C28.5684 162.42 27.2754 160.086 25.3985 159.889C23.5216 159.692 21.7716 161.706 21.4898 164.387Z" fill="#FF0000"/>
<path d="M21.4898 164.387C21.208 167.068 22.501 169.402 24.3779 169.599C26.2548 169.796 28.0048 167.782 28.2866 165.101C28.5684 162.42 27.2754 160.086 25.3985 159.889C23.5216 159.692 21.7716 161.706 21.4898 164.387Z" fill="#42C551"/>
<path d="M76.034 152.539C74.323 152.539 74.2974 151.222 74.2467 148.596C74.2231 147.411 74.1914 145.788 74.0472 143.646C73.8235 140.323 73.2513 137.075 72.2987 133.716C71.0211 129.215 69.3925 124.72 67.8176 120.373L66.8804 117.779C64.3302 110.696 61.7328 100.549 62.0897 93.3135C62.1369 92.184 63.0811 91.0975 64.1935 90.8954L71.099 89.5966C73.5992 89.1223 76.5034 88.5789 79.3229 88.051L84.5093 87.079C86.8359 86.6468 89.1559 86.2107 91.4789 85.7672C91.6114 85.7436 91.7333 85.7329 91.851 85.7329C92.3498 85.7329 92.8049 85.9243 93.133 86.2718C93.4825 86.6423 93.6574 87.1559 93.6251 87.7184C93.5242 89.7957 93.5779 91.8339 93.7883 93.9432C94.0657 96.7572 94.5548 99.5754 95.2433 102.321C96.3201 106.625 97.8333 110.89 99.297 115.014L99.6853 116.109C101.315 120.684 103.002 125.567 104.158 130.54C104.873 133.622 106.451 141.251 105.632 145.542C105.532 146.105 105.136 146.693 104.626 147.034C104.085 147.395 103.742 147.457 101.068 147.939L100.533 148.035C99.5705 148.21 98.3318 148.437 96.7339 148.738C83.8069 151.167 80.5513 151.81 79.481 152.022C78.8761 152.141 78.8761 152.141 78.3143 152.233L77.6396 152.343C76.9498 152.457 76.4504 152.539 76.034 152.539Z" fill="#91D728"/>
<g opacity="0.25">
<path d="M82.8937 138.375C82.2989 135.115 84.4938 131.964 88.1493 131.279C91.787 130.596 95.5013 132.636 96.0974 135.897C96.7025 139.155 93.8762 142.423 90.2324 143.108C86.5837 143.795 83.5004 141.634 82.8937 138.375Z" fill="#000E3F"/>
<path d="M71.7595 102.42C71.1549 99.1604 73.9835 95.8928 77.626 95.2088C81.2757 94.5244 84.3587 96.6832 84.9628 99.9423C85.5586 103.206 83.3614 106.352 79.7056 107.039C76.0676 107.721 72.3552 105.684 71.7595 102.42Z" fill="#000E3F"/>
<path d="M74.3072 120.965C72.6575 116.356 75.7583 111.791 81.0821 110.791C86.3843 109.795 91.8953 112.747 93.5472 117.353C95.1987 121.96 92.0954 126.528 86.7725 127.527C81.4726 128.525 75.9581 125.57 74.3072 120.965Z" fill="#000E3F"/>
<path d="M96.6089 148.069C103.259 146.818 103.657 146.868 104.249 146.473C104.603 146.237 104.893 145.811 104.968 145.416C105.702 141.549 104.382 134.517 103.495 130.691C102.363 125.804 100.724 121.058 99.0473 116.336C97.4251 111.766 95.7652 107.197 94.5853 102.489C93.8851 99.6948 93.3963 96.8733 93.1105 94.0079C92.913 92.0282 92.8351 89.9671 92.9444 87.6774C92.9948 86.8463 92.3993 86.2874 91.6054 86.4364C89.2821 86.8738 86.9572 87.3112 84.6332 87.7482C80.5165 88.5195 75.3307 89.4867 71.2201 90.261C68.9165 90.6944 66.6132 91.1276 64.31 91.5611C63.5157 91.7047 62.8003 92.5138 62.7648 93.3501C62.415 100.469 64.9629 110.463 67.5145 117.549C69.4185 122.837 71.413 128.123 72.9502 133.533C73.8879 136.833 74.4934 140.175 74.7229 143.599C75.299 152.189 74.0816 152.238 77.7031 151.649C80.4379 151.199 75.1787 152.096 96.6089 148.069ZM83.5306 148.034C83.2536 144.938 80.4496 142.998 77.3482 143.401C75.7464 128.373 67.1899 114.653 65.5875 99.624C68.6714 98.862 70.8509 95.9847 71.2708 92.7582C75.6148 91.941 79.9585 91.1234 84.3025 90.3062C84.5812 93.4887 87.5352 95.4481 90.7339 94.9043C92.3392 109.925 100.888 123.638 102.493 138.658C99.2816 139.314 96.9897 142.267 96.5572 145.583C92.2148 146.4 87.873 147.217 83.5306 148.034Z" fill="#000E3F"/>
</g>
<path opacity="0.25" d="M77.7055 151.645C74.0795 152.24 75.2998 152.185 74.7221 143.6C74.4913 140.174 73.8868 136.836 72.95 133.531C71.4135 128.123 69.4161 122.837 67.5172 117.55C64.9647 110.461 62.4142 100.468 62.7649 93.3469C62.8005 92.5122 63.5178 91.7067 64.3127 91.5628L65.3154 91.374C66.0215 92.3374 66.2836 93.6058 66.6195 94.8957C67.2835 97.4646 67.9927 100.025 68.7505 102.565C72.2281 114.261 75.8112 124.998 89.5855 140.313C92.5808 143.651 96.1203 146.221 100.412 147.367C99.4476 147.543 98.2076 147.77 96.6081 148.071C75.1782 152.098 80.4374 151.196 77.7055 151.645Z" fill="#000E3F"/>
<path d="M80.1838 122.144C80.038 122.059 79.2712 121.365 79.2447 121.289C77.525 121.61 77.6575 121.805 77.0288 119.918C76.6366 118.797 78.4298 119.693 78.3871 118.603C78.3719 117.021 79.2606 116.702 80.6674 116.445C81.5454 116.279 81.5735 116.42 81.8803 117.61C82.0048 118.11 82.3791 118.646 81.729 118.766C81.0508 118.89 80.5404 118.977 80.7747 119.647C80.8879 119.969 81.26 120.307 81.5916 120.247C82.9387 119.994 83.1743 117.94 83.8761 116.862C84.9856 115.21 87.1919 115.068 88.6272 117.156C88.7119 117.255 88.7545 117.179 88.8644 117.161C90.2574 116.902 90.1319 116.448 90.5732 117.709C90.5477 117.636 91.0406 118.894 90.8312 119.068C89.5827 119.355 89.3092 119.218 89.3826 119.55C89.5721 120.333 89.0348 121.055 88.6213 121.376C88.2095 121.698 87.7951 121.759 87.2252 121.865C86.78 121.948 86.6824 121.652 86.2156 120.319C85.7543 118.999 87.379 119.745 87.0338 118.76C86.9223 118.441 86.4477 118.099 86.0692 118.171C85.153 118.342 84.8353 119.986 84.5046 120.964C84.0843 122.21 82.136 123.528 80.1838 122.144Z" fill="#000E3F"/>
<path d="M87.1199 91.6296C87.0773 91.5944 86.893 91.3232 86.893 91.2915C86.2633 91.4069 86.2769 91.4913 86.2914 90.7452C86.2947 90.3046 86.8044 90.6598 86.9253 90.2347C87.1225 89.6095 87.4723 89.4922 87.9902 89.3972C88.3121 89.337 88.3034 89.3936 88.2572 89.8604C88.2359 90.0569 88.297 90.268 88.059 90.3136C87.8095 90.3589 87.621 90.3909 87.6204 90.655C87.62 90.7823 87.708 90.9139 87.8305 90.8939C88.3238 90.7979 88.6584 89.9988 89.0414 89.5753C89.6388 88.9323 90.4137 88.8861 90.6432 89.712C90.659 89.7505 90.6849 89.7224 90.7243 89.7156C91.238 89.6186 91.2503 89.4414 91.2467 89.9383C91.2464 89.9089 91.2639 90.4019 91.1724 90.4707C90.7069 90.5758 90.6257 90.5224 90.6135 90.6537C90.5889 90.9611 90.3196 91.2385 90.1405 91.3636C89.9614 91.4874 89.8089 91.5087 89.6004 91.5482C89.4377 91.5782 89.4323 91.4641 89.4248 90.9414C89.4196 90.4235 89.8968 90.72 89.8939 90.3346C89.8958 90.205 89.7701 90.0738 89.6327 90.0993C89.2939 90.163 88.9807 90.8043 88.756 91.1858C88.4566 91.6862 87.6349 92.1727 87.1199 91.6296Z" fill="#000E3F"/>
<path d="M65.839 95.9906C65.5884 96.0397 65.3618 95.9809 65.1549 95.7624C65.1145 95.7268 64.9283 95.4559 64.928 95.4242C64.2957 95.54 64.3128 95.624 64.3264 94.8782C64.3296 94.4376 64.8385 94.7929 64.9603 94.3678C65.1556 93.7429 65.5066 93.6256 66.0252 93.5302C66.35 93.4698 66.3391 93.5263 66.2922 93.9935C66.2702 94.19 66.331 94.4014 66.094 94.4467C65.8428 94.4923 65.6573 94.5236 65.655 94.788C65.6544 94.9154 65.7426 95.047 65.8651 95.0269C66.3578 94.9312 66.6937 94.1315 67.0761 93.7083C67.6722 93.0654 68.4487 93.0191 68.6779 93.8451C68.6937 93.8835 68.7192 93.8554 68.759 93.8486C69.2724 93.7517 69.2863 93.5742 69.2817 94.0714C69.2801 94.0419 69.2982 94.5352 69.2074 94.6038C68.7399 94.7092 68.6601 94.6558 68.6485 94.7867C68.6226 95.0942 68.3546 95.3712 68.1755 95.4966C67.9955 95.6208 67.8464 95.6415 67.6353 95.6812C67.4731 95.7113 67.4676 95.5972 67.4598 95.0745C67.4553 94.5566 67.9311 94.853 67.9289 94.4677C67.9289 94.3384 67.8067 94.2065 67.6677 94.2323C67.3276 94.296 67.0163 94.9371 66.791 95.3188C66.5802 95.6699 66.159 95.933 65.839 95.9906Z" fill="#000E3F"/>
<path d="M99.3814 144.863C99.3423 144.829 99.1655 144.553 99.1661 144.523C98.5306 144.643 98.5568 144.718 98.5684 143.976C98.5661 143.537 99.0821 143.892 99.1949 143.467C99.372 142.847 99.7121 142.733 100.232 142.634C100.555 142.575 100.552 142.63 100.523 143.093C100.509 143.289 100.575 143.504 100.334 143.545C100.083 143.593 99.8977 143.622 99.898 143.885C99.8983 144.011 99.9849 144.148 100.107 144.125C100.602 144.032 100.938 143.226 101.301 142.81C101.868 142.172 102.662 142.121 102.917 142.944C102.934 142.984 102.958 142.952 102.998 142.947C103.51 142.851 103.523 142.669 103.524 143.169C103.525 143.137 103.541 143.638 103.446 143.703C102.979 143.808 102.9 143.754 102.885 143.885C102.852 144.193 102.572 144.476 102.388 144.6C102.205 144.723 102.054 144.746 101.843 144.785C101.679 144.816 101.686 144.701 101.695 144.173C101.7 143.651 102.171 143.95 102.172 143.565C102.171 143.437 102.052 143.304 101.91 143.33C101.573 143.395 101.262 144.035 101.022 144.419C100.715 144.914 99.875 145.416 99.3814 144.863Z" fill="#000E3F"/>
<path d="M77.4162 148.996C77.3768 148.962 77.1974 148.686 77.201 148.655C76.5635 148.776 76.5929 148.85 76.6032 148.109C76.5997 147.669 77.1176 148.024 77.2297 147.599C77.4066 146.98 77.7469 146.865 78.2671 146.767C78.5878 146.707 78.5878 146.762 78.5577 147.226C78.5428 147.422 78.6088 147.636 78.3699 147.678C78.1193 147.725 77.9341 147.754 77.9335 148.018C77.9328 148.144 78.0195 148.281 78.1426 148.257C78.6401 148.165 78.9721 147.359 79.3371 146.942C79.9057 146.304 80.6964 146.254 80.9524 147.077C80.9702 147.117 80.9912 147.086 81.0339 147.079C81.5466 146.984 81.5566 146.802 81.5602 147.301C81.5595 147.27 81.5776 147.77 81.4816 147.836C81.0151 147.941 80.9366 147.886 80.9208 148.018C80.8881 148.326 80.6072 148.609 80.4233 148.732C80.2409 148.856 80.0887 148.879 79.8789 148.918C79.7147 148.949 79.7211 148.834 79.7308 148.306C79.7357 147.784 80.2054 148.084 80.2076 147.698C80.2105 147.57 80.0838 147.438 79.9451 147.463C79.6067 147.529 79.2989 148.168 79.0581 148.552C78.7539 149.042 77.9112 149.553 77.4162 148.996Z" fill="#000E3F"/>
<path d="M87.974 139.717C87.492 139.808 87.0453 139.702 86.584 139.295C86.4948 139.232 86.0574 138.72 86.0483 138.667C84.8464 138.891 84.9027 139.044 84.6841 137.662C84.5303 136.85 85.6737 137.5 85.75 136.713C85.889 135.569 86.5177 135.346 87.5127 135.162C88.1331 135.046 88.1437 135.146 88.2478 136.006C88.2892 136.366 88.4877 136.759 88.0306 136.843C87.5525 136.933 87.193 136.99 87.2829 137.479C87.3259 137.716 87.5395 137.959 87.7752 137.919C88.7285 137.741 89.1161 136.249 89.6905 135.473C90.5899 134.285 92.1448 134.185 92.9316 135.701C92.982 135.774 93.0173 135.72 93.0942 135.705C94.0759 135.522 94.0397 135.191 94.2095 136.11C94.2027 136.053 94.3995 136.977 94.2314 137.099C93.3473 137.303 93.1705 137.201 93.1841 137.444C93.2206 138.015 92.7557 138.54 92.4325 138.773C92.1108 139.009 91.817 139.051 91.4168 139.124C91.1029 139.18 91.0799 138.966 90.927 137.992C90.767 137.029 91.7918 137.576 91.6683 136.86C91.6246 136.624 91.3379 136.38 91.0702 136.429C89.9407 136.64 90.1295 139.311 87.974 139.717Z" fill="#000E3F"/>
<path d="M77.4961 103.64C77.0177 103.73 76.5531 103.628 76.0621 103.225C75.9664 103.162 75.508 102.659 75.4974 102.603C74.3039 102.826 74.3343 102.978 74.1235 101.6C73.9829 100.784 75.1065 101.44 75.2077 100.648C75.3965 99.4956 76.0501 99.2645 77.0396 99.0825C77.661 98.9697 77.6545 99.068 77.7149 99.9385C77.7589 100.609 77.9732 100.699 77.1285 100.856C76.3676 100.999 76.7762 101.936 77.2152 101.856C78.5955 101.597 78.5448 98.8944 80.5787 98.5171C81.3969 98.3629 82.0231 98.8966 82.379 99.6366C82.4291 99.7155 83.0692 99.4863 83.3569 99.432C83.5815 99.388 83.5996 99.7782 83.6468 100.047C83.6339 99.9935 83.8385 100.909 83.6801 101.034C82.7954 101.237 82.6189 101.138 82.637 101.378C82.69 101.946 82.2562 102.466 81.9474 102.696C81.6368 102.926 81.3458 102.971 80.9431 103.045C80.5739 103.113 80.5784 102.679 80.5338 102.544C80.4873 102.32 80.4278 102.148 80.3845 101.924C80.1999 100.968 81.2395 101.511 81.1057 100.798C81.063 100.564 80.7772 100.313 80.5099 100.366C79.8617 100.485 79.4609 101.683 79.1457 102.387C78.8503 103.042 78.1106 103.525 77.4961 103.64Z" fill="#000E3F"/>
<path d="M91.8497 86.4107C92.5185 86.4107 92.9898 86.936 92.9471 87.6795C92.8359 89.9689 92.9145 92.03 93.112 94.0103C93.3942 96.8728 93.8846 99.6962 94.5845 102.486C95.7625 107.197 97.4266 111.765 99.0449 116.335C100.726 121.057 102.36 125.805 103.496 130.693C104.384 134.515 105.702 141.55 104.965 145.414C104.895 145.812 104.601 146.235 104.248 146.471C103.798 146.771 103.462 146.817 100.411 147.368C99.4473 147.543 98.2073 147.771 96.6078 148.072C75.1783 152.098 80.4371 151.196 77.7052 151.646C76.9643 151.767 76.4254 151.862 76.0323 151.862C74.5027 151.862 75.1815 150.432 74.7218 143.601C74.491 140.174 73.8865 136.836 72.9497 133.531C71.4132 128.124 69.4158 122.837 67.5169 117.55C64.9644 110.462 62.4139 100.469 62.7646 93.3473C62.8002 92.5126 63.5175 91.7071 64.3124 91.5632L71.2225 90.263C75.327 89.4849 80.516 88.52 84.6328 87.7455C86.9596 87.3136 89.28 86.8768 91.605 86.4337C91.6887 86.4178 91.7708 86.4107 91.8497 86.4107ZM91.85 85.0549C91.8497 85.0549 91.8497 85.0549 91.85 85.0549C91.6893 85.0549 91.5258 85.0698 91.3638 85.0992C89.0282 85.5447 86.7101 85.9808 84.3855 86.4123C82.7695 86.7165 80.9925 87.0491 79.1806 87.3883C76.3663 87.9152 73.4676 88.4576 70.9704 88.9309L64.0622 90.2307C62.6411 90.488 61.4725 91.8322 61.4105 93.2898C61.0494 100.618 63.6691 110.865 66.2416 118.009C66.5536 118.878 66.8685 119.747 67.1833 120.617C68.7524 124.949 70.3749 129.428 71.646 133.902C72.5854 137.216 73.1492 140.419 73.3696 143.692C73.5125 145.818 73.5442 147.432 73.5671 148.61C73.6192 151.285 73.6567 153.218 76.033 153.218C76.505 153.218 77.0274 153.132 77.7502 153.012L77.9251 152.984L78.4239 152.902C78.996 152.809 78.996 152.809 79.6122 152.687C80.6819 152.475 83.9368 151.832 96.8583 149.404C98.4549 149.104 99.6921 148.877 100.654 148.702L101.195 148.604C103.985 148.101 104.344 148.037 105.001 147.598C105.669 147.152 106.166 146.407 106.301 145.652C107.139 141.251 105.542 133.51 104.817 130.387C103.654 125.383 101.959 120.477 100.322 115.88L99.9329 114.781C98.4753 110.674 96.9679 106.427 95.9005 102.157C95.22 99.4444 94.7361 96.6591 94.4623 93.8775C94.2547 91.8002 94.2024 89.795 94.3023 87.7455C94.3446 87.0068 94.1044 86.3137 93.6254 85.8062C93.167 85.3216 92.5369 85.0549 91.85 85.0549Z" fill="#000E3F"/>
<path d="M42.0256 185.889C40.9369 185.889 39.8456 185.086 39.5394 184.062L37.4806 177.344C36.7296 174.906 35.8636 172.073 35.0244 169.324L33.4869 164.297C32.799 162.032 32.1069 159.775 31.408 157.515C31.2374 156.942 31.3175 156.383 31.633 155.935C31.9537 155.479 32.4923 155.199 33.1087 155.165C35.1831 155.035 37.2022 154.756 39.2766 154.311C42.0441 153.722 44.7905 152.922 47.441 151.933C51.5985 150.385 55.6684 148.407 59.6044 146.494L60.6495 145.986C65.0168 143.858 69.6841 141.637 74.494 139.937C77.1871 138.985 83.93 136.772 88.373 136.772C88.674 136.772 88.963 136.782 89.2387 136.803C89.808 136.84 90.437 137.168 90.8334 137.637C91.251 138.133 91.3506 138.466 92.1219 141.053L92.2829 141.594C92.5631 142.53 92.9271 143.736 93.404 145.29C97.2605 157.884 98.2587 161.039 98.5868 162.076C98.7724 162.66 98.7724 162.66 98.9266 163.21L99.1105 163.865C99.4836 165.19 99.6895 165.92 99.2709 166.555C98.8105 167.254 97.918 167.372 95.7638 167.655C94.5884 167.81 92.9789 168.022 90.8663 168.403C87.5894 168.995 84.4256 169.924 81.192 171.244C76.8654 173.014 72.5819 175.13 68.4399 177.177C67.6123 177.586 66.7848 177.995 65.9566 178.402C59.2026 181.723 49.4084 185.433 42.1753 185.884C42.1294 185.888 42.077 185.889 42.0256 185.889Z" fill="#91D728"/>
<g opacity="0.25">
<path d="M84.6422 160.198C81.4687 161.152 78.0929 159.321 77.0058 155.764C75.9231 152.225 77.5369 148.307 80.7113 147.352C83.8822 146.389 87.4443 148.834 88.5304 152.379C89.6182 155.929 87.8138 159.233 84.6422 160.198Z" fill="#000E3F"/>
<path d="M50.1495 175.26C46.9773 176.223 43.4156 173.776 42.3307 170.232C41.2449 166.681 43.0474 163.377 46.2193 162.414C49.3967 161.459 52.767 163.293 53.8564 166.849C54.9387 170.39 53.3275 174.305 50.1495 175.26Z" fill="#000E3F"/>
<path d="M68.2954 170.667C63.899 172.819 59.0171 170.245 57.4315 165.065C55.8523 159.907 58.173 154.102 62.5675 151.948C66.9616 149.795 71.8461 152.371 73.4314 157.549C75.0122 162.705 72.6886 168.514 68.2954 170.667Z" fill="#000E3F"/>
<path d="M92.7517 145.49C90.7694 139.019 90.7749 138.619 90.3162 138.074C90.0421 137.749 89.5869 137.507 89.1858 137.477C85.261 137.178 78.4201 139.271 74.7155 140.578C69.9845 142.247 65.4504 144.404 60.9441 146.595C56.5833 148.715 52.2273 150.873 47.679 152.569C44.9804 153.575 42.2307 154.374 39.415 154.977C37.4693 155.393 35.4298 155.7 33.1421 155.846C32.3103 155.888 31.8212 156.542 32.0576 157.315C32.7506 159.575 33.4437 161.837 34.1365 164.098C35.3607 168.103 36.8984 173.149 38.1249 177.148C38.8118 179.389 39.4984 181.63 40.1854 183.871C40.4162 184.644 41.3003 185.265 42.135 185.208C49.2481 184.764 58.8975 181.12 65.656 177.797C70.6996 175.316 75.7305 172.747 80.9361 170.617C84.1115 169.319 87.3648 168.345 90.742 167.737C99.2154 166.209 99.3993 167.413 98.4114 163.88C97.6598 161.212 99.1368 166.339 92.7517 145.49ZM94.1708 158.491C91.125 159.111 89.509 162.113 90.2538 165.15C75.4971 168.413 62.8135 178.441 48.0562 181.705C46.9561 178.725 43.8541 176.879 40.6011 176.821C39.3058 172.595 38.0108 168.369 36.7151 164.142C39.8469 163.511 41.4658 160.358 40.5697 157.24C55.3187 153.974 67.9964 143.954 82.745 140.688C83.7536 143.807 86.9436 145.757 90.2865 145.818C91.5815 150.042 92.8761 154.266 94.1708 158.491Z" fill="#000E3F"/>
</g>
<path opacity="0.25" d="M98.4089 163.878C99.4032 167.416 99.2128 166.209 90.7452 167.737C87.3658 168.348 84.1157 169.32 80.9351 170.618C75.7319 172.746 70.7006 175.319 65.6573 177.794C58.8966 181.119 49.2494 184.765 42.1328 185.208C41.2994 185.266 40.4191 184.642 40.1877 183.868L39.8887 182.893C40.7676 182.084 41.9993 181.682 43.2432 181.205C45.7226 180.26 48.1885 179.27 50.6278 178.235C61.8645 173.478 72.1369 168.723 85.8258 153.332C88.8099 149.984 90.9706 146.181 91.6323 141.789C91.9138 142.728 92.2778 143.935 92.7546 145.491C99.1394 166.339 97.6582 161.213 98.4089 163.878Z" fill="#000E3F"/>
<path d="M68.8147 164.694C68.7468 164.848 68.142 165.687 68.0693 165.722C68.5797 167.395 68.7588 167.242 66.9537 168.076C65.8834 168.591 66.5739 166.709 65.4951 166.873C63.925 167.064 63.5093 166.216 63.0981 164.847C62.8356 163.993 62.972 163.949 64.12 163.512C64.6036 163.333 65.0946 162.901 65.286 163.534C65.4841 164.194 65.627 164.692 66.2674 164.384C66.5748 164.236 66.869 163.829 66.7727 163.506C66.3715 162.195 64.3036 162.189 63.155 161.612C61.3897 160.693 61.0027 158.516 62.9184 156.857C63.0076 156.762 62.9265 156.728 62.897 156.621C62.4849 155.266 62.0478 155.44 63.2523 154.862C63.1828 154.895 64.3779 154.265 64.5735 154.454C64.9979 155.663 64.8919 155.951 65.2136 155.84C65.9703 155.565 66.7478 156.018 67.1127 156.394C67.4783 156.767 67.5853 157.172 67.7538 157.727C67.886 158.16 67.6028 158.29 66.3298 158.902C65.0694 159.507 65.6299 157.81 64.6895 158.262C64.3844 158.409 64.098 158.918 64.2114 159.287C64.4833 160.178 66.153 160.311 67.1615 160.531C68.4468 160.81 69.9736 162.599 68.8147 164.694Z" fill="#000E3F"/>
<path d="M37.7199 161.196C37.6895 161.242 37.4406 161.456 37.4089 161.459C37.5935 162.072 37.6759 162.049 36.933 162.118C36.495 162.163 36.7911 161.617 36.3554 161.545C35.7121 161.418 35.5566 161.083 35.4046 160.58C35.3093 160.266 35.3662 160.269 35.8352 160.263C36.0327 160.262 36.2361 160.178 36.3078 160.41C36.3806 160.652 36.4333 160.836 36.6958 160.808C36.8221 160.794 36.9434 160.692 36.9098 160.573C36.7594 160.093 35.928 159.849 35.4648 159.516C34.7591 158.993 34.6272 158.228 35.4227 157.909C35.4593 157.889 35.4286 157.866 35.4172 157.827C35.2637 157.328 35.0865 157.335 35.5805 157.283C35.5511 157.287 36.0395 157.215 36.1178 157.298C36.2739 157.749 36.2299 157.835 36.3618 157.833C36.6699 157.823 36.9754 158.06 37.1199 158.224C37.2631 158.389 37.3012 158.538 37.3633 158.741C37.4111 158.899 37.2986 158.917 36.7798 158.983C36.2658 159.045 36.5073 158.538 36.1245 158.584C35.9956 158.597 35.8789 158.736 35.9199 158.87C36.0208 159.2 36.6932 159.44 37.0972 159.62C37.6277 159.862 38.2022 160.624 37.7199 161.196Z" fill="#000E3F"/>
<path d="M44.4191 181.859C44.4957 182.102 44.4627 182.334 44.2681 182.564C44.2371 182.608 43.9888 182.824 43.9572 182.827C44.1424 183.443 44.2242 183.416 43.4813 183.486C43.0433 183.531 43.3397 182.986 42.9036 182.912C42.261 182.788 42.1052 182.452 41.9529 181.947C41.8566 181.631 41.9141 181.636 42.3835 181.631C42.5813 181.631 42.7843 181.547 42.8561 181.777C42.9292 182.022 42.9812 182.203 43.2444 182.176C43.3711 182.162 43.4917 182.06 43.4584 181.94C43.3084 181.462 42.4766 181.217 42.0134 180.883C41.3083 180.362 41.1758 179.596 41.9713 179.276C42.0079 179.256 41.9772 179.234 41.9658 179.195C41.8126 178.696 41.6345 178.702 42.1291 178.651C42.1 178.656 42.5881 178.583 42.6667 178.666C42.8235 179.119 42.7792 179.204 42.9104 179.201C43.2188 179.193 43.524 179.428 43.6685 179.592C43.8117 179.757 43.8489 179.903 43.9119 180.108C43.9597 180.266 43.8472 180.285 43.3284 180.351C42.8141 180.413 43.0559 179.907 42.6731 179.952C42.5445 179.966 42.4271 180.102 42.4685 180.238C42.5697 180.569 43.2414 180.806 43.6458 180.988C44.0179 181.158 44.3263 181.548 44.4191 181.859Z" fill="#000E3F"/>
<path d="M89.2606 143.091C89.2312 143.134 88.9761 143.34 88.9461 143.343C89.1358 143.961 89.2079 143.927 88.4689 143.998C88.0325 144.049 88.328 143.497 87.8935 143.432C87.2577 143.325 87.1067 142.999 86.9509 142.494C86.8555 142.18 86.9108 142.176 87.3744 142.154C87.5709 142.146 87.7765 142.056 87.8447 142.29C87.9194 142.535 87.9688 142.716 88.2313 142.686C88.3564 142.672 88.4828 142.57 88.4456 142.452C88.2992 141.97 87.4607 141.726 87.0065 141.411C86.3095 140.919 86.1708 140.136 86.9602 139.791C86.9984 139.769 86.9638 139.748 86.9538 139.71C86.8022 139.211 86.6195 139.219 87.1161 139.162C87.0844 139.165 87.5806 139.093 87.6556 139.181C87.812 139.633 87.7665 139.717 87.8993 139.718C88.2093 139.717 88.521 139.963 88.6648 140.132C88.808 140.3 88.8475 140.448 88.9095 140.653C88.9593 140.813 88.8433 140.819 88.318 140.868C87.7988 140.922 88.0438 140.42 87.6604 140.462C87.5337 140.477 87.4148 140.611 87.4561 140.749C87.5583 141.076 88.2291 141.314 88.6373 141.51C89.1626 141.76 89.7552 142.539 89.2606 143.091Z" fill="#000E3F"/>
<path d="M95.8079 164.46C95.7785 164.503 95.5244 164.712 95.4934 164.711C95.6838 165.332 95.7549 165.294 95.0162 165.366C94.5801 165.419 94.875 164.865 94.4405 164.8C93.8049 164.693 93.6537 164.368 93.4978 163.862C93.4031 163.55 93.4574 163.544 93.9213 163.522C94.1182 163.515 94.3238 163.426 94.3917 163.659C94.466 163.902 94.5158 164.083 94.7783 164.055C94.9037 164.041 95.0301 163.94 94.9926 163.82C94.8452 163.336 94.008 163.096 93.5534 162.779C92.8558 162.285 92.7181 161.505 93.5072 161.159C93.545 161.137 93.5117 161.12 93.5008 161.078C93.3491 160.579 93.1671 160.589 93.663 160.53C93.6317 160.534 94.1272 160.461 94.2026 160.549C94.359 161.001 94.3134 161.085 94.4463 161.086C94.7563 161.084 95.0683 161.332 95.2118 161.501C95.355 161.668 95.3948 161.817 95.4565 162.021C95.506 162.181 95.3902 162.187 94.8649 162.237C94.3458 162.29 94.5911 161.789 94.2074 161.83C94.0794 161.842 93.9627 161.982 94.0031 162.117C94.1059 162.446 94.7757 162.681 95.1843 162.878C95.7048 163.125 96.3064 163.906 95.8079 164.46Z" fill="#000E3F"/>
<path d="M85.4117 155C85.5559 155.469 85.4996 155.924 85.1463 156.428C85.0933 156.524 84.6336 157.016 84.5819 157.03C84.9384 158.2 85.0842 158.127 83.7349 158.498C82.9445 158.741 83.464 157.532 82.6737 157.544C81.5212 157.533 81.2296 156.933 80.9358 155.965C80.7509 155.361 80.8504 155.34 81.6929 155.141C82.0465 155.059 82.4144 154.819 82.5489 155.263C82.6921 155.729 82.7884 156.079 83.2643 155.935C83.4954 155.866 83.7123 155.627 83.6464 155.397C83.3638 154.47 81.838 154.25 81.0024 153.766C79.7223 153.004 79.4504 151.47 80.8689 150.519C80.9358 150.461 80.8779 150.432 80.8553 150.357C80.564 149.402 80.2385 149.475 81.133 149.204C81.0774 149.217 81.9735 148.919 82.1138 149.072C82.4144 149.928 82.3336 150.115 82.5728 150.074C83.1362 149.974 83.7097 150.378 83.9777 150.673C84.2473 150.967 84.322 151.254 84.4393 151.643C84.5295 151.949 84.3197 151.996 83.368 152.256C82.4299 152.522 82.8589 151.443 82.1616 151.645C81.9314 151.715 81.7203 152.027 81.7992 152.287C82.1348 153.387 84.769 152.903 85.4117 155Z" fill="#000E3F"/>
<path d="M50.7239 169.423C50.8668 169.888 50.8164 170.362 50.4718 170.894C50.4197 170.996 49.971 171.508 49.9161 171.524C50.2704 172.686 50.4181 172.639 49.072 173.001C48.2765 173.232 48.8037 172.042 48.0053 172.03C46.8392 171.97 46.5367 171.346 46.246 170.383C46.065 169.778 46.1633 169.774 47.0219 169.617C47.683 169.499 47.7492 169.276 47.9988 170.098C48.2254 170.838 49.1115 170.328 48.9831 169.901C48.5723 168.558 45.8921 168.909 45.2908 166.929C45.0464 166.133 45.5074 165.452 46.2031 165.016C46.2758 164.957 45.9768 164.347 45.8911 164.067C45.8226 163.849 46.2079 163.787 46.4701 163.71C46.4183 163.729 47.3057 163.424 47.4473 163.567C47.747 164.424 47.6691 164.61 47.905 164.566C48.463 164.45 49.0287 164.823 49.2912 165.104C49.554 165.387 49.6313 165.671 49.7496 166.064C49.8579 166.423 49.4266 166.467 49.297 166.526C49.0798 166.597 48.9159 166.675 48.698 166.743C47.7683 167.033 48.1924 165.939 47.4981 166.151C47.2701 166.22 47.0532 166.532 47.135 166.792C47.3258 167.422 48.56 167.688 49.2948 167.923C49.9791 168.143 50.5422 168.825 50.7239 169.423Z" fill="#000E3F"/>
<path d="M88.3735 137.45C88.656 137.45 88.9272 137.46 89.1862 137.48C89.5896 137.506 90.0422 137.751 90.3153 138.075C90.6641 138.49 90.7469 138.818 91.6336 141.789C91.9152 142.727 92.2792 143.934 92.756 145.49C99.1401 166.339 97.6589 161.213 98.4095 163.878C99.4039 167.415 99.2135 166.209 90.7459 167.737C87.3665 168.348 84.1164 169.32 80.9358 170.618C75.7326 172.746 70.7013 175.319 65.658 177.794C58.8973 181.119 49.2501 184.765 42.1335 185.208C42.0976 185.21 42.0617 185.211 42.0258 185.211C41.2254 185.211 40.4098 184.609 40.1884 183.868L38.1279 177.145C36.8982 173.153 35.3624 168.103 34.1349 164.098C33.447 161.834 32.7552 159.576 32.056 157.315C31.8249 156.541 32.3137 155.888 33.1451 155.843C35.4325 155.699 37.4723 155.391 39.4184 154.975C42.2317 154.376 44.983 153.575 47.6774 152.569C52.2287 150.875 56.583 148.713 60.9448 146.597C65.4505 144.401 69.9872 142.249 74.7195 140.577C78.1745 139.356 84.3741 137.45 88.3735 137.45ZM88.3735 136.095C83.8252 136.095 76.9939 138.336 74.2679 139.299C69.4241 141.011 64.7367 143.241 60.3513 145.378L59.3023 145.888C55.3828 147.793 51.3297 149.763 47.2048 151.299C44.5848 152.277 41.8703 153.067 39.1368 153.649C37.0954 154.086 35.1086 154.361 33.0607 154.49C32.2471 154.534 31.5204 154.919 31.0791 155.546C30.6482 156.158 30.5312 156.945 30.7575 157.703C31.4599 159.975 32.1511 162.23 32.8383 164.493C33.321 166.068 33.8505 167.801 34.39 169.567C35.2253 172.303 36.0855 175.119 36.8326 177.545L38.8924 184.266C39.2836 185.574 40.6319 186.568 42.0261 186.568C42.0934 186.568 42.1606 186.565 42.2275 186.56C49.5498 186.105 59.443 182.362 66.2567 179.011C67.0849 178.604 67.9138 178.195 68.7433 177.785C72.8739 175.744 77.1449 173.634 81.4495 171.873C84.6388 170.571 87.759 169.655 90.9871 169.072C93.0838 168.693 94.6839 168.483 95.8522 168.329C98.1555 168.025 99.2067 167.887 99.8374 166.93C100.426 166.036 100.163 165.1 99.7631 163.682L99.7149 163.511L99.5785 163.025C99.422 162.467 99.422 162.467 99.2323 161.868C98.9032 160.829 97.9024 157.666 94.0526 145.093C93.5764 143.54 93.2131 142.336 92.9322 141.399L92.7751 140.873C91.9653 138.155 91.8612 137.806 91.3527 137.202C90.8351 136.588 90.0389 136.177 89.2741 136.127C89.0022 136.106 88.6935 136.095 88.3735 136.095Z" fill="#000E3F"/>
<path d="M77.8611 163.44C77.0924 163.44 76.4084 162.829 74.9084 161.488C74.0243 160.698 72.8143 159.617 71.1466 158.264C68.5631 156.168 65.7953 154.376 62.6829 152.784C58.5209 150.66 54.1251 148.794 49.8742 146.991C49.0224 146.629 48.1706 146.267 47.3211 145.904C40.3971 142.951 31.1963 137.946 26.1379 132.759C25.3427 131.953 25.1897 130.522 25.7994 129.571L29.5486 123.629C30.8705 121.526 32.4063 119.097 33.904 116.728L36.8337 112.092C38.1019 110.093 39.3613 108.097 40.6182 106.093C40.9728 105.539 41.5214 105.225 42.1268 105.225C42.6315 105.225 43.1222 105.447 43.5082 105.849C44.9586 107.335 46.4874 108.683 48.1784 109.967C50.4286 111.68 52.8259 113.241 55.3054 114.605C59.1855 116.744 63.3343 118.536 67.3453 120.269L68.4289 120.738C72.8909 122.659 77.6187 124.748 82.0445 127.286C84.789 128.859 91.4505 132.898 94.0382 136.418C94.3809 136.874 94.5435 137.565 94.4465 138.17C94.3421 138.812 94.1546 139.105 92.6915 141.385L92.3928 141.851C91.8652 142.674 91.1887 143.736 90.322 145.111C83.2848 156.259 81.5479 159.068 80.9771 159.991C80.6564 160.511 80.6564 160.511 80.3386 160.989L79.9643 161.552C79.1842 162.73 78.7129 163.44 77.8611 163.44Z" fill="#91D728"/>
<g opacity="0.25">
<path d="M73.3087 148.195C70.516 146.412 69.7017 142.659 71.6888 139.515C73.6653 136.385 77.688 135.053 80.482 136.836C83.2808 138.611 83.7505 142.906 81.7718 146.042C79.7908 149.182 76.1092 149.97 73.3087 148.195Z" fill="#000E3F"/>
<path d="M39.3927 131.873C36.5935 130.097 36.1258 125.8 38.1045 122.666C40.0877 119.527 43.7677 118.738 46.5666 120.515C49.3628 122.3 50.1713 126.051 48.1858 129.197C46.2084 132.326 42.1896 133.659 39.3927 131.873Z" fill="#000E3F"/>
<path d="M54.7104 142.632C50.2115 140.703 48.9783 135.323 51.8705 130.743C54.7508 126.181 60.6643 124.154 65.1635 126.08C69.662 128.007 70.8953 133.389 68.0037 137.969C65.1266 142.53 59.2073 144.558 54.7104 142.632Z" fill="#000E3F"/>
<path d="M89.7469 144.747C93.3584 139.025 93.6655 138.767 93.7793 138.064C93.8472 137.645 93.7331 137.142 93.4945 136.818C91.1612 133.648 85.1126 129.828 81.7057 127.872C77.3546 125.375 72.7626 123.345 68.1626 121.358C63.7109 119.435 59.2344 117.541 54.9821 115.2C52.4591 113.811 50.0595 112.248 47.7662 110.506C46.1816 109.303 44.6189 107.958 43.0159 106.319C42.4414 105.716 41.6268 105.772 41.1952 106.455C39.9339 108.454 38.6718 110.455 37.4098 112.455C35.1719 115.995 32.3498 120.453 30.1183 123.991C28.8676 125.973 27.6172 127.955 26.3665 129.938C25.9307 130.617 26.0367 131.692 26.6251 132.287C31.6011 137.389 40.6567 142.327 47.5842 145.282C52.7542 147.487 57.9833 149.624 62.9929 152.181C66.0488 153.741 68.9084 155.572 71.5727 157.735C78.2575 163.162 77.4645 164.087 79.4988 161.033C81.0304 158.723 78.1075 163.187 89.7469 144.747ZM80.8177 154.303C78.3616 152.399 75.0316 153.132 73.2152 155.678C61.1167 146.621 45.2419 143.548 33.1424 134.49C34.6837 131.713 34.0598 128.157 31.9822 125.653C34.3408 121.915 36.699 118.177 39.0578 114.438C41.579 116.401 45.025 115.571 46.8042 112.858C58.8994 121.907 74.7643 124.981 86.8592 134.031C85.153 136.83 85.7559 140.519 87.8901 143.093C85.5329 146.83 83.1753 150.566 80.8177 154.303Z" fill="#000E3F"/>
</g>
<path opacity="0.25" d="M79.4977 161.029C77.465 164.09 78.2557 163.159 71.5738 157.737C68.9072 155.574 66.0502 153.744 62.9915 152.181C57.9844 149.624 52.7524 147.489 47.587 145.281C40.6572 142.324 31.6009 137.391 26.6233 132.285C26.0359 131.691 25.9344 130.617 26.3702 129.937L26.9145 129.074C28.1009 129.213 29.2084 129.885 30.3819 130.516C32.7158 131.779 35.0741 133.003 37.45 134.176C48.3848 139.591 58.6892 144.276 79.2846 144.613C83.7686 144.691 88.0606 143.848 91.8218 141.485C91.2939 142.311 90.6167 143.374 89.748 144.75C78.1086 163.188 81.028 158.722 79.4977 161.029Z" fill="#000E3F"/>
<path d="M59.5794 139.129C59.4185 139.178 58.3876 139.267 58.3139 139.234C57.3783 140.713 57.6114 140.748 55.8011 139.924C54.7133 139.449 56.5899 138.744 55.762 138.034C54.5931 136.968 54.9648 136.101 55.7342 134.895C56.2101 134.139 56.3322 134.214 57.4126 134.799C57.8639 135.049 58.5114 135.139 58.1568 135.697C57.7853 136.278 57.5015 136.711 58.1522 136.996C58.4648 137.132 58.9656 137.09 59.1479 136.806C59.8797 135.647 58.5353 134.076 58.2237 132.828C57.7685 130.891 59.1663 129.178 61.6732 129.548C61.8038 129.553 61.7763 129.47 61.8384 129.378C62.5968 128.181 62.1794 127.964 63.4037 128.499C63.3329 128.468 64.59 128.963 64.5742 129.235C63.9351 130.345 63.648 130.452 63.9412 130.624C64.6434 131.018 64.8069 131.904 64.7607 132.425C64.7161 132.946 64.4788 133.291 64.1682 133.78C63.926 134.163 63.6429 134.033 62.3488 133.468C61.0677 132.907 62.7206 132.225 61.7641 131.807C61.454 131.671 60.8812 131.787 60.6759 132.113C60.1775 132.9 61.166 134.252 61.6571 135.16C62.2832 136.316 61.9225 138.641 59.5794 139.129Z" fill="#000E3F"/>
<path d="M41.9458 113.277C41.8911 113.284 41.5669 113.235 41.5436 113.213C41.1994 113.752 41.2708 113.8 40.7339 113.281C40.4135 112.979 41.0206 112.847 40.7914 112.469C40.4678 111.899 40.6201 111.563 40.9026 111.119C41.0781 110.843 41.1134 110.887 41.4237 111.239C41.553 111.388 41.7492 111.487 41.6206 111.693C41.4838 111.907 41.3788 112.067 41.5718 112.247C41.6649 112.334 41.821 112.359 41.8898 112.255C42.1556 111.829 41.7977 111.039 41.7486 110.471C41.6839 109.595 42.1779 108.996 42.9392 109.391C42.9783 109.406 42.9754 109.367 42.997 109.333C43.2757 108.891 43.1541 108.762 43.5159 109.102C43.4939 109.083 43.8673 109.406 43.8553 109.519C43.6154 109.931 43.5214 109.955 43.6086 110.053C43.8172 110.281 43.8365 110.667 43.8068 110.883C43.7758 111.099 43.6872 111.225 43.5741 111.404C43.4855 111.544 43.3982 111.47 43.01 111.12C42.6272 110.771 43.169 110.623 42.8849 110.363C42.7911 110.274 42.6098 110.276 42.5348 110.395C42.3505 110.686 42.6072 111.352 42.7339 111.777C42.8971 112.337 42.6941 113.27 41.9458 113.277Z" fill="#000E3F"/>
<path d="M30.6556 131.833C30.5212 132.05 30.3236 132.176 30.0227 132.178C29.969 132.184 29.6438 132.136 29.6205 132.114C29.275 132.656 29.348 132.701 28.8108 132.183C28.4904 131.881 29.0969 131.75 28.8683 131.371C28.5434 130.802 28.6963 130.465 28.9795 130.021C29.1563 129.742 29.1903 129.789 29.5006 130.141C29.6296 130.291 29.8258 130.39 29.6978 130.594C29.5601 130.809 29.457 130.966 29.649 131.148C29.7418 131.235 29.8982 131.26 29.9671 131.157C30.2322 130.731 29.8753 129.941 29.8255 129.372C29.7605 128.498 30.2548 127.897 31.0161 128.292C31.0552 128.307 31.0516 128.269 31.0739 128.235C31.3523 127.793 31.232 127.662 31.5928 128.004C31.5702 127.985 31.9438 128.307 31.9322 128.421C31.6911 128.835 31.5976 128.857 31.6856 128.955C31.8931 129.183 31.9138 129.568 31.8837 129.785C31.852 130.001 31.7657 130.124 31.6513 130.306C31.5627 130.445 31.4754 130.371 31.0872 130.021C30.7048 129.672 31.2459 129.525 30.9621 129.265C30.8674 129.177 30.6876 129.176 30.612 129.296C30.4271 129.588 30.6851 130.253 30.8111 130.678C30.9252 131.072 30.8312 131.56 30.6556 131.833Z" fill="#000E3F"/>
<path d="M89.2864 140.535C89.2351 140.541 88.9121 140.482 88.8904 140.461C88.5455 141.008 88.6186 141.041 88.0829 140.527C87.7594 140.23 88.3706 140.093 88.1366 139.721C87.8033 139.17 87.951 138.843 88.2329 138.395C88.4088 138.118 88.4473 138.157 88.767 138.494C88.9014 138.638 89.1032 138.735 88.9703 138.94C88.8336 139.156 88.7288 139.312 88.9221 139.491C89.0146 139.577 89.174 139.606 89.2396 139.501C89.5095 139.075 89.1471 138.281 89.0899 137.731C89.0081 136.882 89.5114 136.266 90.2879 136.639C90.3293 136.653 90.3225 136.614 90.3451 136.581C90.6241 136.141 90.4993 136.007 90.8659 136.347C90.843 136.325 91.2209 136.654 91.2037 136.768C90.9632 137.182 90.8691 137.202 90.9555 137.303C91.1585 137.537 91.1746 137.935 91.1404 138.154C91.1068 138.372 91.0204 138.498 90.9054 138.679C90.8165 138.821 90.7363 138.737 90.3561 138.371C89.9769 138.012 90.5168 137.871 90.2352 137.608C90.1412 137.521 89.9624 137.518 89.8845 137.64C89.7035 137.93 89.9601 138.594 90.0784 139.031C90.2317 139.593 90.0277 140.55 89.2864 140.535Z" fill="#000E3F"/>
<path d="M77.3628 159.437C77.311 159.443 76.9868 159.386 76.9668 159.363C76.6209 159.912 76.6955 159.941 76.1592 159.429C75.835 159.132 76.4473 158.995 76.2129 158.623C75.8793 158.072 76.0274 157.745 76.3092 157.297C76.4841 157.021 76.5242 157.059 76.843 157.396C76.9768 157.541 77.1785 157.638 77.0463 157.841C76.9099 158.057 76.8051 158.213 76.9981 158.393C77.0902 158.479 77.2493 158.509 77.3156 158.402C77.5868 157.975 77.2225 157.183 77.1659 156.632C77.0854 155.781 77.5868 155.168 78.3639 155.54C78.4056 155.555 78.3969 155.518 78.4211 155.483C78.7001 155.042 78.574 154.911 78.9419 155.249C78.9186 155.228 79.2975 155.555 79.2797 155.67C79.0392 156.083 78.9455 156.104 79.0314 156.205C79.2351 156.439 79.2506 156.836 79.2164 157.056C79.1827 157.273 79.0961 157.401 78.9813 157.581C78.8924 157.723 78.8123 157.639 78.4324 157.273C78.0533 156.914 78.5925 156.773 78.3115 156.509C78.2194 156.42 78.0368 156.423 77.9608 156.541C77.7785 156.834 78.0371 157.495 78.1548 157.933C78.3067 158.489 78.1076 159.454 77.3628 159.437Z" fill="#000E3F"/>
<path d="M77.7505 145.387C77.4893 145.802 77.1072 146.057 76.4946 146.118C76.3876 146.14 75.7149 146.112 75.6703 146.083C75.0167 147.115 75.1667 147.179 74.0055 146.398C73.3059 145.957 74.5605 145.562 74.0362 144.971C73.2927 144.091 73.5574 143.478 74.0999 142.624C74.4367 142.09 74.5182 142.151 75.2184 142.66C75.5106 142.875 75.9331 142.997 75.6835 143.389C75.4243 143.801 75.2213 144.103 75.6406 144.37C75.8436 144.499 76.1665 144.508 76.2978 144.308C76.8166 143.489 75.9874 142.189 75.8099 141.24C75.5523 139.772 76.5379 138.566 78.1834 139.021C78.2713 139.034 78.2554 138.971 78.2975 138.905C78.8315 138.061 78.5642 137.862 79.3529 138.363C79.307 138.329 80.1174 138.814 80.0926 139.02C79.64 139.806 79.4454 139.867 79.6322 140.022C80.0754 140.384 80.1433 141.082 80.0945 141.478C80.0479 141.873 79.8789 142.117 79.66 142.46C79.4871 142.728 79.3148 142.6 78.4969 142.048C77.6836 141.51 78.7814 141.131 78.173 140.735C77.9703 140.606 77.596 140.65 77.4499 140.879C76.8353 141.852 78.9207 143.532 77.7505 145.387Z" fill="#000E3F"/>
<path d="M44.1942 128.501C43.9346 128.913 43.5431 129.183 42.9144 129.269C42.8032 129.296 42.1227 129.29 42.0742 129.259C41.4251 130.285 41.557 130.366 40.4042 129.582C39.7105 129.129 40.9564 128.753 40.4446 128.14C39.7292 127.217 40.0047 126.581 40.5452 125.733C40.8856 125.201 40.9531 125.272 41.632 125.821C42.1528 126.245 42.3651 126.15 41.9048 126.875C41.4914 127.53 42.4563 127.868 42.6965 127.492C43.4465 126.305 41.4322 124.503 42.5407 122.756C42.9848 122.051 43.8017 121.956 44.586 122.199C44.6778 122.216 44.9458 121.591 45.1019 121.343C45.2225 121.149 45.5208 121.401 45.7497 121.55C45.7015 121.522 46.512 121.996 46.4955 122.197C46.0416 122.983 45.8496 123.045 46.0374 123.195C46.489 123.543 46.575 124.215 46.5336 124.597C46.4906 124.981 46.3254 125.225 46.1053 125.57C45.9036 125.887 45.589 125.588 45.4594 125.529C45.2638 125.41 45.0977 125.337 44.9041 125.217C44.0781 124.701 45.1834 124.309 44.5698 123.921C44.3694 123.793 43.9915 123.832 43.8476 124.064C43.494 124.62 44.0978 125.728 44.3988 126.438C44.6781 127.102 44.5287 127.973 44.1942 128.501Z" fill="#000E3F"/>
<path d="M42.1287 105.903C42.4365 105.903 42.7542 106.04 43.0209 106.318C44.622 107.958 46.1854 109.304 47.7706 110.507C50.0593 112.249 52.4615 113.812 54.981 115.198C59.2342 117.543 63.7127 119.434 68.1621 121.36C72.7654 123.342 77.3558 125.378 81.7098 127.874C85.1135 129.825 91.164 133.649 93.4934 136.819C93.7369 137.142 93.8465 137.645 93.7789 138.063C93.6923 138.598 93.4977 138.875 91.8238 141.485C91.2959 142.31 90.6187 143.373 89.75 144.75C78.1106 163.188 81.0303 158.722 79.4997 161.029C78.7384 162.175 78.3728 162.762 77.8627 162.762C77.0109 162.762 75.7547 161.128 71.5758 157.737C68.9092 155.573 66.0522 153.744 62.9935 152.18C57.9864 149.624 52.7544 147.489 47.589 145.28C40.6592 142.324 31.6029 137.39 26.6253 132.285C26.0379 131.691 25.9364 130.617 26.3722 129.937L30.124 123.99C32.3484 120.454 35.174 115.996 37.4091 112.453C38.6769 110.455 39.9367 108.458 41.1945 106.453C41.4285 106.088 41.7718 105.903 42.1287 105.903ZM42.129 104.547C41.2882 104.547 40.5315 104.975 40.053 105.721C38.7894 107.735 37.5306 109.73 36.2641 111.727C35.3857 113.119 34.4182 114.65 33.4319 116.21C31.9029 118.628 30.3286 121.118 28.9761 123.268L25.2252 129.214C24.4462 130.429 24.6353 132.201 25.6607 133.238C30.7825 138.491 40.0724 143.549 47.0565 146.528C47.9048 146.89 48.7556 147.251 49.6071 147.613C53.8487 149.412 58.2344 151.273 62.3767 153.388C65.4441 154.956 68.1738 156.724 70.7211 158.79C72.3756 160.133 73.5791 161.208 74.458 161.993C76.0902 163.452 76.8353 164.118 77.8623 164.118C79.0778 164.118 79.6875 163.199 80.5309 161.927L80.6288 161.779L80.9085 161.358C81.2295 160.875 81.2298 160.875 81.5598 160.341C82.133 159.414 83.8773 156.593 90.8963 145.473C91.763 144.1 92.439 143.039 92.9659 142.215L93.2626 141.752C94.7939 139.366 94.9908 139.059 95.1172 138.28C95.2449 137.487 95.0377 136.615 94.5764 136.003C91.923 132.392 85.1658 128.292 82.3842 126.698C77.9276 124.142 73.1795 122.045 68.6988 120.114L67.6291 119.652C63.628 117.923 59.4909 116.136 55.636 114.011C53.186 112.663 50.8161 111.121 48.5921 109.428C46.9292 108.166 45.425 106.84 43.9914 105.371C43.4842 104.843 42.8199 104.547 42.129 104.547Z" fill="#000E3F"/>
<path d="M141.004 116.247C141.779 117.331 142.465 118.484 143.082 119.666C143.519 120.487 143.918 121.323 144.288 122.167C144.514 122.672 144.725 123.192 144.928 123.696C145.154 124.246 145.365 124.788 145.576 125.338C146.088 126.701 146.548 128.027 146.977 129.278C147.06 129.526 147.15 129.775 147.225 130.023C149.236 136.004 150.532 142.504 151.007 149.057C151.12 150.451 151.187 151.822 151.21 153.178C151.263 155.716 151.195 158.247 150.991 160.748C150.886 162.058 150.743 163.354 150.57 164.642C150.524 164.966 150.479 165.29 150.426 165.606C150.246 166.819 150.027 168.009 149.779 169.176C149.711 169.493 149.643 169.802 149.568 170.118C149.5 170.427 149.425 170.743 149.349 171.052C149.274 171.353 149.191 171.662 149.116 171.963C149.033 172.272 148.95 172.573 148.867 172.875C148.785 173.176 148.694 173.47 148.611 173.764C148.521 174.065 148.431 174.359 148.34 174.645C147.888 176.083 147.376 177.492 146.811 178.855C146.585 179.39 146.352 179.918 146.118 180.437C145.523 181.733 144.883 182.968 144.205 184.135C132.929 203.561 100.751 203.38 82.5076 186.576C74.9678 179.623 70.1774 170.343 69.1604 161.124C69.0324 160.017 68.9719 158.91 68.957 157.802V157.139C68.9645 156.431 68.9949 155.708 69.0475 155C70.682 134.309 103.485 110.943 124.312 109.128C118.949 102.214 118.392 92.0676 123.137 86.1774C125.803 82.8708 130.308 81.4319 132.989 85.6576C133.991 87.2245 133.878 89.3031 135.558 90.5612C138.962 93.1073 143.045 89.273 146.502 91.7363C148.882 93.4234 147.587 95.6229 149.169 97.4306C151.707 100.331 156.166 97.2799 158.795 100.835C159.262 101.468 159.518 102.161 159.578 102.899C160.038 108.135 150.909 115.403 141.004 116.247Z" fill="white"/>
<path d="M108.55 180.021C107.903 181.38 106.824 182.34 104.938 182.799C104.611 182.915 102.535 183.125 102.375 183.049C102.239 183.335 101.41 184.995 101.275 185.278L101.215 185.404C100.974 185.911 100.492 186.108 99.6068 185.686C99.1975 185.491 98.7404 185.311 98.2643 185.085L97.3817 184.664C95.0736 183.565 98.7673 181.914 96.9512 180.273C94.3683 177.802 94.9715 175.8 96.3111 172.988C96.913 171.724 97.0785 171.377 98.5322 172.07C99.0084 172.296 99.3572 172.538 99.7196 172.752C100.685 173.329 102.022 173.539 101.405 174.834C101.24 175.181 101.135 175.481 100.969 175.829C100.653 176.492 100.528 177.323 101.635 177.851C102.299 178.167 103.314 178.07 103.63 177.406C104.91 174.719 101.88 171.066 101.012 168.171C100.558 166.597 100.6 164.641 101.323 163.123C101.82 162.08 102.649 161.235 103.815 160.821C104.886 160.441 106.325 160.35 107.442 160.531C107.707 160.544 107.641 160.358 107.747 160.137C107.823 159.977 108.629 157.88 108.704 157.723C109.005 157.09 110.018 157.727 110.777 158.089C110.62 158.014 113.288 159.168 113.298 159.795L112.064 162.386C111.929 162.669 111.994 162.858 112.264 163.025C113.77 163.935 114.263 165.994 114.27 167.198C114.277 168.404 113.855 169.21 113.313 170.347C113.012 170.98 112.509 170.974 111.845 170.658L111.341 170.418C110.708 170.116 110.172 169.936 109.541 169.636C106.824 168.342 110.066 166.745 108.043 165.782C107.379 165.465 106.24 165.737 105.878 166.496C105.005 168.328 107.275 171.464 108.439 173.572C109.527 175.524 109.377 178.284 108.55 180.021Z" fill="#262323"/>
<path d="M90.4932 152.793L90.1654 157.334C90.1518 157.521 90.231 157.702 90.3774 157.819L93.9324 160.664C94.3006 160.958 94.1709 161.547 93.7132 161.661L89.2929 162.752C89.1112 162.797 88.9632 162.928 88.8969 163.103L87.2899 167.363C87.1235 167.805 86.5235 167.863 86.2746 167.463L83.8705 163.596C83.7715 163.437 83.6009 163.337 83.4137 163.328L78.8657 163.116C78.3947 163.094 78.1532 162.542 78.4571 162.181L81.3917 158.7C81.5122 158.557 81.5549 158.364 81.5055 158.183L80.3013 153.792C80.1765 153.337 80.6275 152.937 81.0642 153.114L85.2818 154.83C85.4554 154.9 85.6523 154.881 85.8087 154.778L89.6126 152.276C90.007 152.017 90.5271 152.322 90.4932 152.793Z" fill="#C5EFA9"/>
<path d="M128.491 170.894L125.171 174.01C125.034 174.138 124.843 174.191 124.66 174.151L120.212 173.183C119.751 173.082 119.375 173.554 119.576 173.981L121.513 178.101C121.593 178.27 121.584 178.468 121.49 178.63L119.194 182.562C118.956 182.969 119.289 183.472 119.757 183.413L124.274 182.843C124.46 182.82 124.645 182.889 124.77 183.029L127.8 186.428C128.114 186.78 128.694 186.619 128.783 186.156L129.637 181.684C129.672 181.5 129.796 181.345 129.967 181.27L134.136 179.438C134.567 179.248 134.594 178.646 134.181 178.419L130.191 176.224C130.028 176.134 129.918 175.969 129.9 175.783L129.446 171.252C129.399 170.783 128.835 170.571 128.491 170.894Z" fill="#C5EFA9"/>
<path d="M146.254 119.644C146.051 120.977 144.808 121.896 143.475 121.693C137.404 120.766 132.478 119.057 128.636 117.226C128.599 117.211 128.561 117.189 128.523 117.174C128.441 117.249 128.35 117.324 128.245 117.385C127.868 117.618 119.115 123.124 120.577 134.762C120.728 135.944 119.869 136.939 118.656 136.984C118.106 137.007 117.586 136.826 117.165 136.517C116.645 136.14 116.276 135.568 116.193 134.92C115.168 126.732 118.294 121.045 121.232 117.633C117.435 118.522 112.585 120.707 109.655 125.986C109.098 126.988 107.772 127.297 106.687 126.664C106.612 126.619 106.536 126.574 106.468 126.521C105.542 125.851 105.211 124.638 105.73 123.704C109.828 116.322 116.893 113.882 121.683 113.091C119.416 111.426 118.249 110.161 118.128 110.025C117.224 109.023 117.3 107.479 118.302 106.575C119.303 105.672 120.84 105.747 121.744 106.741C121.842 106.854 126.105 111.358 134.85 114.507C136.703 115.177 138.759 115.787 141.026 116.277C142.043 116.495 143.105 116.699 144.212 116.865C145.547 117.068 146.458 118.311 146.254 119.644Z" fill="#FFCF00"/>
<g opacity="0.5">
<path d="M129.972 88.6779C126.966 97.6856 128.492 100.81 131.78 105.568L131.841 105.655C132.348 106.391 131.49 107.304 130.725 106.843C123.471 102.47 123.763 93.1279 128.672 87.8232C129.244 87.2057 130.261 87.8031 129.996 88.6055L129.972 88.6779Z" fill="#262323"/>
<path d="M84.4513 141.378C82.7772 143.424 80.4089 147.351 80.4564 147.276C79.9214 148.12 78.609 147.548 78.8673 146.579C81.6292 136.294 91.1898 128.384 99.5284 125.816C100.427 125.539 101.015 126.75 100.242 127.285C94.0588 131.563 89.1416 135.533 84.4513 141.378Z" fill="#262323"/>
</g>
<g opacity="0.25">
<path d="M150.991 160.748C150.893 162.073 150.75 163.369 150.569 164.642C150.524 164.966 150.479 165.29 150.426 165.606C150.245 166.819 150.027 168.009 149.778 169.176C149.71 169.493 149.643 169.802 149.568 170.118C149.5 170.427 149.424 170.743 149.349 171.052C149.274 171.353 149.191 171.662 149.116 171.963C149.033 172.272 148.95 172.573 148.867 172.875C148.784 173.176 148.694 173.47 148.611 173.764C148.521 174.065 148.43 174.359 148.34 174.645C147.873 176.106 147.368 177.507 146.811 178.855C146.585 179.39 146.351 179.918 146.118 180.437C145.523 181.733 144.883 182.968 144.205 184.135C132.929 203.561 100.75 203.38 82.5074 186.576C74.9676 179.623 70.1771 170.343 69.1602 161.124C76.7074 161.086 82.9519 167.73 87.9531 173.198C97.9711 184.15 113.518 191.268 127.588 183.322C135.023 179.126 135.791 171.383 137.531 163.858C140.966 149.072 132.062 132.267 144.287 122.167C144.513 122.671 144.724 123.191 144.928 123.696C145.154 124.246 145.364 124.788 145.576 125.338C146.074 126.635 146.531 127.926 146.955 129.216C146.962 129.236 146.97 129.258 146.977 129.277C147.059 129.526 147.15 129.774 147.225 130.023C149.327 136.538 150.539 142.941 151.006 149.057C151.12 150.451 151.187 151.821 151.21 153.177C151.278 155.769 151.202 158.3 150.991 160.748Z" fill="#000E3F" fill-opacity="0.2"/>
<path d="M141.002 116.247C141.009 116.254 141.017 116.269 141.024 116.277C138.757 115.787 136.701 115.177 134.848 114.507C135.172 111.825 137.281 109.272 139.759 107.908C143.532 105.829 147.999 105.596 152.262 104.963C154.756 104.601 157.339 104.007 159.576 102.899C160.036 108.134 150.907 115.403 141.002 116.247Z" fill="#000E3F" fill-opacity="0.2"/>
</g>
<path d="M159.344 100.429C157.762 98.2969 155.6 98.2443 153.695 98.2064C152.083 98.1689 150.689 98.1389 149.68 96.9861C149.115 96.3383 148.995 95.6229 148.866 94.7944C148.678 93.6193 148.467 92.2936 146.901 91.1864C144.95 89.7928 142.811 90.1694 140.927 90.5085C139.135 90.8247 137.44 91.1263 135.956 90.0188C135.097 89.371 134.803 88.4597 134.457 87.4052C134.231 86.6973 133.99 85.9664 133.561 85.2885C132.114 83.0137 130.307 82.4486 129.049 82.3736C126.827 82.2456 124.416 83.5109 122.609 85.7482C118.511 90.8399 118.165 98.9069 121.366 105.626C120.243 105.038 118.835 105.182 117.848 106.07C116.793 107.019 116.537 108.533 117.132 109.753C108.184 112.156 97.9928 117.429 89.0668 124.449C76.6761 134.188 69.1363 145.306 68.3679 154.947C68.3152 155.648 68.2851 156.386 68.2773 157.139V157.81C68.3827 168.287 73.5349 179.224 82.0465 187.073C90.7613 195.095 102.821 199.644 114.744 199.644C117.019 199.644 119.286 199.478 121.531 199.139C131.956 197.565 140.211 192.353 144.791 184.474C153.182 170.034 154.297 148.281 147.615 129.059L147.548 128.855C146.975 127.191 146.32 125.308 145.559 123.447C145.386 123.018 145.205 122.596 145.017 122.167C146.003 121.768 146.749 120.871 146.922 119.749C147.163 118.212 146.222 116.766 144.783 116.314C151.939 114.597 157.829 109.995 159.637 106.003C160.587 103.901 160.481 101.973 159.344 100.429ZM146.268 129.3L146.336 129.504C149.138 137.571 150.516 146.255 150.516 154.639C150.516 165.546 148.181 175.94 143.616 183.796C139.255 191.314 131.339 196.285 121.328 197.799C107.755 199.855 93.052 195.359 82.9661 186.079C74.7258 178.478 69.7395 167.903 69.6338 157.795V157.147C69.6412 156.431 69.6716 155.723 69.7243 155.053C71.1253 137.247 97.3304 116.134 118.037 110.914C118.436 111.305 119.114 111.938 120.078 112.714C115.265 113.776 108.953 116.495 105.134 123.372C104.908 123.771 104.803 124.216 104.803 124.66C104.803 125.564 105.255 126.476 106.068 127.07C106.159 127.131 106.249 127.191 106.339 127.251C106.821 127.522 107.356 127.665 107.884 127.665C108.14 127.665 108.396 127.635 108.637 127.568C109.337 127.372 109.91 126.927 110.249 126.317C112.576 122.122 116.177 119.952 119.423 118.845C116.847 122.445 114.617 127.786 115.521 135.002C115.619 135.815 116.078 136.569 116.764 137.066C117.291 137.45 117.932 137.661 118.572 137.661H118.677C119.46 137.631 120.161 137.299 120.651 136.727C121.133 136.162 121.344 135.431 121.246 134.678C119.837 123.455 128.236 118.182 128.597 117.964C128.597 117.964 128.605 117.964 128.605 117.956C133.109 120.073 138.073 121.549 143.368 122.363C143.459 122.378 143.549 122.385 143.64 122.393C143.647 122.408 143.655 122.423 143.662 122.438C143.888 122.943 144.099 123.448 144.303 123.952C145.048 125.79 145.673 127.575 146.268 129.3ZM123.031 114.853C122.375 115.426 121.622 116.149 120.854 117.03C116.952 117.994 112.048 120.277 109.066 125.654C108.9 125.948 108.621 126.167 108.274 126.257C107.875 126.37 107.416 126.302 107.024 126.076C106.964 126.046 106.919 126.009 106.866 125.971C106.203 125.496 105.97 124.66 106.324 124.027C110.21 117.015 116.876 114.612 121.509 113.806C121.976 114.145 122.481 114.492 123.031 114.853ZM127.211 117.278C127.053 117.399 126.864 117.542 126.654 117.7C124.123 119.749 118.707 125.323 119.905 134.844C119.95 135.22 119.852 135.574 119.618 135.846C119.377 136.132 119.031 136.29 118.632 136.305H118.564C118.203 136.305 117.863 136.184 117.562 135.974C117.17 135.688 116.922 135.273 116.862 134.829C115.883 127.018 118.797 121.557 121.599 118.235C122.127 117.602 122.654 117.053 123.144 116.586C123.528 116.209 123.889 115.885 124.221 115.606C124.627 115.855 125.057 116.111 125.509 116.367C126.044 116.668 126.616 116.977 127.211 117.278ZM145.582 119.546C145.484 120.186 145.04 120.706 144.467 120.924C144.189 121.03 143.888 121.067 143.578 121.022C143.375 120.992 143.164 120.954 142.961 120.924C140.543 120.525 138.2 119.982 135.941 119.312C133.726 118.642 131.594 117.843 129.561 116.91C129.395 116.834 129.237 116.759 129.071 116.684C129.026 116.661 128.973 116.638 128.928 116.616C128.732 116.518 128.536 116.427 128.341 116.33C128.153 116.239 127.972 116.149 127.791 116.051C126.917 115.607 126.104 115.155 125.358 114.718C124.929 114.454 124.514 114.205 124.13 113.949C123.904 113.814 123.686 113.671 123.482 113.528C122.88 113.128 122.33 112.744 121.848 112.383C120.884 111.652 120.146 111.019 119.618 110.545C118.993 109.98 118.669 109.618 118.632 109.573C118.587 109.521 118.541 109.468 118.511 109.415C117.991 108.692 118.089 107.683 118.752 107.08C119.092 106.779 119.513 106.628 119.935 106.628C120.417 106.628 120.891 106.824 121.245 107.201C121.261 107.223 121.773 107.773 122.797 108.617C123.226 108.97 123.739 109.37 124.341 109.807C127.415 112.036 132.793 115.14 140.611 116.872C141.221 117.015 141.854 117.143 142.494 117.256C143.021 117.361 143.556 117.452 144.106 117.535C145.07 117.685 145.733 118.582 145.582 119.546ZM158.402 105.445C156.451 109.754 149.251 114.845 140.988 115.569C132.71 113.753 127.249 110.349 124.462 108.202C119.596 101.491 119.22 92.1129 123.663 86.5993C125.11 84.8065 127.038 83.7219 128.74 83.7219C128.816 83.7219 128.891 83.7294 128.966 83.7294C130.345 83.8121 131.505 84.5805 132.416 86.0191C132.755 86.5541 132.959 87.1715 133.169 87.8267C133.531 88.9339 133.945 90.1995 135.15 91.1034C137.101 92.5571 139.255 92.1805 141.161 91.8417C142.939 91.5252 144.626 91.2314 146.11 92.2862C147.217 93.0694 147.353 93.9284 147.526 95.0055C147.669 95.9093 147.835 96.9337 148.656 97.8754C150.057 99.4798 151.978 99.525 153.665 99.5629C155.488 99.6007 157.07 99.6382 158.252 101.235C159.095 102.38 159.148 103.796 158.402 105.445Z" fill="#000E3F"/>
<path d="M135.738 146.836C135.397 146.677 134.994 146.825 134.837 147.164C133.954 149.054 131.988 150.706 130.091 150.051C129.399 149.812 128.897 149.317 128.6 148.582C128.117 147.386 128.252 145.733 128.944 144.37C129.113 144.036 128.981 143.628 128.646 143.458C128.312 143.288 127.905 143.422 127.735 143.756C126.873 145.454 126.719 147.547 127.343 149.09C127.787 150.189 128.585 150.965 129.648 151.333C130.084 151.483 130.521 151.553 130.949 151.553C133.124 151.553 135.118 149.764 136.065 147.738C136.224 147.398 136.077 146.995 135.738 146.836Z" fill="#262323"/>
<path d="M123.11 146.433C122.768 146.275 122.367 146.422 122.209 146.761C121.051 149.245 118.269 151.328 115.39 150.293C113.894 149.754 113.181 148.633 112.847 147.787C112.208 146.172 112.339 144.137 113.188 142.479C113.358 142.145 113.227 141.737 112.893 141.567C112.557 141.395 112.152 141.528 111.981 141.861C110.96 143.856 110.809 146.318 111.586 148.285C112.213 149.872 113.369 151.007 114.931 151.569C115.608 151.812 116.277 151.923 116.929 151.923C119.782 151.923 122.289 149.799 123.438 147.334C123.596 146.994 123.449 146.591 123.11 146.433Z" fill="#262323"/>
<path d="M111.716 135.393C111.377 135.233 110.974 135.381 110.815 135.72C109.931 137.61 107.966 139.263 106.068 138.607C105.377 138.368 104.875 137.874 104.578 137.138C104.095 135.942 104.229 134.289 104.922 132.925C105.091 132.592 104.958 132.184 104.624 132.014C104.288 131.844 103.882 131.978 103.713 132.312C102.851 134.01 102.698 136.103 103.322 137.646C103.766 138.745 104.563 139.521 105.626 139.889C106.062 140.039 106.498 140.109 106.927 140.109C109.102 140.108 111.097 138.32 112.044 136.294C112.202 135.955 112.055 135.551 111.716 135.393Z" fill="#262323"/>
<path d="M172.343 146.192C172.153 146.192 171.965 146.155 171.786 146.083L158.594 140.728C158.247 140.587 157.967 140.324 157.807 139.987C157.595 139.502 157.631 138.995 157.899 138.576L176.245 107.225C176.263 107.192 176.253 107.147 176.246 107.136L171.134 105.07C170.685 104.887 170.377 104.476 170.31 103.972C170.239 103.435 170.459 102.903 170.882 102.583L184.767 92.1022C185.016 91.9128 185.306 91.8123 185.606 91.8123C186.265 91.8123 186.802 92.2878 186.912 92.9686L189.558 110.164C189.627 110.584 189.502 111.02 189.217 111.355C188.939 111.682 188.547 111.87 188.14 111.87C187.971 111.87 187.806 111.837 187.649 111.773L182.514 109.689C182.526 109.697 182.493 109.717 182.48 109.765L173.78 145.05C173.626 145.718 173.034 146.192 172.343 146.192Z" fill="#91D728"/>
<path opacity="0.25" d="M188.061 104.888L188.888 110.266C188.981 110.843 188.408 111.35 187.904 111.145L182.764 109.059C182.388 108.906 181.938 109.16 181.824 109.594L173.121 144.887C173.01 145.373 172.5 145.641 172.041 145.455C157.637 139.607 158.613 140.101 158.418 139.695C157.843 138.497 164.833 138.218 165.41 138.189C169.204 137.996 170.262 134.718 171.353 131.708C172.85 127.578 174.143 123.384 175.354 119.164C177.848 110.471 177.931 110.199 178.46 109.108C179.231 107.513 180.762 105.209 182.522 104.575C184.198 103.971 186.448 104.258 188.061 104.888Z" fill="#000E3F"/>
<path opacity="0.5" d="M182.992 96.9498C183.559 96.7362 183.979 97.4131 183.618 97.9623C182.116 100.225 178.813 102.832 176.618 103.623C176.318 103.731 176.013 103.557 175.937 103.234C175.674 102.136 180.176 98.0111 182.992 96.9498Z" fill="#262323"/>
<path d="M185.606 92.4898C185.911 92.4898 186.184 92.7103 186.243 93.0765L188.062 104.888L188.888 110.266C188.967 110.754 188.569 111.191 188.14 111.191C188.061 111.191 187.982 111.177 187.904 111.145L182.764 109.059C182.689 109.028 182.612 109.014 182.534 109.014C182.222 109.014 181.915 109.246 181.824 109.594L173.121 144.887C173.034 145.267 172.703 145.514 172.343 145.514C172.243 145.514 172.141 145.495 172.041 145.455L158.849 140.099C158.645 140.016 158.501 139.868 158.418 139.695C158.314 139.457 158.317 139.18 158.471 138.94L176.83 107.567C177.046 107.174 176.905 106.681 176.529 106.528L171.389 104.442C170.886 104.237 170.828 103.473 171.291 103.123L185.175 92.6434C185.313 92.5383 185.463 92.4898 185.606 92.4898ZM185.606 91.134C185.157 91.134 184.724 91.2827 184.355 91.564L170.474 102.041C169.856 102.509 169.536 103.282 169.638 104.06C169.737 104.81 170.201 105.422 170.879 105.698L175.303 107.493L157.31 138.239C156.941 138.838 156.89 139.583 157.176 140.238C157.182 140.253 157.189 140.268 157.196 140.282C157.43 140.771 157.836 141.152 158.339 141.356L171.531 146.711C171.791 146.817 172.064 146.87 172.343 146.87C173.352 146.87 174.216 146.18 174.443 145.191L182.971 110.606L187.394 112.402C187.633 112.499 187.883 112.548 188.14 112.548C188.746 112.548 189.327 112.273 189.734 111.794C190.148 111.307 190.327 110.671 190.226 110.049L189.401 104.682L187.583 92.8703C187.421 91.8604 186.59 91.134 185.606 91.134Z" fill="#000E3F"/>
<path d="M56.2039 88.2394C52.982 86.6974 46.6512 82.6938 44.1488 79.5953C42.9459 78.106 43.178 75.924 44.6673 74.7211C46.0308 73.6201 47.9759 73.7225 49.2175 74.8908C52.1363 77.6314 55.6686 84.2952 56.94 87.556C57.1181 88.0121 56.6449 88.4482 56.2039 88.2394Z" fill="#FD8A02"/>
<path d="M61.8799 84.3184C60.2904 81.9602 57.5608 76.6583 57.093 73.522C56.8684 72.0146 57.908 70.6107 59.4154 70.386C60.7957 70.1801 62.0891 71.0355 62.4699 72.3382C63.3676 75.3966 63.1035 81.3954 62.6609 84.1464C62.5989 84.5314 62.0984 84.6397 61.8799 84.3184Z" fill="#FD8A02"/>
<path d="M51.7027 93.423C49.4537 91.6829 44.3416 88.6122 41.2428 87.9404C39.7535 87.6175 38.2843 88.563 37.9617 90.0526C37.6659 91.4165 38.4346 92.7632 39.7096 93.2284C42.703 94.3243 48.706 94.4529 51.4799 94.1911C51.8682 94.1545 52.0091 93.6619 51.7027 93.423Z" fill="#FD8A02"/>
<path d="M163.157 177.107C166.285 178.832 173.222 181.656 177.198 181.891C179.109 182.003 180.75 180.546 180.863 178.635C180.966 176.886 179.752 175.363 178.08 175.031C174.153 174.25 166.678 175.249 163.285 176.11C162.811 176.231 162.731 176.869 163.157 177.107Z" fill="#FD8A02"/>
<path d="M163.046 170.208C165.888 170.13 171.789 169.27 174.613 167.827C175.97 167.133 176.508 165.471 175.815 164.114C175.18 162.871 173.732 162.316 172.451 162.764C169.44 163.811 164.713 167.513 162.732 169.473C162.455 169.747 162.657 170.217 163.046 170.208Z" fill="#FD8A02"/>
<path d="M161.553 183.781C164.276 184.6 169.747 186.974 172.095 189.105C173.223 190.129 173.308 191.874 172.284 193.003C171.346 194.036 169.803 194.194 168.683 193.427C166.052 191.628 162.457 186.818 161.058 184.409C160.862 184.072 161.18 183.671 161.553 183.781Z" fill="#FD8A02"/>
</svg>
