<svg width="20" height="20" viewBox="0 0 20 20" fill="none" xmlns="http://www.w3.org/2000/svg">
<path d="M6.69498 12.5H13.2183C13.4191 12.5 13.6169 12.4517 13.795 12.359C13.9731 12.2664 14.1263 12.1323 14.2416 11.9679C14.3569 11.8036 14.431 11.6138 14.4574 11.4148C14.4839 11.2158 14.4621 11.0134 14.3937 10.8246L13.2054 7.53917C13.0024 6.80904 12.5659 6.1655 11.9626 5.70695C11.3593 5.2484 10.6224 5.00009 9.86456 5C9.0757 4.99999 8.31042 5.26899 7.69507 5.76261C7.07972 6.25622 6.6511 6.94492 6.47998 7.715L5.50081 10.8817C5.44316 11.0686 5.4302 11.2665 5.46297 11.4594C5.49575 11.6523 5.57334 11.8348 5.6895 11.9922C5.80566 12.1496 5.95716 12.2776 6.1318 12.3658C6.30643 12.454 6.49933 12.4999 6.69498 12.5Z" fill="#0F504A"/>
<path d="M7.9585 13.3333C8.05413 13.8042 8.30963 14.2276 8.68172 14.5317C9.05381 14.8359 9.5196 15.002 10.0002 15.002C10.4807 15.002 10.9465 14.8359 11.3186 14.5317C11.6907 14.2276 11.9462 13.8042 12.0418 13.3333H7.9585Z" fill="#0F504A"/>
</svg>
