<svg width="25" height="24" viewBox="0 0 25 24" fill="none" xmlns="http://www.w3.org/2000/svg">
<path d="M9.58221 18.5935C10.2551 19.4488 11.3121 20 12.5008 20C13.6894 20 14.7465 19.4488 15.4194 18.5935C13.4819 18.856 11.5196 18.856 9.58221 18.5935Z" fill="#1C274C"/>
<path d="M17.9001 9.6V10.1633C17.9001 10.8393 18.093 11.5001 18.4545 12.0626L19.3405 13.4409C20.1497 14.6999 19.5319 16.4111 18.1245 16.8092C14.4426 17.8507 10.559 17.8507 6.87707 16.8092C5.46962 16.4111 4.85184 14.6999 5.66107 13.4409L6.54702 12.0626C6.90855 11.5001 7.10148 10.8393 7.10148 10.1633V9.6C7.10148 6.5072 9.51883 4 12.5008 4C15.4827 4 17.9001 6.50721 17.9001 9.6Z" fill="#1C274C"/>
</svg>
