<svg width="20" height="20" viewBox="0 0 20 20" fill="none" xmlns="http://www.w3.org/2000/svg">
<path d="M5.37029 13.5146H14.542C14.8243 13.5146 15.1024 13.4466 15.3528 13.3164C15.6033 13.1862 15.8186 12.9976 15.9808 12.7665C16.1429 12.5354 16.2469 12.2687 16.2842 11.9889C16.3214 11.7091 16.2907 11.4244 16.1946 11.159L14.5238 6.53975C14.2385 5.51321 13.6247 4.60839 12.7765 3.96368C11.9282 3.31897 10.8921 2.96985 9.82667 2.96973C8.71754 2.96971 7.64157 3.34793 6.7764 4.04194C5.91123 4.73595 5.3086 5.70425 5.06801 6.78697L3.69131 11.2393C3.61026 11.5021 3.59204 11.7803 3.63811 12.0515C3.68419 12.3227 3.79328 12.5793 3.95661 12.8006C4.11993 13.022 4.33293 13.2019 4.57847 13.3259C4.824 13.4499 5.09522 13.5145 5.37029 13.5146Z" fill="white"/>
<path d="M7.14844 14.6855C7.28289 15.3477 7.64213 15.943 8.16528 16.3706C8.68843 16.7982 9.34332 17.0318 10.019 17.0318C10.6947 17.0318 11.3495 16.7982 11.8727 16.3706C12.3958 15.943 12.7551 15.3477 12.8895 14.6855H7.14844Z" fill="white"/>
</svg>
