<svg width="17" height="18" viewBox="0 0 17 18" fill="none" xmlns="http://www.w3.org/2000/svg">
<path d="M13 2.33366H11.125V1.29199C11.125 0.950326 10.8417 0.666992 10.5 0.666992C10.1583 0.666992 9.875 0.950326 9.875 1.29199V16.7087C9.875 17.0503 10.1583 17.3337 10.5 17.3337C10.8417 17.3337 11.125 17.0503 11.125 16.7087V15.667H13C14.8417 15.667 16.3333 14.1753 16.3333 12.3337V5.66699C16.3333 3.82533 14.8417 2.33366 13 2.33366Z" fill="#0D2D2D" fill-opacity="0.6"/>
<path d="M3.41732 2.33398C1.57565 2.33398 0.0839844 3.82565 0.0839844 5.66732V12.334C0.0839844 14.1757 1.57565 15.6673 3.41732 15.6673H7.58398C8.04232 15.6673 8.41732 15.2923 8.41732 14.834V3.16732C8.41732 2.70898 8.04232 2.33398 7.58398 2.33398H3.41732ZM3.55898 9.31732C3.51732 9.41732 3.45898 9.50898 3.38398 9.59232C3.30065 9.66732 3.20898 9.72565 3.10898 9.76732C3.00898 9.80898 2.90065 9.83398 2.79232 9.83398C2.68398 9.83398 2.57565 9.80898 2.47565 9.76732C2.37565 9.72565 2.28398 9.66732 2.20065 9.59232C2.12565 9.50898 2.06732 9.41732 2.01732 9.31732C1.97565 9.21732 1.95898 9.10898 1.95898 9.00065C1.95898 8.78398 2.05065 8.56732 2.20065 8.40898C2.24232 8.37565 2.28398 8.34232 2.32565 8.30898C2.37565 8.27565 2.42565 8.25065 2.47565 8.23398C2.52565 8.20898 2.57565 8.19232 2.62565 8.18398C2.90898 8.12565 3.19232 8.21732 3.38398 8.40898C3.53398 8.56732 3.62565 8.78398 3.62565 9.00065C3.62565 9.10898 3.60065 9.21732 3.55898 9.31732ZM6.47565 9.31732C6.43398 9.41732 6.37565 9.50898 6.30065 9.59232C6.21732 9.66732 6.12565 9.72565 6.02565 9.76732C5.92565 9.80898 5.81732 9.83398 5.70898 9.83398C5.60065 9.83398 5.49232 9.80898 5.39232 9.76732C5.29232 9.72565 5.20065 9.66732 5.11732 9.59232C4.95898 9.43398 4.87565 9.22565 4.87565 9.00065C4.87565 8.89232 4.90065 8.78398 4.94232 8.68398C4.98398 8.57565 5.04232 8.49232 5.11732 8.40898C5.42565 8.10065 5.98398 8.10065 6.30065 8.40898C6.45065 8.56732 6.54232 8.78398 6.54232 9.00065C6.54232 9.10898 6.51732 9.21732 6.47565 9.31732Z" fill="#0D2D2D" fill-opacity="0.6"/>
</svg>
