<svg width="16" height="16" viewBox="0 0 16 16" fill="none" xmlns="http://www.w3.org/2000/svg">
<g clip-path="url(#clip0_2217_8230)">
<path d="M1.21743 1.21362L1.91743 0.606953C2.7241 -0.199714 4.03077 -0.199714 4.83743 0.606953C4.85743 0.626953 6.09077 2.23362 6.09077 2.23362C6.85077 3.03362 6.85077 4.29362 6.09077 5.08695L5.31743 6.06029C6.29077 8.26695 7.8041 9.78695 9.93743 10.6936L10.9108 9.91362C11.7041 9.14695 12.9708 9.14695 13.7641 9.91362C13.7641 9.91362 15.3708 11.147 15.3908 11.167C16.1974 11.9736 16.1974 13.2803 15.4241 14.0536L14.7574 14.8203C13.9908 15.587 12.9574 16.007 11.8374 16.007C6.7441 16.007 -0.00256729 9.25362 -0.00256729 4.16695C-0.00256729 3.05362 0.417432 2.01362 1.21743 1.22029V1.21362ZM11.8374 14.667C12.5974 14.667 13.2974 14.387 13.7774 13.9003L14.4441 13.1336C14.7174 12.8603 14.7308 12.4136 14.4708 12.127C14.4708 12.127 12.8774 10.9003 12.8574 10.8803C12.5841 10.607 12.1041 10.607 11.8241 10.8803C11.8041 10.9003 10.4641 11.9736 10.4641 11.9736C10.2774 12.1203 10.0308 12.1603 9.81077 12.0736C7.05077 11.0203 5.07077 9.04695 3.93077 6.20029C3.8441 5.98029 3.87743 5.72695 4.03077 5.53362C4.03077 5.53362 5.1041 4.18695 5.11743 4.17362C5.4041 3.88695 5.4041 3.42695 5.11743 3.14029C5.09743 3.12029 3.87077 1.52695 3.87077 1.52695C3.5841 1.26695 3.13743 1.27362 2.83077 1.58029L2.13077 2.18695C1.61743 2.70029 1.33077 3.40029 1.33077 4.16029C1.33077 8.80029 7.8441 14.667 11.8374 14.667Z" fill="#28A08C"/>
</g>
<defs>
<clipPath id="clip0_2217_8230">
<rect width="16" height="16" fill="white"/>
</clipPath>
</defs>
</svg>
