<svg width="14" height="14" viewBox="0 0 14 14" fill="none" xmlns="http://www.w3.org/2000/svg">
<path d="M0 4.66667V4.08333C0 2.47508 1.30842 1.16667 2.91667 1.16667H3.5V0.583333C3.5 0.261333 3.76133 0 4.08333 0C4.40533 0 4.66667 0.261333 4.66667 0.583333V1.16667H9.33333V0.583333C9.33333 0.261333 9.59408 0 9.91667 0C10.2392 0 10.5 0.261333 10.5 0.583333V1.16667H11.0833C12.6916 1.16667 14 2.47508 14 4.08333V4.66667H0ZM11.2758 8.53242C11.4987 8.31542 11.7256 8.05758 11.8895 7.77758C12.0913 7.43342 11.8224 7 11.4234 7H9.576C9.177 7 8.90867 7.43342 9.10992 7.77758C9.27383 8.05758 9.50075 8.31542 9.72358 8.53242C8.26817 8.98683 6.99942 10.6213 6.99942 12.2582C6.99942 13.2201 7.78283 14 8.74942 14H12.2494C13.216 14 13.9994 13.2201 13.9994 12.2582C13.9994 10.6213 12.7318 8.98683 11.2758 8.53242ZM5.83333 12.2582C5.83333 10.6849 6.71183 9.09417 7.99167 8.13692C7.8085 7.67083 7.84408 7.13592 8.09958 6.69083C8.40292 6.16175 8.96817 5.83333 9.576 5.83333H0V11.0833C0 12.6916 1.30842 14 2.91667 14H6.42892C6.06025 13.5129 5.83333 12.9138 5.83333 12.2582Z" fill="#A41E4D"/>
</svg>
