<svg width="14" height="14" viewBox="0 0 14 14" fill="none" xmlns="http://www.w3.org/2000/svg">
<g clip-path="url(#clip0_202_9951)">
<path d="M12.3192 7.89099L11.2358 13.3077H9.23167L9.70833 8.97433C9.70833 8.68701 9.82247 8.41146 10.0256 8.20829C10.2288 8.00513 10.5043 7.89099 10.7917 7.89099H12.3192ZM4.29167 8.97433C4.29167 8.68701 4.17753 8.41146 3.97437 8.20829C3.7712 8.00513 3.49565 7.89099 3.20833 7.89099H1.68083L2.76417 13.3077H4.76833L4.29167 8.97433ZM13.5 5.72433V5.73624C13.4888 6.02758 13.364 6.30294 13.1521 6.50324C12.9403 6.70354 12.6583 6.81283 12.3668 6.80766H10.7917C10.4406 6.80782 10.0948 6.8933 9.78409 7.05673C9.47337 7.22015 9.20702 7.45664 9.00796 7.74583C8.76225 7.4521 8.4551 7.21586 8.10816 7.05376C7.76122 6.89166 7.38294 6.80765 7 6.80765C6.61706 6.80765 6.23878 6.89166 5.89184 7.05376C5.5449 7.21586 5.23775 7.4521 4.99204 7.74583C4.79298 7.45664 4.52663 7.22015 4.21591 7.05673C3.90519 6.8933 3.55941 6.80782 3.20833 6.80766H1.63317C1.34166 6.81283 1.05974 6.70354 0.847897 6.50324C0.636049 6.30294 0.511151 6.02758 0.5 5.73624L0.5 5.72433C0.5012 5.34229 0.603391 4.96737 0.796212 4.63756C0.989034 4.30776 1.26563 4.0348 1.59796 3.84637C1.65304 3.38332 1.85578 2.95032 2.17617 2.61149C2.49655 2.27267 2.91754 2.04603 3.37679 1.96516C3.54372 1.58765 3.83075 1.2759 4.19321 1.0784C4.55567 0.880912 4.97324 0.808754 5.38096 0.873159C5.59433 0.655385 5.85722 0.492465 6.14719 0.398303C6.43717 0.30414 6.74562 0.281531 7.04623 0.332404C7.34683 0.383276 7.63067 0.506121 7.87351 0.690454C8.11636 0.874787 8.311 1.11514 8.44083 1.39099C8.93528 1.41433 9.4007 1.63127 9.7365 1.99495C9.90442 1.95298 10.0769 1.93205 10.25 1.93266C10.7807 1.93332 11.2927 2.12841 11.6892 2.48105C12.0858 2.83369 12.3394 3.31941 12.402 3.84637C12.7344 4.0348 13.011 4.30776 13.2038 4.63756C13.3966 4.96737 13.4988 5.34229 13.5 5.72433ZM5.91667 3.01599C5.34203 3.01599 4.79093 3.24427 4.3846 3.65059C3.97827 4.05692 3.75 4.60802 3.75 5.18266H4.83333C4.83333 4.89534 4.94747 4.61979 5.15063 4.41663C5.3538 4.21346 5.62935 4.09933 5.91667 4.09933V3.01599ZM10.25 5.72433C10.25 5.14969 10.0217 4.59859 9.6154 4.19226C9.20907 3.78593 8.65797 3.55766 8.08333 3.55766V4.64099C8.37065 4.64099 8.6462 4.75513 8.84937 4.95829C9.05253 5.16146 9.16667 5.43701 9.16667 5.72433H10.25ZM7 7.89099C6.586 7.89097 6.18874 8.05439 5.89458 8.3457C5.60042 8.63702 5.43316 9.03268 5.42917 9.44666L5.8625 13.3077H8.14292L8.57192 9.44666C8.56792 9.03249 8.40051 8.63667 8.10612 8.34532C7.81173 8.05398 7.41418 7.89069 7 7.89099Z" fill="white"/>
</g>
<defs>
<clipPath id="clip0_202_9951">
<rect width="13" height="13" fill="white" transform="translate(0.5 0.307617)"/>
</clipPath>
</defs>
</svg>
