<svg width="16" height="16" viewBox="0 0 16 16" fill="none" xmlns="http://www.w3.org/2000/svg">
<g clip-path="url(#clip0_2217_6010)">
<path d="M13.2995 3.69068L10.9768 1.36668C10.5444 0.932107 10.0301 0.587569 9.46365 0.352988C8.89722 0.118407 8.28991 -0.00156258 7.67683 1.53658e-05H4.66683C3.7831 0.00107394 2.93587 0.352603 2.31098 0.977495C1.68608 1.60239 1.33455 2.44962 1.3335 3.33335V12.6667C1.33455 13.5504 1.68608 14.3976 2.31098 15.0225C2.93587 15.6474 3.7831 15.999 4.66683 16H11.3335C12.2172 15.999 13.0645 15.6474 13.6894 15.0225C14.3142 14.3976 14.6658 13.5504 14.6668 12.6667V6.99002C14.6685 6.37696 14.5485 5.76968 14.3138 5.20333C14.0791 4.63699 13.7343 4.12284 13.2995 3.69068ZM12.3568 4.63335C12.5604 4.84278 12.7355 5.07814 12.8775 5.33335H10.0002C9.82335 5.33335 9.65378 5.26311 9.52876 5.13809C9.40373 5.01306 9.3335 4.84349 9.3335 4.66668V1.78935C9.58879 1.9313 9.82435 2.10612 10.0342 2.30935L12.3568 4.63335ZM13.3335 12.6667C13.3335 13.1971 13.1228 13.7058 12.7477 14.0809C12.3726 14.456 11.8639 14.6667 11.3335 14.6667H4.66683C4.1364 14.6667 3.62769 14.456 3.25262 14.0809C2.87754 13.7058 2.66683 13.1971 2.66683 12.6667V3.33335C2.66683 2.80292 2.87754 2.29421 3.25262 1.91914C3.62769 1.54406 4.1364 1.33335 4.66683 1.33335H7.67683C7.78616 1.33335 7.89216 1.35468 8.00016 1.36468V4.66668C8.00016 5.19711 8.21088 5.70582 8.58595 6.0809C8.96102 6.45597 9.46973 6.66668 10.0002 6.66668H13.3022C13.3122 6.77468 13.3335 6.88002 13.3335 6.99002V12.6667Z" fill="#28A08C"/>
</g>
<defs>
<clipPath id="clip0_2217_6010">
<rect width="16" height="16" fill="white"/>
</clipPath>
</defs>
</svg>
