<svg width="12" height="12" viewBox="0 0 12 12" fill="none" xmlns="http://www.w3.org/2000/svg">
<g clip-path="url(#clip0_1376_11514)">
<path d="M6.0001 1.00014C6.66336 1.00231 7.31959 1.13601 7.93084 1.39348C8.54208 1.65096 9.09619 2.0271 9.5611 2.50014H8.0001C7.86749 2.50014 7.74032 2.55282 7.64655 2.64658C7.55278 2.74035 7.5001 2.86753 7.5001 3.00014C7.5001 3.13275 7.55278 3.25992 7.64655 3.35369C7.74032 3.44746 7.86749 3.50014 8.0001 3.50014H10.0716C10.3178 3.50001 10.5539 3.40214 10.728 3.22804C10.9021 3.05394 11 2.81785 11.0001 2.57164V0.500138C11.0001 0.36753 10.9474 0.240353 10.8537 0.146585C10.7599 0.0528164 10.6327 0.000137982 10.5001 0.000137982C10.3675 0.000137982 10.2403 0.0528164 10.1465 0.146585C10.0528 0.240353 10.0001 0.36753 10.0001 0.500138V1.53914C9.17369 0.794864 8.15639 0.295343 7.06215 0.0965125C5.96791 -0.102318 4.83991 0.00739396 3.80449 0.413362C2.76907 0.81933 1.86711 1.50552 1.19961 2.3951C0.532105 3.28468 0.125422 4.34251 0.0251013 5.45014C0.0186429 5.51977 0.0267591 5.58998 0.0489327 5.6563C0.0711063 5.72262 0.106851 5.78359 0.153889 5.83533C0.200928 5.88707 0.258228 5.92845 0.32214 5.95682C0.386052 5.9852 0.455174 5.99995 0.525101 6.00014C0.647395 6.0017 0.765868 5.95756 0.857331 5.87636C0.948793 5.79516 1.00666 5.68276 1.0196 5.56114C1.13091 4.31651 1.70359 3.15849 2.62514 2.31456C3.54669 1.47062 4.75051 1.00178 6.0001 1.00014Z" fill="#28A08C"/>
<path d="M11.4755 6.00004C11.3532 5.99848 11.2347 6.04262 11.1433 6.12382C11.0518 6.20501 10.9939 6.31742 10.981 6.43904C10.8983 7.39066 10.5445 8.2986 9.96133 9.05514C9.37819 9.81169 8.59028 10.3851 7.69107 10.7073C6.79187 11.0295 5.8191 11.0871 4.88818 10.8731C3.95725 10.6591 3.10725 10.1826 2.439 9.50004H4C4.13261 9.50004 4.25979 9.44736 4.35355 9.35359C4.44732 9.25983 4.5 9.13265 4.5 9.00004C4.5 8.86743 4.44732 8.74025 4.35355 8.64649C4.25979 8.55272 4.13261 8.50004 4 8.50004H1.9285C1.80655 8.49997 1.68578 8.52395 1.5731 8.57058C1.46042 8.61722 1.35804 8.68561 1.2718 8.77184C1.18557 8.85808 1.11718 8.96046 1.07054 9.07314C1.02391 9.18582 0.999934 9.30659 1 9.42854V11.5C1 11.6326 1.05268 11.7598 1.14645 11.8536C1.24021 11.9474 1.36739 12 1.5 12C1.63261 12 1.75979 11.9474 1.85355 11.8536C1.94732 11.7598 2 11.6326 2 11.5V10.461C2.82642 11.2053 3.84371 11.7048 4.93795 11.9037C6.0322 12.1025 7.16019 11.9928 8.19561 11.5868C9.23103 11.1808 10.133 10.4947 10.8005 9.60508C11.468 8.7155 11.8747 7.65767 11.975 6.55004C11.9815 6.48041 11.9733 6.4102 11.9512 6.34388C11.929 6.27756 11.8932 6.21659 11.8462 6.16485C11.7992 6.1131 11.7419 6.07173 11.678 6.04335C11.614 6.01498 11.5454 6.00023 11.4755 6.00004Z" fill="#28A08C"/>
</g>
<defs>
<clipPath id="clip0_1376_11514">
<rect width="12" height="12" fill="white"/>
</clipPath>
</defs>
</svg>
