<svg width="41" height="40" viewBox="0 0 41 40" fill="none" xmlns="http://www.w3.org/2000/svg">
<g clip-path="url(#clip0_2143_4660)">
<g clip-path="url(#clip1_2143_4660)">
<path d="M1.92634 5.27809L2.75967 6.94476C3.07102 7.50902 3.58824 7.93125 4.2034 8.12334C4.81857 8.31543 5.48415 8.26254 6.06126 7.97571C6.63837 7.68888 7.08242 7.19026 7.30074 6.58391C7.51906 5.97755 7.4948 5.31031 7.233 4.72142L6.39967 3.05476C6.26264 2.7465 6.06463 2.46917 5.81758 2.23946C5.57054 2.00976 5.27956 1.83242 4.96216 1.71814C4.64477 1.60386 4.30753 1.555 3.97075 1.57449C3.63398 1.59399 3.30463 1.68144 3.00254 1.83158C2.70046 1.98172 2.43188 2.19145 2.21299 2.44813C1.9941 2.70481 1.82942 3.00314 1.72887 3.32515C1.62832 3.64716 1.59398 3.98618 1.62792 4.32181C1.66185 4.65744 1.76336 4.98273 1.92634 5.27809Z" fill="url(#paint0_linear_2143_4660)"/>
<path d="M18.602 3.04161L17.7686 4.70828C17.6109 5.0023 17.5136 5.32492 17.4826 5.65712C17.4515 5.98933 17.4872 6.32439 17.5876 6.64257C17.6881 6.96075 17.8512 7.2556 18.0673 7.50976C18.2835 7.76391 18.5484 7.97222 18.8463 8.12242C19.1443 8.27261 19.4692 8.36164 19.8021 8.38427C20.135 8.4069 20.4691 8.36267 20.7846 8.25418C21.1001 8.14568 21.3907 7.97513 21.6393 7.75257C21.8879 7.53001 22.0894 7.25994 22.232 6.95828L23.0653 5.29161C23.223 4.99759 23.3203 4.67497 23.3514 4.34277C23.3824 4.01057 23.3467 3.6755 23.2463 3.35732C23.1458 3.03914 22.9827 2.74429 22.7666 2.49013C22.5504 2.23598 22.2855 2.02767 21.9876 1.87748C21.6897 1.72728 21.3647 1.63825 21.0318 1.61562C20.6989 1.59299 20.3648 1.63723 20.0493 1.74572C19.7338 1.85421 19.4432 2.02476 19.1946 2.24732C18.946 2.46988 18.7445 2.73995 18.602 3.04161Z" fill="url(#paint1_linear_2143_4660)"/>
<path d="M10 2.5V4.16667C10 4.82971 10.2634 5.46559 10.7322 5.93443C11.2011 6.40327 11.837 6.66667 12.5 6.66667C13.163 6.66667 13.7989 6.40327 14.2678 5.93443C14.7366 5.46559 15 4.82971 15 4.16667V2.5C15 1.83696 14.7366 1.20107 14.2678 0.732233C13.7989 0.263392 13.163 0 12.5 0C11.837 0 11.2011 0.263392 10.7322 0.732233C10.2634 1.20107 10 1.83696 10 2.5Z" fill="url(#paint2_linear_2143_4660)"/>
<path d="M26.6666 13.3335C23.5713 13.3305 20.5723 14.4094 18.1883 16.3835C17.4954 16.0252 16.7699 15.7338 16.0216 15.5135L17.2483 13.0585C17.5762 12.4002 17.6401 11.6414 17.4269 10.9375C17.2137 10.2336 16.7396 9.63773 16.1016 9.27187C15.0063 8.64325 13.7627 8.31926 12.5 8.33353C11.1479 8.31702 9.81984 8.69085 8.67495 9.4102C8.10049 9.79688 7.68849 10.3815 7.51757 11.0526C7.34666 11.7237 7.42878 12.4342 7.74829 13.0485L8.98162 15.5135C7.24709 16.0167 5.64218 16.8897 4.27737 18.0725C2.91256 19.2553 1.82026 20.7198 1.07567 22.3652C0.331077 24.0105 -0.0481291 25.7977 -0.0358436 27.6037C-0.0235581 29.4097 0.379927 31.1916 1.14684 32.8267C1.91375 34.4618 3.02587 35.9113 4.40664 37.0754C5.78742 38.2395 7.40405 39.0906 9.14527 39.5701C10.8865 40.0496 12.7109 40.1461 14.493 39.8529C16.2751 39.5597 17.9724 38.8839 19.4683 37.8719C21.2113 38.996 23.1925 39.698 25.2545 39.9221C27.3164 40.1462 29.4022 39.8862 31.346 39.1627C33.2898 38.4392 35.038 37.2722 36.4516 35.7545C37.8653 34.2368 38.9053 32.4102 39.4892 30.42C40.073 28.4298 40.1845 26.3308 39.8147 24.29C39.445 22.2491 38.6043 20.3227 37.3593 18.6638C36.1144 17.0049 34.4996 15.6593 32.6434 14.7339C30.7872 13.8086 28.7407 13.3291 26.6666 13.3335ZM4.99995 27.5002C5.00216 25.5118 5.79304 23.6054 7.19909 22.1993C8.60513 20.7933 10.5115 20.0024 12.5 20.0002C13.3152 20.0096 14.1234 20.1537 14.8916 20.4269C13.7428 22.583 13.2116 25.0145 13.3566 27.4534C13.5016 29.8922 14.3171 32.2437 15.7133 34.2485C14.7123 34.7374 13.6139 34.9943 12.5 35.0002C10.5115 34.998 8.60513 34.2071 7.19909 32.8011C5.79304 31.395 5.00216 29.4886 4.99995 27.5002ZM26.6666 35.0002C25.4175 34.9936 24.1863 34.7023 23.0666 34.1485C24.4629 31.9474 25.1318 29.363 24.9787 26.7609C24.8255 24.1588 23.8581 21.6707 22.2133 19.6485C23.3041 18.9555 24.5412 18.5259 25.8268 18.3938C27.1124 18.2617 28.411 18.4307 29.6199 18.8875C30.8289 19.3442 31.9149 20.0761 32.792 21.0252C33.669 21.9744 34.3131 23.1147 34.6731 24.3558C35.0332 25.597 35.0993 26.9049 34.8663 28.1761C34.6333 29.4473 34.1076 30.6467 33.3308 31.6795C32.5539 32.7123 31.5473 33.55 30.3906 34.1264C29.2339 34.7028 27.9589 35.0019 26.6666 35.0002Z" fill="url(#paint3_linear_2143_4660)"/>
</g>
</g>
<defs>
<linearGradient id="paint0_linear_2143_4660" x1="1.61523" y1="4.90365" x2="7.73545" y2="7.58124" gradientUnits="userSpaceOnUse">
<stop stop-color="#28A08C"/>
<stop offset="1" stop-color="#50CC88"/>
</linearGradient>
<linearGradient id="paint1_linear_2143_4660" x1="17.4717" y1="4.99995" x2="23.666" y2="7.69073" gradientUnits="userSpaceOnUse">
<stop stop-color="#28A08C"/>
<stop offset="1" stop-color="#50CC88"/>
</linearGradient>
<linearGradient id="paint2_linear_2143_4660" x1="10" y1="3.33333" x2="15.4795" y2="5.38813" gradientUnits="userSpaceOnUse">
<stop stop-color="#28A08C"/>
<stop offset="1" stop-color="#50CC88"/>
</linearGradient>
<linearGradient id="paint3_linear_2143_4660" x1="-0.0361327" y1="24.1759" x2="35.7434" y2="46.7963" gradientUnits="userSpaceOnUse">
<stop stop-color="#28A08C"/>
<stop offset="1" stop-color="#50CC88"/>
</linearGradient>
<clipPath id="clip0_2143_4660">
<rect width="40" height="40" fill="white" transform="translate(0.5)"/>
</clipPath>
<clipPath id="clip1_2143_4660">
<rect width="40" height="40" fill="white"/>
</clipPath>
</defs>
</svg>
