<svg width="17" height="17" viewBox="0 0 17 17" fill="none" xmlns="http://www.w3.org/2000/svg">
<path d="M3.91801 11.6169C3.19077 10.8897 2.82715 10.5261 2.82715 10.0742C2.82715 9.62238 3.19077 9.25875 3.91801 8.53151L8.54616 3.90336C9.2734 3.17612 9.63702 2.8125 10.0889 2.8125C10.5407 2.8125 10.9043 3.17612 11.6316 3.90336L12.4029 4.67472C13.1302 5.40197 13.4938 5.76559 13.4938 6.21744C13.4938 6.66929 13.1302 7.03291 12.4029 7.76015L7.7748 12.3883C7.04756 13.1155 6.68394 13.4792 6.23209 13.4792C5.78024 13.4792 5.41661 13.1155 4.68937 12.3883L3.91801 11.6169Z" stroke="#0D2D2D"/>
<path d="M6.27441 6.26172L7.02866 7.01597" stroke="#0D2D2D" stroke-linecap="round"/>
<path d="M8.53711 3.99805L9.29136 4.75229" stroke="#0D2D2D" stroke-linecap="round"/>
<path d="M4.01172 8.52344L4.76597 9.27768" stroke="#0D2D2D" stroke-linecap="round"/>
<path d="M5.14355 7.39258L6.27493 8.52395" stroke="#0D2D2D" stroke-linecap="round"/>
<path d="M7.40576 5.12891L8.53713 6.26028" stroke="#0D2D2D" stroke-linecap="round"/>
</svg>
