<svg width="14" height="13" viewBox="0 0 14 13" fill="none" xmlns="http://www.w3.org/2000/svg">
<path d="M7 4.875C4.75642 4.875 2.9375 6.69392 2.9375 8.9375C2.9375 11.1811 4.75642 13 7 13C9.24358 13 11.0625 11.1811 11.0625 8.9375C11.0625 6.69392 9.24358 4.875 7 4.875ZM7.74533 11.375H7.54167C7.54167 11.674 7.299 11.9167 7 11.9167C6.701 11.9167 6.45833 11.674 6.45833 11.375H6.31317C5.73467 11.375 5.19571 11.0641 4.90592 10.563C4.75642 10.3041 4.84471 9.97317 5.10362 9.82313C5.362 9.67308 5.6935 9.76192 5.84354 10.0208C5.93996 10.1877 6.12033 10.2917 6.31317 10.2917H7.74533C7.93167 10.2917 8.08333 10.14 8.08333 9.95367C8.08333 9.78738 7.96417 9.64763 7.80113 9.62L6.02121 9.32317C5.33329 9.20888 4.83388 8.619 4.83388 7.92133C4.83388 7.13754 5.47142 6.5 6.25521 6.5H6.45888C6.45888 6.201 6.70154 5.95833 7.00054 5.95833C7.29954 5.95833 7.54221 6.201 7.54221 6.5H7.68738C8.26533 6.5 8.80483 6.81146 9.09463 7.3125C9.24467 7.57142 9.15583 7.90238 8.89746 8.05242C8.63746 8.20246 8.30596 8.11363 8.15754 7.85471C8.06058 7.68733 7.88075 7.58388 7.68792 7.58388H6.25575C6.06942 7.58388 5.91775 7.73554 5.91775 7.92188C5.91775 8.08817 6.03638 8.22792 6.19996 8.25554L7.97988 8.55237C8.66833 8.66667 9.16775 9.25654 9.16775 9.95421C9.16775 10.738 8.53021 11.3755 7.74642 11.3755L7.74533 11.375ZM13.5 3.79167V4.33333H0.5V3.79167C0.5 2.29829 1.71496 1.08333 3.20833 1.08333H3.75V0.541667C3.75 0.242667 3.99267 0 4.29167 0C4.59067 0 4.83333 0.242667 4.83333 0.541667V1.08333H9.16667V0.541667C9.16667 0.242667 9.40879 0 9.70833 0C10.0079 0 10.25 0.242667 10.25 0.541667V1.08333H10.7917C12.285 1.08333 13.5 2.29829 13.5 3.79167ZM3.85346 13H3.20833C1.71496 13 0.5 11.785 0.5 10.2917V5.41667H3.25763C2.39042 6.33804 1.85417 7.57521 1.85417 8.9375C1.85417 10.589 2.63958 12.058 3.85346 13ZM10.7429 5.41667H13.5005V10.2917C13.5005 11.785 12.2856 13 10.7922 13H10.1471C11.3604 12.058 12.1464 10.589 12.1464 8.9375C12.1464 7.57521 11.6107 6.33804 10.7429 5.41667Z" fill="white"/>
</svg>
