<svg width="14" height="14" viewBox="0 0 14 14" fill="none" xmlns="http://www.w3.org/2000/svg">
<path d="M2.91674 2.33333C2.91674 2.01075 3.17807 1.75 3.50007 1.75H4.66674V0.583333C4.66674 0.26075 4.92807 0 5.25007 0C5.57207 0 5.83341 0.26075 5.83341 0.583333V1.75H7.00007C7.32207 1.75 7.58341 2.01075 7.58341 2.33333C7.58341 2.65592 7.32207 2.91667 7.00007 2.91667H5.83341V4.08333C5.83341 4.40592 5.57207 4.66667 5.25007 4.66667C4.92807 4.66667 4.66674 4.40592 4.66674 4.08333V2.91667H3.50007C3.17807 2.91667 2.91674 2.65592 2.91674 2.33333ZM14.0001 7.58333V9.33333C14.0001 9.65533 13.7393 9.91667 13.4167 9.91667H13.0714C12.6012 11.0717 11.6796 12.0202 10.4826 12.4991C10.3612 13.3467 9.63091 14 8.75007 14C7.98941 14 7.34074 13.5123 7.09982 12.8333H5.73307C5.49216 13.5123 4.84349 14 4.08282 14C3.11799 14 2.33282 13.2148 2.33282 12.25V12.2039C0.796907 11.3184 -0.106094 9.65125 0.00998978 7.8575C0.0572398 7.12717 0.27949 6.44408 0.635323 5.845C0.292323 5.3795 0.0805731 4.81192 0.00415644 4.15042C-0.0325936 3.83017 0.196656 3.54083 0.516323 3.50408C0.838906 3.465 1.12649 3.69658 1.16266 4.01625C1.19999 4.33883 1.28166 4.62525 1.40532 4.87317C1.97932 4.31667 2.69916 3.90425 3.50007 3.68317V4.08392C3.50007 5.04875 4.28524 5.83392 5.25007 5.83392C6.21491 5.83392 7.00007 5.04875 7.00007 4.08392V3.50058H8.45841C8.65791 2.68567 9.26049 1.99092 10.0346 1.771C10.3782 1.673 10.7206 1.94075 10.7206 2.29833V3.99525C11.9596 4.59142 12.9157 5.67933 13.2668 7.00117H13.4167C13.7393 7.00117 14.0001 7.2625 14.0001 7.5845V7.58333ZM11.0834 7.29167C11.0834 6.80867 10.6914 6.41667 10.2084 6.41667C9.72541 6.41667 9.33341 6.80867 9.33341 7.29167C9.33341 7.77467 9.72541 8.16667 10.2084 8.16667C10.6914 8.16667 11.0834 7.77467 11.0834 7.29167Z" fill="#39109A"/>
</svg>
