<svg width="25" height="24" viewBox="0 0 25 24" fill="none" xmlns="http://www.w3.org/2000/svg">
<path d="M11.9008 4.05937C11.4158 4.14985 10.8461 4.34486 9.97096 4.64441L9.51271 4.80127C7.10744 5.6246 5.90481 6.03627 5.60279 6.46657C5.30738 6.88746 5.30093 8.12043 5.30078 10.5682L11.9008 8.36818V4.05937Z" fill="#28A08C"/>
<path d="M11.9008 9.63309L5.30078 11.8331V11.9937C5.30078 16.5042 8.69195 18.693 10.8196 19.6225C11.2282 19.8009 11.4922 19.9162 11.9008 19.9684V9.63309Z" fill="#28A08C"/>
<path d="M13.1008 19.9684V9.63309L19.7008 11.8331V11.9937C19.7008 16.5042 16.3096 18.693 14.1819 19.6225C13.7734 19.8009 13.5094 19.9162 13.1008 19.9684Z" fill="#28A08C"/>
<path d="M13.1008 8.36818V4.05937C13.5858 4.14985 14.1555 4.34486 15.0306 4.64441L15.4889 4.80127C17.8941 5.6246 19.0968 6.03627 19.3988 6.46657C19.6942 6.88746 19.7006 8.12043 19.7008 10.5682L13.1008 8.36818Z" fill="#28A08C"/>
</svg>
