<svg width="24" height="24" viewBox="0 0 24 24" fill="none" xmlns="http://www.w3.org/2000/svg">
<g clip-path="url(#clip0_2165_6668)">
<path d="M20 10H19V8C19 5.794 17.206 4 15 4H13.972C13.722 1.753 11.812 0 9.5 0C7.188 0 5.277 1.753 5.028 4H4C1.794 4 0 5.794 0 8V14C0 16.757 2.243 19 5 19H6C6 21.757 8.243 24 11 24H19C21.757 24 24 21.757 24 19V14C24 11.794 22.206 10 20 10ZM9.5 2C10.707 2 11.717 2.86 11.95 4H7.05C7.282 2.86 8.292 2 9.5 2ZM5 17C3.346 17 2 15.654 2 14V8C2 6.897 2.897 6 4 6H5V8C5 8.553 5.448 9 6 9C6.552 9 7 8.553 7 8V6H12V8C12 8.553 12.448 9 13 9C13.552 9 14 8.553 14 8V6H15C16.103 6 17 6.897 17 8V10H10C7.794 10 6 11.794 6 14V17H5ZM22 19C22 20.654 20.654 22 19 22H11C9.346 22 8 20.654 8 19V14C8 12.897 8.897 12 10 12H20C21.103 12 22 12.897 22 14V19ZM19 15V16C19 18.206 17.206 20 15 20C12.794 20 11 18.206 11 16V15C11 14.447 11.448 14 12 14C12.552 14 13 14.447 13 15V16C13 17.103 13.897 18 15 18C16.103 18 17 17.103 17 16V15C17 14.447 17.448 14 18 14C18.552 14 19 14.447 19 15Z" fill="#28A08C"/>
</g>
<defs>
<clipPath id="clip0_2165_6668">
<rect width="24" height="24" fill="white"/>
</clipPath>
</defs>
</svg>
