<svg width="17" height="16" viewBox="0 0 17 16" fill="none" xmlns="http://www.w3.org/2000/svg">
<path d="M13.8333 6.66667H13.1667V5.33333C13.1667 3.86267 11.9707 2.66667 10.5 2.66667H9.81467C9.648 1.16867 8.37467 0 6.83333 0C5.292 0 4.018 1.16867 3.852 2.66667H3.16667C1.696 2.66667 0.5 3.86267 0.5 5.33333V9.33333C0.5 11.1713 1.99533 12.6667 3.83333 12.6667H4.5C4.5 14.5047 5.99533 16 7.83333 16H13.1667C15.0047 16 16.5 14.5047 16.5 12.6667V9.33333C16.5 7.86267 15.304 6.66667 13.8333 6.66667ZM6.83333 1.33333C7.638 1.33333 8.31133 1.90667 8.46667 2.66667H5.2C5.35467 1.90667 6.028 1.33333 6.83333 1.33333ZM3.83333 11.3333C2.73067 11.3333 1.83333 10.436 1.83333 9.33333V5.33333C1.83333 4.598 2.43133 4 3.16667 4H3.83333V5.33333C3.83333 5.702 4.132 6 4.5 6C4.868 6 5.16667 5.702 5.16667 5.33333V4H8.5V5.33333C8.5 5.702 8.79867 6 9.16667 6C9.53467 6 9.83333 5.702 9.83333 5.33333V4H10.5C11.2353 4 11.8333 4.598 11.8333 5.33333V6.66667H7.16667C5.696 6.66667 4.5 7.86267 4.5 9.33333V11.3333H3.83333ZM15.1667 12.6667C15.1667 13.7693 14.2693 14.6667 13.1667 14.6667H7.83333C6.73067 14.6667 5.83333 13.7693 5.83333 12.6667V9.33333C5.83333 8.598 6.43133 8 7.16667 8H13.8333C14.5687 8 15.1667 8.598 15.1667 9.33333V12.6667ZM13.1667 10V10.6667C13.1667 12.1373 11.9707 13.3333 10.5 13.3333C9.02933 13.3333 7.83333 12.1373 7.83333 10.6667V10C7.83333 9.63133 8.132 9.33333 8.5 9.33333C8.868 9.33333 9.16667 9.63133 9.16667 10V10.6667C9.16667 11.402 9.76467 12 10.5 12C11.2353 12 11.8333 11.402 11.8333 10.6667V10C11.8333 9.63133 12.132 9.33333 12.5 9.33333C12.868 9.33333 13.1667 9.63133 13.1667 10Z" fill="#E4207B"/>
</svg>
