<svg width="14" height="14" viewBox="0 0 14 14" fill="none" xmlns="http://www.w3.org/2000/svg">
<g clip-path="url(#clip0_202_9966)">
<path d="M13.4998 9.2448V9.51563H5.37479C5.3412 9.17443 5.37911 8.82997 5.4861 8.50424C5.59309 8.17851 5.7668 7.87866 5.99616 7.62382C6.22551 7.36898 6.50547 7.16475 6.81817 7.02416C7.13087 6.88357 7.46945 6.80971 7.81229 6.8073H11.0623C11.7088 6.8073 12.3287 7.06411 12.7859 7.52122C13.243 7.97834 13.4998 8.59833 13.4998 9.2448ZM10.3581 11.5897C10.2692 11.6489 10.1647 11.6806 10.0578 11.6806C9.95088 11.6806 9.84637 11.6489 9.75741 11.5897L8.26892 10.599H5.37479C5.34129 10.9401 5.37926 11.2846 5.48628 11.6103C5.59329 11.936 5.76701 12.2358 5.99635 12.4906C6.22569 12.7454 6.50562 12.9497 6.81828 13.0903C7.13094 13.2309 7.46947 13.3048 7.81229 13.3073H11.0623C11.4051 13.3049 11.7437 13.231 12.0564 13.0904C12.3691 12.9498 12.6491 12.7456 12.8784 12.4908C13.1078 12.2359 13.2815 11.9361 13.3885 11.6104C13.4955 11.2846 13.5334 10.9402 13.4998 10.599H11.8477L10.3581 11.5897ZM4.29146 9.2448V10.8698C4.29155 11.7822 4.64756 12.6587 5.28379 13.3127H4.03796C3.37812 13.3119 2.74121 13.0706 2.24661 12.6338C1.75202 12.197 1.43369 11.5949 1.35129 10.9402L0.531748 4.4088C0.489583 4.17462 0.499013 3.93406 0.55938 3.7039C0.619747 3.47374 0.729597 3.25953 0.88127 3.07619C1.03294 2.89285 1.22279 2.74481 1.43756 2.64239C1.65233 2.53997 1.88686 2.48563 2.12479 2.48317H5.709L5.80271 1.73351C5.85192 1.34075 6.0428 0.979465 6.3395 0.717466C6.63621 0.455468 7.01834 0.310774 7.41417 0.310547H9.16646C9.31012 0.310547 9.44789 0.367615 9.54947 0.469197C9.65106 0.57078 9.70812 0.708555 9.70812 0.852214C9.70812 0.995872 9.65106 1.13365 9.54947 1.23523C9.44789 1.33681 9.31012 1.39388 9.16646 1.39388H7.41417C6.82375 1.39388 6.85787 2.06826 6.79992 2.48371H8.08312C8.32595 2.48544 8.56534 2.54125 8.78389 2.6471C9.00243 2.75295 9.19464 2.90618 9.34654 3.09564C9.49844 3.28509 9.60621 3.50602 9.66201 3.74236C9.71781 3.97869 9.72024 4.22449 9.66912 4.46188L9.51042 5.72396H7.81229C6.87877 5.72482 5.98373 6.09604 5.32364 6.75614C4.66354 7.41624 4.29232 8.31128 4.29146 9.2448ZM6.66396 3.56705L6.53017 4.64063H8.556L8.60204 4.27501C8.6272 4.19344 8.63295 4.10712 8.61882 4.02293C8.60469 3.93875 8.57108 3.85903 8.52067 3.79015C8.47026 3.72127 8.40444 3.66512 8.32847 3.6262C8.2525 3.58727 8.16848 3.56665 8.08312 3.56596L6.66396 3.56705ZM5.43871 4.64063L5.57358 3.56488H2.12479C2.04389 3.56543 1.96412 3.58399 1.89129 3.6192C1.81845 3.65442 1.75437 3.70542 1.7037 3.76848C1.65303 3.83155 1.61703 3.90511 1.59833 3.98382C1.57963 4.06254 1.57869 4.14443 1.59558 4.22355L1.64975 4.64063H5.43871Z" fill="white"/>
</g>
<defs>
<clipPath id="clip0_202_9966">
<rect width="13" height="13" fill="white" transform="translate(0.5 0.307617)"/>
</clipPath>
</defs>
</svg>
