<svg width="15" height="15" viewBox="0 0 15 15" fill="none" xmlns="http://www.w3.org/2000/svg">
<path d="M5.22642 2.85633C5.4138 2.38122 6.0862 2.38122 6.27358 2.85633L6.85426 4.32866C6.91147 4.47371 7.02629 4.58853 7.17134 4.64574L8.64367 5.22642C9.11878 5.4138 9.11878 6.0862 8.64367 6.27358L7.17134 6.85426C7.02629 6.91147 6.91147 7.02629 6.85426 7.17134L6.27358 8.64367C6.0862 9.11878 5.4138 9.11878 5.22642 8.64367L4.64574 7.17134C4.58853 7.02629 4.47371 6.91147 4.32866 6.85426L2.85633 6.27358C2.38122 6.0862 2.38122 5.4138 2.85633 5.22642L4.32866 4.64574C4.47371 4.58853 4.58853 4.47371 4.64574 4.32866L5.22642 2.85633Z" fill="#0E0E0E"/>
<path opacity="0.5" d="M9.96227 8.19582C10.0652 7.93473 10.4348 7.93473 10.5377 8.19582L10.9881 9.33767C11.0195 9.41739 11.0826 9.48049 11.1623 9.51193L12.3042 9.96227C12.5653 10.0652 12.5653 10.4348 12.3042 10.5377L11.1623 10.9881C11.0826 11.0195 11.0195 11.0826 10.9881 11.1623L10.5377 12.3042C10.4348 12.5653 10.0652 12.5653 9.96227 12.3042L9.51193 11.1623C9.48049 11.0826 9.41739 11.0195 9.33767 10.9881L8.19582 10.5377C7.93473 10.4348 7.93473 10.0652 8.19582 9.96227L9.33767 9.51193C9.41739 9.48049 9.48049 9.41739 9.51193 9.33767L9.96227 8.19582Z" fill="#0E0E0E"/>
</svg>
