<svg width="20" height="20" viewBox="0 0 20 20" fill="none" xmlns="http://www.w3.org/2000/svg">
<path d="M10 10.0669C10 9.44438 9.57438 8.86688 8.96 8.76688C8.17688 8.63938 7.5 9.24062 7.5 10V15.5106C6.8275 14.9569 6.18062 14.4156 6.15937 14.3956C5.58313 13.8575 4.67625 13.8875 4.1375 14.4637C3.59812 15.0406 3.62563 15.9462 4.19875 16.4825L5.33687 17.5H15.6256V17.1294C15.6256 15.845 14.8394 14.6912 13.6438 14.2212L10.0006 12.7887V10.0669H10ZM17.5 5.3125V6.5625C17.5 8.11312 16.2381 9.375 14.6875 9.375H11.1562C10.8969 8.43375 10.1244 7.69 9.16062 7.53313C8.43062 7.41625 7.69 7.61937 7.13062 8.095C6.73375 8.43313 6.45687 8.88062 6.32937 9.37437H5.3125C3.76188 9.37437 2.5 8.1125 2.5 6.56187V5.31188C2.5 3.76188 3.76188 2.5 5.3125 2.5H14.6875C16.2381 2.5 17.5 3.76188 17.5 5.3125Z" fill="white"/>
</svg>
