<svg width="104" height="124" viewBox="0 0 104 124" fill="none" xmlns="http://www.w3.org/2000/svg">
<path d="M60.598 12.8018H23.3069C10.4405 12.8161 0.0144405 23.1682 0 35.9435V119.254C0.0028881 121.809 2.09098 123.879 4.66427 123.877C5.60291 123.877 6.51843 123.596 7.28955 123.071L17.1091 116.412L26.9257 123.071C28.5113 124.152 30.6052 124.152 32.1907 123.071L41.9814 116.412L51.7691 123.071C53.3576 124.152 55.4543 124.152 57.0428 123.071L66.8306 116.415L76.6183 123.068C78.7468 124.505 81.6465 123.96 83.0963 121.846C83.6219 121.083 83.9021 120.177 83.905 119.254V35.9435C83.8905 23.1682 73.4645 12.8161 60.598 12.8018ZM74.5822 110.459L69.4558 106.978C67.8645 105.894 65.7677 105.894 64.1793 106.978L54.3886 113.639L44.6009 106.978C43.0124 105.897 40.9186 105.897 39.3272 106.978L29.5394 113.639L19.7517 106.978C18.1632 105.902 16.0751 105.902 14.4867 106.978L9.32278 110.459V35.9435C9.32278 28.2726 15.5842 22.0585 23.3069 22.0585H60.598C68.3208 22.0585 74.5822 28.2726 74.5822 35.9435V110.459Z" fill="#28A08C"/>
<path d="M63.9714 43.3571L54.666 49.7376C53.7591 47.5152 52.2255 45.6283 50.0623 44.0711C48.5576 42.99 46.7006 42.2875 44.4912 41.9577V30.9775C45.9959 31.1381 47.4486 31.4106 48.8493 31.7891C51.3042 32.4572 53.5338 33.3605 55.5382 34.5047C57.5396 35.646 59.2696 36.9795 60.7252 38.5022C62.1779 40.0249 63.2581 41.6451 63.9714 43.3571Z" fill="#28A08C"/>
<path d="M42.9111 30.8465V41.7922C42.4201 41.7578 41.9089 41.7406 41.3862 41.7406C40.6468 41.7406 39.9335 41.7664 39.2461 41.8238V30.8321C39.8208 30.8063 40.4042 30.792 40.9963 30.792C41.6432 30.792 42.2815 30.8092 42.9111 30.8465Z" fill="#28A08C"/>
<path d="M29.7535 47.4534C29.7535 49.1051 30.6402 50.4213 32.4192 51.4049C33.8662 52.2079 35.6164 52.9678 37.6669 53.6847V65.3101C36.9449 65.0807 36.2113 64.8398 35.4719 64.5903C33.4041 63.8935 31.3535 63.0676 29.3174 62.1155C27.2813 61.1635 25.4705 60.0222 23.8878 58.6887C22.3051 57.3553 21.0286 55.7838 20.0582 53.9743C19.0907 52.1649 18.6055 50.0227 18.6055 47.548C18.6055 45.0732 19.1715 42.8193 20.3008 40.789C21.4329 38.7587 22.9838 36.9951 24.9535 35.5039C26.9261 34.0128 29.2828 32.8542 32.0322 32.0284C33.8084 31.495 35.6857 31.1337 37.6669 30.9473V42.0049C35.9543 42.2629 34.4293 42.7132 33.0979 43.3584C30.8683 44.4395 29.7535 45.8045 29.7535 47.4534Z" fill="#28A08C"/>
<path d="M42.9111 55.3704V66.861C42.449 66.7233 41.9725 66.5857 41.4815 66.448C40.745 66.2444 39.9999 66.0265 39.2461 65.8V54.209C40.4273 54.5875 41.649 54.9746 42.9111 55.3704Z" fill="#28A08C"/>
<path d="M40.0288 69.2553C39.7631 69.2553 39.5002 69.2639 39.2461 69.2754V68.96L40.0288 69.2553Z" fill="#28A08C"/>
<path d="M30.0451 76.1119C29.6552 77.3192 29.5252 78.492 29.6552 79.6333C29.8487 81.4744 30.9952 83.0774 33.0978 84.4424C34.3657 85.2682 35.8906 85.8418 37.6668 86.1687V97.2635C35.6682 97.0628 33.7736 96.6957 31.983 96.1538C29.1382 95.2963 26.7007 94.1063 24.6645 92.5836C22.6284 91.058 21.0284 89.2342 19.8645 87.1092C18.7035 84.9815 18.1201 82.6816 18.1201 80.204C18.1201 77.3478 18.6053 74.9218 19.5757 72.9202C20.5432 70.9215 21.6118 69.2898 22.7728 68.0194C24.1302 66.5598 25.6812 65.3841 27.4256 64.4951L37.6668 68.3635V69.4704C36.8032 69.6339 36.009 69.8977 35.2783 70.2562C33.9209 70.9215 32.8061 71.7646 31.9339 72.7797C31.0617 73.7948 30.4321 74.9075 30.0451 76.1119Z" fill="#28A08C"/>
<path d="M41.4815 86.4899C41.9696 86.4899 42.4461 86.4756 42.9111 86.4469V97.3984C42.3768 97.427 41.8367 97.4385 41.288 97.4385C40.5948 97.4385 39.9161 97.4213 39.2461 97.3812V86.3838C39.9566 86.4555 40.7017 86.4899 41.4815 86.4899Z" fill="#28A08C"/>
<path d="M65.814 76.3009C65.814 79.3492 65.1989 82.1738 63.9714 84.7747C62.744 87.3785 61.0458 89.6153 58.8826 91.4879C56.7165 93.3604 54.1317 94.82 51.1281 95.8667C49.0457 96.5922 46.8335 97.0654 44.4912 97.2891V86.286C47.0327 85.9304 49.193 85.0902 50.9808 83.7768C53.4356 81.9673 54.666 79.6331 54.666 76.7769C54.666 74.7466 54.0364 73.049 52.7743 71.684C51.5151 70.319 49.4616 69.1289 46.6197 68.1138C45.9555 67.8586 45.245 67.6062 44.4912 67.3567V55.8633C45.5598 56.1931 46.6573 56.5343 47.7836 56.8784C50.8855 57.8305 53.7764 59.0836 56.4595 60.6379C59.1396 62.195 61.3692 64.2253 63.1483 66.7316C64.9245 69.2408 65.814 72.4296 65.814 76.3009Z" fill="#28A08C"/>
<path d="M98.5096 8.98429C97.571 8.51113 96.563 8.07525 95.4367 7.64797C93.5739 6.93967 92.2165 5.57181 91.5118 3.69638C91.0901 2.56079 90.6569 1.54852 90.1861 0.602202C90.0013 0.235145 89.6201 0 89.2071 0C88.7941 0 88.41 0.235144 88.228 0.605068C87.7601 1.54565 87.3269 2.55793 86.9024 3.69351C86.1977 5.57181 84.8403 6.93967 82.9803 7.64797C81.8482 8.07525 80.8403 8.51113 79.9045 8.98429C79.5406 9.17068 79.3096 9.54348 79.3096 9.95068C79.3096 10.3579 79.5406 10.7335 79.9074 10.9171C80.846 11.3931 81.854 11.8318 82.9774 12.2534C84.8403 12.9617 86.1977 14.3296 86.9024 16.205C87.3269 17.3463 87.7601 18.3586 88.228 19.2992C88.4129 19.6691 88.7912 19.9042 89.2071 19.9042C89.623 19.9042 90.0013 19.6691 90.1861 19.2992C90.6569 18.3586 91.0901 17.3463 91.5118 16.2107C92.2165 14.3324 93.5768 12.9646 95.4338 12.2563C96.5631 11.8318 97.5681 11.3931 98.5096 10.9199C98.8764 10.7335 99.1046 10.3608 99.1046 9.95355C99.1046 9.54634 98.8764 9.17068 98.5096 8.98429ZM94.654 10.2317C92.2251 11.1551 90.3854 13.0104 89.4641 15.4565C89.3775 15.6859 89.2937 15.9096 89.2071 16.1276C89.1204 15.9096 89.0367 15.6859 88.9471 15.4508C88.0316 13.0104 86.189 11.1551 83.7543 10.2288C83.5117 10.1371 83.2749 10.0453 83.0439 9.95355C83.2749 9.85892 83.5146 9.76715 83.7601 9.67252C86.189 8.74914 88.0316 6.89378 88.95 4.45056C89.0367 4.21828 89.1204 3.99461 89.2071 3.77667C89.2937 3.99748 89.3804 4.22115 89.4641 4.45343C90.3854 6.89665 92.2251 8.74914 94.6569 9.67539C94.9024 9.76715 95.1392 9.85892 95.3703 9.95355C95.1392 10.0453 94.8995 10.1371 94.654 10.2317Z" fill="#28A08C"/>
<path d="M96.881 4.50284C97.1583 4.64335 97.4327 4.76092 97.7041 4.86129C97.9294 4.94732 98.0883 5.10791 98.1749 5.33158C98.276 5.60687 98.3886 5.8793 98.5272 6.15746C98.7092 6.52738 99.0904 6.7654 99.5063 6.7654C99.9222 6.7654 100.301 6.53025 100.485 6.16033C100.624 5.88217 100.737 5.60688 100.838 5.33445C100.924 5.10504 101.083 4.94445 101.306 4.85842C101.58 4.75519 101.851 4.64048 102.132 4.4971C102.498 4.31357 102.729 3.93791 102.729 3.53071C102.729 3.12351 102.498 2.74785 102.132 2.56432C101.854 2.42667 101.58 2.3091 101.311 2.20586C101.086 2.11984 100.927 1.95925 100.841 1.7327C100.737 1.45741 100.624 1.18499 100.485 0.90396C100.301 0.534035 99.9222 0.301758 99.5063 0.301758C99.0904 0.301758 98.7121 0.536904 98.5272 0.906828C98.3886 1.18499 98.276 1.46028 98.1749 1.72984C98.0883 1.95925 97.9294 2.11984 97.707 2.20586C97.4327 2.3091 97.1583 2.4238 96.881 2.56719C96.5142 2.75071 96.2832 3.12638 96.2832 3.53358C96.2832 3.94078 96.5142 4.31644 96.881 4.49997V4.50284Z" fill="#28A08C"/>
<path d="M102.733 16.0385C102.386 15.8636 102.045 15.7174 101.707 15.594C101.338 15.4535 101.066 15.1811 100.927 14.8083C100.8 14.4671 100.656 14.123 100.486 13.776C100.301 13.406 99.9224 13.1709 99.5065 13.1709C99.0906 13.1709 98.7094 13.406 98.5275 13.776C98.3571 14.123 98.2127 14.4642 98.0885 14.7997C97.947 15.1754 97.6755 15.4478 97.3116 15.5883C96.9708 15.7174 96.6271 15.8607 96.2834 16.0385C95.9166 16.2249 95.6885 16.5977 95.6885 17.0049C95.6885 17.4121 95.9195 17.7849 96.2834 17.9713C96.6271 18.1462 96.9679 18.2896 97.3087 18.4187C97.6755 18.5592 97.947 18.8316 98.0856 19.2015C98.2127 19.5428 98.3542 19.8869 98.5275 20.231C98.7123 20.6009 99.0906 20.8361 99.5065 20.8361C99.9224 20.8361 100.301 20.6038 100.486 20.2339C100.659 19.8869 100.803 19.5456 100.927 19.2044C101.066 18.8287 101.338 18.5563 101.704 18.4187C102.045 18.2896 102.386 18.1462 102.73 17.9713C103.096 17.7849 103.327 17.4121 103.327 17.0049C103.327 16.5977 103.096 16.2221 102.73 16.0385H102.733Z" fill="#28A08C"/>
</svg>
