<svg width="61" height="60" viewBox="0 0 61 60" fill="none" xmlns="http://www.w3.org/2000/svg">
<rect width="61" height="60" rx="30" fill="white" fill-opacity="0.5"/>
<g clip-path="url(#clip0_707_5011)">
<path d="M23.6083 19.3909C23.6083 18.4032 22.8076 17.6025 21.8199 17.6025H15.7884C14.8007 17.6025 14 18.4032 14 19.3909V43.3499C14 44.8134 15.1864 45.9997 16.6498 45.9997H38.561C39.7425 45.9997 40.7003 45.0419 40.7003 43.8604V23.3185C40.7003 22.1371 39.7425 21.1793 38.561 21.1793H25.3966C24.4089 21.1793 23.6083 20.3786 23.6083 19.3909Z" fill="url(#paint0_linear_707_5011)"/>
<path d="M38.5605 21.1797H35.4004V46.0002H38.5605C39.742 46.0002 40.6998 45.0424 40.6998 43.8609V23.319C40.6998 22.1375 39.742 21.1797 38.5605 21.1797Z" fill="url(#paint1_linear_707_5011)"/>
<path d="M40.7003 43.8603V29.291H14V43.3497C14 44.8132 15.1864 45.9996 16.6498 45.9996H38.561C39.7426 45.9996 40.7003 45.0418 40.7003 43.8603Z" fill="url(#paint2_linear_707_5011)"/>
<path d="M29.9997 40.8548C37.4155 40.8548 43.4271 34.8432 43.4271 27.4274C43.4271 20.0117 37.4155 14 29.9997 14C22.5839 14 16.5723 20.0117 16.5723 27.4274C16.5723 34.8432 22.5839 40.8548 29.9997 40.8548Z" fill="url(#paint3_linear_707_5011)"/>
<path d="M30.0006 39.098C36.4461 39.098 41.6712 33.8729 41.6712 27.4274C41.6712 20.9819 36.4461 15.7568 30.0006 15.7568C23.5552 15.7568 18.3301 20.9819 18.3301 27.4274C18.3301 33.8729 23.5552 39.098 30.0006 39.098Z" fill="url(#paint4_linear_707_5011)"/>
<path d="M16.5723 27.427C16.5723 34.8428 22.5839 40.8544 29.9997 40.8544C37.4155 40.8544 43.4271 34.8428 43.4271 27.427C43.4271 27.2378 43.4222 27.0497 43.4144 26.8623H16.5849C16.5772 27.0497 16.5723 27.2378 16.5723 27.427Z" fill="url(#paint5_linear_707_5011)"/>
<path d="M30.0006 37.5921C35.6144 37.5921 40.1653 33.0412 40.1653 27.4274C40.1653 21.8136 35.6144 17.2627 30.0006 17.2627C24.3868 17.2627 19.8359 21.8136 19.8359 27.4274C19.8359 33.0412 24.3868 37.5921 30.0006 37.5921Z" fill="url(#paint6_linear_707_5011)"/>
<path d="M37.6342 27.637H29.9375V19.8984H32.4264C35.3026 19.8984 37.6342 22.23 37.6342 25.1063V27.637Z" fill="url(#paint7_linear_707_5011)"/>
<path d="M30.6031 26.8239V19.2576C30.6031 18.9244 30.333 18.6543 29.9998 18.6543C29.6666 18.6543 29.3965 18.9244 29.3965 19.2576V26.8239C29.3965 27.1571 29.6666 27.4272 29.9998 27.4272C30.333 27.4272 30.6031 27.1571 30.6031 26.8239Z" fill="url(#paint8_linear_707_5011)"/>
<path d="M29.9996 29.1633C30.9584 29.1633 31.7356 28.3861 31.7356 27.4274C31.7356 26.4686 30.9584 25.6914 29.9996 25.6914C29.0409 25.6914 28.2637 26.4686 28.2637 27.4274C28.2637 28.3861 29.0409 29.1633 29.9996 29.1633Z" fill="url(#paint9_linear_707_5011)"/>
<path d="M42.5407 43.2852C42.2092 44.8672 40.8142 46.0002 39.1978 46.0002H16.6504C18.1502 46.0002 19.4446 44.9489 19.7522 43.4809L23.2724 26.6813C23.4729 25.7244 24.3167 25.0391 25.2945 25.0391H44.4263C45.4252 25.0391 46.1714 25.9578 45.9665 26.9355L42.5407 43.2852Z" fill="url(#paint10_linear_707_5011)"/>
<path d="M40.6996 43.8609V25.0391H28.1797V46.0002H38.5604C39.7419 46.0002 40.6996 45.0424 40.6996 43.8609Z" fill="url(#paint11_linear_707_5011)"/>
<path d="M42.5407 43.2852C42.2092 44.8672 40.8142 46.0002 39.1978 46.0002H16.6504C18.1502 46.0002 19.4446 44.9489 19.7522 43.4809L23.2724 26.6813C23.4729 25.7244 24.3167 25.0391 25.2945 25.0391H44.4263C45.4252 25.0391 46.1714 25.9578 45.9665 26.9355L42.5407 43.2852Z" fill="url(#paint12_linear_707_5011)"/>
<path d="M45.966 26.9358L42.5401 43.2853C42.2082 44.8671 40.8134 46.0003 39.1971 46.0003H36.2305L40.622 25.0391H44.4256C45.4245 25.0391 46.1705 25.9576 45.966 26.9358Z" fill="url(#paint13_linear_707_5011)"/>
<path d="M43.4277 27.4276C43.4277 26.6124 43.3549 25.8142 43.2157 25.0391H25.2941C24.3164 25.0391 23.4726 25.7244 23.272 26.6813L21.0234 37.4126C23.402 39.5524 26.5489 40.8551 30.0002 40.8551C37.416 40.8551 43.4277 34.8434 43.4277 27.4276Z" fill="url(#paint14_linear_707_5011)"/>
<path d="M41.4258 25.0391H25.2941C24.3164 25.0391 23.4726 25.7244 23.272 26.6813L21.4512 35.371C23.5822 37.6635 26.6235 39.0982 30.0002 39.0982C36.4457 39.0982 41.6708 33.8731 41.6708 27.4276C41.6708 26.609 41.5862 25.8101 41.4258 25.0391Z" fill="url(#paint15_linear_707_5011)"/>
<path d="M39.8814 25.0391H25.2935C24.3158 25.0391 23.472 25.7244 23.2714 26.6813L21.8438 33.4948C23.6967 35.9817 26.6601 37.5923 29.9997 37.5923C35.6134 37.5923 40.1643 33.0414 40.1643 27.4276C40.1643 26.6049 40.0659 25.8052 39.8814 25.0391Z" fill="url(#paint16_linear_707_5011)"/>
<path d="M29.9996 29.1633C30.9584 29.1633 31.7356 28.3861 31.7356 27.4274C31.7356 26.4686 30.9584 25.6914 29.9996 25.6914C29.0409 25.6914 28.2637 26.4686 28.2637 27.4274C28.2637 28.3861 29.0409 29.1633 29.9996 29.1633Z" fill="url(#paint17_linear_707_5011)"/>
<path d="M36.816 27.4278C36.816 27.761 36.5456 28.0308 36.2124 28.0308H31.6289C31.6986 27.8432 31.7368 27.6399 31.7368 27.4278C31.7368 27.2157 31.6986 27.0118 31.6289 26.8242H36.2124C36.5455 26.8242 36.816 27.0946 36.816 27.4278Z" fill="url(#paint18_linear_707_5011)"/>
<path d="M30.6024 25.0391V25.7995C30.4148 25.7299 30.2115 25.6916 29.9995 25.6916C29.7874 25.6916 29.5841 25.7299 29.3965 25.7995V25.0391H30.6024Z" fill="url(#paint19_linear_707_5011)"/>
<path d="M42.5407 43.285L44.6446 33.2441H21.8972L19.7523 43.4807C19.4446 44.9487 18.1502 45.9999 16.6504 45.9999H39.1977C40.8141 45.9999 42.2092 44.867 42.5407 43.285Z" fill="url(#paint20_linear_707_5011)"/>
<path d="M44.6439 33.2443L45.9658 26.9355C46.1706 25.9578 45.4246 25.0392 44.4258 25.0391H25.2934C24.3158 25.0393 23.4721 25.7245 23.2717 26.6813L21.8965 33.2443L44.6439 33.2443Z" fill="url(#paint21_linear_707_5011)"/>
<path d="M44.4267 25.0391H38.668V34.9928L43.3066 39.6315L45.9669 26.9355C46.1718 25.9578 45.4257 25.0391 44.4267 25.0391Z" fill="url(#paint22_linear_707_5011)"/>
<path d="M42.7863 31.0095L40.3324 34.7277C40.2627 34.8325 40.1812 34.921 40.0902 34.9932C39.6773 35.3232 39.0794 35.3232 38.6665 34.9932C38.5755 34.921 38.4933 34.8325 38.4243 34.7277L35.9703 31.0095C35.469 30.2496 36.0136 29.2369 36.9241 29.2369H38.2398L38.2392 29.2294C38.2392 27.0126 37.3758 24.9282 35.8085 23.3602C34.3986 21.9497 32.5708 21.1096 30.6031 20.9552V19.2586C30.6031 18.9386 30.354 18.6763 30.0391 18.6562L30.6025 18.6751C33.1776 18.8338 35.5763 19.9118 37.4166 21.7521C39.4132 23.7499 40.5131 26.4053 40.5131 29.2294V29.2369H41.8326C42.7431 29.2369 43.2877 30.2496 42.7863 31.0095Z" fill="url(#paint23_linear_707_5011)"/>
<path d="M42.7869 31.0087C43.2883 30.2488 42.7433 29.2363 41.833 29.2363H40.5137V34.4528L42.7869 31.0087Z" fill="url(#paint24_linear_707_5011)"/>
<path d="M38.2391 29.2363H36.924C36.0138 29.2363 35.4688 30.2488 35.9702 31.0087L38.2391 34.4463V29.2363Z" fill="url(#paint25_linear_707_5011)"/>
</g>
<defs>
<linearGradient id="paint0_linear_707_5011" x1="16.3971" y1="22.4869" x2="34.2866" y2="40.3765" gradientUnits="userSpaceOnUse">
<stop stop-color="#FEE45A"/>
<stop offset="1" stop-color="#FEA613"/>
</linearGradient>
<linearGradient id="paint1_linear_707_5011" x1="38.1272" y1="33.59" x2="41.5363" y2="33.59" gradientUnits="userSpaceOnUse">
<stop stop-color="#FEA613" stop-opacity="0"/>
<stop offset="1" stop-color="#E94444"/>
</linearGradient>
<linearGradient id="paint2_linear_707_5011" x1="27.3502" y1="34.5583" x2="27.3502" y2="46.2861" gradientUnits="userSpaceOnUse">
<stop stop-color="#FEA613" stop-opacity="0"/>
<stop offset="1" stop-color="#E94444"/>
</linearGradient>
<linearGradient id="paint3_linear_707_5011" x1="23.537" y1="20.9647" x2="40.0983" y2="37.526" gradientUnits="userSpaceOnUse">
<stop stop-color="#B3DAFE"/>
<stop offset="1" stop-color="#0182FC"/>
</linearGradient>
<linearGradient id="paint4_linear_707_5011" x1="39.4513" y1="36.8781" x2="18.8327" y2="16.2595" gradientUnits="userSpaceOnUse">
<stop stop-color="#B3DAFE"/>
<stop offset="1" stop-color="#0182FC"/>
</linearGradient>
<linearGradient id="paint5_linear_707_5011" x1="29.9997" y1="33.576" x2="29.9997" y2="41.7524" gradientUnits="userSpaceOnUse">
<stop stop-color="#0182FC" stop-opacity="0"/>
<stop offset="1" stop-color="#024C67"/>
</linearGradient>
<linearGradient id="paint6_linear_707_5011" x1="25.483" y1="22.9097" x2="37.593" y2="35.0197" gradientUnits="userSpaceOnUse">
<stop stop-color="#EAF6FF"/>
<stop offset="1" stop-color="#B3DAFE"/>
</linearGradient>
<linearGradient id="paint7_linear_707_5011" x1="33.3257" y1="23.7677" x2="29.7998" y2="23.7677" gradientUnits="userSpaceOnUse">
<stop stop-color="#7BACDF" stop-opacity="0"/>
<stop offset="1" stop-color="#7BACDF"/>
</linearGradient>
<linearGradient id="paint8_linear_707_5011" x1="29.9998" y1="18.6543" x2="29.9998" y2="27.4272" gradientUnits="userSpaceOnUse">
<stop stop-color="#E1D3CE"/>
<stop offset="1" stop-color="#9E9797"/>
</linearGradient>
<linearGradient id="paint9_linear_707_5011" x1="29.3473" y1="26.775" x2="30.9247" y2="28.3525" gradientUnits="userSpaceOnUse">
<stop stop-color="#5A5A5A"/>
<stop offset="1" stop-color="#444444"/>
</linearGradient>
<linearGradient id="paint10_linear_707_5011" x1="27.2675" y1="25.1585" x2="34.772" y2="45.5147" gradientUnits="userSpaceOnUse">
<stop stop-color="#FEE45A"/>
<stop offset="1" stop-color="#FEA613"/>
</linearGradient>
<linearGradient id="paint11_linear_707_5011" x1="34.8736" y1="35.1412" x2="49.0025" y2="31.1982" gradientUnits="userSpaceOnUse">
<stop stop-color="#FEA613" stop-opacity="0"/>
<stop offset="1" stop-color="#E94444"/>
</linearGradient>
<linearGradient id="paint12_linear_707_5011" x1="27.2675" y1="25.1585" x2="34.772" y2="45.5147" gradientUnits="userSpaceOnUse">
<stop stop-color="#FEE45A"/>
<stop offset="1" stop-color="#FEA613"/>
</linearGradient>
<linearGradient id="paint13_linear_707_5011" x1="41.0335" y1="35.679" x2="45.3002" y2="36.8084" gradientUnits="userSpaceOnUse">
<stop stop-color="#FEA613" stop-opacity="0"/>
<stop offset="1" stop-color="#E94444"/>
</linearGradient>
<linearGradient id="paint14_linear_707_5011" x1="30.1388" y1="27.0194" x2="38.5148" y2="44.8067" gradientUnits="userSpaceOnUse">
<stop stop-color="#B3DAFE" stop-opacity="0"/>
<stop offset="1" stop-color="#0182FC"/>
</linearGradient>
<linearGradient id="paint15_linear_707_5011" x1="32.6435" y1="32.443" x2="37.0356" y2="40.5998" gradientUnits="userSpaceOnUse">
<stop stop-color="#B3DAFE" stop-opacity="0"/>
<stop offset="1" stop-color="#0182FC"/>
</linearGradient>
<linearGradient id="paint16_linear_707_5011" x1="30.1272" y1="28.0237" x2="36.2135" y2="38.3138" gradientUnits="userSpaceOnUse">
<stop stop-color="#EAF6FF" stop-opacity="0"/>
<stop offset="1" stop-color="#B3DAFE"/>
</linearGradient>
<linearGradient id="paint17_linear_707_5011" x1="29.2297" y1="26.3424" x2="31.9905" y2="30.2326" gradientUnits="userSpaceOnUse">
<stop stop-color="#5A5A5A" stop-opacity="0"/>
<stop offset="1" stop-color="#444444"/>
</linearGradient>
<linearGradient id="paint18_linear_707_5011" x1="33.7763" y1="25.9773" x2="34.8221" y2="29.993" gradientUnits="userSpaceOnUse">
<stop stop-color="#433F43" stop-opacity="0"/>
<stop offset="0.3007" stop-color="#3C393C" stop-opacity="0.301"/>
<stop offset="0.7373" stop-color="#292729" stop-opacity="0.737"/>
<stop offset="1" stop-color="#1A1A1A"/>
</linearGradient>
<linearGradient id="paint19_linear_707_5011" x1="29.0847" y1="24.6189" x2="32.4311" y2="27.547" gradientUnits="userSpaceOnUse">
<stop stop-color="#433F43" stop-opacity="0"/>
<stop offset="0.3007" stop-color="#3C393C" stop-opacity="0.301"/>
<stop offset="0.7373" stop-color="#292729" stop-opacity="0.737"/>
<stop offset="1" stop-color="#1A1A1A"/>
</linearGradient>
<linearGradient id="paint20_linear_707_5011" x1="30.6475" y1="41.1243" x2="30.6475" y2="47.1807" gradientUnits="userSpaceOnUse">
<stop stop-color="#FEA613" stop-opacity="0"/>
<stop offset="1" stop-color="#E94444"/>
</linearGradient>
<linearGradient id="paint21_linear_707_5011" x1="33.8262" y1="29.1719" x2="32.6968" y2="22.8138" gradientUnits="userSpaceOnUse">
<stop stop-color="white" stop-opacity="0"/>
<stop offset="1" stop-color="white"/>
</linearGradient>
<linearGradient id="paint22_linear_707_5011" x1="45.5618" y1="32.3353" x2="37.9655" y2="32.3353" gradientUnits="userSpaceOnUse">
<stop stop-color="#FEA613" stop-opacity="0"/>
<stop offset="1" stop-color="#E94444"/>
</linearGradient>
<linearGradient id="paint23_linear_707_5011" x1="31.4397" y1="18.4494" x2="41.0804" y2="32.7509" gradientUnits="userSpaceOnUse">
<stop stop-color="#BBEC6C"/>
<stop offset="1" stop-color="#81B823"/>
</linearGradient>
<linearGradient id="paint24_linear_707_5011" x1="41.7457" y1="30.3766" x2="41.7457" y2="28.4809" gradientUnits="userSpaceOnUse">
<stop stop-color="#78A91F" stop-opacity="0"/>
<stop offset="1" stop-color="#026841"/>
</linearGradient>
<linearGradient id="paint25_linear_707_5011" x1="37.0092" y1="30.3766" x2="37.0092" y2="28.4809" gradientUnits="userSpaceOnUse">
<stop stop-color="#78A91F" stop-opacity="0"/>
<stop offset="1" stop-color="#026841"/>
</linearGradient>
<clipPath id="clip0_707_5011">
<rect width="32" height="32" fill="white" transform="translate(14 14)"/>
</clipPath>
</defs>
</svg>
