<svg width="25" height="26" viewBox="0 0 25 26" fill="none" xmlns="http://www.w3.org/2000/svg">
<g clip-path="url(#clip0_27_622)">
<path d="M14.584 7.89665V1.08415C15.535 1.44456 16.41 1.99977 17.1517 2.7404L20.7809 6.37165C21.5225 7.11227 22.0777 7.98727 22.4382 8.93831H15.6257C15.0507 8.93831 14.584 8.47061 14.584 7.89665ZM16.1465 16.23H8.85482C8.56732 16.23 8.33398 16.4633 8.33398 16.7508V18.8341C8.33398 19.1216 8.56732 19.355 8.85482 19.355H16.1465C16.434 19.355 16.6673 19.1216 16.6673 18.8341V16.7508C16.6673 16.4633 16.434 16.23 16.1465 16.23ZM22.9173 11.5269V20.3966C22.9173 23.2685 20.5809 25.605 17.709 25.605H7.29232C4.42044 25.605 2.08398 23.2685 2.08398 20.3966V5.81331C2.08398 2.94144 4.42044 0.60498 7.29232 0.60498H11.9954C12.1652 0.60498 12.3329 0.618522 12.5007 0.62998V7.89665C12.5007 9.61956 13.9027 11.0216 15.6257 11.0216H22.8923C22.9038 11.1894 22.9173 11.3571 22.9173 11.5269ZM6.25065 6.85498C6.25065 7.42998 6.71732 7.89665 7.29232 7.89665H9.37565C9.95065 7.89665 10.4173 7.42998 10.4173 6.85498C10.4173 6.27998 9.95065 5.81331 9.37565 5.81331H7.29232C6.71732 5.81331 6.25065 6.27998 6.25065 6.85498ZM6.25065 11.0216C6.25065 11.5966 6.71732 12.0633 7.29232 12.0633H9.37565C9.95065 12.0633 10.4173 11.5966 10.4173 11.0216C10.4173 10.4466 9.95065 9.97998 9.37565 9.97998H7.29232C6.71732 9.97998 6.25065 10.4466 6.25065 11.0216ZM18.7507 16.7508C18.7507 15.3154 17.5819 14.1466 16.1465 14.1466H8.85482C7.4194 14.1466 6.25065 15.3154 6.25065 16.7508V18.8341C6.25065 20.2696 7.4194 21.4383 8.85482 21.4383H16.1465C17.5819 21.4383 18.7507 20.2696 18.7507 18.8341V16.7508Z" fill="#EC9F40"/>
</g>
<defs>
<clipPath id="clip0_27_622">
<rect width="25" height="25" fill="white" transform="translate(0 0.60498)"/>
</clipPath>
</defs>
</svg>
