<svg width="25" height="24" viewBox="0 0 25 24" fill="none" xmlns="http://www.w3.org/2000/svg">
<g clip-path="url(#clip0_1643_16477)">
<path d="M21.5 0H6.999C5.07 0 3.5 1.571 3.5 3.5V7C3.5 7.552 3.948 8 4.5 8C5.052 8 5.5 7.552 5.5 7V3.5C5.5 2.673 6.173 2 7 2C7.827 2 8.5 2.673 8.5 3.5C8.5 4.878 9.622 6 11 6H19.5V19C19.5 20.654 18.154 22 16.5 22H14.5C13.948 22 13.5 22.448 13.5 23C13.5 23.552 13.948 24 14.5 24H16.5C19.257 24 21.5 21.757 21.5 19V6H22C23.378 6 24.5 4.878 24.5 3.5V3C24.5 1.346 23.154 0 21.5 0ZM22.5 3.5C22.5 3.776 22.276 4 22 4H11C10.724 4 10.5 3.776 10.5 3.5C10.5 2.963 10.378 2.455 10.162 2H21.5C22.051 2 22.5 2.449 22.5 3V3.5ZM9 10H4C2.07 10 0.5 11.57 0.5 13.5V20.5C0.5 22.43 2.07 24 4 24H9C10.93 24 12.5 22.43 12.5 20.5V13.5C12.5 11.57 10.93 10 9 10ZM10.5 20.5C10.5 21.327 9.827 22 9 22H4C3.173 22 2.5 21.327 2.5 20.5V13.5C2.5 12.673 3.173 12 4 12H9C9.827 12 10.5 12.673 10.5 13.5V20.5ZM9.5 14C9.5 14.552 9.052 15 8.5 15H4.5C3.948 15 3.5 14.552 3.5 14C3.5 13.448 3.948 13 4.5 13H8.5C9.052 13 9.5 13.448 9.5 14ZM9.5 17C9.5 17.552 9.052 18 8.5 18H8C7.448 18 7 17.552 7 17C7 16.448 7.448 16 8 16H8.5C9.052 16 9.5 16.448 9.5 17ZM6 17C6 17.552 5.552 18 5 18H4.5C3.948 18 3.5 17.552 3.5 17C3.5 16.448 3.948 16 4.5 16H5C5.552 16 6 16.448 6 17ZM9.5 20C9.5 20.552 9.052 21 8.5 21H8C7.448 21 7 20.552 7 20C7 19.448 7.448 19 8 19H8.5C9.052 19 9.5 19.448 9.5 20ZM6 20C6 20.552 5.552 21 5 21H4.5C3.948 21 3.5 20.552 3.5 20C3.5 19.448 3.948 19 4.5 19H5C5.552 19 6 19.448 6 20Z" fill="#28A08C"/>
</g>
<defs>
<clipPath id="clip0_1643_16477">
<rect width="24" height="24" fill="white" transform="translate(0.5)"/>
</clipPath>
</defs>
</svg>
