<svg width="25" height="24" viewBox="0 0 25 24" fill="none" xmlns="http://www.w3.org/2000/svg">
<g clip-path="url(#clip0_1596_23361)">
<path d="M20.5 16.0003C20.5 16.8283 19.828 17.5003 19 17.5003C18.172 17.5003 17.5 16.8283 17.5 16.0003C17.5 15.1723 18.172 14.5003 19 14.5003C19.828 14.5003 20.5 15.1723 20.5 16.0003ZM23.5 8.00033C22.947 8.00033 22.5 8.44833 22.5 9.00033V21.0003C22.5 21.5513 22.052 22.0003 21.5 22.0003H5.5C3.846 22.0003 2.5 20.6543 2.5 19.0003V9.00033V8.99533C3.354 9.63533 4.403 10.0003 5.499 10.0003H15.499C16.052 10.0003 16.499 9.55233 16.499 9.00033C16.499 8.44833 16.052 8.00033 15.499 8.00033H5.5C4.644 8.00033 3.847 7.61933 3.283 6.99633C3.832 6.38933 4.618 6.00033 5.5 6.00033H12.5C13.053 6.00033 13.5 5.55233 13.5 5.00033C13.5 4.44833 13.053 4.00033 12.5 4.00033H5.5C2.5 4.00033 0.5 6.50033 0.5 9.00033V19.0003C0.5 21.7573 2.743 24.0003 5.5 24.0003H21.5C23.154 24.0003 24.5 22.6543 24.5 21.0003V9.00033C24.5 8.44833 24.053 8.00033 23.5 8.00033ZM17.203 4.21133L18.5 2.93033V9.00033C18.5 9.55233 18.947 10.0003 19.5 10.0003C20.053 10.0003 20.5 9.55233 20.5 9.00033V2.94833L21.803 4.21633C21.997 4.40533 22.248 4.50033 22.5 4.50033C22.761 4.50033 23.021 4.39933 23.217 4.19833C23.602 3.80233 23.594 3.16933 23.197 2.78433L20.97 0.616329C20.149 -0.202671 18.818 -0.201671 18 0.612329L15.796 2.78933C15.403 3.17733 15.4 3.81033 15.787 4.20333C16.177 4.59733 16.808 4.59933 17.202 4.21233L17.203 4.21133Z" fill="#0D2D2D"/>
</g>
<defs>
<clipPath id="clip0_1596_23361">
<rect width="24" height="24" fill="white" transform="translate(0.5)"/>
</clipPath>
</defs>
</svg>
