<svg width="16" height="16" viewBox="0 0 16 16" fill="none" xmlns="http://www.w3.org/2000/svg">
<g clip-path="url(#clip0_1596_22358)">
<path d="M14.6667 10.666V13.9993C14.6667 14.1762 14.5964 14.3457 14.4714 14.4708C14.3464 14.5958 14.1768 14.666 14 14.666H2C1.82319 14.666 1.65362 14.5958 1.5286 14.4708C1.40357 14.3457 1.33333 14.1762 1.33333 13.9993V10.666H0V13.9993C0 14.5298 0.210714 15.0385 0.585786 15.4136C0.960859 15.7886 1.46957 15.9993 2 15.9993H14C14.5304 15.9993 15.0391 15.7886 15.4142 15.4136C15.7893 15.0385 16 14.5298 16 13.9993V10.666H14.6667Z" fill="#0D2D2D"/>
<path d="M7.97802 7.58212e-06C7.71548 -0.000716153 7.45538 0.0503789 7.21262 0.150364C6.96986 0.25035 6.74922 0.39726 6.56335 0.582674L3.95068 3.19534L4.89335 4.13801L7.31602 1.71601L7.33335 12.6667H8.66668L8.64935 1.72534L11.062 4.13801L12.0047 3.19534L9.39202 0.582674C9.20627 0.39728 8.98574 0.250377 8.7431 0.15039C8.50045 0.0504032 8.24046 -0.000701231 7.97802 7.58212e-06Z" fill="#0D2D2D"/>
</g>
<defs>
<clipPath id="clip0_1596_22358">
<rect width="16" height="16" fill="white"/>
</clipPath>
</defs>
</svg>
