<svg width="25" height="24" viewBox="0 0 25 24" fill="none" xmlns="http://www.w3.org/2000/svg">
<g clip-path="url(#clip0_1596_23364)">
<path d="M24.5 19C24.5 20.654 23.154 22 21.5 22V23C21.5 23.553 21.053 24 20.5 24C19.947 24 19.5 23.553 19.5 23V22H19.232C18.165 22 17.169 21.426 16.634 20.501C16.357 20.022 16.521 19.411 16.998 19.135C17.477 18.856 18.089 19.022 18.364 19.499C18.543 19.809 18.875 20 19.231 20H21.499C22.051 20 22.499 19.552 22.499 19C22.499 18.621 22.228 18.302 21.854 18.239L18.814 17.733C17.472 17.509 16.499 16.359 16.499 15C16.499 13.346 17.845 12 19.499 12V11C19.499 10.447 19.946 10 20.499 10C21.052 10 21.499 10.447 21.499 11V12H21.767C22.834 12 23.83 12.574 24.365 13.499C24.642 13.978 24.478 14.589 24.001 14.865C23.521 15.143 22.91 14.977 22.635 14.501C22.456 14.191 22.124 14 21.768 14H19.5C18.948 14 18.5 14.448 18.5 15C18.5 15.379 18.771 15.698 19.145 15.761L22.185 16.267C23.527 16.491 24.5 17.641 24.5 19ZM19.5 2H18.5V1C18.5 0.447 18.053 0 17.5 0C16.947 0 16.5 0.447 16.5 1V2H8.5V1C8.5 0.447 8.053 0 7.5 0C6.947 0 6.5 0.447 6.5 1V2H5.5C2.743 2 0.5 4.243 0.5 7V19C0.5 21.757 2.743 24 5.5 24H14.5C15.053 24 15.5 23.553 15.5 23C15.5 22.447 15.053 22 14.5 22H5.5C3.846 22 2.5 20.654 2.5 19V10H17.5C18.053 10 18.5 9.553 18.5 9C18.5 8.447 18.053 8 17.5 8H2.5V7C2.5 5.346 3.846 4 5.5 4H19.5C21.154 4 22.5 5.346 22.5 7V9C22.5 9.553 22.947 10 23.5 10C24.053 10 24.5 9.553 24.5 9V7C24.5 4.243 22.257 2 19.5 2Z" fill="#0D2D2D"/>
</g>
<defs>
<clipPath id="clip0_1596_23364">
<rect width="24" height="24" fill="white" transform="translate(0.5)"/>
</clipPath>
</defs>
</svg>
