<svg width="15" height="14" viewBox="0 0 15 14" fill="none" xmlns="http://www.w3.org/2000/svg">
<path d="M11 7C9.06683 7 7.5 8.56683 7.5 10.5C7.5 12.4332 9.06683 14 11 14C12.9332 14 14.5 12.4332 14.5 10.5C14.5 8.56683 12.9332 7 11 7ZM13.1484 10.332L11.5717 11.8568C11.308 12.117 10.958 12.2482 10.6074 12.2482C10.2568 12.2482 9.90567 12.117 9.63733 11.8551L8.8475 11.0781C8.61708 10.8523 8.61417 10.4831 8.83933 10.2532C9.0645 10.0228 9.43375 10.0193 9.66417 10.2451L10.454 11.0215C10.538 11.1043 10.6757 11.1026 10.7585 11.0203L12.3411 9.48967C12.5727 9.26742 12.9425 9.27383 13.1659 9.50658C13.3887 9.73875 13.3812 10.108 13.149 10.3314L13.1484 10.332ZM6.33333 10.5C6.33333 7.92692 8.42692 5.83333 11 5.83333C11.4037 5.83333 11.7927 5.88992 12.1667 5.98675V4.08333C12.1667 2.89042 11.4451 1.8655 10.4167 1.414V0.583333C10.4167 0.261333 10.1559 0 9.83333 0C9.51075 0 9.25 0.261333 9.25 0.583333V1.16667H8.08333V0.583333C8.08333 0.261333 7.82258 0 7.5 0C7.17742 0 6.91667 0.261333 6.91667 0.583333V1.16667H5.75V0.583333C5.75 0.261333 5.48925 0 5.16667 0C4.84408 0 4.58333 0.261333 4.58333 0.583333V1.16667H3.41667V0.583333C3.41667 0.261333 3.15592 0 2.83333 0C2.51075 0 2.25 0.261333 2.25 0.583333V1.414C1.22158 1.8655 0.5 2.89042 0.5 4.08333V11.0833C0.5 12.6916 1.80842 14 3.41667 14H7.9235C6.95108 13.1442 6.33333 11.8942 6.33333 10.5ZM3.41667 4.08333H9.25C9.57258 4.08333 9.83333 4.34467 9.83333 4.66667C9.83333 4.98867 9.57258 5.25 9.25 5.25H3.41667C3.09408 5.25 2.83333 4.98867 2.83333 4.66667C2.83333 4.34467 3.09408 4.08333 3.41667 4.08333ZM5.45833 7.58333H3.41667C3.09408 7.58333 2.83333 7.322 2.83333 7C2.83333 6.678 3.09408 6.41667 3.41667 6.41667H5.45833C5.78092 6.41667 6.04167 6.678 6.04167 7C6.04167 7.322 5.78092 7.58333 5.45833 7.58333Z" fill="#15559F"/>
</svg>
