<svg width="16" height="16" viewBox="0 0 16 16" fill="none" xmlns="http://www.w3.org/2000/svg">
<g clip-path="url(#clip0_202_8726)">
<path d="M12.6667 2H3.33333C2.4496 2.00106 1.60237 2.35259 0.97748 2.97748C0.352588 3.60237 0.00105857 4.4496 0 5.33333H16C15.9989 4.4496 15.6474 3.60237 15.0225 2.97748C14.3976 2.35259 13.5504 2.00106 12.6667 2Z" fill="white"/>
<path d="M0 10.6667C0.00105857 11.5504 0.352588 12.3976 0.97748 13.0225C1.60237 13.6474 2.4496 13.9989 3.33333 14H12.6667C13.5504 13.9989 14.3976 13.6474 15.0225 13.0225C15.6474 12.3976 15.9989 11.5504 16 10.6667V6.66667H0V10.6667ZM4.66667 10.3333C4.66667 10.5311 4.60802 10.7245 4.49814 10.8889C4.38826 11.0534 4.23208 11.1815 4.04935 11.2572C3.86662 11.3329 3.66556 11.3527 3.47158 11.3141C3.2776 11.2755 3.09941 11.1803 2.95956 11.0404C2.81971 10.9006 2.72447 10.7224 2.68588 10.5284C2.6473 10.3344 2.6671 10.1334 2.74279 9.95065C2.81847 9.76793 2.94665 9.61175 3.1111 9.50187C3.27555 9.39198 3.46889 9.33333 3.66667 9.33333C3.93188 9.33333 4.18624 9.43869 4.37377 9.62623C4.56131 9.81376 4.66667 10.0681 4.66667 10.3333Z" fill="white"/>
</g>
<defs>
<clipPath id="clip0_202_8726">
<rect width="16" height="16" fill="white"/>
</clipPath>
</defs>
</svg>
