<svg width="14" height="13" viewBox="0 0 14 13" fill="none" xmlns="http://www.w3.org/2000/svg">
<g clip-path="url(#clip0_48_5288)">
<path d="M8.24714 4.68227C8.50281 4.83827 8.58297 5.1714 8.42697 5.42707C8.26989 5.68436 7.93352 5.76127 7.68218 5.6069C7.27268 5.35611 6.72777 5.35611 6.31827 5.6069C6.0626 5.7629 5.72947 5.68273 5.57347 5.42707C5.41747 5.1714 5.49764 4.83827 5.75331 4.68227C6.50352 4.22402 7.49693 4.22402 8.24714 4.68227ZM9.45885 4.06152C9.6246 4.06152 9.7871 3.98569 9.89381 3.84323C10.0726 3.60382 10.0227 3.26419 9.78276 3.08598C8.9746 2.48419 8.01206 2.16623 7.00022 2.16623C5.98839 2.16623 5.02585 2.48419 4.21768 3.08598C3.97772 3.26419 3.92789 3.60382 4.10664 3.84323C4.28485 4.08265 4.62393 4.13357 4.86389 3.95427C6.10485 3.03182 7.89506 3.03182 9.13602 3.95427C9.23297 4.02686 9.34672 4.06152 9.45885 4.06152ZM3.48806 2.31682C4.47714 1.52057 5.7246 1.08236 7.00022 1.08236C8.27585 1.08236 9.52331 1.52111 10.5124 2.31682C10.7442 2.50369 11.0855 2.46794 11.274 2.23448C11.4614 2.00102 11.4246 1.66032 11.1916 1.4729C10.0113 0.522815 8.52231 -0.000976562 7.00022 -0.000976562C5.47814 -0.000976562 3.9891 0.522815 2.80881 1.4729C2.57535 1.66086 2.53906 2.00156 2.72647 2.23448C2.91443 2.46686 3.2546 2.50423 3.48806 2.31682ZM13.5002 10.0199V11.1032C13.5002 12.1502 12.6514 12.999 11.6044 12.999H2.39606C1.34902 12.999 0.500223 12.1502 0.500223 11.1032V10.0199C0.500223 8.97282 1.34902 8.12402 2.39606 8.12402H3.20043L0.58689 4.08482C0.42439 3.83348 0.496432 3.49873 0.747765 3.33569C0.999098 3.17319 1.33439 3.24523 1.49689 3.49657L4.47606 8.10073C4.48093 8.10777 4.48093 8.11644 4.48527 8.12402H9.51518C9.51952 8.11644 9.51952 8.10832 9.52439 8.10073L12.5036 3.49657C12.6661 3.24523 13.0013 3.17319 13.2527 3.33569C13.504 3.49873 13.5761 3.83348 13.4136 4.08482L10.8 8.12402H11.6044C12.6514 8.12402 13.5002 8.97282 13.5002 10.0199ZM3.75022 10.5615C3.75022 10.113 3.38622 9.74902 2.93772 9.74902C2.48922 9.74902 2.12522 10.113 2.12522 10.5615C2.12522 11.01 2.48922 11.374 2.93772 11.374C3.38622 11.374 3.75022 11.01 3.75022 10.5615ZM5.91689 10.5615C5.91689 10.113 5.55289 9.74902 5.10439 9.74902C4.65589 9.74902 4.29189 10.113 4.29189 10.5615C4.29189 11.01 4.65589 11.374 5.10439 11.374C5.55289 11.374 5.91689 11.01 5.91689 10.5615Z" fill="white"/>
</g>
<defs>
<clipPath id="clip0_48_5288">
<rect width="13" height="13" fill="white" transform="translate(0.5)"/>
</clipPath>
</defs>
</svg>
